<?xml version="1.0" encoding="UTF-8"?>
<svg id="_レイヤー_1" data-name="レイヤー_1" xmlns="http://www.w3.org/2000/svg" version="1.1" viewBox="0 0 900 350">
  <!-- Generator: Adobe Illustrator 29.2.1, SVG Export Plug-In . SVG Version: 2.1.0 Build 116)  -->
  <g>
    <g display="none">
      <rect x="211.3" y="262.9" width="21" height="46.8" fill="#eee" stroke="#bbb" stroke-width=".5"/>
    </g>
    <g display="none">
      <rect x="302.6" y="164.1" width="21" height="32.7" fill="#eee" stroke="#bbb" stroke-width=".5"/>
    </g>
    <g display="none">
      <rect x="302.6" y="192.8" width="21" height="40" fill="#eee" stroke="#bbb" stroke-width=".5"/>
    </g>
    <g display="none">
      <rect x="302.6" y="249.7" width="21" height="31.8" fill="#eee" stroke="#bbb" stroke-width=".5"/>
    </g>
    <g display="none">
      <rect x="302.6" y="262.9" width="21" height="46.8" fill="#eee" stroke="#bbb" stroke-width=".5"/>
    </g>
    <g display="none">
      <rect x="393.9" y="247.6" width="21" height="32" fill="#eee" stroke="#bbb" stroke-width=".5"/>
    </g>
    <g display="none">
      <rect x="393.9" y="262.9" width="21" height="46.8" fill="#eee" stroke="#bbb" stroke-width=".5"/>
    </g>
    <g display="none">
      <rect x="485.1" y="262.9" width="21" height="46.8" fill="#eee" stroke="#bbb" stroke-width=".5"/>
    </g>
    <g display="none">
      <rect x="576.4" y="262.9" width="21" height="46.8" fill="#eee" stroke="#bbb" stroke-width=".5"/>
    </g>
    <g display="none">
      <rect x="667.7" y="267.6" width="21" height="37.5" fill="#eee" stroke="#bbb" stroke-width=".5"/>
    </g>
    <g>
      <rect x="759" y="84.7" width="21" height="112.5" fill="#eee" stroke="#bbb" stroke-width=".5"/>
      <text transform="translate(759 79.7)" fill="#999" font-family="Helvetica, Helvetica" font-size="12" isolation="isolate"><tspan x="0" y="0">Stock</tspan></text>
    </g>
    <g display="none">
      <rect x="759" y="271.3" width="21" height="30" fill="#eee" stroke="#bbb" stroke-width=".5"/>
    </g>
  </g>
  <g>
    <g opacity=".8">
      <path d="M131,42.7c13.7,0,26.8,5.8,35.9,16l32.8,36.4c5.5,6.1,13.3,9.6,21.6,9.6h0c-8.2,0-16.1-3.5-21.6-9.6l-32.8-36.4c-9.2-10.2-22.2-16-35.9-16Z" fill="#fcc5c0"/>
    </g>
    <g opacity=".8">
      <path d="M131,69c8.2,0,15.8,4.6,19.6,11.9l45.9,88.7c4.8,9.3,14.4,15.1,24.8,15.1h0c-10.4,0-20-5.8-24.8-15.1l-45.9-88.7c-3.8-7.3-11.3-11.9-19.6-11.9Z" fill="#fcc5c0"/>
    </g>
    <g opacity=".8">
      <path d="M131,69c8.2,0,15.8,4.6,19.6,11.9l45.9,88.7c4.8,9.3,14.4,15.1,24.8,15.1h0c-10.4,0-20-5.8-24.8-15.1l-45.9-88.7c-3.8-7.3-11.3-11.9-19.6-11.9Z" fill="#d9d9d9"/>
    </g>
    <g opacity=".8">
      <path d="M131,248.8c7.4,0,14.4-2.8,19.8-7.9l50.7-48.3c5.3-5.1,12.4-7.9,19.8-7.9h0c-7.4,0-14.4,2.8-19.8,7.9l-50.7,48.3c-5.3,5.1-12.4,7.9-19.8,7.9Z" fill="#2b8cbe"/>
    </g>
    <g opacity=".8">
      <path d="M131,248.8c7.4,0,14.4-2.8,19.8-7.9l50.7-48.3c5.3-5.1,12.4-7.9,19.8-7.9h0c-7.4,0-14.4,2.8-19.8,7.9l-50.7,48.3c-5.3,5.1-12.4,7.9-19.8,7.9Z" fill="#fcc5c0"/>
    </g>
    <g opacity=".8">
      <path d="M131,248.8c7.4,0,14.4-2.8,19.8-7.9l50.7-48.3c5.3-5.1,12.4-7.9,19.8-7.9h0c-7.4,0-14.4,2.8-19.8,7.9l-50.7,48.3c-5.3,5.1-12.4,7.9-19.8,7.9Z" fill="#4eb3d3"/>
    </g>
    <g opacity=".8">
      <path d="M131,248.8c7.4,0,14.4-2.8,19.8-7.9l50.7-48.3c5.3-5.1,12.4-7.9,19.8-7.9h0c-7.4,0-14.4,2.8-19.8,7.9l-50.7,48.3c-5.3,5.1-12.4,7.9-19.8,7.9Z" fill="#7bccc4"/>
    </g>
    <g opacity=".8">
      <path d="M131,248.8c7.4,0,14.4-2.8,19.8-7.9l50.7-48.3c5.3-5.1,12.4-7.9,19.8-7.9h0c-7.4,0-14.4,2.8-19.8,7.9l-50.7,48.3c-5.3,5.1-12.4,7.9-19.8,7.9Z" fill="#d9d9d9"/>
    </g>
    <g opacity=".8">
      <path d="M131,248.8c7.4,0,14.4-2.8,19.8-7.9l50.7-48.3c5.3-5.1,12.4-7.9,19.8-7.9h0c-7.4,0-14.4,2.8-19.8,7.9l-50.7,48.3c-5.3,5.1-12.4,7.9-19.8,7.9Z" fill="#a8ddb5"/>
    </g>
    <g opacity=".8">
      <path d="M131,248.8c7.4,0,14.4-2.8,19.8-7.9l50.7-48.3c5.3-5.1,12.4-7.9,19.8-7.9h0c-7.4,0-14.4,2.8-19.8,7.9l-50.7,48.3c-5.3,5.1-12.4,7.9-19.8,7.9Z" fill="#525252"/>
    </g>
    <g opacity=".8">
      <path d="M131,248.8c7.4,0,14.4-2.8,19.8-7.9l50.7-48.3c5.3-5.1,12.4-7.9,19.8-7.9h0c-7.4,0-14.4,2.8-19.8,7.9l-50.7,48.3c-5.3,5.1-12.4,7.9-19.8,7.9Z" fill="#0868ac"/>
    </g>
    <g opacity=".8">
      <path d="M131,248.8c10.5,0,20-5.9,24.7-15.2l40.8-81c4.7-9.3,14.3-15.2,24.7-15.2h0c-10.5,0-20,5.9-24.7,15.2l-40.8,81c-4.7,9.3-14.3,15.2-24.7,15.2Z" fill="#2b8cbe"/>
    </g>
    <g opacity=".8">
      <path d="M131,248.8c10.5,0,20-5.9,24.7-15.2l40.8-81c4.7-9.3,14.3-15.2,24.7-15.2h0c-10.5,0-20,5.9-24.7,15.2l-40.8,81c-4.7,9.3-14.3,15.2-24.7,15.2Z" fill="#a79277"/>
    </g>
    <g opacity=".8">
      <path d="M131,248.8c10.5,0,20-5.9,24.7-15.2l40.8-81c4.7-9.3,14.3-15.2,24.7-15.2h0c-10.5,0-20,5.9-24.7,15.2l-40.8,81c-4.7,9.3-14.3,15.2-24.7,15.2Z" fill="#4eb3d3"/>
    </g>
    <g opacity=".8">
      <path d="M131,248.8c10.5,0,20-5.9,24.7-15.2l40.8-81c4.7-9.3,14.3-15.2,24.7-15.2h0c-10.5,0-20,5.9-24.7,15.2l-40.8,81c-4.7,9.3-14.3,15.2-24.7,15.2Z" fill="#7bccc4"/>
    </g>
    <g opacity=".8">
      <path d="M131,248.8c10.5,0,20-5.9,24.7-15.2l40.8-81c4.7-9.3,14.3-15.2,24.7-15.2h0c-10.5,0-20,5.9-24.7,15.2l-40.8,81c-4.7,9.3-14.3,15.2-24.7,15.2Z" fill="#e0f3db"/>
    </g>
    <g opacity=".8">
      <path d="M131,248.8c10.5,0,20-5.9,24.7-15.2l40.8-81c4.7-9.3,14.3-15.2,24.7-15.2h0c-10.5,0-20,5.9-24.7,15.2l-40.8,81c-4.7,9.3-14.3,15.2-24.7,15.2Z" fill="#a8ddb5"/>
    </g>
    <g opacity=".8">
      <path d="M131,248.8c10.5,0,20-5.9,24.7-15.2l40.8-81c4.7-9.3,14.3-15.2,24.7-15.2h0c-10.5,0-20,5.9-24.7,15.2l-40.8,81c-4.7,9.3-14.3,15.2-24.7,15.2Z" fill="#ccebc5"/>
    </g>
    <g opacity=".8">
      <path d="M131,248.8c10.5,0,20-5.9,24.7-15.2l40.8-81c4.7-9.3,14.3-15.2,24.7-15.2h0c-10.5,0-20,5.9-24.7,15.2l-40.8,81c-4.7,9.3-14.3,15.2-24.7,15.2Z" fill="#ead8c0"/>
    </g>
    <g opacity=".8">
      <path d="M131,248.8c10.5,0,20-5.9,24.7-15.2l40.8-81c4.7-9.3,14.3-15.2,24.7-15.2h0c-10.5,0-20,5.9-24.7,15.2l-40.8,81c-4.7,9.3-14.3,15.2-24.7,15.2Z" fill="#fff2e1"/>
    </g>
    <g opacity=".8">
      <path d="M131,248.8c10.5,0,20-5.9,24.7-15.2l40.8-81c4.7-9.3,14.3-15.2,24.7-15.2h0c-10.5,0-20,5.9-24.7,15.2l-40.8,81c-4.7,9.3-14.3,15.2-24.7,15.2Z" fill="#0868ac"/>
    </g>
    <g opacity=".8">
      <path d="M131,248.8c10.5,0,20-5.9,24.7-15.2l40.8-81c4.7-9.3,14.3-15.2,24.7-15.2h0c-10.5,0-20,5.9-24.7,15.2l-40.8,81c-4.7,9.3-14.3,15.2-24.7,15.2Z" fill="#d9d9d9"/>
    </g>
    <g opacity=".8">
      <path d="M131,248.8c10.5,0,20-5.9,24.7-15.2l40.8-81c4.7-9.3,14.3-15.2,24.7-15.2h0c-10.5,0-20,5.9-24.7,15.2l-40.8,81c-4.7,9.3-14.3,15.2-24.7,15.2Z" fill="#d1bb9e"/>
    </g>
    <g opacity=".8">
      <path d="M222.3,55.8c6.6,0,13.1,2,18.5,5.8l53.2,37.2c5.4,3.8,11.9,5.8,18.5,5.8h0c-6.6,0-13.1-2-18.5-5.8l-53.2-37.2c-5.4-3.8-11.9-5.8-18.5-5.8Z" fill="#fcc5c0"/>
    </g>
    <g opacity=".8">
      <path d="M222.3,55.8c6.6,0,13.1,2,18.5,5.8l53.2,37.2c5.4,3.8,11.9,5.8,18.5,5.8h0c-6.6,0-13.1-2-18.5-5.8l-53.2-37.2c-5.4-3.8-11.9-5.8-18.5-5.8Z" fill="#0868ac"/>
    </g>
    <g opacity=".8">
      <path d="M222.3,55.8c8.2,0,16.1,3.7,21.2,10.1l47.8,59.2c5.2,6.4,13,10.1,21.2,10.1h0c-8.2,0-16.1-3.7-21.2-10.1l-47.8-59.2c-5.2-6.4-13-10.1-21.2-10.1Z" fill="#fcc5c0"/>
    </g>
    <g opacity=".8">
      <path d="M222.3,55.8c8.2,0,16.1,3.7,21.2,10.1l47.8,59.2c5.2,6.4,13,10.1,21.2,10.1h0c-8.2,0-16.1-3.7-21.2-10.1l-47.8-59.2c-5.2-6.4-13-10.1-21.2-10.1Z" fill="#4eb3d3"/>
    </g>
    <g opacity=".8">
      <path d="M222.3,137.4c17.2,0,31.8,12.6,34.4,29.6l18.9,126.7c2.7,18.3,18.5,31.9,37,31.9h0c-18.5,0-34.3-13.6-37-31.9l-18.9-126.7c-2.5-17-17.1-29.6-34.4-29.6Z" fill="#525252"/>
    </g>
    <g opacity=".8">
      <path d="M222.3,132c9.1,0,17.9,3.1,25.1,8.8l45.7,36.5c5.5,4.4,12.4,6.8,19.5,6.8h0c-7.1,0-14-2.4-19.5-6.8l-45.7-36.5c-7.1-5.7-16-8.8-25.1-8.8Z" fill="#d9d9d9"/>
    </g>
    <g opacity=".8">
      <path d="M222.3,132c9.1,0,17.9,3.1,25.1,8.8l45.7,36.5c5.5,4.4,12.4,6.8,19.5,6.8h0c-7.1,0-14-2.4-19.5-6.8l-45.7-36.5c-7.1-5.7-16-8.8-25.1-8.8Z" fill="#525252"/>
    </g>
    <g opacity=".8">
      <path d="M222.3,132c9.1,0,17.9,3.1,25.1,8.8l45.7,36.5c5.5,4.4,12.4,6.8,19.5,6.8h0c-7.1,0-14-2.4-19.5-6.8l-45.7-36.5c-7.1-5.7-16-8.8-25.1-8.8Z" fill="#f0f0f0"/>
    </g>
    <g opacity=".8">
      <path d="M222.3,197.4c7,0,13.9,2.3,19.5,6.5l52,38.7c5.4,4.1,12,6.2,18.8,6.2h0c-6.8,0-13.4-2.2-18.8-6.2l-52-38.7c-5.6-4.2-12.5-6.5-19.5-6.5Z" fill="#d9d9d9"/>
    </g>
    <g opacity=".8">
      <path d="M222.3,248.8c9,0,17.4-4.5,22.4-11.9l45.4-67c5-7.4,13.4-11.9,22.4-11.9h0c-9,0-17.4,4.5-22.4,11.9l-45.4,67c-5,7.4-13.4,11.9-22.4,11.9Z" fill="#2b8cbe"/>
    </g>
    <g opacity=".8">
      <path d="M222.3,248.8c9,0,17.4-4.5,22.4-11.9l45.4-67c5-7.4,13.4-11.9,22.4-11.9h0c-9,0-17.4,4.5-22.4,11.9l-45.4,67c-5,7.4-13.4,11.9-22.4,11.9Z" fill="#a79277"/>
    </g>
    <g opacity=".8">
      <path d="M222.3,248.8c9,0,17.4-4.5,22.4-11.9l45.4-67c5-7.4,13.4-11.9,22.4-11.9h0c-9,0-17.4,4.5-22.4,11.9l-45.4,67c-5,7.4-13.4,11.9-22.4,11.9Z" fill="#7bccc4"/>
    </g>
    <g opacity=".8">
      <path d="M222.3,248.8c9,0,17.4-4.5,22.4-11.9l45.4-67c5-7.4,13.4-11.9,22.4-11.9h0c-9,0-17.4,4.5-22.4,11.9l-45.4,67c-5,7.4-13.4,11.9-22.4,11.9Z" fill="#e0f3db"/>
    </g>
    <g opacity=".8">
      <path d="M222.3,248.8c9,0,17.4-4.5,22.4-11.9l45.4-67c5-7.4,13.4-11.9,22.4-11.9h0c-9,0-17.4,4.5-22.4,11.9l-45.4,67c-5,7.4-13.4,11.9-22.4,11.9Z" fill="#a8ddb5"/>
    </g>
    <g opacity=".8">
      <path d="M222.3,248.8c9,0,17.4-4.5,22.4-11.9l45.4-67c5-7.4,13.4-11.9,22.4-11.9h0c-9,0-17.4,4.5-22.4,11.9l-45.4,67c-5,7.4-13.4,11.9-22.4,11.9Z" fill="#ccebc5"/>
    </g>
    <g opacity=".8">
      <path d="M222.3,248.8c9,0,17.4-4.5,22.4-11.9l45.4-67c5-7.4,13.4-11.9,22.4-11.9h0c-9,0-17.4,4.5-22.4,11.9l-45.4,67c-5,7.4-13.4,11.9-22.4,11.9Z" fill="#ead8c0"/>
    </g>
    <g opacity=".8">
      <path d="M222.3,248.8c9,0,17.4-4.5,22.4-11.9l45.4-67c5-7.4,13.4-11.9,22.4-11.9h0c-9,0-17.4,4.5-22.4,11.9l-45.4,67c-5,7.4-13.4,11.9-22.4,11.9Z" fill="#fff2e1"/>
    </g>
    <g opacity=".8">
      <path d="M222.3,248.8c9,0,17.4-4.5,22.4-11.9l45.4-67c5-7.4,13.4-11.9,22.4-11.9h0c-9,0-17.4,4.5-22.4,11.9l-45.4,67c-5,7.4-13.4,11.9-22.4,11.9Z" fill="#0868ac"/>
    </g>
    <g opacity=".8">
      <path d="M222.3,248.8c9,0,17.4-4.5,22.4-11.9l45.4-67c5-7.4,13.4-11.9,22.4-11.9h0c-9,0-17.4,4.5-22.4,11.9l-45.4,67c-5,7.4-13.4,11.9-22.4,11.9Z" fill="#d9d9d9"/>
    </g>
    <g opacity=".8">
      <path d="M222.3,248.8c9,0,17.4-4.5,22.4-11.9l45.4-67c5-7.4,13.4-11.9,22.4-11.9h0c-9,0-17.4,4.5-22.4,11.9l-45.4,67c-5,7.4-13.4,11.9-22.4,11.9Z" fill="#d1bb9e"/>
    </g>
    <g opacity=".8">
      <path d="M222.3,248.8c12.7,0,24-8.1,28.1-20.1l34.1-99.5c4.1-12,15.4-20.1,28.1-20.1h0c-12.7,0-24,8.1-28.1,20.1l-34.1,99.5c-4.1,12-15.4,20.1-28.1,20.1Z" fill="#2b8cbe"/>
    </g>
    <g opacity=".8">
      <path d="M222.3,248.8c12.7,0,24-8.1,28.1-20.1l34.1-99.5c4.1-12,15.4-20.1,28.1-20.1h0c-12.7,0-24,8.1-28.1,20.1l-34.1,99.5c-4.1,12-15.4,20.1-28.1,20.1Z" fill="#a79277"/>
    </g>
    <g opacity=".8">
      <path d="M222.3,248.8c12.7,0,24-8.1,28.1-20.1l34.1-99.5c4.1-12,15.4-20.1,28.1-20.1h0c-12.7,0-24,8.1-28.1,20.1l-34.1,99.5c-4.1,12-15.4,20.1-28.1,20.1Z" fill="#4eb3d3"/>
    </g>
    <g opacity=".8">
      <path d="M222.3,248.8c12.7,0,24-8.1,28.1-20.1l34.1-99.5c4.1-12,15.4-20.1,28.1-20.1h0c-12.7,0-24,8.1-28.1,20.1l-34.1,99.5c-4.1,12-15.4,20.1-28.1,20.1Z" fill="#7bccc4"/>
    </g>
    <g opacity=".8">
      <path d="M222.3,248.8c12.7,0,24-8.1,28.1-20.1l34.1-99.5c4.1-12,15.4-20.1,28.1-20.1h0c-12.7,0-24,8.1-28.1,20.1l-34.1,99.5c-4.1,12-15.4,20.1-28.1,20.1Z" fill="#e0f3db"/>
    </g>
    <g opacity=".8">
      <path d="M222.3,248.8c12.7,0,24-8.1,28.1-20.1l34.1-99.5c4.1-12,15.4-20.1,28.1-20.1h0c-12.7,0-24,8.1-28.1,20.1l-34.1,99.5c-4.1,12-15.4,20.1-28.1,20.1Z" fill="#a8ddb5"/>
    </g>
    <g opacity=".8">
      <path d="M222.3,248.8c12.7,0,24-8.1,28.1-20.1l34.1-99.5c4.1-12,15.4-20.1,28.1-20.1h0c-12.7,0-24,8.1-28.1,20.1l-34.1,99.5c-4.1,12-15.4,20.1-28.1,20.1Z" fill="#ccebc5"/>
    </g>
    <g opacity=".8">
      <path d="M222.3,248.8c12.7,0,24-8.1,28.1-20.1l34.1-99.5c4.1-12,15.4-20.1,28.1-20.1h0c-12.7,0-24,8.1-28.1,20.1l-34.1,99.5c-4.1,12-15.4,20.1-28.1,20.1Z" fill="#ead8c0"/>
    </g>
    <g opacity=".8">
      <path d="M222.3,248.8c12.7,0,24-8.1,28.1-20.1l34.1-99.5c4.1-12,15.4-20.1,28.1-20.1h0c-12.7,0-24,8.1-28.1,20.1l-34.1,99.5c-4.1,12-15.4,20.1-28.1,20.1Z" fill="#fff2e1"/>
    </g>
    <g opacity=".8">
      <path d="M222.3,248.8c12.7,0,24-8.1,28.1-20.1l34.1-99.5c4.1-12,15.4-20.1,28.1-20.1h0c-12.7,0-24,8.1-28.1,20.1l-34.1,99.5c-4.1,12-15.4,20.1-28.1,20.1Z" fill="#d9d9d9"/>
    </g>
    <g opacity=".8">
      <path d="M222.3,248.8c12.7,0,24-8.1,28.1-20.1l34.1-99.5c4.1-12,15.4-20.1,28.1-20.1h0c-12.7,0-24,8.1-28.1,20.1l-34.1,99.5c-4.1,12-15.4,20.1-28.1,20.1Z" fill="#d1bb9e"/>
    </g>
    <g opacity=".8">
      <path d="M222.3,282.9c-7.4,0-13.4-6-13.4-13.4,0,0,0,0,0-.1l-1-71.2c0-7.4,5.9-13.5,13.3-13.5,0,0,0,0,.1,0h0c-7.4,0-13.4,6-13.4,13.4s0,0,0,.1l1,71.2c0,7.4,5.9,13.5,13.3,13.5,0,0,0,0,.1,0Z" fill="#a79277"/>
    </g>
    <g opacity=".8">
      <path d="M222.3,282.9c-7.4,0-13.4-6-13.4-13.4,0,0,0,0,0-.1l-1-71.2c0-7.4,5.9-13.5,13.3-13.5,0,0,0,0,.1,0h0c-7.4,0-13.4,6-13.4,13.4s0,0,0,.1l1,71.2c0,7.4,5.9,13.5,13.3,13.5,0,0,0,0,.1,0Z" fill="#e0f3db"/>
    </g>
    <g opacity=".8">
      <path d="M222.3,299.7c-7.4,0-13.4-6-13.4-13.4,0,0,0,0,0-.1l-1-71.2c0-7.4,5.9-13.5,13.3-13.5,0,0,0,0,.1,0h0c-7.4,0-13.4,6-13.4,13.4,0,0,0,0,0,.1l1,71.2c0,7.4,5.9,13.5,13.3,13.5,0,0,0,0,.1,0Z" fill="#ccebc5"/>
    </g>
    <g opacity=".8">
      <path d="M222.3,299.7c-7.4,0-13.4-6-13.4-13.4,0,0,0,0,0-.1l-1-71.2c0-7.4,5.9-13.5,13.3-13.5,0,0,0,0,.1,0h0c-7.4,0-13.4,6-13.4,13.4,0,0,0,0,0,.1l1,71.2c0,7.4,5.9,13.5,13.3,13.5,0,0,0,0,.1,0Z" fill="#ead8c0"/>
    </g>
    <g opacity=".8">
      <path d="M222.3,299.7c-7.4,0-13.4-6-13.4-13.4,0,0,0,0,0-.1l-1-71.2c0-7.4,5.9-13.5,13.3-13.5,0,0,0,0,.1,0h0c-7.4,0-13.4,6-13.4,13.4,0,0,0,0,0,.1l1,71.2c0,7.4,5.9,13.5,13.3,13.5,0,0,0,0,.1,0Z" fill="#fff2e1"/>
    </g>
    <g opacity=".8">
      <path d="M222.3,299.7c-7.4,0-13.4-6-13.4-13.4,0,0,0,0,0-.1l-1-71.2c0-7.4,5.9-13.5,13.3-13.5,0,0,0,0,.1,0h0c-7.4,0-13.4,6-13.4,13.4,0,0,0,0,0,.1l1,71.2c0,7.4,5.9,13.5,13.3,13.5,0,0,0,0,.1,0Z" fill="#d1bb9e"/>
    </g>
    <g opacity=".8">
      <path d="M313.6,108.8c19.6,0,36,14.9,38,34.4l14.5,146.5c1.9,19.4,18.3,34.2,37.8,34.2h0c-19.5,0-35.8-14.8-37.8-34.2l-14.5-146.5c-1.9-19.5-18.4-34.4-38-34.4Z" fill="#fcc5c0"/>
    </g>
    <g opacity=".8">
      <path d="M313.6,108.7c9,0,17.7,3.2,24.6,9l46,38.8c5.5,4.6,12.5,7.2,19.7,7.2h0c-7.2,0-14.2-2.5-19.7-7.2l-46-38.8c-6.9-5.8-15.6-9-24.6-9Z" fill="#d9d9d9"/>
    </g>
    <g opacity=".8">
      <path d="M313.6,108.7c9,0,17.7,3.2,24.6,9l46,38.8c5.5,4.6,12.5,7.2,19.7,7.2h0c-7.2,0-14.2-2.5-19.7-7.2l-46-38.8c-6.9-5.8-15.6-9-24.6-9Z" fill="#0868ac"/>
    </g>
    <g opacity=".8">
      <path d="M313.6,158c15.5,0,28.8,11,31.7,26.2l20.9,108.9c3.5,18.1,19.3,31.2,37.7,31.2h0c-18.4,0-34.2-13.1-37.7-31.2l-20.9-108.9c-2.9-15.2-16.2-26.2-31.7-26.2Z" fill="#fcc5c0"/>
    </g>
    <g opacity=".8">
      <path d="M313.6,158c15.5,0,28.8,11,31.7,26.2l20.9,108.9c3.5,18.1,19.3,31.2,37.7,31.2h0c-18.4,0-34.2-13.1-37.7-31.2l-20.9-108.9c-2.9-15.2-16.2-26.2-31.7-26.2Z" fill="#4eb3d3"/>
    </g>
    <g opacity=".8">
      <path d="M313.6,157.9c11.1,0,21.5,5.7,27.4,15.1l40,63.2c5,7.9,13.6,12.6,22.9,12.6h0c-9.3,0-17.9-4.8-22.9-12.6l-40-63.2c-5.9-9.4-16.3-15.1-27.4-15.1Z" fill="#4eb3d3"/>
    </g>
    <g opacity=".8">
      <path d="M313.6,157.9c11.1,0,21.5,5.7,27.4,15.1l40,63.2c5,7.9,13.6,12.6,22.9,12.6h0c-9.3,0-17.9-4.8-22.9-12.6l-40-63.2c-5.9-9.4-16.3-15.1-27.4-15.1Z" fill="#d9d9d9"/>
    </g>
    <g opacity=".8">
      <path d="M313.6,212.8c9.7,0,18.7-5.2,23.6-13.6l43.1-74.3c4.9-8.4,13.9-13.6,23.6-13.6h0c-9.7,0-18.7,5.2-23.6,13.6l-43.1,74.3c-4.9,8.4-13.9,13.6-23.6,13.6Z" fill="#2b8cbe"/>
    </g>
    <g opacity=".8">
      <path d="M313.6,212.8c9.7,0,18.7-5.2,23.6-13.6l43.1-74.3c4.9-8.4,13.9-13.6,23.6-13.6h0c-9.7,0-18.7,5.2-23.6,13.6l-43.1,74.3c-4.9,8.4-13.9,13.6-23.6,13.6Z" fill="#fcc5c0"/>
    </g>
    <g opacity=".8">
      <path d="M313.6,212.8c9.7,0,18.7-5.2,23.6-13.6l43.1-74.3c4.9-8.4,13.9-13.6,23.6-13.6h0c-9.7,0-18.7,5.2-23.6,13.6l-43.1,74.3c-4.9,8.4-13.9,13.6-23.6,13.6Z" fill="#a79277"/>
    </g>
    <g opacity=".8">
      <path d="M313.6,212.8c9.7,0,18.7-5.2,23.6-13.6l43.1-74.3c4.9-8.4,13.9-13.6,23.6-13.6h0c-9.7,0-18.7,5.2-23.6,13.6l-43.1,74.3c-4.9,8.4-13.9,13.6-23.6,13.6Z" fill="#4eb3d3"/>
    </g>
    <g opacity=".8">
      <path d="M313.6,212.8c9.7,0,18.7-5.2,23.6-13.6l43.1-74.3c4.9-8.4,13.9-13.6,23.6-13.6h0c-9.7,0-18.7,5.2-23.6,13.6l-43.1,74.3c-4.9,8.4-13.9,13.6-23.6,13.6Z" fill="#7bccc4"/>
    </g>
    <g opacity=".8">
      <path d="M313.6,212.8c9.7,0,18.7-5.2,23.6-13.6l43.1-74.3c4.9-8.4,13.9-13.6,23.6-13.6h0c-9.7,0-18.7,5.2-23.6,13.6l-43.1,74.3c-4.9,8.4-13.9,13.6-23.6,13.6Z" fill="#e0f3db"/>
    </g>
    <g opacity=".8">
      <path d="M313.6,212.8c9.7,0,18.7-5.2,23.6-13.6l43.1-74.3c4.9-8.4,13.9-13.6,23.6-13.6h0c-9.7,0-18.7,5.2-23.6,13.6l-43.1,74.3c-4.9,8.4-13.9,13.6-23.6,13.6Z" fill="#a8ddb5"/>
    </g>
    <g opacity=".8">
      <path d="M313.6,212.8c9.7,0,18.7-5.2,23.6-13.6l43.1-74.3c4.9-8.4,13.9-13.6,23.6-13.6h0c-9.7,0-18.7,5.2-23.6,13.6l-43.1,74.3c-4.9,8.4-13.9,13.6-23.6,13.6Z" fill="#525252"/>
    </g>
    <g opacity=".8">
      <path d="M313.6,212.8c9.7,0,18.7-5.2,23.6-13.6l43.1-74.3c4.9-8.4,13.9-13.6,23.6-13.6h0c-9.7,0-18.7,5.2-23.6,13.6l-43.1,74.3c-4.9,8.4-13.9,13.6-23.6,13.6Z" fill="#ccebc5"/>
    </g>
    <g opacity=".8">
      <path d="M313.6,212.8c9.7,0,18.7-5.2,23.6-13.6l43.1-74.3c4.9-8.4,13.9-13.6,23.6-13.6h0c-9.7,0-18.7,5.2-23.6,13.6l-43.1,74.3c-4.9,8.4-13.9,13.6-23.6,13.6Z" fill="#ead8c0"/>
    </g>
    <g opacity=".8">
      <path d="M313.6,212.8c9.7,0,18.7-5.2,23.6-13.6l43.1-74.3c4.9-8.4,13.9-13.6,23.6-13.6h0c-9.7,0-18.7,5.2-23.6,13.6l-43.1,74.3c-4.9,8.4-13.9,13.6-23.6,13.6Z" fill="#fff2e1"/>
    </g>
    <g opacity=".8">
      <path d="M313.6,212.8c9.7,0,18.7-5.2,23.6-13.6l43.1-74.3c4.9-8.4,13.9-13.6,23.6-13.6h0c-9.7,0-18.7,5.2-23.6,13.6l-43.1,74.3c-4.9,8.4-13.9,13.6-23.6,13.6Z" fill="#d1bb9e"/>
    </g>
    <g opacity=".8">
      <path d="M313.6,248.8c6.8,0,13.4-2.2,18.8-6.3l52.7-39.8c5.4-4.1,12-6.3,18.8-6.3h0c-6.8,0-13.4,2.2-18.8,6.3l-52.7,39.8c-5.4,4.1-12,6.3-18.8,6.3Z" fill="#2b8cbe"/>
    </g>
    <g opacity=".8">
      <path d="M313.6,248.8c6.8,0,13.4-2.2,18.8-6.3l52.7-39.8c5.4-4.1,12-6.3,18.8-6.3h0c-6.8,0-13.4,2.2-18.8,6.3l-52.7,39.8c-5.4,4.1-12,6.3-18.8,6.3Z" fill="#fcc5c0"/>
    </g>
    <g opacity=".8">
      <path d="M313.6,248.8c6.8,0,13.4-2.2,18.8-6.3l52.7-39.8c5.4-4.1,12-6.3,18.8-6.3h0c-6.8,0-13.4,2.2-18.8,6.3l-52.7,39.8c-5.4,4.1-12,6.3-18.8,6.3Z" fill="#a79277"/>
    </g>
    <g opacity=".8">
      <path d="M313.6,248.8c6.8,0,13.4-2.2,18.8-6.3l52.7-39.8c5.4-4.1,12-6.3,18.8-6.3h0c-6.8,0-13.4,2.2-18.8,6.3l-52.7,39.8c-5.4,4.1-12,6.3-18.8,6.3Z" fill="#7bccc4"/>
    </g>
    <g opacity=".8">
      <path d="M313.6,248.8c6.8,0,13.4-2.2,18.8-6.3l52.7-39.8c5.4-4.1,12-6.3,18.8-6.3h0c-6.8,0-13.4,2.2-18.8,6.3l-52.7,39.8c-5.4,4.1-12,6.3-18.8,6.3Z" fill="#e0f3db"/>
    </g>
    <g opacity=".8">
      <path d="M313.6,248.8c6.8,0,13.4-2.2,18.8-6.3l52.7-39.8c5.4-4.1,12-6.3,18.8-6.3h0c-6.8,0-13.4,2.2-18.8,6.3l-52.7,39.8c-5.4,4.1-12,6.3-18.8,6.3Z" fill="#a8ddb5"/>
    </g>
    <g opacity=".8">
      <path d="M313.6,248.8c6.8,0,13.4-2.2,18.8-6.3l52.7-39.8c5.4-4.1,12-6.3,18.8-6.3h0c-6.8,0-13.4,2.2-18.8,6.3l-52.7,39.8c-5.4,4.1-12,6.3-18.8,6.3Z" fill="#525252"/>
    </g>
    <g opacity=".8">
      <path d="M313.6,248.8c6.8,0,13.4-2.2,18.8-6.3l52.7-39.8c5.4-4.1,12-6.3,18.8-6.3h0c-6.8,0-13.4,2.2-18.8,6.3l-52.7,39.8c-5.4,4.1-12,6.3-18.8,6.3Z" fill="#ccebc5"/>
    </g>
    <g opacity=".8">
      <path d="M313.6,248.8c6.8,0,13.4-2.2,18.8-6.3l52.7-39.8c5.4-4.1,12-6.3,18.8-6.3h0c-6.8,0-13.4,2.2-18.8,6.3l-52.7,39.8c-5.4,4.1-12,6.3-18.8,6.3Z" fill="#ead8c0"/>
    </g>
    <g opacity=".8">
      <path d="M313.6,248.8c6.8,0,13.4-2.2,18.8-6.3l52.7-39.8c5.4-4.1,12-6.3,18.8-6.3h0c-6.8,0-13.4,2.2-18.8,6.3l-52.7,39.8c-5.4,4.1-12,6.3-18.8,6.3Z" fill="#fff2e1"/>
    </g>
    <g opacity=".8">
      <path d="M313.6,248.8c6.8,0,13.4-2.2,18.8-6.3l52.7-39.8c5.4-4.1,12-6.3,18.8-6.3h0c-6.8,0-13.4,2.2-18.8,6.3l-52.7,39.8c-5.4,4.1-12,6.3-18.8,6.3Z" fill="#d1bb9e"/>
    </g>
    <g opacity=".8">
      <path d="M221.3,282.9h92.3-92.3Z" fill="#a79277"/>
    </g>
    <g opacity=".8">
      <path d="M221.3,282.9h92.3-92.3Z" fill="#e0f3db"/>
    </g>
    <g opacity=".8">
      <path d="M221.3,299.7h92.3-92.3Z" fill="#ccebc5"/>
    </g>
    <g opacity=".8">
      <path d="M221.3,299.7h92.3-92.3Z" fill="#ead8c0"/>
    </g>
    <g opacity=".8">
      <path d="M221.3,299.7h92.3-92.3Z" fill="#fff2e1"/>
    </g>
    <g opacity=".8">
      <path d="M221.3,299.7h92.3-92.3Z" fill="#d1bb9e"/>
    </g>
    <g opacity=".8">
      <path d="M404.9,48c9.2,0,18,3.3,24.9,9.4l45.5,39.8c5.5,4.8,12.5,7.4,19.8,7.4h0c-7.3,0-14.3-2.6-19.8-7.4l-45.5-39.8c-6.9-6-15.8-9.4-24.9-9.4Z" fill="#fcc5c0"/>
    </g>
    <g opacity=".8">
      <path d="M404.9,104.7c5.6,0,11.3.6,16.8,1.8l56.7,12c5.5,1.2,11.2,1.8,16.8,1.8h0c-5.6,0-11.3-.6-16.8-1.8l-56.7-12c-5.5-1.2-11.2-1.8-16.8-1.8Z" fill="#a79277"/>
    </g>
    <g opacity=".8">
      <path d="M404.9,104.7c5.6,0,11.3.6,16.8,1.8l56.7,12c5.5,1.2,11.2,1.8,16.8,1.8h0c-5.6,0-11.3-.6-16.8-1.8l-56.7-12c-5.5-1.2-11.2-1.8-16.8-1.8Z" fill="#4eb3d3"/>
    </g>
    <g opacity=".8">
      <path d="M404.9,104.7c5.6,0,11.3.6,16.8,1.8l56.7,12c5.5,1.2,11.2,1.8,16.8,1.8h0c-5.6,0-11.3-.6-16.8-1.8l-56.7-12c-5.5-1.2-11.2-1.8-16.8-1.8Z" fill="#e0f3db"/>
    </g>
    <g opacity=".8">
      <path d="M404.9,104.7c5.6,0,11.3.6,16.8,1.8l56.7,12c5.5,1.2,11.2,1.8,16.8,1.8h0c-5.6,0-11.3-.6-16.8-1.8l-56.7-12c-5.5-1.2-11.2-1.8-16.8-1.8Z" fill="#525252"/>
    </g>
    <g opacity=".8">
      <path d="M404.9,104.7c5.6,0,11.3.6,16.8,1.8l56.7,12c5.5,1.2,11.2,1.8,16.8,1.8h0c-5.6,0-11.3-.6-16.8-1.8l-56.7-12c-5.5-1.2-11.2-1.8-16.8-1.8Z" fill="#ccebc5"/>
    </g>
    <g opacity=".8">
      <path d="M404.9,104.7c5.6,0,11.3.6,16.8,1.8l56.7,12c5.5,1.2,11.2,1.8,16.8,1.8h0c-5.6,0-11.3-.6-16.8-1.8l-56.7-12c-5.5-1.2-11.2-1.8-16.8-1.8Z" fill="#ead8c0"/>
    </g>
    <g opacity=".8">
      <path d="M404.9,104.7c5.6,0,11.3.6,16.8,1.8l56.7,12c5.5,1.2,11.2,1.8,16.8,1.8h0c-5.6,0-11.3-.6-16.8-1.8l-56.7-12c-5.5-1.2-11.2-1.8-16.8-1.8Z" fill="#fff2e1"/>
    </g>
    <g opacity=".8">
      <path d="M404.9,104.7c5.6,0,11.3.6,16.8,1.8l56.7,12c5.5,1.2,11.2,1.8,16.8,1.8h0c-5.6,0-11.3-.6-16.8-1.8l-56.7-12c-5.5-1.2-11.2-1.8-16.8-1.8Z" fill="#0868ac"/>
    </g>
    <g opacity=".8">
      <path d="M404.9,104.7c5.6,0,11.3.6,16.8,1.8l56.7,12c5.5,1.2,11.2,1.8,16.8,1.8h0c-5.6,0-11.3-.6-16.8-1.8l-56.7-12c-5.5-1.2-11.2-1.8-16.8-1.8Z" fill="#d9d9d9"/>
    </g>
    <g opacity=".8">
      <path d="M404.9,104.7c5.6,0,11.3.6,16.8,1.8l56.7,12c5.5,1.2,11.2,1.8,16.8,1.8h0c-5.6,0-11.3-.6-16.8-1.8l-56.7-12c-5.5-1.2-11.2-1.8-16.8-1.8Z" fill="#d1bb9e"/>
    </g>
    <g opacity=".8">
      <path d="M404.9,110.9c13.6,0,25.7,8.7,30,21.6l32.3,96.2c4,12,15.3,20.1,28,20.1h0c-12.7,0-24-8.1-28-20.1l-32.3-96.2c-4.3-12.9-16.4-21.6-30-21.6Z" fill="#2b8cbe"/>
    </g>
    <g opacity=".8">
      <path d="M404.9,110.9c13.6,0,25.7,8.7,30,21.6l32.3,96.2c4,12,15.3,20.1,28,20.1h0c-12.7,0-24-8.1-28-20.1l-32.3-96.2c-4.3-12.9-16.4-21.6-30-21.6Z" fill="#fcc5c0"/>
    </g>
    <g opacity=".8">
      <path d="M404.9,110.9c13.6,0,25.7,8.7,30,21.6l32.3,96.2c4,12,15.3,20.1,28,20.1h0c-12.7,0-24-8.1-28-20.1l-32.3-96.2c-4.3-12.9-16.4-21.6-30-21.6Z" fill="#d9d9d9"/>
    </g>
    <g opacity=".8">
      <path d="M404.9,195c6.9,0,13.5,2.3,18.9,6.5l52.5,40.8c5.4,4.2,12.1,6.5,18.9,6.5h0c-6.9,0-13.5-2.3-18.9-6.5l-52.5-40.8c-5.4-4.2-12.1-6.5-18.9-6.5Z" fill="#fcc5c0"/>
    </g>
    <g opacity=".8">
      <path d="M404.9,195c6.9,0,13.5,2.3,18.9,6.5l52.5,40.8c5.4,4.2,12.1,6.5,18.9,6.5h0c-6.9,0-13.5-2.3-18.9-6.5l-52.5-40.8c-5.4-4.2-12.1-6.5-18.9-6.5Z" fill="#7bccc4"/>
    </g>
    <g opacity=".8">
      <path d="M404.9,195c6.9,0,13.5,2.3,18.9,6.5l52.5,40.8c5.4,4.2,12.1,6.5,18.9,6.5h0c-6.9,0-13.5-2.3-18.9-6.5l-52.5-40.8c-5.4-4.2-12.1-6.5-18.9-6.5Z" fill="#d9d9d9"/>
    </g>
    <g opacity=".8">
      <path d="M404.9,273.7c5.1,0,10.2,0,15.3-.1l59.6-.9c5.1,0,10.2-.1,15.3-.1h0c-5.1,0-10.2,0-15.3.1l-59.6.9c-5.1,0-10.2.1-15.3.1Z" fill="#fcc5c0"/>
    </g>
    <g opacity=".8">
      <path d="M404.9,273.7c5.1,0,10.2,0,15.3-.1l59.6-.9c5.1,0,10.2-.1,15.3-.1h0c-5.1,0-10.2,0-15.3.1l-59.6.9c-5.1,0-10.2.1-15.3.1Z" fill="#f0f0f0"/>
    </g>
    <g opacity=".8">
      <path d="M312.6,282.9h92.3-92.3Z" fill="#a79277"/>
    </g>
    <g opacity=".8">
      <path d="M312.6,282.9h92.3-92.3Z" fill="#e0f3db"/>
    </g>
    <g opacity=".8">
      <path d="M312.6,299.7h92.3-92.3Z" fill="#ccebc5"/>
    </g>
    <g opacity=".8">
      <path d="M312.6,299.7h92.3-92.3Z" fill="#ead8c0"/>
    </g>
    <g opacity=".8">
      <path d="M312.6,299.7h92.3-92.3Z" fill="#fff2e1"/>
    </g>
    <g opacity=".8">
      <path d="M312.6,299.7h92.3-92.3Z" fill="#d1bb9e"/>
    </g>
    <g opacity=".8">
      <path d="M496.1,40.4c13.9,0,27.2,6.1,36.3,16.7l32.3,37.6c5.4,6.3,13.4,10,21.8,10h0c-8.4,0-16.3-3.7-21.8-10l-32.3-37.6c-9.1-10.6-22.3-16.7-36.3-16.7Z" fill="#fcc5c0"/>
    </g>
    <g opacity=".8">
      <path d="M496.1,58.1c12.7,0,24.1,8,28.3,20l34.3,96.5c4.2,11.7,15.3,19.6,27.7,19.6h0c-12.4,0-23.5-7.8-27.7-19.6l-34.3-96.5c-4.3-12-15.6-20-28.3-20Z" fill="#fcc5c0"/>
    </g>
    <g opacity=".8">
      <path d="M496.1,157.8c15,0,28,10.3,31.4,24.9l27.4,116.5c3.4,14.6,16.5,24.9,31.4,24.9h0c-15,0-28-10.3-31.4-24.9l-27.4-116.5c-3.4-14.6-16.5-24.9-31.4-24.9Z" fill="#fcc5c0"/>
    </g>
    <g opacity=".8">
      <path d="M496.1,157.8c15,0,28,10.3,31.4,24.9l27.4,116.5c3.4,14.6,16.5,24.9,31.4,24.9h0c-15,0-28-10.3-31.4-24.9l-27.4-116.5c-3.4-14.6-16.5-24.9-31.4-24.9Z" fill="#a8ddb5"/>
    </g>
    <g opacity=".8">
      <path d="M496.1,157.8c6.2,0,12.2,1.5,17.7,4.2l54.9,27.9c5.5,2.8,11.6,4.2,17.7,4.2h0c-6.2,0-12.2-1.5-17.7-4.2l-54.9-27.9c-5.5-2.8-11.6-4.2-17.7-4.2Z" fill="#d9d9d9"/>
    </g>
    <g opacity=".8">
      <path d="M496.1,157.8c6.2,0,12.2,1.5,17.7,4.2l54.9,27.9c5.5,2.8,11.6,4.2,17.7,4.2h0c-6.2,0-12.2-1.5-17.7-4.2l-54.9-27.9c-5.5-2.8-11.6-4.2-17.7-4.2Z" fill="#a8ddb5"/>
    </g>
    <g opacity=".8">
      <path d="M496.1,157.8c6.2,0,12.2,1.5,17.7,4.2l54.9,27.9c5.5,2.8,11.6,4.2,17.7,4.2h0c-6.2,0-12.2-1.5-17.7-4.2l-54.9-27.9c-5.5-2.8-11.6-4.2-17.7-4.2Z" fill="#f0f0f0"/>
    </g>
    <g opacity=".8">
      <path d="M496.1,248.8c8.6,0,16.7-4.1,21.8-11l46.7-62.9c5.1-6.9,13.2-11,21.8-11h0c-8.6,0-16.7,4.1-21.8,11l-46.7,62.9c-5.1,6.9-13.2,11-21.8,11Z" fill="#2b8cbe"/>
    </g>
    <g opacity=".8">
      <path d="M496.1,248.8c8.6,0,16.7-4.1,21.8-11l46.7-62.9c5.1-6.9,13.2-11,21.8-11h0c-8.6,0-16.7,4.1-21.8,11l-46.7,62.9c-5.1,6.9-13.2,11-21.8,11Z" fill="#a79277"/>
    </g>
    <g opacity=".8">
      <path d="M496.1,248.8c8.6,0,16.7-4.1,21.8-11l46.7-62.9c5.1-6.9,13.2-11,21.8-11h0c-8.6,0-16.7,4.1-21.8,11l-46.7,62.9c-5.1,6.9-13.2,11-21.8,11Z" fill="#4eb3d3"/>
    </g>
    <g opacity=".8">
      <path d="M496.1,248.8c8.6,0,16.7-4.1,21.8-11l46.7-62.9c5.1-6.9,13.2-11,21.8-11h0c-8.6,0-16.7,4.1-21.8,11l-46.7,62.9c-5.1,6.9-13.2,11-21.8,11Z" fill="#7bccc4"/>
    </g>
    <g opacity=".8">
      <path d="M496.1,248.8c8.6,0,16.7-4.1,21.8-11l46.7-62.9c5.1-6.9,13.2-11,21.8-11h0c-8.6,0-16.7,4.1-21.8,11l-46.7,62.9c-5.1,6.9-13.2,11-21.8,11Z" fill="#e0f3db"/>
    </g>
    <g opacity=".8">
      <path d="M496.1,248.8c8.6,0,16.7-4.1,21.8-11l46.7-62.9c5.1-6.9,13.2-11,21.8-11h0c-8.6,0-16.7,4.1-21.8,11l-46.7,62.9c-5.1,6.9-13.2,11-21.8,11Z" fill="#525252"/>
    </g>
    <g opacity=".8">
      <path d="M496.1,248.8c8.6,0,16.7-4.1,21.8-11l46.7-62.9c5.1-6.9,13.2-11,21.8-11h0c-8.6,0-16.7,4.1-21.8,11l-46.7,62.9c-5.1,6.9-13.2,11-21.8,11Z" fill="#ead8c0"/>
    </g>
    <g opacity=".8">
      <path d="M496.1,248.8c8.6,0,16.7-4.1,21.8-11l46.7-62.9c5.1-6.9,13.2-11,21.8-11h0c-8.6,0-16.7,4.1-21.8,11l-46.7,62.9c-5.1,6.9-13.2,11-21.8,11Z" fill="#fff2e1"/>
    </g>
    <g opacity=".8">
      <path d="M496.1,248.8c8.6,0,16.7-4.1,21.8-11l46.7-62.9c5.1-6.9,13.2-11,21.8-11h0c-8.6,0-16.7,4.1-21.8,11l-46.7,62.9c-5.1,6.9-13.2,11-21.8,11Z" fill="#0868ac"/>
    </g>
    <g opacity=".8">
      <path d="M496.1,248.8c8.6,0,16.7-4.1,21.8-11l46.7-62.9c5.1-6.9,13.2-11,21.8-11h0c-8.6,0-16.7,4.1-21.8,11l-46.7,62.9c-5.1,6.9-13.2,11-21.8,11Z" fill="#d9d9d9"/>
    </g>
    <g opacity=".8">
      <path d="M496.1,248.8c8.6,0,16.7-4.1,21.8-11l46.7-62.9c5.1-6.9,13.2-11,21.8-11h0c-8.6,0-16.7,4.1-21.8,11l-46.7,62.9c-5.1,6.9-13.2,11-21.8,11Z" fill="#d1bb9e"/>
    </g>
    <g opacity=".8">
      <path d="M496.1,248.8c6,0,11.9-1.2,17.4-3.5l55.6-23.2c5.5-2.3,11.4-3.5,17.4-3.5h0c-6,0-11.9,1.2-17.4,3.5l-55.6,23.2c-5.5,2.3-11.4,3.5-17.4,3.5Z" fill="#2b8cbe"/>
    </g>
    <g opacity=".8">
      <path d="M496.1,248.8c6,0,11.9-1.2,17.4-3.5l55.6-23.2c5.5-2.3,11.4-3.5,17.4-3.5h0c-6,0-11.9,1.2-17.4,3.5l-55.6,23.2c-5.5,2.3-11.4,3.5-17.4,3.5Z" fill="#a79277"/>
    </g>
    <g opacity=".8">
      <path d="M496.1,248.8c6,0,11.9-1.2,17.4-3.5l55.6-23.2c5.5-2.3,11.4-3.5,17.4-3.5h0c-6,0-11.9,1.2-17.4,3.5l-55.6,23.2c-5.5,2.3-11.4,3.5-17.4,3.5Z" fill="#4eb3d3"/>
    </g>
    <g opacity=".8">
      <path d="M496.1,248.8c6,0,11.9-1.2,17.4-3.5l55.6-23.2c5.5-2.3,11.4-3.5,17.4-3.5h0c-6,0-11.9,1.2-17.4,3.5l-55.6,23.2c-5.5,2.3-11.4,3.5-17.4,3.5Z" fill="#7bccc4"/>
    </g>
    <g opacity=".8">
      <path d="M496.1,248.8c6,0,11.9-1.2,17.4-3.5l55.6-23.2c5.5-2.3,11.4-3.5,17.4-3.5h0c-6,0-11.9,1.2-17.4,3.5l-55.6,23.2c-5.5,2.3-11.4,3.5-17.4,3.5Z" fill="#525252"/>
    </g>
    <g opacity=".8">
      <path d="M496.1,248.8c6,0,11.9-1.2,17.4-3.5l55.6-23.2c5.5-2.3,11.4-3.5,17.4-3.5h0c-6,0-11.9,1.2-17.4,3.5l-55.6,23.2c-5.5,2.3-11.4,3.5-17.4,3.5Z" fill="#ccebc5"/>
    </g>
    <g opacity=".8">
      <path d="M496.1,248.8c6,0,11.9-1.2,17.4-3.5l55.6-23.2c5.5-2.3,11.4-3.5,17.4-3.5h0c-6,0-11.9,1.2-17.4,3.5l-55.6,23.2c-5.5,2.3-11.4,3.5-17.4,3.5Z" fill="#ead8c0"/>
    </g>
    <g opacity=".8">
      <path d="M496.1,248.8c6,0,11.9-1.2,17.4-3.5l55.6-23.2c5.5-2.3,11.4-3.5,17.4-3.5h0c-6,0-11.9,1.2-17.4,3.5l-55.6,23.2c-5.5,2.3-11.4,3.5-17.4,3.5Z" fill="#fff2e1"/>
    </g>
    <g opacity=".8">
      <path d="M496.1,248.8c6,0,11.9-1.2,17.4-3.5l55.6-23.2c5.5-2.3,11.4-3.5,17.4-3.5h0c-6,0-11.9,1.2-17.4,3.5l-55.6,23.2c-5.5,2.3-11.4,3.5-17.4,3.5Z" fill="#0868ac"/>
    </g>
    <g opacity=".8">
      <path d="M496.1,248.8c6,0,11.9-1.2,17.4-3.5l55.6-23.2c5.5-2.3,11.4-3.5,17.4-3.5h0c-6,0-11.9,1.2-17.4,3.5l-55.6,23.2c-5.5,2.3-11.4,3.5-17.4,3.5Z" fill="#d9d9d9"/>
    </g>
    <g opacity=".8">
      <path d="M496.1,248.8c6,0,11.9-1.2,17.4-3.5l55.6-23.2c5.5-2.3,11.4-3.5,17.4-3.5h0c-6,0-11.9,1.2-17.4,3.5l-55.6,23.2c-5.5,2.3-11.4,3.5-17.4,3.5Z" fill="#d1bb9e"/>
    </g>
    <g opacity=".8">
      <path d="M403.9,282.9h92.3-92.3Z" fill="#a79277"/>
    </g>
    <g opacity=".8">
      <path d="M403.9,282.9h92.3-92.3Z" fill="#e0f3db"/>
    </g>
    <g opacity=".8">
      <path d="M403.9,299.7h92.3-92.3Z" fill="#ccebc5"/>
    </g>
    <g opacity=".8">
      <path d="M403.9,299.7h92.3-92.3Z" fill="#ead8c0"/>
    </g>
    <g opacity=".8">
      <path d="M403.9,299.7h92.3-92.3Z" fill="#fff2e1"/>
    </g>
    <g opacity=".8">
      <path d="M403.9,299.7h92.3-92.3Z" fill="#d1bb9e"/>
    </g>
    <g opacity=".8">
      <path d="M587.4,48.1c18.9,0,35.7,12,41.9,29.8l22.2,63.9c3.9,11.2,14.4,18.7,26.2,18.7h0c-11.8,0-22.3-7.5-26.2-18.7l-22.2-63.9c-6.2-17.9-23-29.8-41.9-29.8Z" fill="#fcc5c0"/>
    </g>
    <g opacity=".8">
      <path d="M587.4,53.4c17.4,0,32.7,11.5,37.5,28.2l24.7,85.1c3.6,12.5,15.1,21.1,28.1,21.1h0c-13,0-24.5-8.6-28.1-21.1l-24.7-85.1c-4.8-16.7-20.1-28.2-37.5-28.2Z" fill="#fcc5c0"/>
    </g>
    <g opacity=".8">
      <path d="M587.4,58.2c15.8,0,29.6,10.8,33.3,26.2l26.3,108.9c3.4,14.2,16.1,24.1,30.7,24.1h0c-14.6,0-27.3-10-30.7-24.1l-26.3-108.9c-3.7-15.4-17.5-26.2-33.3-26.2Z" fill="#fcc5c0"/>
    </g>
    <g opacity=".8">
      <path d="M587.4,104.7h90.3-90.3Z" fill="#2b8cbe"/>
    </g>
    <g opacity=".8">
      <path d="M587.4,104.7h90.3-90.3Z" fill="#fcc5c0"/>
    </g>
    <g opacity=".8">
      <path d="M587.4,104.7h90.3-90.3Z" fill="#a79277"/>
    </g>
    <g opacity=".8">
      <path d="M587.4,104.7h90.3-90.3Z" fill="#4eb3d3"/>
    </g>
    <g opacity=".8">
      <path d="M587.4,104.7h90.3-90.3Z" fill="#7bccc4"/>
    </g>
    <g opacity=".8">
      <path d="M587.4,104.7h90.3-90.3Z" fill="#a8ddb5"/>
    </g>
    <g opacity=".8">
      <path d="M587.4,104.7h90.3-90.3Z" fill="#525252"/>
    </g>
    <g opacity=".8">
      <path d="M587.4,104.7h90.3-90.3Z" fill="#ead8c0"/>
    </g>
    <g opacity=".8">
      <path d="M587.4,104.7h90.3-90.3Z" fill="#fff2e1"/>
    </g>
    <g opacity=".8">
      <path d="M587.4,104.7h90.3-90.3Z" fill="#0868ac"/>
    </g>
    <g opacity=".8">
      <path d="M587.4,104.7h90.3-90.3Z" fill="#d9d9d9"/>
    </g>
    <g opacity=".8">
      <path d="M587.4,104.7h90.3-90.3Z" fill="#d1bb9e"/>
    </g>
    <g opacity=".8">
      <path d="M587.4,156.7c15.1,0,28.2,10.4,31.6,25.1l27.1,117.1c3.4,14.7,16.5,25.1,31.6,25.1h0c-15.1,0-28.2-10.4-31.6-25.1l-27.1-117.1c-3.4-14.7-16.5-25.1-31.6-25.1Z" fill="#fcc5c0"/>
    </g>
    <g opacity=".8">
      <path d="M587.4,156.7c15.1,0,28.2,10.4,31.6,25.1l27.1,117.1c3.4,14.7,16.5,25.1,31.6,25.1h0c-15.1,0-28.2-10.4-31.6-25.1l-27.1-117.1c-3.4-14.7-16.5-25.1-31.6-25.1Z" fill="#ccebc5"/>
    </g>
    <g opacity=".8">
      <path d="M587.4,164c5.3,0,9.7,4.3,9.7,9.7,0,0,0,0,0,0l-1,108.7c0,5.3-4.2,9.7-9.6,9.8,0,0,0,0,0,0h0c5.3,0,9.7-4.3,9.7-9.7s0,0,0,0l1-108.7c0-5.3-4.2-9.7-9.6-9.8,0,0,0,0,0,0Z" fill="#ccebc5"/>
    </g>
    <g opacity=".8">
      <path d="M587.4,156.7c11.2,0,21.6,5.8,27.5,15.3l39.7,64c4.9,8,13.6,12.8,23,12.8h0c-9.4,0-18.1-4.8-23-12.8l-39.7-64c-5.9-9.5-16.3-15.3-27.5-15.3Z" fill="#ccebc5"/>
    </g>
    <g opacity=".8">
      <path d="M587.4,156.7c11.2,0,21.6,5.8,27.5,15.3l39.7,64c4.9,8,13.6,12.8,23,12.8h0c-9.4,0-18.1-4.8-23-12.8l-39.7-64c-5.9-9.5-16.3-15.3-27.5-15.3Z" fill="#f0f0f0"/>
    </g>
    <g opacity=".8">
      <path d="M587.4,194.2c5.8,0,11.6-1,17.1-2.9l56-19.4c5.5-1.9,11.3-2.9,17.1-2.9h0c-5.8,0-11.6,1-17.1,2.9l-56,19.4c-5.5,1.9-11.3,2.9-17.1,2.9Z" fill="#2b8cbe"/>
    </g>
    <g opacity=".8">
      <path d="M587.4,194.2c5.8,0,11.6-1,17.1-2.9l56-19.4c5.5-1.9,11.3-2.9,17.1-2.9h0c-5.8,0-11.6,1-17.1,2.9l-56,19.4c-5.5,1.9-11.3,2.9-17.1,2.9Z" fill="#a79277"/>
    </g>
    <g opacity=".8">
      <path d="M587.4,194.2c5.8,0,11.6-1,17.1-2.9l56-19.4c5.5-1.9,11.3-2.9,17.1-2.9h0c-5.8,0-11.6,1-17.1,2.9l-56,19.4c-5.5,1.9-11.3,2.9-17.1,2.9Z" fill="#4eb3d3"/>
    </g>
    <g opacity=".8">
      <path d="M587.4,194.2c5.8,0,11.6-1,17.1-2.9l56-19.4c5.5-1.9,11.3-2.9,17.1-2.9h0c-5.8,0-11.6,1-17.1,2.9l-56,19.4c-5.5,1.9-11.3,2.9-17.1,2.9Z" fill="#7bccc4"/>
    </g>
    <g opacity=".8">
      <path d="M587.4,194.2c5.8,0,11.6-1,17.1-2.9l56-19.4c5.5-1.9,11.3-2.9,17.1-2.9h0c-5.8,0-11.6,1-17.1,2.9l-56,19.4c-5.5,1.9-11.3,2.9-17.1,2.9Z" fill="#a8ddb5"/>
    </g>
    <g opacity=".8">
      <path d="M587.4,194.2c5.8,0,11.6-1,17.1-2.9l56-19.4c5.5-1.9,11.3-2.9,17.1-2.9h0c-5.8,0-11.6,1-17.1,2.9l-56,19.4c-5.5,1.9-11.3,2.9-17.1,2.9Z" fill="#525252"/>
    </g>
    <g opacity=".8">
      <path d="M587.4,194.2c5.8,0,11.6-1,17.1-2.9l56-19.4c5.5-1.9,11.3-2.9,17.1-2.9h0c-5.8,0-11.6,1-17.1,2.9l-56,19.4c-5.5,1.9-11.3,2.9-17.1,2.9Z" fill="#ead8c0"/>
    </g>
    <g opacity=".8">
      <path d="M587.4,194.2c5.8,0,11.6-1,17.1-2.9l56-19.4c5.5-1.9,11.3-2.9,17.1-2.9h0c-5.8,0-11.6,1-17.1,2.9l-56,19.4c-5.5,1.9-11.3,2.9-17.1,2.9Z" fill="#fff2e1"/>
    </g>
    <g opacity=".8">
      <path d="M587.4,194.2c5.8,0,11.6-1,17.1-2.9l56-19.4c5.5-1.9,11.3-2.9,17.1-2.9h0c-5.8,0-11.6,1-17.1,2.9l-56,19.4c-5.5,1.9-11.3,2.9-17.1,2.9Z" fill="#0868ac"/>
    </g>
    <g opacity=".8">
      <path d="M587.4,194.2c5.8,0,11.6-1,17.1-2.9l56-19.4c5.5-1.9,11.3-2.9,17.1-2.9h0c-5.8,0-11.6,1-17.1,2.9l-56,19.4c-5.5,1.9-11.3,2.9-17.1,2.9Z" fill="#d9d9d9"/>
    </g>
    <g opacity=".8">
      <path d="M587.4,216.7c10.5,0,20,5.9,24.6,15.3l36.6,74c5.5,11.1,16.7,18,29,18h0c-12.3,0-23.6-7-29-18l-36.6-74c-4.6-9.4-14.2-15.3-24.6-15.3Z" fill="#fcc5c0"/>
    </g>
    <g opacity=".8">
      <path d="M587.4,216.7c10.5,0,20,5.9,24.6,15.3l36.6,74c5.5,11.1,16.7,18,29,18h0c-12.3,0-23.6-7-29-18l-36.6-74c-4.6-9.4-14.2-15.3-24.6-15.3Z" fill="#e0f3db"/>
    </g>
    <g opacity=".8">
      <path d="M587.4,216.7c3.3,0,6,2.7,6,6,0,0,0,0,0,.1l-1,54c0,3.3-2.6,6.1-5.9,6.1,0,0,0,0-.1,0h0c3.3,0,6-2.7,6-6s0,0,0-.1l1-54c0-3.3-2.6-6.1-5.9-6.1,0,0,0,0-.1,0Z" fill="#e0f3db"/>
    </g>
    <g opacity=".8">
      <path d="M587.4,216.7c6,0,12,1.3,17.5,3.7l55.4,24.7c5.5,2.5,11.4,3.7,17.5,3.7h0c-6,0-12-1.3-17.5-3.7l-55.4-24.7c-5.5-2.5-11.4-3.7-17.5-3.7Z" fill="#e0f3db"/>
    </g>
    <g opacity=".8">
      <path d="M587.4,216.7c6,0,12,1.3,17.5,3.7l55.4,24.7c5.5,2.5,11.4,3.7,17.5,3.7h0c-6,0-12-1.3-17.5-3.7l-55.4-24.7c-5.5-2.5-11.4-3.7-17.5-3.7Z" fill="#f0f0f0"/>
    </g>
    <g opacity=".8">
      <path d="M587.4,248.8c5.6,0,11.2-.5,16.8-1.5l56.8-10.5c5.5-1,11.1-1.5,16.8-1.5h0c-5.6,0-11.2.5-16.8,1.5l-56.8,10.5c-5.5,1-11.1,1.5-16.8,1.5Z" fill="#2b8cbe"/>
    </g>
    <g opacity=".8">
      <path d="M587.4,248.8c5.6,0,11.2-.5,16.8-1.5l56.8-10.5c5.5-1,11.1-1.5,16.8-1.5h0c-5.6,0-11.2.5-16.8,1.5l-56.8,10.5c-5.5,1-11.1,1.5-16.8,1.5Z" fill="#a79277"/>
    </g>
    <g opacity=".8">
      <path d="M587.4,248.8c5.6,0,11.2-.5,16.8-1.5l56.8-10.5c5.5-1,11.1-1.5,16.8-1.5h0c-5.6,0-11.2.5-16.8,1.5l-56.8,10.5c-5.5,1-11.1,1.5-16.8,1.5Z" fill="#4eb3d3"/>
    </g>
    <g opacity=".8">
      <path d="M587.4,248.8c5.6,0,11.2-.5,16.8-1.5l56.8-10.5c5.5-1,11.1-1.5,16.8-1.5h0c-5.6,0-11.2.5-16.8,1.5l-56.8,10.5c-5.5,1-11.1,1.5-16.8,1.5Z" fill="#7bccc4"/>
    </g>
    <g opacity=".8">
      <path d="M587.4,248.8c5.6,0,11.2-.5,16.8-1.5l56.8-10.5c5.5-1,11.1-1.5,16.8-1.5h0c-5.6,0-11.2.5-16.8,1.5l-56.8,10.5c-5.5,1-11.1,1.5-16.8,1.5Z" fill="#a8ddb5"/>
    </g>
    <g opacity=".8">
      <path d="M587.4,248.8c5.6,0,11.2-.5,16.8-1.5l56.8-10.5c5.5-1,11.1-1.5,16.8-1.5h0c-5.6,0-11.2.5-16.8,1.5l-56.8,10.5c-5.5,1-11.1,1.5-16.8,1.5Z" fill="#525252"/>
    </g>
    <g opacity=".8">
      <path d="M587.4,248.8c5.6,0,11.2-.5,16.8-1.5l56.8-10.5c5.5-1,11.1-1.5,16.8-1.5h0c-5.6,0-11.2.5-16.8,1.5l-56.8,10.5c-5.5,1-11.1,1.5-16.8,1.5Z" fill="#ead8c0"/>
    </g>
    <g opacity=".8">
      <path d="M587.4,248.8c5.6,0,11.2-.5,16.8-1.5l56.8-10.5c5.5-1,11.1-1.5,16.8-1.5h0c-5.6,0-11.2.5-16.8,1.5l-56.8,10.5c-5.5,1-11.1,1.5-16.8,1.5Z" fill="#0868ac"/>
    </g>
    <g opacity=".8">
      <path d="M587.4,248.8c5.6,0,11.2-.5,16.8-1.5l56.8-10.5c5.5-1,11.1-1.5,16.8-1.5h0c-5.6,0-11.2.5-16.8,1.5l-56.8,10.5c-5.5,1-11.1,1.5-16.8,1.5Z" fill="#d9d9d9"/>
    </g>
    <g opacity=".8">
      <path d="M587.4,248.8c5.6,0,11.2-.5,16.8-1.5l56.8-10.5c5.5-1,11.1-1.5,16.8-1.5h0c-5.6,0-11.2.5-16.8,1.5l-56.8,10.5c-5.5,1-11.1,1.5-16.8,1.5Z" fill="#d1bb9e"/>
    </g>
    <g opacity=".8">
      <path d="M587.4,248.8c6.5,0,12.8-1.8,18.3-5.3l53.8-34.3c5.5-3.5,11.8-5.3,18.3-5.3h0c-6.5,0-12.8,1.8-18.3,5.3l-53.8,34.3c-5.5,3.5-11.8,5.3-18.3,5.3Z" fill="#2b8cbe"/>
    </g>
    <g opacity=".8">
      <path d="M587.4,248.8c6.5,0,12.8-1.8,18.3-5.3l53.8-34.3c5.5-3.5,11.8-5.3,18.3-5.3h0c-6.5,0-12.8,1.8-18.3,5.3l-53.8,34.3c-5.5,3.5-11.8,5.3-18.3,5.3Z" fill="#a79277"/>
    </g>
    <g opacity=".8">
      <path d="M587.4,248.8c6.5,0,12.8-1.8,18.3-5.3l53.8-34.3c5.5-3.5,11.8-5.3,18.3-5.3h0c-6.5,0-12.8,1.8-18.3,5.3l-53.8,34.3c-5.5,3.5-11.8,5.3-18.3,5.3Z" fill="#4eb3d3"/>
    </g>
    <g opacity=".8">
      <path d="M587.4,248.8c6.5,0,12.8-1.8,18.3-5.3l53.8-34.3c5.5-3.5,11.8-5.3,18.3-5.3h0c-6.5,0-12.8,1.8-18.3,5.3l-53.8,34.3c-5.5,3.5-11.8,5.3-18.3,5.3Z" fill="#7bccc4"/>
    </g>
    <g opacity=".8">
      <path d="M587.4,248.8c6.5,0,12.8-1.8,18.3-5.3l53.8-34.3c5.5-3.5,11.8-5.3,18.3-5.3h0c-6.5,0-12.8,1.8-18.3,5.3l-53.8,34.3c-5.5,3.5-11.8,5.3-18.3,5.3Z" fill="#a8ddb5"/>
    </g>
    <g opacity=".8">
      <path d="M587.4,248.8c6.5,0,12.8-1.8,18.3-5.3l53.8-34.3c5.5-3.5,11.8-5.3,18.3-5.3h0c-6.5,0-12.8,1.8-18.3,5.3l-53.8,34.3c-5.5,3.5-11.8,5.3-18.3,5.3Z" fill="#525252"/>
    </g>
    <g opacity=".8">
      <path d="M587.4,248.8c6.5,0,12.8-1.8,18.3-5.3l53.8-34.3c5.5-3.5,11.8-5.3,18.3-5.3h0c-6.5,0-12.8,1.8-18.3,5.3l-53.8,34.3c-5.5,3.5-11.8,5.3-18.3,5.3Z" fill="#fff2e1"/>
    </g>
    <g opacity=".8">
      <path d="M587.4,248.8c6.5,0,12.8-1.8,18.3-5.3l53.8-34.3c5.5-3.5,11.8-5.3,18.3-5.3h0c-6.5,0-12.8,1.8-18.3,5.3l-53.8,34.3c-5.5,3.5-11.8,5.3-18.3,5.3Z" fill="#0868ac"/>
    </g>
    <g opacity=".8">
      <path d="M587.4,248.8c6.5,0,12.8-1.8,18.3-5.3l53.8-34.3c5.5-3.5,11.8-5.3,18.3-5.3h0c-6.5,0-12.8,1.8-18.3,5.3l-53.8,34.3c-5.5,3.5-11.8,5.3-18.3,5.3Z" fill="#d9d9d9"/>
    </g>
    <g opacity=".8">
      <path d="M587.4,248.8c6.5,0,12.8-1.8,18.3-5.3l53.8-34.3c5.5-3.5,11.8-5.3,18.3-5.3h0c-6.5,0-12.8,1.8-18.3,5.3l-53.8,34.3c-5.5,3.5-11.8,5.3-18.3,5.3Z" fill="#d1bb9e"/>
    </g>
    <g opacity=".8">
      <path d="M495.1,282.9h92.3-92.3Z" fill="#a79277"/>
    </g>
    <g opacity=".8">
      <path d="M495.1,282.9h92.3-92.3Z" fill="#e0f3db"/>
    </g>
    <g opacity=".8">
      <path d="M495.1,299.7h92.3-92.3Z" fill="#ccebc5"/>
    </g>
    <g opacity=".8">
      <path d="M495.1,299.7h92.3-92.3Z" fill="#ead8c0"/>
    </g>
    <g opacity=".8">
      <path d="M495.1,299.7h92.3-92.3Z" fill="#fff2e1"/>
    </g>
    <g opacity=".8">
      <path d="M495.1,299.7h92.3-92.3Z" fill="#d1bb9e"/>
    </g>
    <g opacity=".8">
      <path d="M678.7,144.1c4.8,0,8.7,3.9,8.7,8.7s0,0,0,0l-1,130.4c0,4.8-3.8,8.8-8.7,8.8,0,0,0,0,0,0h0c4.8,0,8.7-3.9,8.7-8.7s0,0,0,0l1-130.4c0-4.8-3.8-8.8-8.7-8.8,0,0,0,0,0,0Z" fill="#a79277"/>
    </g>
    <g opacity=".8">
      <path d="M678.7,144.1c11.8,0,23.3-3.4,33.3-9.7l37.1-23.8c6-3.8,12.9-5.8,20-5.8h0c-7.1,0-14,2-20,5.8l-37.1,23.8c-9.9,6.4-21.5,9.7-33.3,9.7Z" fill="#fcc5c0"/>
    </g>
    <g opacity=".8">
      <path d="M678.7,144.1c11.8,0,23.3-3.4,33.3-9.7l37.1-23.8c6-3.8,12.9-5.8,20-5.8h0c-7.1,0-14,2-20,5.8l-37.1,23.8c-9.9,6.4-21.5,9.7-33.3,9.7Z" fill="#a79277"/>
    </g>
    <g opacity=".8">
      <path d="M678.7,144.1c11.8,0,23.3-3.4,33.3-9.7l37.1-23.8c6-3.8,12.9-5.8,20-5.8h0c-7.1,0-14,2-20,5.8l-37.1,23.8c-9.9,6.4-21.5,9.7-33.3,9.7Z" fill="#f0f0f0"/>
    </g>
    <g opacity=".8">
      <path d="M678.7,173.1c13.6,0,25.7,9,29.5,22.1l31.3,106.7c3.8,13.1,15.9,22.1,29.5,22.1h0c-13.6,0-25.7-9-29.5-22.1l-31.3-106.7c-3.8-13.1-15.9-22.1-29.5-22.1Z" fill="#fcc5c0"/>
    </g>
    <g opacity=".8">
      <path d="M678.7,174.3c4,0,7.3,3.2,7.3,7.3,0,0,0,0,0,0l-1,103.1c0,4-3.2,7.3-7.2,7.3,0,0,0,0,0,0h0c4,0,7.3-3.2,7.3-7.3,0,0,0,0,0,0l1-103.1c0-4-3.2-7.3-7.2-7.3,0,0,0,0,0,0Z" fill="#d1bb9e"/>
    </g>
    <g opacity=".8">
      <path d="M678.7,173.1c14.4,0,27.9-6.6,36.8-17.9l31.3-39.8c5.3-6.8,13.5-10.7,22.1-10.7h0c-8.6,0-16.8,4-22.1,10.7l-31.3,39.8c-8.9,11.3-22.5,17.9-36.8,17.9Z" fill="#f0f0f0"/>
    </g>
    <g opacity=".8">
      <path d="M678.7,173.1c14.4,0,27.9-6.6,36.8-17.9l31.3-39.8c5.3-6.8,13.5-10.7,22.1-10.7h0c-8.6,0-16.8,4-22.1,10.7l-31.3,39.8c-8.9,11.3-22.5,17.9-36.8,17.9Z" fill="#d1bb9e"/>
    </g>
    <g opacity=".8">
      <path d="M678.7,202.3c11.4,0,21.7,6.9,26.1,17.4l35.8,85.5c4.8,11.4,16,18.9,28.4,18.9h0c-12.4,0-23.6-7.4-28.4-18.9l-35.8-85.5c-4.4-10.5-14.7-17.4-26.1-17.4Z" fill="#fcc5c0"/>
    </g>
    <g opacity=".8">
      <path d="M678.7,203.9c3.7,0,6.7,3,6.7,6.7s0,0,0,0l-1,73.5c0,3.7-2.9,6.7-6.6,6.8,0,0,0,0,0,0h0c3.7,0,6.7-3,6.7-6.7s0,0,0,0l1-73.5c0-3.7-2.9-6.7-6.6-6.8,0,0,0,0,0,0Z" fill="#ead8c0"/>
    </g>
    <g opacity=".8">
      <path d="M678.7,202.3c6.5,0,12.9,1.9,18.4,5.5l53.6,35.5c5.4,3.6,11.8,5.5,18.4,5.5h0c-6.5,0-12.9-1.9-18.4-5.5l-53.6-35.5c-5.4-3.6-11.8-5.5-18.4-5.5Z" fill="#f0f0f0"/>
    </g>
    <g opacity=".8">
      <path d="M678.7,202.3c6.5,0,12.9,1.9,18.4,5.5l53.6,35.5c5.4,3.6,11.8,5.5,18.4,5.5h0c-6.5,0-12.9-1.9-18.4-5.5l-53.6-35.5c-5.4-3.6-11.8-5.5-18.4-5.5Z" fill="#ead8c0"/>
    </g>
    <g opacity=".8">
      <path d="M678.7,217.4c6.8,0,13.4-2.1,19-5.9l47.8-33.1c6.9-4.8,15.1-7.4,23.5-7.4h0c-8.4,0-16.6,2.6-23.5,7.4l-47.8,33.1c-5.6,3.9-12.2,5.9-19,5.9Z" fill="#2b8cbe"/>
    </g>
    <g opacity=".8">
      <path d="M678.7,217.4c6.8,0,13.4-2.1,19-5.9l47.8-33.1c6.9-4.8,15.1-7.4,23.5-7.4h0c-8.4,0-16.6,2.6-23.5,7.4l-47.8,33.1c-5.6,3.9-12.2,5.9-19,5.9Z" fill="#4eb3d3"/>
    </g>
    <g opacity=".8">
      <path d="M678.7,217.4c6.8,0,13.4-2.1,19-5.9l47.8-33.1c6.9-4.8,15.1-7.4,23.5-7.4h0c-8.4,0-16.6,2.6-23.5,7.4l-47.8,33.1c-5.6,3.9-12.2,5.9-19,5.9Z" fill="#7bccc4"/>
    </g>
    <g opacity=".8">
      <path d="M678.7,217.4c6.8,0,13.4-2.1,19-5.9l47.8-33.1c6.9-4.8,15.1-7.4,23.5-7.4h0c-8.4,0-16.6,2.6-23.5,7.4l-47.8,33.1c-5.6,3.9-12.2,5.9-19,5.9Z" fill="#e0f3db"/>
    </g>
    <g opacity=".8">
      <path d="M678.7,217.4c6.8,0,13.4-2.1,19-5.9l47.8-33.1c6.9-4.8,15.1-7.4,23.5-7.4h0c-8.4,0-16.6,2.6-23.5,7.4l-47.8,33.1c-5.6,3.9-12.2,5.9-19,5.9Z" fill="#a8ddb5"/>
    </g>
    <g opacity=".8">
      <path d="M678.7,217.4c6.8,0,13.4-2.1,19-5.9l47.8-33.1c6.9-4.8,15.1-7.4,23.5-7.4h0c-8.4,0-16.6,2.6-23.5,7.4l-47.8,33.1c-5.6,3.9-12.2,5.9-19,5.9Z" fill="#525252"/>
    </g>
    <g opacity=".8">
      <path d="M678.7,217.4c6.8,0,13.4-2.1,19-5.9l47.8-33.1c6.9-4.8,15.1-7.4,23.5-7.4h0c-8.4,0-16.6,2.6-23.5,7.4l-47.8,33.1c-5.6,3.9-12.2,5.9-19,5.9Z" fill="#ccebc5"/>
    </g>
    <g opacity=".8">
      <path d="M678.7,217.4c6.8,0,13.4-2.1,19-5.9l47.8-33.1c6.9-4.8,15.1-7.4,23.5-7.4h0c-8.4,0-16.6,2.6-23.5,7.4l-47.8,33.1c-5.6,3.9-12.2,5.9-19,5.9Z" fill="#0868ac"/>
    </g>
    <g opacity=".8">
      <path d="M678.7,217.4c6.8,0,13.4-2.1,19-5.9l47.8-33.1c6.9-4.8,15.1-7.4,23.5-7.4h0c-8.4,0-16.6,2.6-23.5,7.4l-47.8,33.1c-5.6,3.9-12.2,5.9-19,5.9Z" fill="#d9d9d9"/>
    </g>
    <g opacity=".8">
      <path d="M678.7,233.5c9.2,0,17.7,4.6,22.7,12.3l41.7,64.2c5.7,8.7,15.4,14,25.8,14h0c-10.4,0-20.1-5.3-25.8-14l-41.7-64.2c-5-7.7-13.6-12.3-22.7-12.3Z" fill="#fcc5c0"/>
    </g>
    <g opacity=".8">
      <path d="M678.7,235.3c3.2,0,5.9,2.6,5.9,5.9,0,0,0,0,0,.1l-1,42c0,3.2-2.5,5.9-5.7,6,0,0,0,0-.1,0h0c3.2,0,5.9-2.6,5.9-5.9,0,0,0,0,0-.1l1-42c0-3.2-2.5-5.9-5.7-6,0,0,0,0-.1,0Z" fill="#fff2e1"/>
    </g>
    <g opacity=".8">
      <path d="M678.7,233.5c5.6,0,11.3.6,16.8,1.7l56.7,11.9c5.5,1.2,11.2,1.7,16.8,1.7h0c-5.6,0-11.3-.6-16.8-1.7l-56.7-11.9c-5.5-1.2-11.2-1.7-16.8-1.7Z" fill="#f0f0f0"/>
    </g>
    <g opacity=".8">
      <path d="M678.7,233.5c5.6,0,11.3.6,16.8,1.7l56.7,11.9c5.5,1.2,11.2,1.7,16.8,1.7h0c-5.6,0-11.3-.6-16.8-1.7l-56.7-11.9c-5.5-1.2-11.2-1.7-16.8-1.7Z" fill="#fff2e1"/>
    </g>
    <g opacity=".8">
      <path d="M586.4,292.2c5.8,0,11.7-.2,17.5-.5l57.7-3.6c5.7-.4,11.4-.5,17-.5h0c-5.7,0-11.4.2-17,.5l-57.7,3.6c-5.8.4-11.7.5-17.5.5Z" fill="#a79277"/>
    </g>
    <g opacity=".8">
      <path d="M586.4,299.7c5.7,0,11.4-.2,17-.5l57.7-3.6c5.8-.4,11.7-.5,17.5-.5h0c-5.8,0-11.7.2-17.5.5l-57.7,3.6c-5.7.4-11.4.5-17,.5Z" fill="#ead8c0"/>
    </g>
    <g opacity=".8">
      <path d="M586.4,299.7c5.7,0,11.4-.2,17-.5l57.7-3.6c5.8-.4,11.7-.5,17.5-.5h0c-5.8,0-11.7.2-17.5.5l-57.7,3.6c-5.7.4-11.4.5-17,.5Z" fill="#fff2e1"/>
    </g>
    <g opacity=".8">
      <path d="M586.4,299.7c5.7,0,11.4-.2,17-.5l57.7-3.6c5.8-.4,11.7-.5,17.5-.5h0c-5.8,0-11.7.2-17.5.5l-57.7,3.6c-5.7.4-11.4.5-17,.5Z" fill="#d1bb9e"/>
    </g>
    <g opacity=".8">
      <path d="M770,104.7c2.8,0,5,2.2,5,5,0,0,0,0,0,0l-1,176.6c0,2.8-2.2,5-5,5,0,0,0,0,0,0h0c2.8,0,5-2.2,5-5,0,0,0,0,0,0l1-176.6c0-2.8-2.2-5-5-5,0,0,0,0,0,0Z" fill="#d9d9d9"/>
    </g>
    <g opacity=".8">
      <path d="M677.7,295c5.7,0,11.3-.1,17-.4l58.3-2.9c5.7-.3,11.3-.4,17-.4h0c-5.7,0-11.3.1-17,.4l-58.3,2.9c-5.7.3-11.3.4-17,.4Z" fill="#d9d9d9"/>
    </g>
    <g opacity=".8">
      <path d="M678.7,172.1c14.1,0,26.5,9.3,30.5,22.8l31.3,106.7c3.7,12.7,15.3,21.4,28.5,21.4v2c-14.1,0-26.5-9.3-30.5-22.8l-31.3-106.7c-3.7-12.7-15.3-21.4-28.5-21.4v-2Z" fill="#d1bb9e"/>
    </g>
    <g opacity=".8">
      <path d="M313.6,107.8c18.5,0,34.5,12.9,38.3,31l22.1,103.7c3,14.1,15.4,24.2,29.9,24.2v2c-15.3,0-28.6-10.7-31.8-25.7l-22.1-103.7c-3.7-17.2-18.8-29.4-36.4-29.4v-2Z" fill="#f0f0f0"/>
    </g>
    <g opacity=".8">
      <path d="M678.7,201.3c11.8,0,22.5,7.1,27,18l35.8,85.5c4.6,11.1,15.5,18.3,27.5,18.3v2c-12.8,0-24.4-7.7-29.3-19.5l-35.8-85.5c-4.3-10.2-14.2-16.8-25.2-16.8v-2Z" fill="#ead8c0"/>
    </g>
    <g opacity=".8">
      <path d="M313.6,107.7c9.3,0,18.2,3.3,25.3,9.3l45.9,38.8c5.3,4.5,12.1,7,19,7v2c-7.4,0-14.6-2.6-20.3-7.4l-45.9-38.8c-6.7-5.7-15.2-8.8-24-8.8v-2Z" fill="#0868ac"/>
    </g>
    <g opacity=".8">
      <path d="M678.7,232.5c9.5,0,18.4,4.8,23.6,12.8l41.7,64.2c5.5,8.5,14.9,13.6,25,13.6v2c-10.8,0-20.8-5.5-26.7-14.5l-41.7-64.2c-4.8-7.4-13-11.9-21.9-11.9v-2Z" fill="#fff2e1"/>
    </g>
    <g opacity=".8">
      <path d="M313.6,156.9c13.2,0,25.1,7.8,30.5,19.8l31.8,71.7c4.9,11.1,15.9,18.2,28,18.2v2c-12.9,0-24.6-7.6-29.8-19.4l-31.8-71.7c-5-11.3-16.3-18.6-28.7-18.6v-2Z" fill="#f0f0f0"/>
    </g>
    <g opacity=".8">
      <path d="M222.3,200.3c12.9,0,24.3,8.3,28.2,20.6l25.3,79c5.1,16,20,26.8,36.7,26.8v2c-17.6,0-33.3-11.4-38.6-28.2l-25.3-79c-3.7-11.4-14.3-19.2-26.3-19.2v-2Z" fill="#d9d9d9"/>
    </g>
    <g opacity=".8">
      <path d="M404.9,110.1c14.7,0,27.6,9.9,31.3,24.1l29.6,111.1c3.5,13.3,15.6,22.6,29.4,22.6v2c-14.7,0-27.6-9.9-31.3-24.1l-29.6-111.1c-3.5-13.3-15.6-22.6-29.4-22.6v-2Z" fill="#f0f0f0"/>
    </g>
    <g opacity=".8">
      <path d="M313.6,108c20,0,36.8,15.2,38.8,35.1l14.5,146.5c1.9,19,17.9,33.5,37,33.5v2c-20.1,0-37-15.3-39-35.3l-14.5-146.5c-1.9-18.9-17.8-33.3-36.8-33.3v-2Z" fill="#0868ac"/>
    </g>
    <g opacity=".8">
      <path d="M678.7,172.7c4.6,0,8.3,3.7,8.3,8.3s0,0,0,0l-1,103.1c0,4.6-3.6,8.3-8.2,8.3,0,0,0,0,0,0v-2c3.5,0,6.3-2.8,6.3-6.3,0,0,0,0,0,0l1-103.1c0-3.5-2.7-6.3-6.2-6.3,0,0,0,0,0,0v-2Z" fill="#d9d9d9"/>
    </g>
    <g opacity=".8">
      <path d="M404.9,194.7c8.4,0,16.5,3.7,21.9,10.2l44.4,52.8c6,7.1,14.7,11.2,24,11.2v2c-9.8,0-19.2-4.3-25.5-11.9l-44.4-52.8c-5.1-6-12.5-9.5-20.4-9.5v-2Z" fill="#f0f0f0"/>
    </g>
    <g opacity=".8">
      <path d="M678.7,202.1c4.2,0,7.7,3.4,7.7,7.7,0,0,0,0,0,.1l-1,73.5c0,4.2-3.4,7.7-7.6,7.7,0,0,0,0,0,0v-2c3.1,0,5.7-2.5,5.7-5.7,0,0,0,0,0-.1l1-73.5c0-3.1-2.5-5.7-5.6-5.7,0,0,0,0,0,0v-2Z" fill="#d9d9d9"/>
    </g>
    <g opacity=".8">
      <path d="M678.7,233.4c3.8,0,6.9,3.1,6.9,6.9s0,.1,0,.2l-1,42c0,3.8-3,6.9-6.8,7,0,0,0,0-.1,0v-2c2.7,0,4.9-2.2,4.9-4.9,0,0,0-.1,0-.2l1-42c0-2.7-2.1-4.9-4.8-5,0,0,0,0-.1,0v-2Z" fill="#d9d9d9"/>
    </g>
    <g opacity=".8">
      <path d="M222.3,197.3c9.4,0,18.4,4.1,24.6,11.2l45.6,52.1c5.1,5.8,12.4,9.1,20.1,9.1v2c-8.3,0-16.2-3.6-21.6-9.8l-45.6-52.1c-5.8-6.7-14.2-10.5-23.1-10.5v-2Z" fill="#f0f0f0"/>
    </g>
    <g opacity=".8">
      <path d="M313.6,269.7c5.5,0,11,0,16.6-.2l57.1-1.5c5.5-.1,11.1-.2,16.6-.2v2c-5.5,0-11,0-16.6.2l-57.1,1.5c-5.5.1-11.1.2-16.6.2v-2Z" fill="#f0f0f0"/>
    </g>
    <g opacity=".8">
      <path d="M222.3,199.2c13.4,0,25.2,8.6,29.3,21.4l25.3,79c5,15.5,19.4,26,35.6,26v2c-17.1,0-32.3-11.1-37.5-27.4l-25.3-79c-3.8-11.9-14.9-20-27.4-20v-2Z" fill="#fcc5c0"/>
    </g>
    <g opacity=".8">
      <path d="M587.4,216.7c3.9,0,7,3.1,7,7s0,0,0,.1l-1,54c0,3.9-3,7.1-6.9,7.1,0,0,0,0,0,0v-2c2.8,0,5-2.2,5-5,0,0,0,0,0-.1l1-54c0-2.8-2.1-5-4.9-5.1,0,0,0,0,0,0v-2Z" fill="#d9d9d9"/>
    </g>
    <g opacity=".8">
      <path d="M404.9,267.6c5.5,0,11.1.1,16.6.3l57.1,2.3c5.5.2,11,.3,16.6.3v2c-5.5,0-11.1-.1-16.6-.3l-57.1-2.3c-5.5-.2-11-.3-16.6-.3v-2Z" fill="#f0f0f0"/>
    </g>
    <g opacity=".8">
      <path d="M222.3,184.7c2.6,0,5.2,0,7.8,0l74.6-.6c2.6,0,5.2,0,7.9,0v2.7c-2.6,0-5.2,0-7.8,0l-74.6.6c-2.6,0-5.2,0-7.9,0v-2.7Z" fill="#d9d9d9"/>
    </g>
    <g opacity=".8">
      <path d="M313.6,184.1c7.7,0,14.9-3.4,19.9-9.2l47.6-55.7c5.7-6.7,14-10.5,22.8-10.5v2.7c-8,0-15.5,3.5-20.7,9.6l-47.6,55.7c-5.5,6.4-13.5,10.1-21.9,10.1v-2.7Z" fill="#d9d9d9"/>
    </g>
    <g opacity=".8">
      <path d="M678.7,144.1c5.6,0,10.2,4.6,10.2,10.2s0,0,0,0l-1,130.4c0,5.6-4.5,10.2-10.2,10.3,0,0,0,0,0,0v-3c4,0,7.3-3.2,7.3-7.3,0,0,0,0,0,0l1-130.4c0-4-3.2-7.3-7.2-7.3,0,0,0,0,0,0v-3Z" fill="#d9d9d9"/>
    </g>
    <g opacity=".8">
      <path d="M587.4,139.2c6.1,0,12.1,1.1,17.7,3.2l55.9,20.5c5.3,2,11,3,16.7,3v3.1c-6.1,0-12.1-1.1-17.7-3.2l-55.9-20.5c-5.3-2-11-3-16.7-3v-3.1Z" fill="#ccebc5"/>
    </g>
    <g opacity=".8">
      <path d="M313.6,104.7h90.3v4h-90.3v-4Z" fill="#0868ac"/>
    </g>
    <g opacity=".8">
      <path d="M587.4,207.3c5.5,0,11-.3,16.4-.9l57-6.1c5.6-.6,11.2-.9,16.9-.9v4.5c-5.5,0-11,.3-16.4.9l-57,6.1c-5.6.6-11.2.9-16.9.9v-4.5Z" fill="#e0f3db"/>
    </g>
    <g opacity=".8">
      <path d="M222.3,104.7h90.3v4.5h-90.3v-4.5Z" fill="#525252"/>
    </g>
    <g opacity=".8">
      <path d="M587.4,53.4c17.4,0,32.7,11.5,37.5,28.2l24.7,85.1c3.6,12.5,15.1,21.1,28.1,21.1v4.8c-15.2,0-28.5-10-32.7-24.6l-24.7-85.1c-4.2-14.6-17.7-24.7-32.9-24.7v-4.8Z" fill="#ead8c0"/>
    </g>
    <g opacity=".8">
      <path d="M587.4,211.8c5.9,0,11.8.7,17.5,2.2l56.5,14.4c5.3,1.4,10.8,2,16.3,2v4.9c-5.9,0-11.8-.7-17.5-2.2l-56.5-14.4c-5.3-1.4-10.8-2-16.3-2v-4.9Z" fill="#e0f3db"/>
    </g>
    <g opacity=".8">
      <path d="M587.4,48.1c18.9,0,35.7,12,41.9,29.8l22.2,63.9c3.9,11.2,14.4,18.7,26.2,18.7v5.3c-14.1,0-26.6-8.9-31.2-22.2l-22.2-63.9c-5.5-15.7-20.3-26.3-36.9-26.3v-5.3Z" fill="#d1bb9e"/>
    </g>
    <g opacity=".8">
      <path d="M587.4,202c5.7,0,11.3-1.2,16.4-3.6l55.3-25.4c5.8-2.7,12.2-4.1,18.6-4.1v5.3c-5.7,0-11.3,1.2-16.4,3.6l-55.3,25.4c-5.8,2.7-12.2,4.1-18.6,4.1v-5.3Z" fill="#e0f3db"/>
    </g>
    <g opacity=".8">
      <path d="M587.4,58.2c15.8,0,29.6,10.8,33.3,26.2l26.3,108.9c3.4,14.2,16.1,24.1,30.7,24.1v5.4c-17.1,0-31.9-11.7-35.9-28.3l-26.3-108.9c-3.1-13-14.7-22.1-28.1-22.1v-5.4Z" fill="#fff2e1"/>
    </g>
    <g opacity=".8">
      <path d="M222.3,132c19.9,0,36.8,14.6,39.7,34.2l18.9,126.7c2.3,15.7,15.8,27.3,31.7,27.3v5.4c-18.5,0-34.3-13.6-37-31.9l-18.9-126.7c-2.5-17-17.1-29.6-34.4-29.6v-5.4Z" fill="#fcc5c0"/>
    </g>
    <g opacity=".8">
      <path d="M404.9,104.7c5.9,0,11.8.6,17.6,1.9l55.8,11.9c5.6,1.2,11.2,1.8,16.9,1.8v6.3c-6.1,0-12.2-.6-18.2-1.9l-55.8-11.9c-5.3-1.1-10.8-1.7-16.2-1.7v-6.3Z" fill="#2b8cbe"/>
    </g>
    <g opacity=".8">
      <path d="M131,104.7c6.4,0,12.7,1.1,18.7,3.4l52.3,19.5c6.2,2.3,12.7,3.5,19.3,3.5v6.4c-7.4,0-14.6-1.3-21.5-3.9l-52.3-19.5c-5.3-2-10.9-3-16.5-3v-6.4Z" fill="#525252"/>
    </g>
    <g opacity=".8">
      <path d="M587.4,142.3c10.8,0,21.3,3.7,29.6,10.6l39.1,32c6.1,5,13.7,7.7,21.6,7.7v6.8c-9.4,0-18.6-3.3-25.9-9.2l-39.1-32c-7.2-5.9-16.1-9.1-25.4-9.1v-6.8Z" fill="#ccebc5"/>
    </g>
    <g opacity=".8">
      <path d="M587.4,156.7c7.4,0,13.3,6,13.3,13.3,0,0,0,0,0,.1l-1,108.7c0,7.4-5.9,13.3-13.3,13.4,0,0,0,0,0,0v-7.3c3.3,0,6-2.7,6-6,0,0,0,0,0-.1l1-108.7c0-3.3-2.6-6-6-6.1,0,0,0,0,0,0v-7.3Z" fill="#d9d9d9"/>
    </g>
    <g opacity=".8">
      <path d="M586.4,292.2c5.7,0,11.4-.2,17-.5l57.7-3.6c5.8-.4,11.7-.5,17.5-.5v7.5c-5.7,0-11.4.2-17,.5l-57.7,3.6c-5.8.4-11.7.5-17.5.5v-7.5Z" fill="#d9d9d9"/>
    </g>
    <g opacity=".8">
      <path d="M587.4,149.1c13.4,0,25.9,6.7,33.3,17.8l26.2,39.4c6.9,10.3,18.4,16.5,30.8,16.5v7.6c-14.9,0-28.8-7.5-37.1-19.9l-26.2-39.4c-6-9-16.1-14.4-27-14.4v-7.6Z" fill="#ccebc5"/>
    </g>
    <g opacity=".8">
      <path d="M587.4,194.2c6,0,11.9-2,16.6-5.8l52.3-41.7c6.1-4.9,13.6-7.5,21.4-7.5v7.8c-6,0-11.9,2-16.6,5.8l-52.3,41.7c-6.1,4.9-13.6,7.5-21.4,7.5v-7.8Z" fill="#e0f3db"/>
    </g>
    <g opacity=".8">
      <path d="M222.3,187.4c6.4,0,12.8,1.1,18.8,3.2l56,19.6c5,1.7,10.2,2.6,15.5,2.6v10c-6.4,0-12.8-1.1-18.8-3.2l-56-19.6c-5-1.7-10.2-2.6-15.5-2.6v-10Z" fill="#d9d9d9"/>
    </g>
    <g opacity=".8">
      <path d="M313.6,212.8c5.3,0,10.5-.9,15.5-2.7l55.9-20.3c6.1-2.2,12.5-3.3,18.9-3.3v10c-5.3,0-10.5.9-15.5,2.7l-55.9,20.3c-6.1,2.2-12.5,3.3-18.9,3.3v-10Z" fill="#d9d9d9"/>
    </g>
    <g opacity=".8">
      <path d="M496.1,146.3c17,0,32.8,8.5,42.1,22.7l12.7,19.2c7.9,11.9,21.2,19.1,35.5,19.1v11.4c-18.1,0-35-9.1-45-24.2l-12.7-19.2c-7.2-10.9-19.5-17.5-32.6-17.5v-11.4Z" fill="#a8ddb5"/>
    </g>
    <g opacity=".8">
      <path d="M678.7,160.5c2.4,0,4.8-.2,7.1-.7l66.1-13.9c5.6-1.2,11.4-1.8,17.1-1.8v12.6c-4.9,0-9.8.5-14.5,1.5l-66.1,13.9c-3.2.7-6.4,1-9.7,1v-12.6Z" fill="#d1bb9e"/>
    </g>
    <g opacity=".8">
      <path d="M496.1,58.1c12.7,0,24.1,8,28.3,20l34.3,96.5c4.2,11.7,15.3,19.6,27.7,19.6v13.1c-18,0-34-11.3-40.1-28.3l-34.3-96.5c-2.4-6.8-8.8-11.3-16-11.3v-13.1Z" fill="#e0f3db"/>
    </g>
    <g opacity=".8">
      <path d="M678.7,187.8c5.1,0,10.1-1.1,14.8-3.1l53-23.3c7.1-3.1,14.8-4.7,22.5-4.7v14.5c-5.7,0-11.4,1.2-16.7,3.5l-53,23.3c-6.5,2.9-13.5,4.3-20.6,4.3v-14.5Z" fill="#ead8c0"/>
    </g>
    <g opacity=".8">
      <path d="M404.9,48c9.2,0,18,3.3,24.9,9.4l45.5,39.8c5.5,4.8,12.5,7.4,19.8,7.4v15.6c-11.1,0-21.7-4-30.1-11.3l-45.5-39.8c-4.1-3.6-9.3-5.5-14.7-5.5v-15.6Z" fill="#a8ddb5"/>
    </g>
    <g opacity=".8">
      <path d="M131,316.1h90.3v15.9h-90.3v-15.9Z" fill="#d9d9d9"/>
    </g>
    <g opacity=".8">
      <path d="M678.7,217.4c5,0,9.8-1.5,13.9-4.2l53.6-35.3c6.8-4.5,14.7-6.8,22.8-6.8v16.1c-5,0-9.8,1.5-13.9,4.2l-53.6,35.3c-6.8,4.5-14.7,6.8-22.8,6.8v-16.1Z" fill="#fff2e1"/>
    </g>
    <g opacity=".8">
      <path d="M222.3,282.9c-2.8,0-5-2.2-5-5s0,0,0,0l-1-71.2c0-2.8,2.1-5.1,4.8-5.2,0,0,.1,0,.2,0v-16.8c-12,0-21.8,9.8-21.8,21.8,0,0,0,.1,0,.2l1,71.2c0,12,9.7,21.8,21.8,21.8,0,0,0,0,0,0v-16.8Z" fill="#d9d9d9"/>
    </g>
    <g opacity=".8">
      <path d="M221.3,282.9h92.3v16.8h-92.3v-16.8Z" fill="#d9d9d9"/>
    </g>
    <g opacity=".8">
      <path d="M312.6,282.9h92.3v16.8h-92.3v-16.8Z" fill="#d9d9d9"/>
    </g>
    <g opacity=".8">
      <path d="M403.9,282.9h92.3v16.8h-92.3v-16.8Z" fill="#d9d9d9"/>
    </g>
    <g opacity=".8">
      <path d="M495.1,282.9h92.3v16.8h-92.3v-16.8Z" fill="#d9d9d9"/>
    </g>
    <g opacity=".8">
      <path d="M496.1,40.4c13.9,0,27.2,6.1,36.3,16.7l32.3,37.6c5.4,6.3,13.4,10,21.8,10v17.7c-13.5,0-26.4-5.9-35.2-16.2l-32.3-37.6c-5.7-6.7-14-10.5-22.8-10.5v-17.7Z" fill="#ccebc5"/>
    </g>
    <g opacity=".8">
      <path d="M313.6,135.3c7.3,0,14.6,1.4,21.4,4.1l55.7,22c4.2,1.7,8.6,2.5,13.1,2.5v22.6c-7.3,0-14.6-1.4-21.4-4.1l-55.7-22c-4.2-1.7-8.6-2.5-13.1-2.5v-22.6Z" fill="#4eb3d3"/>
    </g>
    <g opacity=".8">
      <path d="M222.3,109.2c7.3,0,14.5,1.3,21.3,3.7l55.6,20c4.3,1.5,8.8,2.3,13.4,2.3v22.7c-7.2,0-14.3-1.2-21.1-3.7l-55.6-20c-4.4-1.6-9-2.4-13.6-2.4v-22.7Z" fill="#525252"/>
    </g>
    <g opacity=".8">
      <path d="M131,42.7c13.7,0,26.8,5.8,35.9,16l32.8,36.4c5.5,6.1,13.3,9.6,21.6,9.6v26.3c-15.7,0-30.6-6.7-41.1-18.3l-32.8-36.4c-4.2-4.6-10.1-7.3-16.4-7.3v-26.3Z" fill="#525252"/>
    </g>
    <g opacity=".8">
      <path d="M404.9,163.8c3.7,0,7.3-.9,10.5-2.6l54.8-28.5c7.7-4,16.3-6.1,25-6.1v31.3c-3.7,0-7.3.9-10.5,2.6l-54.8,28.5c-7.7,4-16.3,6.1-25,6.1v-31.3Z" fill="#7bccc4"/>
    </g>
    <g opacity=".8">
      <path d="M587.4,104.7h90.3v34.5h-90.3v-34.5Z" fill="#ccebc5"/>
    </g>
    <g opacity=".8">
      <path d="M678.7,104.7h90.3v39.4h-90.3v-39.4Z" fill="#a79277"/>
    </g>
    <g opacity=".8">
      <path d="M496.1,104.7c7.3,0,14.6.9,21.8,2.6l56.6,13.7c3.9.9,7.9,1.4,12,1.4v41.6c-7.3,0-14.6-.9-21.8-2.6l-56.6-13.7c-3.9-.9-7.9-1.4-12-1.4v-41.6Z" fill="#a8ddb5"/>
    </g>
  </g>
  <g>
    <g>
      <line x1="130" y1="42.7" x2="130" y2="69" fill="none" stroke="#000"/>
      <rect x="130" y="42.7" width="1" height="26.3" fill="none"/>
      <text transform="translate(86 60)" font-family="Helvetica, Helvetica" font-size="12" isolation="isolate"><tspan x="0" y="0">Imports</tspan></text>
      <rect x="125" y="37.7" width="10" height="31.3" display="none" fill="none"/>
    </g>
    <g>
      <line x1="130" y1="104.7" x2="130" y2="111.1" fill="none" stroke="#000"/>
      <rect x="130" y="104.7" width="1" height="6.4" fill="none"/>
      <text transform="translate(100 112.1)" font-family="Helvetica, Helvetica" font-size="12" isolation="isolate"><tspan x="0" y="0">Mine</tspan></text>
      <rect x="125" y="99.7" width="10" height="11.4" display="none" fill="none"/>
    </g>
    <g>
      <line x1="130" y1="248.8" x2="130" y2="248.8" display="none" fill="none" stroke="#000"/>
      <polygon points="130 248.8 131 248.8 131 248.8 130 248.8" fill="none"/>
      <rect x="125" y="243.8" width="10" height="5" display="none" fill="none"/>
    </g>
    <g>
      <line x1="130" y1="248.8" x2="130" y2="248.8" display="none" fill="none" stroke="#000"/>
      <polygon points="130 248.8 131 248.8 131 248.8 130 248.8" fill="none"/>
      <rect x="125" y="243.8" width="10" height="5" display="none" fill="none"/>
    </g>
    <g>
      <line x1="130" y1="316.1" x2="130" y2="332" fill="none" stroke="#000"/>
      <rect x="130" y="316.1" width="1" height="15.9" fill="none"/>
      <text transform="translate(102.7 328.3)" font-family="Helvetica, Helvetica" font-size="12" isolation="isolate"><tspan x="0" y="0">1 Mt</tspan></text>
      <rect x="125" y="311.1" width="10" height="20.9" display="none" fill="none"/>
    </g>
    <g>
      <line x1="221.3" y1="55.8" x2="221.3" y2="55.8" display="none" fill="none" stroke="#000"/>
      <polygon points="221.3 55.8 222.3 55.8 222.3 55.8 221.3 55.8" fill="none"/>
      <rect x="216.3" y="50.8" width="10" height="5" display="none" fill="none"/>
    </g>
    <g>
      <line x1="221.3" y1="99.7" x2="221.3" y2="137.4" fill="none" stroke="#000"/>
      <rect x="221.3" y="104.7" width="1" height="32.7" fill="none"/>
      <text transform="translate(217.3 98.9)" font-family="Helvetica, Helvetica" font-size="12" isolation="isolate"><tspan x="0" y="0">Iron ore</tspan></text>
      <rect x="216.3" y="99.7" width="10" height="37.7" display="none" fill="none"/>
    </g>
    <g>
      <line x1="221.3" y1="179.7" x2="221.3" y2="201.5" fill="none" stroke="#000"/>
      <rect x="221.3" y="184.7" width="1" height="16.8" fill="none"/>
      <text transform="translate(217.3 178.9)" font-family="Helvetica, Helvetica" font-size="12" isolation="isolate"><tspan x="0" y="0">Scrap steel</tspan></text>
      <rect x="216.3" y="179.7" width="10" height="21.8" display="none" fill="none"/>
    </g>
    <g>
      <line x1="221.3" y1="248.8" x2="221.3" y2="248.8" display="none" fill="none" stroke="#000"/>
      <polygon points="221.3 248.8 222.3 248.8 222.3 248.8 221.3 248.8" fill="none"/>
      <rect x="216.3" y="243.8" width="10" height="5" display="none" fill="none"/>
    </g>
    <g>
      <line x1="221.3" y1="248.8" x2="221.3" y2="248.8" display="none" fill="none" stroke="#000"/>
      <polygon points="221.3 248.8 222.3 248.8 222.3 248.8 221.3 248.8" fill="none"/>
      <rect x="216.3" y="243.8" width="10" height="5" display="none" fill="none"/>
    </g>
    <g>
      <line x1="221.3" y1="277.9" x2="221.3" y2="299.7" display="none" fill="none" stroke="#000"/>
      <rect x="221.3" y="282.9" width="1" height="16.8" fill="none"/>
      <rect x="216.3" y="277.9" width="10" height="21.8" display="none" fill="none"/>
    </g>
    <g>
      <line x1="221.3" y1="316.1" x2="221.3" y2="332" fill="none" stroke="#000"/>
      <rect x="221.3" y="316.1" width="1" height="15.9" fill="none"/>
      <rect x="216.3" y="311.1" width="10" height="20.9" display="none" fill="none"/>
    </g>
    <g>
      <line x1="312.6" y1="99.7" x2="312.6" y2="109.2" fill="none" stroke="#000"/>
      <rect x="312.6" y="104.7" width="1" height="4.5" fill="none"/>
      <text transform="translate(308.6 98.9)" font-family="Helvetica, Helvetica" font-size="12" isolation="isolate"><tspan x="0" y="0">Pig iron</tspan></text>
      <rect x="307.6" y="99.7" width="10" height="9.5" display="none" fill="none"/>
    </g>
    <g>
      <line x1="312.6" y1="130.3" x2="312.6" y2="158" fill="none" stroke="#000"/>
      <rect x="312.6" y="135.3" width="1" height="22.7" fill="none"/>
      <text transform="translate(308.6 129.5)" font-family="Helvetica, Helvetica" font-size="12" isolation="isolate"><tspan x="0" y="0">Direct reduced iron</tspan></text>
      <rect x="307.6" y="130.3" width="10" height="27.7" display="none" fill="none"/>
    </g>
    <g>
      <line x1="312.6" y1="184.1" x2="312.6" y2="184.1" display="none" fill="none" stroke="#000"/>
      <polygon points="312.6 184.1 313.6 184.1 313.6 184.1 312.6 184.1" fill="none"/>
      <rect x="307.6" y="179.1" width="10" height="5" display="none" fill="none"/>
    </g>
    <g>
      <line x1="312.6" y1="184.1" x2="312.6" y2="186.7" display="none" fill="none" stroke="#000"/>
      <rect x="312.6" y="184.1" width="1" height="2.7" fill="none"/>
      <rect x="307.6" y="179.1" width="10" height="7.7" display="none" fill="none"/>
    </g>
    <g>
      <line x1="312.6" y1="212.8" x2="312.6" y2="212.8" display="none" fill="none" stroke="#000"/>
      <polygon points="312.6 212.8 313.6 212.8 313.6 212.8 312.6 212.8" fill="none"/>
      <rect x="307.6" y="207.8" width="10" height="5" display="none" fill="none"/>
    </g>
    <g>
      <line x1="312.6" y1="212.8" x2="312.6" y2="222.8" display="none" fill="none" stroke="#000"/>
      <rect x="312.6" y="212.8" width="1" height="10" fill="none"/>
      <rect x="307.6" y="207.8" width="10" height="15" display="none" fill="none"/>
    </g>
    <g>
      <line x1="312.6" y1="248.8" x2="312.6" y2="248.8" display="none" fill="none" stroke="#000"/>
      <polygon points="312.6 248.8 313.6 248.8 313.6 248.8 312.6 248.8" fill="none"/>
      <rect x="307.6" y="243.8" width="10" height="5" display="none" fill="none"/>
    </g>
    <g>
      <line x1="312.6" y1="248.8" x2="312.6" y2="248.8" display="none" fill="none" stroke="#000"/>
      <polygon points="312.6 248.8 313.6 248.8 313.6 248.8 312.6 248.8" fill="none"/>
      <rect x="307.6" y="243.8" width="10" height="5" display="none" fill="none"/>
    </g>
    <g>
      <line x1="312.6" y1="264.7" x2="312.6" y2="271.6" display="none" fill="none" stroke="#000"/>
      <rect x="312.6" y="269.7" width="1" height="1.8" fill="none"/>
      <rect x="307.6" y="264.7" width="10" height="6.8" display="none" fill="none"/>
    </g>
    <g>
      <line x1="312.6" y1="277.9" x2="312.6" y2="299.7" display="none" fill="none" stroke="#000"/>
      <rect x="312.6" y="282.9" width="1" height="16.8" fill="none"/>
      <rect x="307.6" y="277.9" width="10" height="21.8" display="none" fill="none"/>
    </g>
    <g>
      <line x1="312.6" y1="320.2" x2="312.6" y2="327.9" fill="none" stroke="#000"/>
      <rect x="312.6" y="320.2" width="1" height="7.7" fill="none"/>
      <text transform="translate(317.6 328.3)" font-family="Helvetica, Helvetica" font-size="12" isolation="isolate"><tspan x="0" y="0">Exports</tspan></text>
      <rect x="307.6" y="315.2" width="10" height="12.7" display="none" fill="none"/>
    </g>
    <g>
      <line x1="403.9" y1="48" x2="403.9" y2="63.6" fill="none" stroke="#000"/>
      <rect x="403.9" y="48" width="1" height="15.6" fill="none"/>
      <text transform="translate(359.8 60)" font-family="Helvetica, Helvetica" font-size="12" isolation="isolate"><tspan x="0" y="0">Imports</tspan></text>
      <rect x="398.9" y="43" width="10" height="20.6" display="none" fill="none"/>
    </g>
    <g>
      <line x1="403.9" y1="104.7" x2="403.9" y2="104.7" display="none" fill="none" stroke="#000"/>
      <polygon points="403.9 104.7 404.9 104.7 404.9 104.7 403.9 104.7" fill="none"/>
      <rect x="398.9" y="99.7" width="10" height="5" display="none" fill="none"/>
    </g>
    <g>
      <line x1="403.9" y1="104.7" x2="403.9" y2="111.3" fill="none" stroke="#000"/>
      <rect x="403.9" y="104.7" width="1" height="6.7" fill="none"/>
      <text transform="translate(408.9 112.2)" font-family="Helvetica, Helvetica" font-size="12" isolation="isolate"><tspan x="0" y="0">BOF steel</tspan></text>
      <rect x="398.9" y="99.7" width="10" height="11.7" display="none" fill="none"/>
    </g>
    <g>
      <line x1="403.9" y1="163.8" x2="403.9" y2="163.8" display="none" fill="none" stroke="#000"/>
      <polygon points="403.9 163.8 404.9 163.8 404.9 163.8 403.9 163.8" fill="none"/>
      <rect x="398.9" y="158.8" width="10" height="5" display="none" fill="none"/>
    </g>
    <g>
      <line x1="403.9" y1="163.8" x2="403.9" y2="196.4" fill="none" stroke="#000"/>
      <rect x="403.9" y="163.8" width="1" height="32.7" fill="none"/>
      <text transform="translate(408.9 184.3)" font-family="Helvetica, Helvetica" font-size="12" isolation="isolate"><tspan x="0" y="0">EAF steel</tspan></text>
      <rect x="398.9" y="158.8" width="10" height="37.7" display="none" fill="none"/>
    </g>
    <g>
      <line x1="403.9" y1="248.8" x2="403.9" y2="248.8" display="none" fill="none" stroke="#000"/>
      <polygon points="403.9 248.8 404.9 248.8 404.9 248.8 403.9 248.8" fill="none"/>
      <rect x="398.9" y="243.8" width="10" height="5" display="none" fill="none"/>
    </g>
    <g>
      <line x1="403.9" y1="262.6" x2="403.9" y2="269.6" display="none" fill="none" stroke="#000"/>
      <rect x="403.9" y="267.6" width="1" height="2" fill="none"/>
      <rect x="398.9" y="262.6" width="10" height="7" display="none" fill="none"/>
    </g>
    <g>
      <line x1="403.9" y1="273.7" x2="403.9" y2="273.7" display="none" fill="none" stroke="#000"/>
      <polygon points="403.9 273.7 404.9 273.7 404.9 273.7 403.9 273.7" fill="none"/>
      <rect x="398.9" y="268.7" width="10" height="5" display="none" fill="none"/>
    </g>
    <g>
      <line x1="403.9" y1="277.9" x2="403.9" y2="299.7" display="none" fill="none" stroke="#000"/>
      <rect x="403.9" y="282.9" width="1" height="16.8" fill="none"/>
      <rect x="398.9" y="277.9" width="10" height="21.8" display="none" fill="none"/>
    </g>
    <g>
      <line x1="403.9" y1="323.8" x2="403.9" y2="324.8" fill="none" stroke="#000"/>
      <rect x="403.9" y="323.8" width="1" height="1" fill="none"/>
      <text transform="translate(408.9 328.3)" font-family="Helvetica, Helvetica" font-size="12" isolation="isolate"><tspan x="0" y="0">Exports</tspan></text>
      <rect x="398.9" y="318.8" width="10" height="6" display="none" fill="none"/>
    </g>
    <g>
      <line x1="495.1" y1="40.4" x2="495.1" y2="71.2" fill="none" stroke="#000"/>
      <rect x="495.1" y="40.4" width="1" height="30.8" fill="none"/>
      <text transform="translate(451.1 60)" font-family="Helvetica, Helvetica" font-size="12" isolation="isolate"><tspan x="0" y="0">Imports</tspan></text>
      <rect x="490.1" y="35.4" width="10" height="35.8" display="none" fill="none"/>
    </g>
    <g>
      <line x1="495.1" y1="99.7" x2="495.1" y2="157.8" fill="none" stroke="#000"/>
      <rect x="495.1" y="104.7" width="1" height="53.1" fill="none"/>
      <text transform="translate(491.1 98.9)" font-family="Helvetica, Helvetica" font-size="12" isolation="isolate"><tspan x="0" y="0">Ingots and semis</tspan></text>
      <rect x="490.1" y="99.7" width="10" height="58.1" display="none" fill="none"/>
    </g>
    <g>
      <line x1="495.1" y1="248.8" x2="495.1" y2="248.8" display="none" fill="none" stroke="#000"/>
      <polygon points="495.1 248.8 496.1 248.8 496.1 248.8 495.1 248.8" fill="none"/>
      <rect x="490.1" y="243.8" width="10" height="5" display="none" fill="none"/>
    </g>
    <g>
      <line x1="495.1" y1="248.8" x2="495.1" y2="248.8" display="none" fill="none" stroke="#000"/>
      <polygon points="495.1 248.8 496.1 248.8 496.1 248.8 495.1 248.8" fill="none"/>
      <rect x="490.1" y="243.8" width="10" height="5" display="none" fill="none"/>
    </g>
    <g>
      <line x1="495.1" y1="248.8" x2="495.1" y2="248.8" display="none" fill="none" stroke="#000"/>
      <polygon points="495.1 248.8 496.1 248.8 496.1 248.8 495.1 248.8" fill="none"/>
      <rect x="490.1" y="243.8" width="10" height="5" display="none" fill="none"/>
    </g>
    <g>
      <line x1="495.1" y1="248.8" x2="495.1" y2="248.8" display="none" fill="none" stroke="#000"/>
      <polygon points="495.1 248.8 496.1 248.8 496.1 248.8 495.1 248.8" fill="none"/>
      <rect x="490.1" y="243.8" width="10" height="5" display="none" fill="none"/>
    </g>
    <g>
      <line x1="495.1" y1="268.7" x2="495.1" y2="272.6" fill="none" stroke="#000"/>
      <rect x="495.1" y="268.7" width="1" height="3.8" fill="none"/>
      <text transform="translate(500.1 274.9)" font-family="Helvetica, Helvetica" font-size="12" isolation="isolate"><tspan x="0" y="0">Loss</tspan></text>
      <rect x="490.1" y="263.7" width="10" height="8.8" display="none" fill="none"/>
    </g>
    <g>
      <line x1="495.1" y1="277.9" x2="495.1" y2="299.7" display="none" fill="none" stroke="#000"/>
      <rect x="495.1" y="282.9" width="1" height="16.8" fill="none"/>
      <rect x="490.1" y="277.9" width="10" height="21.8" display="none" fill="none"/>
    </g>
    <g>
      <line x1="586.4" y1="48.1" x2="586.4" y2="63.6" fill="none" stroke="#000"/>
      <rect x="586.4" y="48.1" width="1" height="15.5" fill="none"/>
      <text transform="translate(542.4 60)" font-family="Helvetica, Helvetica" font-size="12" isolation="isolate"><tspan x="0" y="0">Imports</tspan></text>
      <rect x="581.4" y="43.1" width="10" height="20.5" display="none" fill="none"/>
    </g>
    <g>
      <line x1="586.4" y1="104.7" x2="586.4" y2="104.7" display="none" fill="none" stroke="#000"/>
      <polygon points="586.4 104.7 587.4 104.7 587.4 104.7 586.4 104.7" fill="none"/>
      <rect x="581.4" y="99.7" width="10" height="5" display="none" fill="none"/>
    </g>
    <g>
      <line x1="586.4" y1="104.7" x2="586.4" y2="164" fill="none" stroke="#000"/>
      <rect x="586.4" y="104.7" width="1" height="59.4" fill="none"/>
      <text transform="translate(591.4 138.6)" font-family="Helvetica, Helvetica" font-size="12" isolation="isolate"><tspan x="0" y="0">Long products</tspan></text>
      <rect x="581.4" y="99.7" width="10" height="64.4" display="none" fill="none"/>
    </g>
    <g>
      <line x1="586.4" y1="194.2" x2="586.4" y2="194.2" display="none" fill="none" stroke="#000"/>
      <polygon points="586.4 194.2 587.4 194.2 587.4 194.2 586.4 194.2" fill="none"/>
      <rect x="581.4" y="189.2" width="10" height="5" display="none" fill="none"/>
    </g>
    <g>
      <line x1="586.4" y1="194.2" x2="586.4" y2="194.2" display="none" fill="none" stroke="#000"/>
      <polygon points="586.4 194.2 587.4 194.2 587.4 194.2 586.4 194.2" fill="none"/>
      <rect x="581.4" y="189.2" width="10" height="5" display="none" fill="none"/>
    </g>
    <g>
      <line x1="586.4" y1="194.2" x2="586.4" y2="218.7" fill="none" stroke="#000"/>
      <rect x="586.4" y="194.2" width="1" height="24.6" fill="none"/>
      <text transform="translate(591.4 210.6)" font-family="Helvetica, Helvetica" font-size="12" isolation="isolate"><tspan x="0" y="0">Flat products</tspan></text>
      <rect x="581.4" y="189.2" width="10" height="29.6" display="none" fill="none"/>
    </g>
    <g>
      <line x1="586.4" y1="248.8" x2="586.4" y2="248.8" display="none" fill="none" stroke="#000"/>
      <polygon points="586.4 248.8 587.4 248.8 587.4 248.8 586.4 248.8" fill="none"/>
      <rect x="581.4" y="243.8" width="10" height="5" display="none" fill="none"/>
    </g>
    <g>
      <line x1="586.4" y1="248.8" x2="586.4" y2="248.8" display="none" fill="none" stroke="#000"/>
      <polygon points="586.4 248.8 587.4 248.8 587.4 248.8 586.4 248.8" fill="none"/>
      <rect x="581.4" y="243.8" width="10" height="5" display="none" fill="none"/>
    </g>
    <g>
      <line x1="586.4" y1="277.9" x2="586.4" y2="299.7" display="none" fill="none" stroke="#000"/>
      <rect x="586.4" y="282.9" width="1" height="16.8" fill="none"/>
      <rect x="581.4" y="277.9" width="10" height="21.8" display="none" fill="none"/>
    </g>
    <g>
      <line x1="586.4" y1="324.1" x2="586.4" y2="324.1" display="none" fill="none" stroke="#000"/>
      <polygon points="586.4 324.1 587.4 324.1 587.4 324.1 586.4 324.1" fill="none"/>
      <rect x="581.4" y="319.1" width="10" height="5" display="none" fill="none"/>
    </g>
    <g>
      <line x1="677.7" y1="99.7" x2="677.7" y2="147" fill="none" stroke="#000"/>
      <rect x="677.7" y="104.7" width="1" height="42.3" fill="none"/>
      <text transform="translate(673.7 98.9)" font-family="Helvetica, Helvetica" font-size="12" isolation="isolate"><tspan x="0" y="0">Construction</tspan></text>
      <rect x="672.7" y="99.7" width="10" height="47.3" display="none" fill="none"/>
    </g>
    <g>
      <line x1="677.7" y1="160.5" x2="677.7" y2="174.3" fill="none" stroke="#000"/>
      <rect x="677.7" y="160.5" width="1" height="13.7" fill="none"/>
      <text transform="translate(682.7 171.6)" font-family="Helvetica, Helvetica" font-size="12" isolation="isolate"><tspan x="0" y="0">Transport</tspan></text>
      <rect x="672.7" y="155.5" width="10" height="18.7" display="none" fill="none"/>
    </g>
    <g>
      <line x1="677.7" y1="187.8" x2="677.7" y2="203.9" fill="none" stroke="#000"/>
      <rect x="677.7" y="187.8" width="1" height="16.1" fill="none"/>
      <text transform="translate(682.7 200)" font-family="Helvetica, Helvetica" font-size="12" isolation="isolate"><tspan x="0" y="0">Machinery</tspan></text>
      <rect x="672.7" y="182.8" width="10" height="21.1" display="none" fill="none"/>
    </g>
    <g>
      <line x1="677.7" y1="217.4" x2="677.7" y2="217.4" display="none" fill="none" stroke="#000"/>
      <polygon points="677.7 217.4 678.7 217.4 678.7 217.4 677.7 217.4" fill="none"/>
      <rect x="672.7" y="212.4" width="10" height="5" display="none" fill="none"/>
    </g>
    <g>
      <line x1="677.7" y1="217.4" x2="677.7" y2="235.3" fill="none" stroke="#000"/>
      <rect x="677.7" y="217.4" width="1" height="17.9" fill="none"/>
      <text transform="translate(682.7 230.6)" font-family="Helvetica, Helvetica" font-size="12" isolation="isolate"><tspan x="0" y="0">Other goods</tspan></text>
      <rect x="672.7" y="212.4" width="10" height="22.9" display="none" fill="none"/>
    </g>
    <g>
      <line x1="677.7" y1="248.8" x2="677.7" y2="248.8" display="none" fill="none" stroke="#000"/>
      <polygon points="677.7 248.8 678.7 248.8 678.7 248.8 677.7 248.8" fill="none"/>
      <rect x="672.7" y="243.8" width="10" height="5" display="none" fill="none"/>
    </g>
    <g>
      <line x1="677.7" y1="248.8" x2="677.7" y2="248.8" display="none" fill="none" stroke="#000"/>
      <polygon points="677.7 248.8 678.7 248.8 678.7 248.8 677.7 248.8" fill="none"/>
      <rect x="672.7" y="243.8" width="10" height="5" display="none" fill="none"/>
    </g>
    <g>
      <line x1="677.7" y1="282.6" x2="677.7" y2="295" display="none" fill="none" stroke="#000"/>
      <rect x="677.7" y="287.6" width="1" height="7.5" fill="none"/>
      <rect x="672.7" y="282.6" width="10" height="12.5" display="none" fill="none"/>
    </g>
    <g>
      <line x1="677.7" y1="324.1" x2="677.7" y2="324.1" display="none" fill="none" stroke="#000"/>
      <polygon points="677.7 324.1 678.7 324.1 678.7 324.1 677.7 324.1" fill="none"/>
      <rect x="672.7" y="319.1" width="10" height="5" display="none" fill="none"/>
    </g>
    <g>
      <line x1="769" y1="104.7" x2="769" y2="104.7" display="none" fill="none" stroke="#000"/>
      <polygon points="769 104.7 770 104.7 770 104.7 769 104.7" fill="none"/>
      <rect x="764" y="99.7" width="10" height="5" display="none" fill="none"/>
    </g>
    <g>
      <line x1="769" y1="104.7" x2="769" y2="104.7" display="none" fill="none" stroke="#000"/>
      <polygon points="769 104.7 770 104.7 770 104.7 769 104.7" fill="none"/>
      <rect x="764" y="99.7" width="10" height="5" display="none" fill="none"/>
    </g>
    <g>
      <line x1="769" y1="104.7" x2="769" y2="187.2" fill="none" stroke="#000"/>
      <rect x="769" y="104.7" width="1" height="82.5" fill="none"/>
      <rect x="764" y="99.7" width="10" height="87.5" display="none" fill="none"/>
    </g>
    <g>
      <line x1="769" y1="248.8" x2="769" y2="248.8" display="none" fill="none" stroke="#000"/>
      <polygon points="769 248.8 770 248.8 770 248.8 769 248.8" fill="none"/>
      <rect x="764" y="243.8" width="10" height="5" display="none" fill="none"/>
    </g>
    <g>
      <line x1="769" y1="248.8" x2="769" y2="248.8" display="none" fill="none" stroke="#000"/>
      <polygon points="769 248.8 770 248.8 770 248.8 769 248.8" fill="none"/>
      <rect x="764" y="243.8" width="10" height="5" display="none" fill="none"/>
    </g>
    <g>
      <line x1="769" y1="286.3" x2="769" y2="291.3" display="none" fill="none" stroke="#000"/>
      <polygon points="769 291.3 770 291.3 770 291.3 769 291.3" fill="none"/>
      <rect x="764" y="286.3" width="10" height="5" display="none" fill="none"/>
    </g>
    <g>
      <line x1="769" y1="324" x2="769" y2="325" fill="none" stroke="#000"/>
      <rect x="769" y="324" width="1" height="1" fill="none"/>
      <text transform="translate(774 328.3)" font-family="Helvetica, Helvetica" font-size="12" isolation="isolate"><tspan x="0" y="0">Exports</tspan></text>
      <rect x="764" y="319" width="10" height="6" display="none" fill="none"/>
    </g>
  </g>
</svg>