<?xml version="1.0" encoding="UTF-8"?>
<svg id="_レイヤー_1" data-name="レイヤー_1" xmlns="http://www.w3.org/2000/svg" version="1.1" viewBox="0 0 900 350">
  <!-- Generator: Adobe Illustrator 29.2.1, SVG Export Plug-In . SVG Version: 2.1.0 Build 116)  -->
  <g>
    <g display="none">
      <rect x="211.3" y="130.2" width="21" height="55.3" fill="#eee" stroke="#bbb" stroke-width=".5"/>
    </g>
    <g display="none">
      <rect x="302.6" y="44.2" width="21" height="30" fill="#eee" stroke="#bbb" stroke-width=".5"/>
    </g>
    <g display="none">
      <rect x="302.6" y="44.2" width="21" height="52.5" fill="#eee" stroke="#bbb" stroke-width=".5"/>
    </g>
    <g display="none">
      <rect x="302.6" y="112.4" width="21" height="32.8" fill="#eee" stroke="#bbb" stroke-width=".5"/>
    </g>
    <g display="none">
      <rect x="302.6" y="130.2" width="21" height="55.3" fill="#eee" stroke="#bbb" stroke-width=".5"/>
    </g>
    <g display="none">
      <rect x="393.9" y="110.8" width="21" height="32.8" fill="#eee" stroke="#bbb" stroke-width=".5"/>
    </g>
    <g display="none">
      <rect x="393.9" y="130.2" width="21" height="55.3" fill="#eee" stroke="#bbb" stroke-width=".5"/>
    </g>
    <g display="none">
      <rect x="485.1" y="130.2" width="21" height="55.3" fill="#eee" stroke="#bbb" stroke-width=".5"/>
    </g>
    <g display="none">
      <rect x="576.4" y="130.2" width="21" height="55.3" fill="#eee" stroke="#bbb" stroke-width=".5"/>
    </g>
    <g display="none">
      <rect x="667.7" y="130.7" width="21" height="54.4" fill="#eee" stroke="#bbb" stroke-width=".5"/>
    </g>
    <g>
      <rect x="759" y="44.2" width="21" height="64.3" fill="#eee" stroke="#bbb" stroke-width=".5"/>
      <text transform="translate(759 39.2)" fill="#999" font-family="Helvetica, Helvetica" font-size="12" isolation="isolate"><tspan x="0" y="0">Stock</tspan></text>
    </g>
    <g display="none">
      <rect x="759" y="131.6" width="21" height="52.5" fill="#eee" stroke="#bbb" stroke-width=".5"/>
    </g>
  </g>
  <g>
    <g opacity=".8">
      <path d="M131,40.9c5.8,0,11.5.9,17.1,2.7l56.2,17.9c5.5,1.8,11.3,2.7,17.1,2.7h0c-5.8,0-11.5-.9-17.1-2.7l-56.2-17.9c-5.5-1.8-11.3-2.7-17.1-2.7Z" fill="#fcc5c0"/>
    </g>
    <g opacity=".8">
      <path d="M131,40.9c5.8,0,11.5.9,17.1,2.7l56.2,17.9c5.5,1.8,11.3,2.7,17.1,2.7h0c-5.8,0-11.5-.9-17.1-2.7l-56.2-17.9c-5.5-1.8-11.3-2.7-17.1-2.7Z" fill="#525252"/>
    </g>
    <g opacity=".8">
      <path d="M131,40.9c5.8,0,11.5.9,17.1,2.7l56.2,17.9c5.5,1.8,11.3,2.7,17.1,2.7h0c-5.8,0-11.5-.9-17.1-2.7l-56.2-17.9c-5.5-1.8-11.3-2.7-17.1-2.7Z" fill="#fcc5c0"/>
    </g>
    <g opacity=".8">
      <path d="M131,40.9c5.8,0,11.5.9,17.1,2.7l56.2,17.9c5.5,1.8,11.3,2.7,17.1,2.7h0c-5.8,0-11.5-.9-17.1-2.7l-56.2-17.9c-5.5-1.8-11.3-2.7-17.1-2.7Z" fill="#d9d9d9"/>
    </g>
    <g opacity=".8">
      <path d="M131,64.2h90.3-90.3Z" fill="#525252"/>
    </g>
    <g opacity=".8">
      <path d="M131,64.2h90.3-90.3Z" fill="#2b8cbe"/>
    </g>
    <g opacity=".8">
      <path d="M131,64.2h90.3-90.3Z" fill="#fcc5c0"/>
    </g>
    <g opacity=".8">
      <path d="M131,64.2h90.3-90.3Z" fill="#4eb3d3"/>
    </g>
    <g opacity=".8">
      <path d="M131,64.2h90.3-90.3Z" fill="#7bccc4"/>
    </g>
    <g opacity=".8">
      <path d="M131,64.2h90.3-90.3Z" fill="#d9d9d9"/>
    </g>
    <g opacity=".8">
      <path d="M131,64.2h90.3-90.3Z" fill="#a8ddb5"/>
    </g>
    <g opacity=".8">
      <path d="M131,64.2h90.3-90.3Z" fill="#525252"/>
    </g>
    <g opacity=".8">
      <path d="M131,64.2h90.3-90.3Z" fill="#0868ac"/>
    </g>
    <g opacity=".8">
      <path d="M131,64.2h90.3-90.3Z" fill="#2b8cbe"/>
    </g>
    <g opacity=".8">
      <path d="M131,64.2h90.3-90.3Z" fill="#a79277"/>
    </g>
    <g opacity=".8">
      <path d="M131,64.2h90.3-90.3Z" fill="#4eb3d3"/>
    </g>
    <g opacity=".8">
      <path d="M131,64.2h90.3-90.3Z" fill="#7bccc4"/>
    </g>
    <g opacity=".8">
      <path d="M131,64.2h90.3-90.3Z" fill="#e0f3db"/>
    </g>
    <g opacity=".8">
      <path d="M131,64.2h90.3-90.3Z" fill="#a8ddb5"/>
    </g>
    <g opacity=".8">
      <path d="M131,64.2h90.3-90.3Z" fill="#ccebc5"/>
    </g>
    <g opacity=".8">
      <path d="M131,64.2h90.3-90.3Z" fill="#ead8c0"/>
    </g>
    <g opacity=".8">
      <path d="M131,64.2h90.3-90.3Z" fill="#fff2e1"/>
    </g>
    <g opacity=".8">
      <path d="M131,64.2h90.3-90.3Z" fill="#0868ac"/>
    </g>
    <g opacity=".8">
      <path d="M131,64.2h90.3-90.3Z" fill="#d9d9d9"/>
    </g>
    <g opacity=".8">
      <path d="M131,64.2h90.3-90.3Z" fill="#d1bb9e"/>
    </g>
    <g opacity=".8">
      <path d="M222.3,40.9c5.8,0,11.5.9,17.1,2.7l56.2,17.9c5.5,1.8,11.3,2.7,17.1,2.7h0c-5.8,0-11.5-.9-17.1-2.7l-56.2-17.9c-5.5-1.8-11.3-2.7-17.1-2.7Z" fill="#fcc5c0"/>
    </g>
    <g opacity=".8">
      <path d="M222.3,40.9c5.8,0,11.5.9,17.1,2.7l56.2,17.9c5.5,1.8,11.3,2.7,17.1,2.7h0c-5.8,0-11.5-.9-17.1-2.7l-56.2-17.9c-5.5-1.8-11.3-2.7-17.1-2.7Z" fill="#0868ac"/>
    </g>
    <g opacity=".8">
      <path d="M222.3,40.9c5.8,0,11.5.9,17.1,2.7l56.2,17.9c5.5,1.8,11.3,2.7,17.1,2.7h0c-5.8,0-11.5-.9-17.1-2.7l-56.2-17.9c-5.5-1.8-11.3-2.7-17.1-2.7Z" fill="#fcc5c0"/>
    </g>
    <g opacity=".8">
      <path d="M222.3,40.9c5.8,0,11.5.9,17.1,2.7l56.2,17.9c5.5,1.8,11.3,2.7,17.1,2.7h0c-5.8,0-11.5-.9-17.1-2.7l-56.2-17.9c-5.5-1.8-11.3-2.7-17.1-2.7Z" fill="#4eb3d3"/>
    </g>
    <g opacity=".8">
      <path d="M222.3,64.2h90.3-90.3Z" fill="#525252"/>
    </g>
    <g opacity=".8">
      <path d="M222.3,64.2h90.3-90.3Z" fill="#525252"/>
    </g>
    <g opacity=".8">
      <path d="M222.3,64.2c18.1,0,33.3,13.3,35.8,31.2l18.7,137.5c2.4,17.9,17.7,31.2,35.8,31.2h0c-18.1,0-33.3-13.3-35.8-31.2l-18.7-137.5c-2.4-17.9-17.7-31.2-35.8-31.2Z" fill="#fcc5c0"/>
    </g>
    <g opacity=".8">
      <path d="M222.3,64.2c18.1,0,33.3,13.3,35.8,31.2l18.7,137.5c2.4,17.9,17.7,31.2,35.8,31.2h0c-18.1,0-33.3-13.3-35.8-31.2l-18.7-137.5c-2.4-17.9-17.7-31.2-35.8-31.2Z" fill="#525252"/>
    </g>
    <g opacity=".8">
      <path d="M222.3,64.2h90.3-90.3Z" fill="#d9d9d9"/>
    </g>
    <g opacity=".8">
      <path d="M222.3,64.2h90.3-90.3Z" fill="#525252"/>
    </g>
    <g opacity=".8">
      <path d="M222.3,64.2h90.3-90.3Z" fill="#f0f0f0"/>
    </g>
    <g opacity=".8">
      <path d="M222.3,89.5c16,0,29.7,11.4,32.6,27.1l22.2,118.1c3.2,17.1,18.1,29.4,35.5,29.4h0c-17.4,0-32.3-12.4-35.5-29.4l-22.2-118.1c-2.9-15.7-16.7-27.1-32.6-27.1Z" fill="#fcc5c0"/>
    </g>
    <g opacity=".8">
      <path d="M222.3,89.5c16,0,29.7,11.4,32.6,27.1l22.2,118.1c3.2,17.1,18.1,29.4,35.5,29.4h0c-17.4,0-32.3-12.4-35.5-29.4l-22.2-118.1c-2.9-15.7-16.7-27.1-32.6-27.1Z" fill="#d9d9d9"/>
    </g>
    <g opacity=".8">
      <path d="M222.3,64.2h90.3-90.3Z" fill="#d9d9d9"/>
    </g>
    <g opacity=".8">
      <path d="M222.3,86.7c6.1,0,12.2,1.4,17.7,4.2l54.9,27.6c5.5,2.8,11.5,4.2,17.7,4.2h0c-6.1,0-12.2-1.4-17.7-4.2l-54.9-27.6c-5.5-2.8-11.5-4.2-17.7-4.2Z" fill="#d9d9d9"/>
    </g>
    <g opacity=".8">
      <path d="M222.3,122.7c7.1,0,13.9-2.5,19.3-7.1l51.7-44.3c5.4-4.6,12.2-7.1,19.3-7.1h0c-7.1,0-13.9,2.5-19.3,7.1l-51.7,44.3c-5.4,4.6-12.2,7.1-19.3,7.1Z" fill="#2b8cbe"/>
    </g>
    <g opacity=".8">
      <path d="M222.3,122.7c7.1,0,13.9-2.5,19.3-7.1l51.7-44.3c5.4-4.6,12.2-7.1,19.3-7.1h0c-7.1,0-13.9,2.5-19.3,7.1l-51.7,44.3c-5.4,4.6-12.2,7.1-19.3,7.1Z" fill="#a79277"/>
    </g>
    <g opacity=".8">
      <path d="M222.3,122.7c7.1,0,13.9-2.5,19.3-7.1l51.7-44.3c5.4-4.6,12.2-7.1,19.3-7.1h0c-7.1,0-13.9,2.5-19.3,7.1l-51.7,44.3c-5.4,4.6-12.2,7.1-19.3,7.1Z" fill="#7bccc4"/>
    </g>
    <g opacity=".8">
      <path d="M222.3,122.7c7.1,0,13.9-2.5,19.3-7.1l51.7-44.3c5.4-4.6,12.2-7.1,19.3-7.1h0c-7.1,0-13.9,2.5-19.3,7.1l-51.7,44.3c-5.4,4.6-12.2,7.1-19.3,7.1Z" fill="#e0f3db"/>
    </g>
    <g opacity=".8">
      <path d="M222.3,122.7c7.1,0,13.9-2.5,19.3-7.1l51.7-44.3c5.4-4.6,12.2-7.1,19.3-7.1h0c-7.1,0-13.9,2.5-19.3,7.1l-51.7,44.3c-5.4,4.6-12.2,7.1-19.3,7.1Z" fill="#a8ddb5"/>
    </g>
    <g opacity=".8">
      <path d="M222.3,122.7c7.1,0,13.9-2.5,19.3-7.1l51.7-44.3c5.4-4.6,12.2-7.1,19.3-7.1h0c-7.1,0-13.9,2.5-19.3,7.1l-51.7,44.3c-5.4,4.6-12.2,7.1-19.3,7.1Z" fill="#ccebc5"/>
    </g>
    <g opacity=".8">
      <path d="M222.3,122.7c7.1,0,13.9-2.5,19.3-7.1l51.7-44.3c5.4-4.6,12.2-7.1,19.3-7.1h0c-7.1,0-13.9,2.5-19.3,7.1l-51.7,44.3c-5.4,4.6-12.2,7.1-19.3,7.1Z" fill="#ead8c0"/>
    </g>
    <g opacity=".8">
      <path d="M222.3,122.7c7.1,0,13.9-2.5,19.3-7.1l51.7-44.3c5.4-4.6,12.2-7.1,19.3-7.1h0c-7.1,0-13.9,2.5-19.3,7.1l-51.7,44.3c-5.4,4.6-12.2,7.1-19.3,7.1Z" fill="#fff2e1"/>
    </g>
    <g opacity=".8">
      <path d="M222.3,122.7c7.1,0,13.9-2.5,19.3-7.1l51.7-44.3c5.4-4.6,12.2-7.1,19.3-7.1h0c-7.1,0-13.9,2.5-19.3,7.1l-51.7,44.3c-5.4,4.6-12.2,7.1-19.3,7.1Z" fill="#0868ac"/>
    </g>
    <g opacity=".8">
      <path d="M222.3,122.7c7.1,0,13.9-2.5,19.3-7.1l51.7-44.3c5.4-4.6,12.2-7.1,19.3-7.1h0c-7.1,0-13.9,2.5-19.3,7.1l-51.7,44.3c-5.4,4.6-12.2,7.1-19.3,7.1Z" fill="#d9d9d9"/>
    </g>
    <g opacity=".8">
      <path d="M222.3,122.7c7.1,0,13.9-2.5,19.3-7.1l51.7-44.3c5.4-4.6,12.2-7.1,19.3-7.1h0c-7.1,0-13.9,2.5-19.3,7.1l-51.7,44.3c-5.4,4.6-12.2,7.1-19.3,7.1Z" fill="#d1bb9e"/>
    </g>
    <g opacity=".8">
      <path d="M222.3,122.7c7.1,0,13.9-2.5,19.3-7.1l51.7-44.3c5.4-4.6,12.2-7.1,19.3-7.1h0c-7.1,0-13.9,2.5-19.3,7.1l-51.7,44.3c-5.4,4.6-12.2,7.1-19.3,7.1Z" fill="#2b8cbe"/>
    </g>
    <g opacity=".8">
      <path d="M222.3,122.7c7.1,0,13.9-2.5,19.3-7.1l51.7-44.3c5.4-4.6,12.2-7.1,19.3-7.1h0c-7.1,0-13.9,2.5-19.3,7.1l-51.7,44.3c-5.4,4.6-12.2,7.1-19.3,7.1Z" fill="#a79277"/>
    </g>
    <g opacity=".8">
      <path d="M222.3,122.7c7.1,0,13.9-2.5,19.3-7.1l51.7-44.3c5.4-4.6,12.2-7.1,19.3-7.1h0c-7.1,0-13.9,2.5-19.3,7.1l-51.7,44.3c-5.4,4.6-12.2,7.1-19.3,7.1Z" fill="#4eb3d3"/>
    </g>
    <g opacity=".8">
      <path d="M222.3,122.7c7.1,0,13.9-2.5,19.3-7.1l51.7-44.3c5.4-4.6,12.2-7.1,19.3-7.1h0c-7.1,0-13.9,2.5-19.3,7.1l-51.7,44.3c-5.4,4.6-12.2,7.1-19.3,7.1Z" fill="#7bccc4"/>
    </g>
    <g opacity=".8">
      <path d="M222.3,122.7c7.1,0,13.9-2.5,19.3-7.1l51.7-44.3c5.4-4.6,12.2-7.1,19.3-7.1h0c-7.1,0-13.9,2.5-19.3,7.1l-51.7,44.3c-5.4,4.6-12.2,7.1-19.3,7.1Z" fill="#e0f3db"/>
    </g>
    <g opacity=".8">
      <path d="M222.3,122.7c7.1,0,13.9-2.5,19.3-7.1l51.7-44.3c5.4-4.6,12.2-7.1,19.3-7.1h0c-7.1,0-13.9,2.5-19.3,7.1l-51.7,44.3c-5.4,4.6-12.2,7.1-19.3,7.1Z" fill="#a8ddb5"/>
    </g>
    <g opacity=".8">
      <path d="M222.3,122.7c7.1,0,13.9-2.5,19.3-7.1l51.7-44.3c5.4-4.6,12.2-7.1,19.3-7.1h0c-7.1,0-13.9,2.5-19.3,7.1l-51.7,44.3c-5.4,4.6-12.2,7.1-19.3,7.1Z" fill="#ccebc5"/>
    </g>
    <g opacity=".8">
      <path d="M222.3,122.7c7.1,0,13.9-2.5,19.3-7.1l51.7-44.3c5.4-4.6,12.2-7.1,19.3-7.1h0c-7.1,0-13.9,2.5-19.3,7.1l-51.7,44.3c-5.4,4.6-12.2,7.1-19.3,7.1Z" fill="#ead8c0"/>
    </g>
    <g opacity=".8">
      <path d="M222.3,122.7c7.1,0,13.9-2.5,19.3-7.1l51.7-44.3c5.4-4.6,12.2-7.1,19.3-7.1h0c-7.1,0-13.9,2.5-19.3,7.1l-51.7,44.3c-5.4,4.6-12.2,7.1-19.3,7.1Z" fill="#fff2e1"/>
    </g>
    <g opacity=".8">
      <path d="M222.3,122.7c7.1,0,13.9-2.5,19.3-7.1l51.7-44.3c5.4-4.6,12.2-7.1,19.3-7.1h0c-7.1,0-13.9,2.5-19.3,7.1l-51.7,44.3c-5.4,4.6-12.2,7.1-19.3,7.1Z" fill="#d9d9d9"/>
    </g>
    <g opacity=".8">
      <path d="M222.3,122.7c7.1,0,13.9-2.5,19.3-7.1l51.7-44.3c5.4-4.6,12.2-7.1,19.3-7.1h0c-7.1,0-13.9,2.5-19.3,7.1l-51.7,44.3c-5.4,4.6-12.2,7.1-19.3,7.1Z" fill="#d1bb9e"/>
    </g>
    <g opacity=".8">
      <path d="M222.3,150.2c-9.8,0-17.7-7.9-17.7-17.7,0,0,0,0,0-.1l-1-50.4c0-9.8,7.8-17.7,17.5-17.8,0,0,0,0,.1,0h0c-9.8,0-17.7,7.9-17.7,17.7,0,0,0,0,0,.1l1,50.4c0,9.8,7.8,17.7,17.5,17.8,0,0,0,0,.1,0Z" fill="#a79277"/>
    </g>
    <g opacity=".8">
      <path d="M222.3,150.2c-9.8,0-17.7-7.9-17.7-17.7,0,0,0,0,0-.1l-1-50.4c0-9.8,7.8-17.7,17.5-17.8,0,0,0,0,.1,0h0c-9.8,0-17.7,7.9-17.7,17.7,0,0,0,0,0,.1l1,50.4c0,9.8,7.8,17.7,17.5,17.8,0,0,0,0,.1,0Z" fill="#e0f3db"/>
    </g>
    <g opacity=".8">
      <path d="M222.3,175.5c-9.8,0-17.7-7.9-17.7-17.7,0,0,0,0,0-.1l-1-50.4c0-9.8,7.8-17.7,17.5-17.8,0,0,0,0,.1,0h0c-9.8,0-17.7,7.9-17.7,17.7s0,0,0,.1l1,50.4c0,9.8,7.8,17.7,17.5,17.8,0,0,0,0,.1,0Z" fill="#ccebc5"/>
    </g>
    <g opacity=".8">
      <path d="M222.3,175.5c-9.8,0-17.7-7.9-17.7-17.7,0,0,0,0,0-.1l-1-50.4c0-9.8,7.8-17.7,17.5-17.8,0,0,0,0,.1,0h0c-9.8,0-17.7,7.9-17.7,17.7s0,0,0,.1l1,50.4c0,9.8,7.8,17.7,17.5,17.8,0,0,0,0,.1,0Z" fill="#ead8c0"/>
    </g>
    <g opacity=".8">
      <path d="M222.3,175.5c-9.8,0-17.7-7.9-17.7-17.7,0,0,0,0,0-.1l-1-50.4c0-9.8,7.8-17.7,17.5-17.8,0,0,0,0,.1,0h0c-9.8,0-17.7,7.9-17.7,17.7s0,0,0,.1l1,50.4c0,9.8,7.8,17.7,17.5,17.8,0,0,0,0,.1,0Z" fill="#fff2e1"/>
    </g>
    <g opacity=".8">
      <path d="M222.3,175.5c-9.8,0-17.7-7.9-17.7-17.7,0,0,0,0,0-.1l-1-50.4c0-9.8,7.8-17.7,17.5-17.8,0,0,0,0,.1,0h0c-9.8,0-17.7,7.9-17.7,17.7s0,0,0,.1l1,50.4c0,9.8,7.8,17.7,17.5,17.8,0,0,0,0,.1,0Z" fill="#d1bb9e"/>
    </g>
    <g opacity=".8">
      <path d="M313.6,64.2c18.1,0,33.3,13.3,35.8,31.2l18.7,137.5c2.4,17.9,17.7,31.2,35.8,31.2h0c-18.1,0-33.3-13.3-35.8-31.2l-18.7-137.5c-2.4-17.9-17.7-31.2-35.8-31.2Z" fill="#fcc5c0"/>
    </g>
    <g opacity=".8">
      <path d="M313.6,64.2c18.1,0,33.3,13.3,35.8,31.2l18.7,137.5c2.4,17.9,17.7,31.2,35.8,31.2h0c-18.1,0-33.3-13.3-35.8-31.2l-18.7-137.5c-2.4-17.9-17.7-31.2-35.8-31.2Z" fill="#0868ac"/>
    </g>
    <g opacity=".8">
      <path d="M313.6,64.2h90.3-90.3Z" fill="#0868ac"/>
    </g>
    <g opacity=".8">
      <path d="M313.6,64.2h90.3-90.3Z" fill="#0868ac"/>
    </g>
    <g opacity=".8">
      <path d="M313.6,64.2c10,0,19.5,4.1,26.4,11.4l43.2,46.2c5.4,5.7,12.9,9,20.7,9h0c-7.8,0-15.3-3.2-20.7-9l-43.2-46.2c-6.8-7.3-16.4-11.4-26.4-11.4Z" fill="#f0f0f0"/>
    </g>
    <g opacity=".8">
      <path d="M313.6,64.2h90.3-90.3Z" fill="#d9d9d9"/>
    </g>
    <g opacity=".8">
      <path d="M313.6,64.2h90.3-90.3Z" fill="#0868ac"/>
    </g>
    <g opacity=".8">
      <path d="M313.6,64.2c18.1,0,33.3,13.3,35.8,31.2l18.7,137.5c2.4,17.9,17.7,31.2,35.8,31.2h0c-18.1,0-33.3-13.3-35.8-31.2l-18.7-137.5c-2.4-17.9-17.7-31.2-35.8-31.2Z" fill="#fcc5c0"/>
    </g>
    <g opacity=".8">
      <path d="M313.6,64.2c18.1,0,33.3,13.3,35.8,31.2l18.7,137.5c2.4,17.9,17.7,31.2,35.8,31.2h0c-18.1,0-33.3-13.3-35.8-31.2l-18.7-137.5c-2.4-17.9-17.7-31.2-35.8-31.2Z" fill="#4eb3d3"/>
    </g>
    <g opacity=".8">
      <path d="M313.6,64.2h90.3-90.3Z" fill="#4eb3d3"/>
    </g>
    <g opacity=".8">
      <path d="M313.6,64.2c10,0,19.5,4.1,26.4,11.4l43.2,46.2c5.4,5.7,12.9,9,20.7,9h0c-7.8,0-15.3-3.2-20.7-9l-43.2-46.2c-6.8-7.3-16.4-11.4-26.4-11.4Z" fill="#f0f0f0"/>
    </g>
    <g opacity=".8">
      <path d="M313.6,64.2c8.9,0,17.5,3.3,24.1,9.3l46.3,41.6c5.4,4.9,12.5,7.6,19.8,7.6h0c-7.3,0-14.4-2.7-19.8-7.6l-46.3-41.6c-6.6-6-15.2-9.3-24.1-9.3Z" fill="#4eb3d3"/>
    </g>
    <g opacity=".8">
      <path d="M313.6,64.2c8.9,0,17.5,3.3,24.1,9.3l46.3,41.6c5.4,4.9,12.5,7.6,19.8,7.6h0c-7.3,0-14.4-2.7-19.8-7.6l-46.3-41.6c-6.6-6-15.2-9.3-24.1-9.3Z" fill="#d9d9d9"/>
    </g>
    <g opacity=".8">
      <path d="M313.6,64.2h90.3-90.3Z" fill="#d9d9d9"/>
    </g>
    <g opacity=".8">
      <path d="M313.6,64.2h90.3-90.3Z" fill="#2b8cbe"/>
    </g>
    <g opacity=".8">
      <path d="M313.6,64.2h90.3-90.3Z" fill="#fcc5c0"/>
    </g>
    <g opacity=".8">
      <path d="M313.6,64.2h90.3-90.3Z" fill="#a79277"/>
    </g>
    <g opacity=".8">
      <path d="M313.6,64.2h90.3-90.3Z" fill="#4eb3d3"/>
    </g>
    <g opacity=".8">
      <path d="M313.6,64.2h90.3-90.3Z" fill="#7bccc4"/>
    </g>
    <g opacity=".8">
      <path d="M313.6,64.2h90.3-90.3Z" fill="#e0f3db"/>
    </g>
    <g opacity=".8">
      <path d="M313.6,64.2h90.3-90.3Z" fill="#a8ddb5"/>
    </g>
    <g opacity=".8">
      <path d="M313.6,64.2h90.3-90.3Z" fill="#525252"/>
    </g>
    <g opacity=".8">
      <path d="M313.6,64.2h90.3-90.3Z" fill="#ccebc5"/>
    </g>
    <g opacity=".8">
      <path d="M313.6,64.2h90.3-90.3Z" fill="#ead8c0"/>
    </g>
    <g opacity=".8">
      <path d="M313.6,64.2h90.3-90.3Z" fill="#fff2e1"/>
    </g>
    <g opacity=".8">
      <path d="M313.6,64.2h90.3-90.3Z" fill="#d1bb9e"/>
    </g>
    <g opacity=".8">
      <path d="M313.6,122.7c6.1,0,12.2-1.4,17.7-4.2l54.9-27.6c5.5-2.8,11.5-4.2,17.7-4.2h0c-6.1,0-12.2,1.4-17.7,4.2l-54.9,27.6c-5.5,2.8-11.5,4.2-17.7,4.2Z" fill="#2b8cbe"/>
    </g>
    <g opacity=".8">
      <path d="M313.6,122.7c6.1,0,12.2-1.4,17.7-4.2l54.9-27.6c5.5-2.8,11.5-4.2,17.7-4.2h0c-6.1,0-12.2,1.4-17.7,4.2l-54.9,27.6c-5.5,2.8-11.5,4.2-17.7,4.2Z" fill="#fcc5c0"/>
    </g>
    <g opacity=".8">
      <path d="M313.6,122.7c6.1,0,12.2-1.4,17.7-4.2l54.9-27.6c5.5-2.8,11.5-4.2,17.7-4.2h0c-6.1,0-12.2,1.4-17.7,4.2l-54.9,27.6c-5.5,2.8-11.5,4.2-17.7,4.2Z" fill="#a79277"/>
    </g>
    <g opacity=".8">
      <path d="M313.6,122.7c6.1,0,12.2-1.4,17.7-4.2l54.9-27.6c5.5-2.8,11.5-4.2,17.7-4.2h0c-6.1,0-12.2,1.4-17.7,4.2l-54.9,27.6c-5.5,2.8-11.5,4.2-17.7,4.2Z" fill="#7bccc4"/>
    </g>
    <g opacity=".8">
      <path d="M313.6,122.7c6.1,0,12.2-1.4,17.7-4.2l54.9-27.6c5.5-2.8,11.5-4.2,17.7-4.2h0c-6.1,0-12.2,1.4-17.7,4.2l-54.9,27.6c-5.5,2.8-11.5,4.2-17.7,4.2Z" fill="#e0f3db"/>
    </g>
    <g opacity=".8">
      <path d="M313.6,122.7c6.1,0,12.2-1.4,17.7-4.2l54.9-27.6c5.5-2.8,11.5-4.2,17.7-4.2h0c-6.1,0-12.2,1.4-17.7,4.2l-54.9,27.6c-5.5,2.8-11.5,4.2-17.7,4.2Z" fill="#a8ddb5"/>
    </g>
    <g opacity=".8">
      <path d="M313.6,122.7c6.1,0,12.2-1.4,17.7-4.2l54.9-27.6c5.5-2.8,11.5-4.2,17.7-4.2h0c-6.1,0-12.2,1.4-17.7,4.2l-54.9,27.6c-5.5,2.8-11.5,4.2-17.7,4.2Z" fill="#525252"/>
    </g>
    <g opacity=".8">
      <path d="M313.6,122.7c6.1,0,12.2-1.4,17.7-4.2l54.9-27.6c5.5-2.8,11.5-4.2,17.7-4.2h0c-6.1,0-12.2,1.4-17.7,4.2l-54.9,27.6c-5.5,2.8-11.5,4.2-17.7,4.2Z" fill="#ccebc5"/>
    </g>
    <g opacity=".8">
      <path d="M313.6,122.7c6.1,0,12.2-1.4,17.7-4.2l54.9-27.6c5.5-2.8,11.5-4.2,17.7-4.2h0c-6.1,0-12.2,1.4-17.7,4.2l-54.9,27.6c-5.5,2.8-11.5,4.2-17.7,4.2Z" fill="#ead8c0"/>
    </g>
    <g opacity=".8">
      <path d="M313.6,122.7c6.1,0,12.2-1.4,17.7-4.2l54.9-27.6c5.5-2.8,11.5-4.2,17.7-4.2h0c-6.1,0-12.2,1.4-17.7,4.2l-54.9,27.6c-5.5,2.8-11.5,4.2-17.7,4.2Z" fill="#fff2e1"/>
    </g>
    <g opacity=".8">
      <path d="M313.6,122.7c6.1,0,12.2-1.4,17.7-4.2l54.9-27.6c5.5-2.8,11.5-4.2,17.7-4.2h0c-6.1,0-12.2,1.4-17.7,4.2l-54.9,27.6c-5.5,2.8-11.5,4.2-17.7,4.2Z" fill="#d1bb9e"/>
    </g>
    <g opacity=".8">
      <path d="M221.3,150.2h92.3-92.3Z" fill="#a79277"/>
    </g>
    <g opacity=".8">
      <path d="M221.3,150.2h92.3-92.3Z" fill="#e0f3db"/>
    </g>
    <g opacity=".8">
      <path d="M221.3,175.5h92.3-92.3Z" fill="#ccebc5"/>
    </g>
    <g opacity=".8">
      <path d="M221.3,175.5h92.3-92.3Z" fill="#ead8c0"/>
    </g>
    <g opacity=".8">
      <path d="M221.3,175.5h92.3-92.3Z" fill="#fff2e1"/>
    </g>
    <g opacity=".8">
      <path d="M221.3,175.5h92.3-92.3Z" fill="#d1bb9e"/>
    </g>
    <g opacity=".8">
      <path d="M404.9,40.9c5.8,0,11.5.9,17.1,2.7l56.2,17.9c5.5,1.8,11.3,2.7,17.1,2.7h0c-5.8,0-11.5-.9-17.1-2.7l-56.2-17.9c-5.5-1.8-11.3-2.7-17.1-2.7Z" fill="#fcc5c0"/>
    </g>
    <g opacity=".8">
      <path d="M404.9,40.9c5.8,0,11.5.9,17.1,2.7l56.2,17.9c5.5,1.8,11.3,2.7,17.1,2.7h0c-5.8,0-11.5-.9-17.1-2.7l-56.2-17.9c-5.5-1.8-11.3-2.7-17.1-2.7Z" fill="#a8ddb5"/>
    </g>
    <g opacity=".8">
      <path d="M404.9,64.2h90.3-90.3Z" fill="#a79277"/>
    </g>
    <g opacity=".8">
      <path d="M404.9,64.2h90.3-90.3Z" fill="#4eb3d3"/>
    </g>
    <g opacity=".8">
      <path d="M404.9,64.2h90.3-90.3Z" fill="#e0f3db"/>
    </g>
    <g opacity=".8">
      <path d="M404.9,64.2h90.3-90.3Z" fill="#525252"/>
    </g>
    <g opacity=".8">
      <path d="M404.9,64.2h90.3-90.3Z" fill="#ccebc5"/>
    </g>
    <g opacity=".8">
      <path d="M404.9,64.2h90.3-90.3Z" fill="#ead8c0"/>
    </g>
    <g opacity=".8">
      <path d="M404.9,64.2h90.3-90.3Z" fill="#fff2e1"/>
    </g>
    <g opacity=".8">
      <path d="M404.9,64.2h90.3-90.3Z" fill="#0868ac"/>
    </g>
    <g opacity=".8">
      <path d="M404.9,64.2h90.3-90.3Z" fill="#d9d9d9"/>
    </g>
    <g opacity=".8">
      <path d="M404.9,64.2h90.3-90.3Z" fill="#d1bb9e"/>
    </g>
    <g opacity=".8">
      <path d="M404.9,64.2h90.3-90.3Z" fill="#2b8cbe"/>
    </g>
    <g opacity=".8">
      <path d="M404.9,64.2c7.6,0,14.8,3,20.1,8.4l50.1,50.9c5.3,5.4,12.5,8.4,20.1,8.4h0c-7.6,0-14.8-3-20.1-8.4l-50.1-50.9c-5.3-5.4-12.5-8.4-20.1-8.4Z" fill="#f0f0f0"/>
    </g>
    <g opacity=".8">
      <path d="M404.9,64.2c7.1,0,13.9,2.5,19.3,7.1l51.7,44.3c5.4,4.6,12.2,7.1,19.3,7.1h0c-7.1,0-13.9-2.5-19.3-7.1l-51.7-44.3c-5.4-4.6-12.2-7.1-19.3-7.1Z" fill="#2b8cbe"/>
    </g>
    <g opacity=".8">
      <path d="M404.9,64.2c7.1,0,13.9,2.5,19.3,7.1l51.7,44.3c5.4,4.6,12.2,7.1,19.3,7.1h0c-7.1,0-13.9-2.5-19.3-7.1l-51.7-44.3c-5.4-4.6-12.2-7.1-19.3-7.1Z" fill="#fcc5c0"/>
    </g>
    <g opacity=".8">
      <path d="M404.9,64.2c7.1,0,13.9,2.5,19.3,7.1l51.7,44.3c5.4,4.6,12.2,7.1,19.3,7.1h0c-7.1,0-13.9-2.5-19.3-7.1l-51.7-44.3c-5.4-4.6-12.2-7.1-19.3-7.1Z" fill="#d9d9d9"/>
    </g>
    <g opacity=".8">
      <path d="M404.9,85.7c6.2,0,12.3,1.5,17.7,4.3l54.8,28.3c5.5,2.8,11.6,4.3,17.7,4.3h0c-6.2,0-12.3-1.5-17.7-4.3l-54.8-28.3c-5.5-2.8-11.6-4.3-17.7-4.3Z" fill="#fcc5c0"/>
    </g>
    <g opacity=".8">
      <path d="M404.9,85.7c6.2,0,12.3,1.5,17.7,4.3l54.8,28.3c5.5,2.8,11.6,4.3,17.7,4.3h0c-6.2,0-12.3-1.5-17.7-4.3l-54.8-28.3c-5.5-2.8-11.6-4.3-17.7-4.3Z" fill="#7bccc4"/>
    </g>
    <g opacity=".8">
      <path d="M404.9,85.7c6.2,0,12.3,1.5,17.7,4.3l54.8,28.3c5.5,2.8,11.6,4.3,17.7,4.3h0c-6.2,0-12.3-1.5-17.7-4.3l-54.8-28.3c-5.5-2.8-11.6-4.3-17.7-4.3Z" fill="#d9d9d9"/>
    </g>
    <g opacity=".8">
      <path d="M404.9,136.8c5,0,10,0,15-.1l60.4-.9c5,0,10-.1,15-.1h0c-5,0-10,0-15,.1l-60.4.9c-5,0-10,.1-15,.1Z" fill="#fcc5c0"/>
    </g>
    <g opacity=".8">
      <path d="M404.9,136.8c5,0,10,0,15-.1l60.4-.9c5,0,10-.1,15-.1h0c-5,0-10,0-15,.1l-60.4.9c-5,0-10,.1-15,.1Z" fill="#f0f0f0"/>
    </g>
    <g opacity=".8">
      <path d="M312.6,150.2h92.3-92.3Z" fill="#a79277"/>
    </g>
    <g opacity=".8">
      <path d="M312.6,150.2h92.3-92.3Z" fill="#e0f3db"/>
    </g>
    <g opacity=".8">
      <path d="M312.6,175.5h92.3-92.3Z" fill="#ccebc5"/>
    </g>
    <g opacity=".8">
      <path d="M312.6,175.5h92.3-92.3Z" fill="#ead8c0"/>
    </g>
    <g opacity=".8">
      <path d="M312.6,175.5h92.3-92.3Z" fill="#fff2e1"/>
    </g>
    <g opacity=".8">
      <path d="M312.6,175.5h92.3-92.3Z" fill="#d1bb9e"/>
    </g>
    <g opacity=".8">
      <path d="M496.1,40.9c5.8,0,11.5.9,17.1,2.7l56.2,17.9c5.5,1.8,11.3,2.7,17.1,2.7h0c-5.8,0-11.5-.9-17.1-2.7l-56.2-17.9c-5.5-1.8-11.3-2.7-17.1-2.7Z" fill="#fcc5c0"/>
    </g>
    <g opacity=".8">
      <path d="M496.1,40.9c5.8,0,11.5.9,17.1,2.7l56.2,17.9c5.5,1.8,11.3,2.7,17.1,2.7h0c-5.8,0-11.5-.9-17.1-2.7l-56.2-17.9c-5.5-1.8-11.3-2.7-17.1-2.7Z" fill="#ccebc5"/>
    </g>
    <g opacity=".8">
      <path d="M496.1,40.9c8.4,0,16.3,3.9,21.5,10.5l47.3,60.8c5.2,6.6,13.1,10.5,21.5,10.5h0c-8.4,0-16.3-3.9-21.5-10.5l-47.3-60.8c-5.2-6.6-13.1-10.5-21.5-10.5Z" fill="#fcc5c0"/>
    </g>
    <g opacity=".8">
      <path d="M496.1,40.9c8.4,0,16.3,3.9,21.5,10.5l47.3,60.8c5.2,6.6,13.1,10.5,21.5,10.5h0c-8.4,0-16.3-3.9-21.5-10.5l-47.3-60.8c-5.2-6.6-13.1-10.5-21.5-10.5Z" fill="#e0f3db"/>
    </g>
    <g opacity=".8">
      <path d="M496.1,85.7c16.1,0,29.9,11.4,33,27.1l24.3,124.1c3.1,15.8,16.9,27.1,33,27.1h0c-16.1,0-29.9-11.4-33-27.1l-24.3-124.1c-3.1-15.8-16.9-27.1-33-27.1Z" fill="#fcc5c0"/>
    </g>
    <g opacity=".8">
      <path d="M496.1,85.7c16.1,0,29.9,11.4,33,27.1l24.3,124.1c3.1,15.8,16.9,27.1,33,27.1h0c-16.1,0-29.9-11.4-33-27.1l-24.3-124.1c-3.1-15.8-16.9-27.1-33-27.1Z" fill="#a8ddb5"/>
    </g>
    <g opacity=".8">
      <path d="M496.1,85.7c6.2,0,12.3,1.5,17.7,4.3l54.8,28.3c5.5,2.8,11.6,4.3,17.7,4.3h0c-6.2,0-12.3-1.5-17.7-4.3l-54.8-28.3c-5.5-2.8-11.6-4.3-17.7-4.3Z" fill="#a8ddb5"/>
    </g>
    <g opacity=".8">
      <path d="M496.1,85.7c6.2,0,12.3,1.5,17.7,4.3l54.8,28.3c5.5,2.8,11.6,4.3,17.7,4.3h0c-6.2,0-12.3-1.5-17.7-4.3l-54.8-28.3c-5.5-2.8-11.6-4.3-17.7-4.3Z" fill="#d9d9d9"/>
    </g>
    <g opacity=".8">
      <path d="M496.1,85.7c6.2,0,12.3,1.5,17.7,4.3l54.8,28.3c5.5,2.8,11.6,4.3,17.7,4.3h0c-6.2,0-12.3-1.5-17.7-4.3l-54.8-28.3c-5.5-2.8-11.6-4.3-17.7-4.3Z" fill="#a8ddb5"/>
    </g>
    <g opacity=".8">
      <path d="M496.1,85.7c6.2,0,12.3,1.5,17.7,4.3l54.8,28.3c5.5,2.8,11.6,4.3,17.7,4.3h0c-6.2,0-12.3-1.5-17.7-4.3l-54.8-28.3c-5.5-2.8-11.6-4.3-17.7-4.3Z" fill="#f0f0f0"/>
    </g>
    <g opacity=".8">
      <path d="M496.1,122.7c6.2,0,12.3-1.5,17.7-4.3l54.8-28.3c5.5-2.8,11.6-4.3,17.7-4.3h0c-6.2,0-12.3,1.5-17.7,4.3l-54.8,28.3c-5.5,2.8-11.6,4.3-17.7,4.3Z" fill="#2b8cbe"/>
    </g>
    <g opacity=".8">
      <path d="M496.1,122.7c6.2,0,12.3-1.5,17.7-4.3l54.8-28.3c5.5-2.8,11.6-4.3,17.7-4.3h0c-6.2,0-12.3,1.5-17.7,4.3l-54.8,28.3c-5.5,2.8-11.6,4.3-17.7,4.3Z" fill="#a79277"/>
    </g>
    <g opacity=".8">
      <path d="M496.1,122.7c6.2,0,12.3-1.5,17.7-4.3l54.8-28.3c5.5-2.8,11.6-4.3,17.7-4.3h0c-6.2,0-12.3,1.5-17.7,4.3l-54.8,28.3c-5.5,2.8-11.6,4.3-17.7,4.3Z" fill="#4eb3d3"/>
    </g>
    <g opacity=".8">
      <path d="M496.1,122.7c6.2,0,12.3-1.5,17.7-4.3l54.8-28.3c5.5-2.8,11.6-4.3,17.7-4.3h0c-6.2,0-12.3,1.5-17.7,4.3l-54.8,28.3c-5.5,2.8-11.6,4.3-17.7,4.3Z" fill="#7bccc4"/>
    </g>
    <g opacity=".8">
      <path d="M496.1,122.7c6.2,0,12.3-1.5,17.7-4.3l54.8-28.3c5.5-2.8,11.6-4.3,17.7-4.3h0c-6.2,0-12.3,1.5-17.7,4.3l-54.8,28.3c-5.5,2.8-11.6,4.3-17.7,4.3Z" fill="#e0f3db"/>
    </g>
    <g opacity=".8">
      <path d="M496.1,122.7c6.2,0,12.3-1.5,17.7-4.3l54.8-28.3c5.5-2.8,11.6-4.3,17.7-4.3h0c-6.2,0-12.3,1.5-17.7,4.3l-54.8,28.3c-5.5,2.8-11.6,4.3-17.7,4.3Z" fill="#525252"/>
    </g>
    <g opacity=".8">
      <path d="M496.1,122.7c6.2,0,12.3-1.5,17.7-4.3l54.8-28.3c5.5-2.8,11.6-4.3,17.7-4.3h0c-6.2,0-12.3,1.5-17.7,4.3l-54.8,28.3c-5.5,2.8-11.6,4.3-17.7,4.3Z" fill="#ead8c0"/>
    </g>
    <g opacity=".8">
      <path d="M496.1,122.7c6.2,0,12.3-1.5,17.7-4.3l54.8-28.3c5.5-2.8,11.6-4.3,17.7-4.3h0c-6.2,0-12.3,1.5-17.7,4.3l-54.8,28.3c-5.5,2.8-11.6,4.3-17.7,4.3Z" fill="#fff2e1"/>
    </g>
    <g opacity=".8">
      <path d="M496.1,122.7c6.2,0,12.3-1.5,17.7-4.3l54.8-28.3c5.5-2.8,11.6-4.3,17.7-4.3h0c-6.2,0-12.3,1.5-17.7,4.3l-54.8,28.3c-5.5,2.8-11.6,4.3-17.7,4.3Z" fill="#0868ac"/>
    </g>
    <g opacity=".8">
      <path d="M496.1,122.7c6.2,0,12.3-1.5,17.7-4.3l54.8-28.3c5.5-2.8,11.6-4.3,17.7-4.3h0c-6.2,0-12.3,1.5-17.7,4.3l-54.8,28.3c-5.5,2.8-11.6,4.3-17.7,4.3Z" fill="#d9d9d9"/>
    </g>
    <g opacity=".8">
      <path d="M496.1,122.7c6.2,0,12.3-1.5,17.7-4.3l54.8-28.3c5.5-2.8,11.6-4.3,17.7-4.3h0c-6.2,0-12.3,1.5-17.7,4.3l-54.8,28.3c-5.5,2.8-11.6,4.3-17.7,4.3Z" fill="#d1bb9e"/>
    </g>
    <g opacity=".8">
      <path d="M496.1,122.7h90.3-90.3Z" fill="#2b8cbe"/>
    </g>
    <g opacity=".8">
      <path d="M496.1,122.7h90.3-90.3Z" fill="#a79277"/>
    </g>
    <g opacity=".8">
      <path d="M496.1,122.7h90.3-90.3Z" fill="#4eb3d3"/>
    </g>
    <g opacity=".8">
      <path d="M496.1,122.7h90.3-90.3Z" fill="#7bccc4"/>
    </g>
    <g opacity=".8">
      <path d="M496.1,122.7h90.3-90.3Z" fill="#525252"/>
    </g>
    <g opacity=".8">
      <path d="M496.1,122.7h90.3-90.3Z" fill="#ccebc5"/>
    </g>
    <g opacity=".8">
      <path d="M496.1,122.7h90.3-90.3Z" fill="#ead8c0"/>
    </g>
    <g opacity=".8">
      <path d="M496.1,122.7h90.3-90.3Z" fill="#fff2e1"/>
    </g>
    <g opacity=".8">
      <path d="M496.1,122.7h90.3-90.3Z" fill="#0868ac"/>
    </g>
    <g opacity=".8">
      <path d="M496.1,122.7h90.3-90.3Z" fill="#d9d9d9"/>
    </g>
    <g opacity=".8">
      <path d="M496.1,122.7h90.3-90.3Z" fill="#d1bb9e"/>
    </g>
    <g opacity=".8">
      <path d="M403.9,150.2h92.3-92.3Z" fill="#a79277"/>
    </g>
    <g opacity=".8">
      <path d="M403.9,150.2h92.3-92.3Z" fill="#e0f3db"/>
    </g>
    <g opacity=".8">
      <path d="M403.9,175.5h92.3-92.3Z" fill="#ccebc5"/>
    </g>
    <g opacity=".8">
      <path d="M403.9,175.5h92.3-92.3Z" fill="#ead8c0"/>
    </g>
    <g opacity=".8">
      <path d="M403.9,175.5h92.3-92.3Z" fill="#fff2e1"/>
    </g>
    <g opacity=".8">
      <path d="M403.9,175.5h92.3-92.3Z" fill="#d1bb9e"/>
    </g>
    <g opacity=".8">
      <path d="M587.4,33c8.9,0,17.6,2.9,24.7,8.4l46.2,35.5c5.6,4.3,12.4,6.6,19.4,6.6h0c-7,0-13.8-2.3-19.4-6.6l-46.2-35.5c-7.1-5.4-15.8-8.4-24.7-8.4Z" fill="#fcc5c0"/>
    </g>
    <g opacity=".8">
      <path d="M587.4,36.6c9,0,17.6,3.3,24.4,9.2l46.1,40.5c5.5,4.8,12.5,7.4,19.8,7.4h0c-7.3,0-14.3-2.6-19.8-7.4l-46.1-40.5c-6.7-5.9-15.4-9.2-24.4-9.2Z" fill="#fcc5c0"/>
    </g>
    <g opacity=".8">
      <path d="M587.4,41.1c8.6,0,16.9,3.4,23,9.6l47.1,47.3c5.4,5.4,12.6,8.4,20.2,8.4h0c-7.6,0-14.9-3-20.2-8.4l-47.1-47.3c-6.1-6.1-14.4-9.6-23-9.6Z" fill="#fcc5c0"/>
    </g>
    <g opacity=".8">
      <path d="M587.4,64.2h90.3-90.3Z" fill="#2b8cbe"/>
    </g>
    <g opacity=".8">
      <path d="M587.4,64.2h90.3-90.3Z" fill="#fcc5c0"/>
    </g>
    <g opacity=".8">
      <path d="M587.4,64.2h90.3-90.3Z" fill="#a79277"/>
    </g>
    <g opacity=".8">
      <path d="M587.4,64.2h90.3-90.3Z" fill="#4eb3d3"/>
    </g>
    <g opacity=".8">
      <path d="M587.4,64.2h90.3-90.3Z" fill="#7bccc4"/>
    </g>
    <g opacity=".8">
      <path d="M587.4,64.2h90.3-90.3Z" fill="#a8ddb5"/>
    </g>
    <g opacity=".8">
      <path d="M587.4,64.2h90.3-90.3Z" fill="#525252"/>
    </g>
    <g opacity=".8">
      <path d="M587.4,64.2h90.3-90.3Z" fill="#ead8c0"/>
    </g>
    <g opacity=".8">
      <path d="M587.4,64.2h90.3-90.3Z" fill="#fff2e1"/>
    </g>
    <g opacity=".8">
      <path d="M587.4,64.2h90.3-90.3Z" fill="#0868ac"/>
    </g>
    <g opacity=".8">
      <path d="M587.4,64.2h90.3-90.3Z" fill="#d9d9d9"/>
    </g>
    <g opacity=".8">
      <path d="M587.4,64.2h90.3-90.3Z" fill="#d1bb9e"/>
    </g>
    <g opacity=".8">
      <path d="M587.4,84.8c16.2,0,30,11.5,33.1,27.3l24.1,124.6c3.1,15.9,16.9,27.3,33.1,27.3h0c-16.2,0-30-11.5-33.1-27.3l-24.1-124.6c-3.1-15.9-16.9-27.3-33.1-27.3Z" fill="#fcc5c0"/>
    </g>
    <g opacity=".8">
      <path d="M587.4,84.8c16.2,0,30,11.5,33.1,27.3l24.1,124.6c3.1,15.9,16.9,27.3,33.1,27.3h0c-16.2,0-30-11.5-33.1-27.3l-24.1-124.6c-3.1-15.9-16.9-27.3-33.1-27.3Z" fill="#ccebc5"/>
    </g>
    <g opacity=".8">
      <path d="M587.4,85.7c3,0,5.5,2.4,5.5,5.5s0,0,0,.1l-1,54.2c0,3-2.3,5.5-5.4,5.6,0,0,0,0-.1,0h0c3,0,5.5-2.4,5.5-5.5s0,0,0-.1l1-54.2c0-3-2.3-5.5-5.4-5.6,0,0,0,0-.1,0Z" fill="#ccebc5"/>
    </g>
    <g opacity=".8">
      <path d="M587.4,84.8c6.2,0,12.3,1.5,17.8,4.4l54.7,29c5.5,2.9,11.6,4.4,17.8,4.4h0c-6.2,0-12.3-1.5-17.8-4.4l-54.7-29c-5.5-2.9-11.6-4.4-17.8-4.4Z" fill="#ccebc5"/>
    </g>
    <g opacity=".8">
      <path d="M587.4,84.8c6.2,0,12.3,1.5,17.8,4.4l54.7,29c5.5,2.9,11.6,4.4,17.8,4.4h0c-6.2,0-12.3-1.5-17.8-4.4l-54.7-29c-5.5-2.9-11.6-4.4-17.8-4.4Z" fill="#f0f0f0"/>
    </g>
    <g opacity=".8">
      <path d="M587.4,122.7c6.1,0,12.1-1.4,17.6-4l55.1-26.5c5.5-2.6,11.5-4,17.6-4h0c-6.1,0-12.1,1.4-17.6,4l-55.1,26.5c-5.5,2.6-11.5,4-17.6,4Z" fill="#2b8cbe"/>
    </g>
    <g opacity=".8">
      <path d="M587.4,122.7c6.1,0,12.1-1.4,17.6-4l55.1-26.5c5.5-2.6,11.5-4,17.6-4h0c-6.1,0-12.1,1.4-17.6,4l-55.1,26.5c-5.5,2.6-11.5,4-17.6,4Z" fill="#a79277"/>
    </g>
    <g opacity=".8">
      <path d="M587.4,122.7c6.1,0,12.1-1.4,17.6-4l55.1-26.5c5.5-2.6,11.5-4,17.6-4h0c-6.1,0-12.1,1.4-17.6,4l-55.1,26.5c-5.5,2.6-11.5,4-17.6,4Z" fill="#4eb3d3"/>
    </g>
    <g opacity=".8">
      <path d="M587.4,122.7c6.1,0,12.1-1.4,17.6-4l55.1-26.5c5.5-2.6,11.5-4,17.6-4h0c-6.1,0-12.1,1.4-17.6,4l-55.1,26.5c-5.5,2.6-11.5,4-17.6,4Z" fill="#7bccc4"/>
    </g>
    <g opacity=".8">
      <path d="M587.4,122.7c6.1,0,12.1-1.4,17.6-4l55.1-26.5c5.5-2.6,11.5-4,17.6-4h0c-6.1,0-12.1,1.4-17.6,4l-55.1,26.5c-5.5,2.6-11.5,4-17.6,4Z" fill="#a8ddb5"/>
    </g>
    <g opacity=".8">
      <path d="M587.4,122.7c6.1,0,12.1-1.4,17.6-4l55.1-26.5c5.5-2.6,11.5-4,17.6-4h0c-6.1,0-12.1,1.4-17.6,4l-55.1,26.5c-5.5,2.6-11.5,4-17.6,4Z" fill="#525252"/>
    </g>
    <g opacity=".8">
      <path d="M587.4,122.7c6.1,0,12.1-1.4,17.6-4l55.1-26.5c5.5-2.6,11.5-4,17.6-4h0c-6.1,0-12.1,1.4-17.6,4l-55.1,26.5c-5.5,2.6-11.5,4-17.6,4Z" fill="#ead8c0"/>
    </g>
    <g opacity=".8">
      <path d="M587.4,122.7c6.1,0,12.1-1.4,17.6-4l55.1-26.5c5.5-2.6,11.5-4,17.6-4h0c-6.1,0-12.1,1.4-17.6,4l-55.1,26.5c-5.5,2.6-11.5,4-17.6,4Z" fill="#fff2e1"/>
    </g>
    <g opacity=".8">
      <path d="M587.4,122.7c6.1,0,12.1-1.4,17.6-4l55.1-26.5c5.5-2.6,11.5-4,17.6-4h0c-6.1,0-12.1,1.4-17.6,4l-55.1,26.5c-5.5,2.6-11.5,4-17.6,4Z" fill="#0868ac"/>
    </g>
    <g opacity=".8">
      <path d="M587.4,122.7c6.1,0,12.1-1.4,17.6-4l55.1-26.5c5.5-2.6,11.5-4,17.6-4h0c-6.1,0-12.1,1.4-17.6,4l-55.1,26.5c-5.5,2.6-11.5,4-17.6,4Z" fill="#d9d9d9"/>
    </g>
    <g opacity=".8">
      <path d="M587.4,122.7c13.1,0,24.7,8.6,28.6,21.1l29.5,96.4c4.3,14.2,17.4,23.8,32.2,23.8h0c-14.8,0-27.9-9.7-32.2-23.8l-29.5-96.4c-3.8-12.6-15.4-21.1-28.6-21.1Z" fill="#fcc5c0"/>
    </g>
    <g opacity=".8">
      <path d="M587.4,122.7c13.1,0,24.7,8.6,28.6,21.1l29.5,96.4c4.3,14.2,17.4,23.8,32.2,23.8h0c-14.8,0-27.9-9.7-32.2-23.8l-29.5-96.4c-3.8-12.6-15.4-21.1-28.6-21.1Z" fill="#e0f3db"/>
    </g>
    <g opacity=".8">
      <path d="M587.4,122.7c6.5,0,12.8-1.8,18.2-5.3l53.8-34.2c5.5-3.5,11.8-5.3,18.2-5.3h0c-6.5,0-12.8,1.8-18.2,5.3l-53.8,34.2c-5.5,3.5-11.8,5.3-18.2,5.3Z" fill="#e0f3db"/>
    </g>
    <g opacity=".8">
      <path d="M587.4,122.7c6.1,0,12.1-1.4,17.6-4l55.1-26.5c5.5-2.6,11.5-4,17.6-4h0c-6.1,0-12.1,1.4-17.6,4l-55.1,26.5c-5.5,2.6-11.5,4-17.6,4Z" fill="#e0f3db"/>
    </g>
    <g opacity=".8">
      <path d="M587.4,122.7c5.8,0,11.5-.8,17-2.5l56.3-16.8c5.5-1.6,11.2-2.5,17-2.5h0c-5.8,0-11.5.8-17,2.5l-56.3,16.8c-5.5,1.6-11.2,2.5-17,2.5Z" fill="#e0f3db"/>
    </g>
    <g opacity=".8">
      <path d="M587.4,122.7c5.5,0,11.1-.2,16.6-.6l57-4.3c5.5-.4,11.1-.6,16.6-.6h0c-5.5,0-11.1.2-16.6.6l-57,4.3c-5.5.4-11.1.6-16.6.6Z" fill="#e0f3db"/>
    </g>
    <g opacity=".8">
      <path d="M587.4,122.7c2.8,0,5,2.2,5,5,0,0,0,.2,0,.3l-1,16.9c.2,2.8-1.9,5.1-4.7,5.3,0,0-.2,0-.3,0h0c2.8,0,5-2.2,5-5,0,0,0-.2,0-.3l1-16.9c.2-2.8-1.9-5.1-4.7-5.3,0,0-.2,0-.3,0Z" fill="#e0f3db"/>
    </g>
    <g opacity=".8">
      <path d="M587.4,122.7c2.8,0,5,2.2,5,5,0,0,0,.2,0,.3l-1,16.9c.2,2.8-1.9,5.1-4.7,5.3,0,0-.2,0-.3,0h0c2.8,0,5-2.2,5-5,0,0,0-.2,0-.3l1-16.9c.2-2.8-1.9-5.1-4.7-5.3,0,0-.2,0-.3,0Z" fill="#d9d9d9"/>
    </g>
    <g opacity=".8">
      <path d="M587.4,122.7h90.3-90.3Z" fill="#e0f3db"/>
    </g>
    <g opacity=".8">
      <path d="M587.4,122.7h90.3-90.3Z" fill="#f0f0f0"/>
    </g>
    <g opacity=".8">
      <path d="M587.4,122.7c5.5,0,11.1-.2,16.6-.6l57-4.3c5.5-.4,11.1-.6,16.6-.6h0c-5.5,0-11.1.2-16.6.6l-57,4.3c-5.5.4-11.1.6-16.6.6Z" fill="#2b8cbe"/>
    </g>
    <g opacity=".8">
      <path d="M587.4,122.7c5.5,0,11.1-.2,16.6-.6l57-4.3c5.5-.4,11.1-.6,16.6-.6h0c-5.5,0-11.1.2-16.6.6l-57,4.3c-5.5.4-11.1.6-16.6.6Z" fill="#a79277"/>
    </g>
    <g opacity=".8">
      <path d="M587.4,122.7c5.5,0,11.1-.2,16.6-.6l57-4.3c5.5-.4,11.1-.6,16.6-.6h0c-5.5,0-11.1.2-16.6.6l-57,4.3c-5.5.4-11.1.6-16.6.6Z" fill="#4eb3d3"/>
    </g>
    <g opacity=".8">
      <path d="M587.4,122.7c5.5,0,11.1-.2,16.6-.6l57-4.3c5.5-.4,11.1-.6,16.6-.6h0c-5.5,0-11.1.2-16.6.6l-57,4.3c-5.5.4-11.1.6-16.6.6Z" fill="#7bccc4"/>
    </g>
    <g opacity=".8">
      <path d="M587.4,122.7c5.5,0,11.1-.2,16.6-.6l57-4.3c5.5-.4,11.1-.6,16.6-.6h0c-5.5,0-11.1.2-16.6.6l-57,4.3c-5.5.4-11.1.6-16.6.6Z" fill="#a8ddb5"/>
    </g>
    <g opacity=".8">
      <path d="M587.4,122.7c5.5,0,11.1-.2,16.6-.6l57-4.3c5.5-.4,11.1-.6,16.6-.6h0c-5.5,0-11.1.2-16.6.6l-57,4.3c-5.5.4-11.1.6-16.6.6Z" fill="#525252"/>
    </g>
    <g opacity=".8">
      <path d="M587.4,122.7c5.5,0,11.1-.2,16.6-.6l57-4.3c5.5-.4,11.1-.6,16.6-.6h0c-5.5,0-11.1.2-16.6.6l-57,4.3c-5.5.4-11.1.6-16.6.6Z" fill="#ead8c0"/>
    </g>
    <g opacity=".8">
      <path d="M587.4,122.7c5.5,0,11.1-.2,16.6-.6l57-4.3c5.5-.4,11.1-.6,16.6-.6h0c-5.5,0-11.1.2-16.6.6l-57,4.3c-5.5.4-11.1.6-16.6.6Z" fill="#0868ac"/>
    </g>
    <g opacity=".8">
      <path d="M587.4,122.7c5.5,0,11.1-.2,16.6-.6l57-4.3c5.5-.4,11.1-.6,16.6-.6h0c-5.5,0-11.1.2-16.6.6l-57,4.3c-5.5.4-11.1.6-16.6.6Z" fill="#d9d9d9"/>
    </g>
    <g opacity=".8">
      <path d="M587.4,122.7c5.5,0,11.1-.2,16.6-.6l57-4.3c5.5-.4,11.1-.6,16.6-.6h0c-5.5,0-11.1.2-16.6.6l-57,4.3c-5.5.4-11.1.6-16.6.6Z" fill="#d1bb9e"/>
    </g>
    <g opacity=".8">
      <path d="M587.4,122.7c5.8,0,11.5-.8,17-2.5l56.3-16.8c5.5-1.6,11.2-2.5,17-2.5h0c-5.8,0-11.5.8-17,2.5l-56.3,16.8c-5.5,1.6-11.2,2.5-17,2.5Z" fill="#2b8cbe"/>
    </g>
    <g opacity=".8">
      <path d="M587.4,122.7c5.8,0,11.5-.8,17-2.5l56.3-16.8c5.5-1.6,11.2-2.5,17-2.5h0c-5.8,0-11.5.8-17,2.5l-56.3,16.8c-5.5,1.6-11.2,2.5-17,2.5Z" fill="#a79277"/>
    </g>
    <g opacity=".8">
      <path d="M587.4,122.7c5.8,0,11.5-.8,17-2.5l56.3-16.8c5.5-1.6,11.2-2.5,17-2.5h0c-5.8,0-11.5.8-17,2.5l-56.3,16.8c-5.5,1.6-11.2,2.5-17,2.5Z" fill="#4eb3d3"/>
    </g>
    <g opacity=".8">
      <path d="M587.4,122.7c5.8,0,11.5-.8,17-2.5l56.3-16.8c5.5-1.6,11.2-2.5,17-2.5h0c-5.8,0-11.5.8-17,2.5l-56.3,16.8c-5.5,1.6-11.2,2.5-17,2.5Z" fill="#7bccc4"/>
    </g>
    <g opacity=".8">
      <path d="M587.4,122.7c5.8,0,11.5-.8,17-2.5l56.3-16.8c5.5-1.6,11.2-2.5,17-2.5h0c-5.8,0-11.5.8-17,2.5l-56.3,16.8c-5.5,1.6-11.2,2.5-17,2.5Z" fill="#a8ddb5"/>
    </g>
    <g opacity=".8">
      <path d="M587.4,122.7c5.8,0,11.5-.8,17-2.5l56.3-16.8c5.5-1.6,11.2-2.5,17-2.5h0c-5.8,0-11.5.8-17,2.5l-56.3,16.8c-5.5,1.6-11.2,2.5-17,2.5Z" fill="#525252"/>
    </g>
    <g opacity=".8">
      <path d="M587.4,122.7c5.8,0,11.5-.8,17-2.5l56.3-16.8c5.5-1.6,11.2-2.5,17-2.5h0c-5.8,0-11.5.8-17,2.5l-56.3,16.8c-5.5,1.6-11.2,2.5-17,2.5Z" fill="#fff2e1"/>
    </g>
    <g opacity=".8">
      <path d="M587.4,122.7c5.8,0,11.5-.8,17-2.5l56.3-16.8c5.5-1.6,11.2-2.5,17-2.5h0c-5.8,0-11.5.8-17,2.5l-56.3,16.8c-5.5,1.6-11.2,2.5-17,2.5Z" fill="#0868ac"/>
    </g>
    <g opacity=".8">
      <path d="M587.4,122.7c5.8,0,11.5-.8,17-2.5l56.3-16.8c5.5-1.6,11.2-2.5,17-2.5h0c-5.8,0-11.5.8-17,2.5l-56.3,16.8c-5.5,1.6-11.2,2.5-17,2.5Z" fill="#d9d9d9"/>
    </g>
    <g opacity=".8">
      <path d="M587.4,122.7c5.8,0,11.5-.8,17-2.5l56.3-16.8c5.5-1.6,11.2-2.5,17-2.5h0c-5.8,0-11.5.8-17,2.5l-56.3,16.8c-5.5,1.6-11.2,2.5-17,2.5Z" fill="#d1bb9e"/>
    </g>
    <g opacity=".8">
      <path d="M495.1,150.2h92.3-92.3Z" fill="#a79277"/>
    </g>
    <g opacity=".8">
      <path d="M495.1,150.2h92.3-92.3Z" fill="#e0f3db"/>
    </g>
    <g opacity=".8">
      <path d="M495.1,175.5h92.3-92.3Z" fill="#ccebc5"/>
    </g>
    <g opacity=".8">
      <path d="M495.1,175.5h92.3-92.3Z" fill="#ead8c0"/>
    </g>
    <g opacity=".8">
      <path d="M495.1,175.5h92.3-92.3Z" fill="#fff2e1"/>
    </g>
    <g opacity=".8">
      <path d="M495.1,175.5h92.3-92.3Z" fill="#d1bb9e"/>
    </g>
    <g opacity=".8">
      <path d="M678.7,76.9c3.3,0,6,2.7,6,6,0,0,0,0,0,0l-1,62.6c0,3.3-2.6,6-5.9,6.1,0,0,0,0,0,0h0c3.3,0,6-2.7,6-6,0,0,0,0,0,0l1-62.6c0-3.3-2.6-6-5.9-6.1,0,0,0,0,0,0Z" fill="#a79277"/>
    </g>
    <g opacity=".8">
      <path d="M678.7,76.9c10.5,0,21.1-1,31.4-3.1l40-7.9c6.2-1.2,12.5-1.8,18.9-1.8h0c-6.3,0-12.6.6-18.9,1.8l-40,7.9c-10.3,2-20.9,3.1-31.4,3.1Z" fill="#fcc5c0"/>
    </g>
    <g opacity=".8">
      <path d="M678.7,76.9c10.5,0,21.1-1,31.4-3.1l40-7.9c6.2-1.2,12.5-1.8,18.9-1.8h0c-6.3,0-12.6.6-18.9,1.8l-40,7.9c-10.3,2-20.9,3.1-31.4,3.1Z" fill="#a79277"/>
    </g>
    <g opacity=".8">
      <path d="M678.7,76.9c10.5,0,21.1-1,31.4-3.1l40-7.9c6.2-1.2,12.5-1.8,18.9-1.8h0c-6.3,0-12.6.6-18.9,1.8l-40,7.9c-10.3,2-20.9,3.1-31.4,3.1Z" fill="#f0f0f0"/>
    </g>
    <g opacity=".8">
      <path d="M678.7,88c15.9,0,29.5,11.2,32.7,26.7l24.9,122.5c3.2,15.5,16.8,26.7,32.7,26.7h0c-15.9,0-29.5-11.2-32.7-26.7l-24.9-122.5c-3.2-15.6-16.8-26.7-32.7-26.7Z" fill="#fcc5c0"/>
    </g>
    <g opacity=".8">
      <path d="M678.7,88.2c3,0,5.5,2.5,5.5,5.5s0,0,0,.1l-1,52.2c0,3-2.4,5.5-5.4,5.6,0,0,0,0-.1,0h0c3,0,5.5-2.5,5.5-5.5,0,0,0,0,0-.1l1-52.2c0-3-2.4-5.5-5.4-5.6,0,0,0,0-.1,0Z" fill="#d1bb9e"/>
    </g>
    <g opacity=".8">
      <path d="M678.7,88c10.9,0,21.7-2,32-5.8l39.1-14.6c6.1-2.3,12.6-3.5,19.2-3.5h0c-6.5,0-13,1.2-19.2,3.5l-39.1,14.6c-10.2,3.8-21.1,5.8-32,5.8Z" fill="#f0f0f0"/>
    </g>
    <g opacity=".8">
      <path d="M678.7,88c10.9,0,21.7-2,32-5.8l39.1-14.6c6.1-2.3,12.6-3.5,19.2-3.5h0c-6.5,0-13,1.2-19.2,3.5l-39.1,14.6c-10.2,3.8-21.1,5.8-32,5.8Z" fill="#d1bb9e"/>
    </g>
    <g opacity=".8">
      <path d="M678.7,100.5c14.9,0,27.8,10.2,31.2,24.7l26.5,113c3.5,15.1,17,25.8,32.5,25.8h0c-15.5,0-29-10.7-32.5-25.8l-26.5-113c-3.4-14.5-16.3-24.7-31.2-24.7Z" fill="#fcc5c0"/>
    </g>
    <g opacity=".8">
      <path d="M678.7,100.9c3,0,5.4,2.4,5.4,5.4s0,0,0,.1l-1,39.5c0,3-2.3,5.5-5.3,5.5,0,0,0,0-.1,0h0c3,0,5.4-2.4,5.4-5.4s0,0,0-.1l1-39.5c0-3-2.3-5.5-5.3-5.5,0,0,0,0-.1,0Z" fill="#ead8c0"/>
    </g>
    <g opacity=".8">
      <path d="M678.7,100.5c5.8,0,11.5.9,17,2.5l56.2,17.2c5.5,1.7,11.3,2.5,17,2.5h0c-5.8,0-11.5-.9-17-2.5l-56.2-17.2c-5.5-1.7-11.3-2.5-17-2.5Z" fill="#f0f0f0"/>
    </g>
    <g opacity=".8">
      <path d="M678.7,100.5c5.8,0,11.5.9,17,2.5l56.2,17.2c5.5,1.7,11.3,2.5,17,2.5h0c-5.8,0-11.5-.9-17-2.5l-56.2-17.2c-5.5-1.7-11.3-2.5-17-2.5Z" fill="#ead8c0"/>
    </g>
    <g opacity=".8">
      <path d="M678.7,106.4c5.8,0,11.5-.7,17.1-2.1l54.9-13.8c6-1.5,12.1-2.3,18.3-2.3h0c-6.2,0-12.3.8-18.3,2.3l-54.9,13.8c-5.6,1.4-11.3,2.1-17.1,2.1Z" fill="#2b8cbe"/>
    </g>
    <g opacity=".8">
      <path d="M678.7,106.4c5.8,0,11.5-.7,17.1-2.1l54.9-13.8c6-1.5,12.1-2.3,18.3-2.3h0c-6.2,0-12.3.8-18.3,2.3l-54.9,13.8c-5.6,1.4-11.3,2.1-17.1,2.1Z" fill="#4eb3d3"/>
    </g>
    <g opacity=".8">
      <path d="M678.7,106.4c5.8,0,11.5-.7,17.1-2.1l54.9-13.8c6-1.5,12.1-2.3,18.3-2.3h0c-6.2,0-12.3.8-18.3,2.3l-54.9,13.8c-5.6,1.4-11.3,2.1-17.1,2.1Z" fill="#7bccc4"/>
    </g>
    <g opacity=".8">
      <path d="M678.7,106.4c5.8,0,11.5-.7,17.1-2.1l54.9-13.8c6-1.5,12.1-2.3,18.3-2.3h0c-6.2,0-12.3.8-18.3,2.3l-54.9,13.8c-5.6,1.4-11.3,2.1-17.1,2.1Z" fill="#e0f3db"/>
    </g>
    <g opacity=".8">
      <path d="M678.7,106.4c5.8,0,11.5-.7,17.1-2.1l54.9-13.8c6-1.5,12.1-2.3,18.3-2.3h0c-6.2,0-12.3.8-18.3,2.3l-54.9,13.8c-5.6,1.4-11.3,2.1-17.1,2.1Z" fill="#a8ddb5"/>
    </g>
    <g opacity=".8">
      <path d="M678.7,106.4c5.8,0,11.5-.7,17.1-2.1l54.9-13.8c6-1.5,12.1-2.3,18.3-2.3h0c-6.2,0-12.3.8-18.3,2.3l-54.9,13.8c-5.6,1.4-11.3,2.1-17.1,2.1Z" fill="#525252"/>
    </g>
    <g opacity=".8">
      <path d="M678.7,106.4c5.8,0,11.5-.7,17.1-2.1l54.9-13.8c6-1.5,12.1-2.3,18.3-2.3h0c-6.2,0-12.3.8-18.3,2.3l-54.9,13.8c-5.6,1.4-11.3,2.1-17.1,2.1Z" fill="#ccebc5"/>
    </g>
    <g opacity=".8">
      <path d="M678.7,106.4c5.8,0,11.5-.7,17.1-2.1l54.9-13.8c6-1.5,12.1-2.3,18.3-2.3h0c-6.2,0-12.3.8-18.3,2.3l-54.9,13.8c-5.6,1.4-11.3,2.1-17.1,2.1Z" fill="#0868ac"/>
    </g>
    <g opacity=".8">
      <path d="M678.7,106.4c5.8,0,11.5-.7,17.1-2.1l54.9-13.8c6-1.5,12.1-2.3,18.3-2.3h0c-6.2,0-12.3.8-18.3,2.3l-54.9,13.8c-5.6,1.4-11.3,2.1-17.1,2.1Z" fill="#d9d9d9"/>
    </g>
    <g opacity=".8">
      <path d="M678.7,116.6c13.6,0,25.6,9,29.3,22.1l28.7,101c4.1,14.4,17.3,24.3,32.2,24.3h0c-15,0-28.1-9.9-32.2-24.3l-28.7-101c-3.7-13.1-15.7-22.1-29.3-22.1Z" fill="#fcc5c0"/>
    </g>
    <g opacity=".8">
      <path d="M678.7,117.2c2.9,0,5.2,2.3,5.2,5.2,0,0,0,.1,0,.2l-1,23c.1,2.9-2.1,5.3-5,5.4,0,0-.1,0-.2,0h0c2.9,0,5.2-2.3,5.2-5.2s0-.1,0-.2l1-23c.1-2.9-2.1-5.3-5-5.4,0,0-.1,0-.2,0Z" fill="#fff2e1"/>
    </g>
    <g opacity=".8">
      <path d="M678.7,116.6c5.5,0,11.1.2,16.6.7l57,4.7c5.5.5,11.1.7,16.6.7h0c-5.5,0-11.1-.2-16.6-.7l-57-4.7c-5.5-.5-11.1-.7-16.6-.7Z" fill="#f0f0f0"/>
    </g>
    <g opacity=".8">
      <path d="M678.7,116.6c5.5,0,11.1.2,16.6.7l57,4.7c5.5.5,11.1.7,16.6.7h0c-5.5,0-11.1-.2-16.6-.7l-57-4.7c-5.5-.5-11.1-.7-16.6-.7Z" fill="#fff2e1"/>
    </g>
    <g opacity=".8">
      <path d="M586.4,151.1c1.8,0,3.6,0,5.3,0l81.6-.4c1.8,0,3.6,0,5.3,0h0c-1.8,0-3.6,0-5.3,0l-81.6.4c-1.8,0-3.6,0-5.3,0Z" fill="#a79277"/>
    </g>
    <g opacity=".8">
      <path d="M586.4,175.5c1.8,0,3.6,0,5.3,0l81.6-.4c1.8,0,3.6,0,5.3,0h0c-1.8,0-3.6,0-5.3,0l-81.6.4c-1.8,0-3.6,0-5.3,0Z" fill="#ead8c0"/>
    </g>
    <g opacity=".8">
      <path d="M586.4,175.5c1.8,0,3.6,0,5.3,0l81.6-.4c1.8,0,3.6,0,5.3,0h0c-1.8,0-3.6,0-5.3,0l-81.6.4c-1.8,0-3.6,0-5.3,0Z" fill="#fff2e1"/>
    </g>
    <g opacity=".8">
      <path d="M586.4,175.5c1.8,0,3.6,0,5.3,0l81.6-.4c1.8,0,3.6,0,5.3,0h0c-1.8,0-3.6,0-5.3,0l-81.6.4c-1.8,0-3.6,0-5.3,0Z" fill="#d1bb9e"/>
    </g>
    <g opacity=".8">
      <path d="M678.7,87c16.3,0,30.4,11.5,33.7,27.5l24.9,122.5c3.1,15.1,16.3,25.9,31.7,25.9v2c-16.3,0-30.4-11.5-33.7-27.5l-24.9-122.5c-3.1-15.1-16.3-25.9-31.7-25.9v-2Z" fill="#d1bb9e"/>
    </g>
    <g opacity=".8">
      <path d="M678.7,99.5c15.3,0,28.6,10.5,32.1,25.5l26.5,113c3.4,14.7,16.5,25,31.6,25v2c-16,0-29.9-11-33.6-26.6l-26.5-113c-3.3-14-15.8-23.9-30.2-23.9v-2Z" fill="#ead8c0"/>
    </g>
    <g opacity=".8">
      <path d="M678.7,115.7c14,0,26.4,9.3,30.2,22.8l28.7,101c4,14,16.8,23.7,31.3,23.7v2c-15.5,0-29-10.3-33.3-25.1l-28.7-101c-3.6-12.6-15.1-21.4-28.3-21.4v-2Z" fill="#fff2e1"/>
    </g>
    <g opacity=".8">
      <path d="M678.7,87.1c3.6,0,6.5,2.9,6.5,6.5,0,0,0,0,0,.1l-1,52.2c0,3.6-2.8,6.5-6.4,6.6,0,0,0,0,0,0v-2c2.5,0,4.5-2,4.5-4.5,0,0,0,0,0-.1l1-52.2c0-2.5-1.9-4.5-4.4-4.6,0,0,0,0,0,0v-2Z" fill="#d9d9d9"/>
    </g>
    <g opacity=".8">
      <path d="M678.7,99.7c3.5,0,6.4,2.9,6.4,6.4,0,0,0,.1,0,.2l-1,39.5c0,3.5-2.8,6.4-6.3,6.5,0,0,0,0-.1,0v-2c2.4,0,4.4-2,4.4-4.4,0,0,0-.1,0-.2l1-39.5c0-2.4-1.9-4.4-4.3-4.5,0,0,0,0-.1,0v-2Z" fill="#d9d9d9"/>
    </g>
    <g opacity=".8">
      <path d="M678.7,116c3.4,0,6.2,2.8,6.2,6.2s0,.2,0,.3l-1,23c0,3.4-2.6,6.3-6,6.4,0,0-.1,0-.2,0v-2c2.3,0,4.2-1.9,4.2-4.2,0,0,0-.2,0-.3l1-23c0-2.3-1.7-4.3-4-4.4,0,0-.1,0-.2,0v-2Z" fill="#d9d9d9"/>
    </g>
    <g opacity=".8">
      <path d="M587.4,84.3c3.6,0,6.5,2.9,6.5,6.5s0,0,0,.1l-1,54.2c0,3.6-2.8,6.5-6.4,6.5,0,0,0,0,0,0v-2c2.5,0,4.5-2,4.5-4.5,0,0,0,0,0-.1l1-54.2c0-2.5-1.9-4.5-4.4-4.5,0,0,0,0,0,0v-2Z" fill="#d9d9d9"/>
    </g>
    <g opacity=".8">
      <path d="M678.7,76.4c3.8,0,7,3.1,7,7,0,0,0,0,0,.1l-1,62.6c0,3.8-3,7-6.9,7,0,0,0,0,0,0v-2c2.7,0,5-2.2,5-5,0,0,0,0,0-.1l1-62.6c0-2.7-2.1-5-4.9-5,0,0,0,0,0,0v-2Z" fill="#d9d9d9"/>
    </g>
    <g opacity=".8">
      <path d="M404.9,85.2c6.7,0,13.3,2,18.9,5.6l53.6,35.2c5.3,3.5,11.5,5.3,17.8,5.3v2c-6.7,0-13.3-2-18.9-5.6l-53.6-35.2c-5.3-3.5-11.5-5.3-17.8-5.3v-2Z" fill="#f0f0f0"/>
    </g>
    <g opacity=".8">
      <path d="M587.4,77.5c5.6,0,11.2.3,16.8,1l57,7c5.5.7,11,1,16.5,1v2c-5.6,0-11.2-.3-16.8-1l-57-7c-5.5-.7-11-1-16.5-1v-2Z" fill="#ccebc5"/>
    </g>
    <g opacity=".8">
      <path d="M587.4,79.1c5.8,0,11.6.7,17.2,2.2l56.5,14.8c5.4,1.4,11,2.1,16.6,2.1v2.7c-5.8,0-11.6-.7-17.2-2.2l-56.5-14.8c-5.4-1.4-11-2.1-16.6-2.1v-2.7Z" fill="#ccebc5"/>
    </g>
    <g opacity=".8">
      <path d="M222.3,86.7c7,0,13.8,2,19.7,5.8l53,34.6c5.2,3.4,11.4,5.2,17.6,5.2v2.8c-6.8,0-13.4-2-19.1-5.7l-53-34.6c-5.4-3.5-11.7-5.4-18.1-5.4v-2.8Z" fill="#f0f0f0"/>
    </g>
    <g opacity=".8">
      <path d="M313.6,132.4c5.5,0,11,0,16.6-.2l57.1-1.2c5.5-.1,11.1-.2,16.6-.2v2.8c-5.5,0-11,0-16.6.2l-57.1,1.2c-5.5.1-11.1.2-16.6.2v-2.8Z" fill="#f0f0f0"/>
    </g>
    <g opacity=".8">
      <path d="M404.9,130.8c5.5,0,11.1,0,16.6.2l57.1,1.6c5.5.2,11,.2,16.6.2v2.8c-5.5,0-11.1,0-16.6-.2l-57.1-1.6c-5.5-.2-11-.2-16.6-.2v-2.8Z" fill="#f0f0f0"/>
    </g>
    <g opacity=".8">
      <path d="M587.4,81.8c6.2,0,12.4,1.3,18.1,3.9l55.3,24.9c5.3,2.4,11,3.6,16.9,3.6v3c-6.2,0-12.4-1.3-18.1-3.9l-55.3-24.9c-5.3-2.4-11-3.6-16.9-3.6v-3Z" fill="#ccebc5"/>
    </g>
    <g opacity=".8">
      <path d="M587.4,33c8.9,0,17.6,2.9,24.7,8.4l46.2,35.5c5.6,4.3,12.4,6.6,19.4,6.6v3.6c-7.8,0-15.4-2.6-21.6-7.3l-46.2-35.5c-6.5-4.9-14.4-7.6-22.5-7.6v-3.6Z" fill="#d1bb9e"/>
    </g>
    <g opacity=".8">
      <path d="M587.4,36.6c9,0,17.6,3.3,24.4,9.2l46.1,40.5c5.5,4.8,12.5,7.4,19.8,7.4v4.5c-8.4,0-16.5-3-22.8-8.6l-46.1-40.5c-5.9-5.2-13.5-8.1-21.4-8.1v-4.5Z" fill="#ead8c0"/>
    </g>
    <g opacity=".8">
      <path d="M678.7,83.4c2.4,0,4.7,0,7.1-.3l67.5-5.5c5.2-.4,10.5-.6,15.7-.6v4.6c-5.1,0-10.2.2-15.3.6l-67.5,5.5c-2.5.2-5,.3-7.5.3v-4.6Z" fill="#d1bb9e"/>
    </g>
    <g opacity=".8">
      <path d="M678.7,93.7c5.4,0,10.8-.4,16.2-1.3l56.8-9.4c5.7-.9,11.5-1.4,17.3-1.4v6.8c-5.4,0-10.8.4-16.2,1.3l-56.8,9.4c-5.7.9-11.5,1.4-17.3,1.4v-6.8Z" fill="#ead8c0"/>
    </g>
    <g opacity=".8">
      <path d="M587.4,41.1c8.6,0,16.9,3.4,23,9.6l47.1,47.3c5.4,5.4,12.6,8.4,20.2,8.4v7.8c-9.7,0-18.9-3.8-25.7-10.7l-47.1-47.3c-4.6-4.6-10.9-7.3-17.5-7.3v-7.8Z" fill="#fff2e1"/>
    </g>
    <g opacity=".8">
      <path d="M678.7,106.4c5.3,0,10.5-.6,15.6-1.9l56.5-14c5.9-1.5,12-2.2,18.1-2.2v10.2c-5.3,0-10.5.6-15.6,1.9l-56.5,14c-5.9,1.5-12,2.2-18.1,2.2v-10.2Z" fill="#fff2e1"/>
    </g>
    <g opacity=".8">
      <path d="M678.7,64.2h90.3v12.7h-90.3v-12.7Z" fill="#a79277"/>
    </g>
    <g opacity=".8">
      <path d="M587.4,64.2h90.3v13.7h-90.3v-13.7Z" fill="#ccebc5"/>
    </g>
    <g opacity=".8">
      <path d="M404.9,64.2h90.3v21.6h-90.3v-21.6Z" fill="#7bccc4"/>
    </g>
    <g opacity=".8">
      <path d="M496.1,64.2h90.3v21.6h-90.3v-21.6Z" fill="#a8ddb5"/>
    </g>
    <g opacity=".8">
      <path d="M770,64.2c15.2,0,27.5,12.3,27.5,27.5,0,.2,0,.3,0,.5l-1,54.4c0,15.2-12.2,27.5-27.4,27.6,0,0,0,0,0,0v-22.5c2.8,0,5-2.2,5-5,0-.2,0-.3,0-.5l1-54.4c0-2.8-2.1-5-4.9-5.1,0,0,0,0,0,0v-22.5Z" fill="#d9d9d9"/>
    </g>
    <g opacity=".8">
      <path d="M677.7,152.6c4,0,7.9,0,11.9,0l68.2-.8c4.1,0,8.1,0,12.2,0v22.5c-4,0-7.9,0-11.9,0l-68.2.8c-4.1,0-8.1,0-12.2,0v-22.5Z" fill="#d9d9d9"/>
    </g>
    <g opacity=".8">
      <path d="M222.3,64.2h90.3v22.5h-90.3v-22.5Z" fill="#d9d9d9"/>
    </g>
    <g opacity=".8">
      <path d="M313.6,64.2h90.3v22.5h-90.3v-22.5Z" fill="#d9d9d9"/>
    </g>
    <g opacity=".8">
      <path d="M586.4,151.1c1.8,0,3.5,0,5.3,0l81.6-.4c1.8,0,3.6,0,5.4,0v24.4c-1.8,0-3.5,0-5.3,0l-81.6.4c-1.8,0-3.6,0-5.4,0v-24.4Z" fill="#d9d9d9"/>
    </g>
    <g opacity=".8">
      <path d="M222.3,150.2c-2.8,0-5-2.2-5-5s0,0,0,0l-1-50.4c-.1-2.8,2-5.1,4.7-5.2,0,0,.2,0,.3,0v-25.3c-16.8,0-30.3,13.6-30.3,30.3s0,.2,0,.2l1,50.4c0,16.8,13.5,30.3,30.3,30.4,0,0,0,0,0,0v-25.3Z" fill="#d9d9d9"/>
    </g>
    <g opacity=".8">
      <path d="M221.3,150.2h92.3v25.3h-92.3v-25.3Z" fill="#d9d9d9"/>
    </g>
    <g opacity=".8">
      <path d="M312.6,150.2h92.3v25.3h-92.3v-25.3Z" fill="#d9d9d9"/>
    </g>
    <g opacity=".8">
      <path d="M403.9,150.2h92.3v25.3h-92.3v-25.3Z" fill="#d9d9d9"/>
    </g>
    <g opacity=".8">
      <path d="M495.1,150.2h92.3v25.3h-92.3v-25.3Z" fill="#d9d9d9"/>
    </g>
    <g opacity=".8">
      <path d="M131,226.1h90.3v75.9h-90.3v-75.9Z" fill="#d9d9d9"/>
    </g>
  </g>
  <g>
    <g>
      <line x1="130" y1="40.9" x2="130" y2="40.9" display="none" fill="none" stroke="#000"/>
      <polygon points="130 40.9 131 40.9 131 40.9 130 40.9" fill="none"/>
      <rect x="125" y="35.9" width="10" height="5" display="none" fill="none"/>
    </g>
    <g>
      <line x1="130" y1="64.2" x2="130" y2="64.2" display="none" fill="none" stroke="#000"/>
      <polygon points="130 64.2 131 64.2 131 64.2 130 64.2" fill="none"/>
      <rect x="125" y="59.2" width="10" height="5" display="none" fill="none"/>
    </g>
    <g>
      <line x1="130" y1="64.2" x2="130" y2="64.2" display="none" fill="none" stroke="#000"/>
      <polygon points="130 64.2 131 64.2 131 64.2 130 64.2" fill="none"/>
      <rect x="125" y="59.2" width="10" height="5" display="none" fill="none"/>
    </g>
    <g>
      <line x1="130" y1="64.2" x2="130" y2="64.2" display="none" fill="none" stroke="#000"/>
      <polygon points="130 64.2 131 64.2 131 64.2 130 64.2" fill="none"/>
      <rect x="125" y="59.2" width="10" height="5" display="none" fill="none"/>
    </g>
    <g>
      <line x1="130" y1="226.1" x2="130" y2="302" fill="none" stroke="#000"/>
      <rect x="130" y="226.1" width="1" height="75.9" fill="none"/>
      <text transform="translate(102.7 268.3)" font-family="Helvetica, Helvetica" font-size="12" isolation="isolate"><tspan x="0" y="0">1 Mt</tspan></text>
      <rect x="125" y="221.1" width="10" height="80.9" display="none" fill="none"/>
    </g>
    <g>
      <line x1="221.3" y1="40.9" x2="221.3" y2="40.9" display="none" fill="none" stroke="#000"/>
      <polygon points="221.3 40.9 222.3 40.9 222.3 40.9 221.3 40.9" fill="none"/>
      <rect x="216.3" y="35.9" width="10" height="5" display="none" fill="none"/>
    </g>
    <g>
      <line x1="221.3" y1="59.2" x2="221.3" y2="64.2" display="none" fill="none" stroke="#000"/>
      <polygon points="221.3 64.2 222.3 64.2 222.3 64.2 221.3 64.2" fill="none"/>
      <rect x="216.3" y="59.2" width="10" height="5" display="none" fill="none"/>
    </g>
    <g>
      <line x1="221.3" y1="64.2" x2="221.3" y2="89.5" fill="none" stroke="#000"/>
      <rect x="221.3" y="64.2" width="1" height="25.3" fill="none"/>
      <text transform="translate(226.3 81)" font-family="Helvetica, Helvetica" font-size="12" isolation="isolate"><tspan x="0" y="0">Scrap steel</tspan></text>
      <rect x="216.3" y="59.2" width="10" height="30.3" display="none" fill="none"/>
    </g>
    <g>
      <line x1="221.3" y1="122.7" x2="221.3" y2="122.7" display="none" fill="none" stroke="#000"/>
      <polygon points="221.3 122.7 222.3 122.7 222.3 122.7 221.3 122.7" fill="none"/>
      <rect x="216.3" y="117.7" width="10" height="5" display="none" fill="none"/>
    </g>
    <g>
      <line x1="221.3" y1="122.7" x2="221.3" y2="122.7" display="none" fill="none" stroke="#000"/>
      <polygon points="221.3 122.7 222.3 122.7 222.3 122.7 221.3 122.7" fill="none"/>
      <rect x="216.3" y="117.7" width="10" height="5" display="none" fill="none"/>
    </g>
    <g>
      <line x1="221.3" y1="145.2" x2="221.3" y2="175.5" display="none" fill="none" stroke="#000"/>
      <rect x="221.3" y="150.2" width="1" height="25.3" fill="none"/>
      <rect x="216.3" y="145.2" width="10" height="30.3" display="none" fill="none"/>
    </g>
    <g>
      <line x1="221.3" y1="226.1" x2="221.3" y2="302" fill="none" stroke="#000"/>
      <rect x="221.3" y="226.1" width="1" height="75.9" fill="none"/>
      <rect x="216.3" y="221.1" width="10" height="80.9" display="none" fill="none"/>
    </g>
    <g>
      <line x1="312.6" y1="59.2" x2="312.6" y2="64.2" display="none" fill="none" stroke="#000"/>
      <polygon points="312.6 64.2 313.6 64.2 313.6 64.2 312.6 64.2" fill="none"/>
      <rect x="307.6" y="59.2" width="10" height="5" display="none" fill="none"/>
    </g>
    <g>
      <line x1="312.6" y1="64.2" x2="312.6" y2="64.2" display="none" fill="none" stroke="#000"/>
      <polygon points="312.6 64.2 313.6 64.2 313.6 64.2 312.6 64.2" fill="none"/>
      <rect x="307.6" y="59.2" width="10" height="5" display="none" fill="none"/>
    </g>
    <g>
      <line x1="312.6" y1="64.2" x2="312.6" y2="64.2" display="none" fill="none" stroke="#000"/>
      <polygon points="312.6 64.2 313.6 64.2 313.6 64.2 312.6 64.2" fill="none"/>
      <rect x="307.6" y="59.2" width="10" height="5" display="none" fill="none"/>
    </g>
    <g>
      <line x1="312.6" y1="64.2" x2="312.6" y2="64.2" display="none" fill="none" stroke="#000"/>
      <polygon points="312.6 64.2 313.6 64.2 313.6 64.2 312.6 64.2" fill="none"/>
      <rect x="307.6" y="59.2" width="10" height="5" display="none" fill="none"/>
    </g>
    <g>
      <line x1="312.6" y1="64.2" x2="312.6" y2="64.2" display="none" fill="none" stroke="#000"/>
      <polygon points="312.6 64.2 313.6 64.2 313.6 64.2 312.6 64.2" fill="none"/>
      <rect x="307.6" y="59.2" width="10" height="5" display="none" fill="none"/>
    </g>
    <g>
      <line x1="312.6" y1="64.2" x2="312.6" y2="86.7" display="none" fill="none" stroke="#000"/>
      <rect x="312.6" y="64.2" width="1" height="22.5" fill="none"/>
      <rect x="307.6" y="59.2" width="10" height="27.5" display="none" fill="none"/>
    </g>
    <g>
      <line x1="312.6" y1="122.7" x2="312.6" y2="122.7" display="none" fill="none" stroke="#000"/>
      <polygon points="312.6 122.7 313.6 122.7 313.6 122.7 312.6 122.7" fill="none"/>
      <rect x="307.6" y="117.7" width="10" height="5" display="none" fill="none"/>
    </g>
    <g>
      <line x1="312.6" y1="122.7" x2="312.6" y2="122.7" display="none" fill="none" stroke="#000"/>
      <polygon points="312.6 122.7 313.6 122.7 313.6 122.7 312.6 122.7" fill="none"/>
      <rect x="307.6" y="117.7" width="10" height="5" display="none" fill="none"/>
    </g>
    <g>
      <line x1="312.6" y1="127.4" x2="312.6" y2="135.2" display="none" fill="none" stroke="#000"/>
      <rect x="312.6" y="132.4" width="1" height="2.8" fill="none"/>
      <rect x="307.6" y="127.4" width="10" height="7.8" display="none" fill="none"/>
    </g>
    <g>
      <line x1="312.6" y1="145.2" x2="312.6" y2="175.5" display="none" fill="none" stroke="#000"/>
      <rect x="312.6" y="150.2" width="1" height="25.3" fill="none"/>
      <rect x="307.6" y="145.2" width="10" height="30.3" display="none" fill="none"/>
    </g>
    <g>
      <line x1="312.6" y1="264.1" x2="312.6" y2="264.1" display="none" fill="none" stroke="#000"/>
      <polygon points="312.6 264.1 313.6 264.1 313.6 264.1 312.6 264.1" fill="none"/>
      <rect x="307.6" y="259.1" width="10" height="5" display="none" fill="none"/>
    </g>
    <g>
      <line x1="403.9" y1="40.9" x2="403.9" y2="40.9" display="none" fill="none" stroke="#000"/>
      <polygon points="403.9 40.9 404.9 40.9 404.9 40.9 403.9 40.9" fill="none"/>
      <rect x="398.9" y="35.9" width="10" height="5" display="none" fill="none"/>
    </g>
    <g>
      <line x1="403.9" y1="64.2" x2="403.9" y2="64.2" display="none" fill="none" stroke="#000"/>
      <polygon points="403.9 64.2 404.9 64.2 404.9 64.2 403.9 64.2" fill="none"/>
      <rect x="398.9" y="59.2" width="10" height="5" display="none" fill="none"/>
    </g>
    <g>
      <line x1="403.9" y1="64.2" x2="403.9" y2="64.2" display="none" fill="none" stroke="#000"/>
      <polygon points="403.9 64.2 404.9 64.2 404.9 64.2 403.9 64.2" fill="none"/>
      <rect x="398.9" y="59.2" width="10" height="5" display="none" fill="none"/>
    </g>
    <g>
      <line x1="403.9" y1="64.2" x2="403.9" y2="64.2" display="none" fill="none" stroke="#000"/>
      <polygon points="403.9 64.2 404.9 64.2 404.9 64.2 403.9 64.2" fill="none"/>
      <rect x="398.9" y="59.2" width="10" height="5" display="none" fill="none"/>
    </g>
    <g>
      <line x1="403.9" y1="64.2" x2="403.9" y2="86.7" fill="none" stroke="#000"/>
      <rect x="403.9" y="64.2" width="1" height="22.5" fill="none"/>
      <text transform="translate(408.9 79.6)" font-family="Helvetica, Helvetica" font-size="12" isolation="isolate"><tspan x="0" y="0">EAF steel</tspan></text>
      <rect x="398.9" y="59.2" width="10" height="27.5" display="none" fill="none"/>
    </g>
    <g>
      <line x1="403.9" y1="122.7" x2="403.9" y2="122.7" display="none" fill="none" stroke="#000"/>
      <polygon points="403.9 122.7 404.9 122.7 404.9 122.7 403.9 122.7" fill="none"/>
      <rect x="398.9" y="117.7" width="10" height="5" display="none" fill="none"/>
    </g>
    <g>
      <line x1="403.9" y1="125.8" x2="403.9" y2="133.5" display="none" fill="none" stroke="#000"/>
      <rect x="403.9" y="130.8" width="1" height="2.8" fill="none"/>
      <rect x="398.9" y="125.8" width="10" height="7.8" display="none" fill="none"/>
    </g>
    <g>
      <line x1="403.9" y1="136.8" x2="403.9" y2="136.8" display="none" fill="none" stroke="#000"/>
      <polygon points="403.9 136.8 404.9 136.8 404.9 136.8 403.9 136.8" fill="none"/>
      <rect x="398.9" y="131.8" width="10" height="5" display="none" fill="none"/>
    </g>
    <g>
      <line x1="403.9" y1="145.2" x2="403.9" y2="175.5" display="none" fill="none" stroke="#000"/>
      <rect x="403.9" y="150.2" width="1" height="25.3" fill="none"/>
      <rect x="398.9" y="145.2" width="10" height="30.3" display="none" fill="none"/>
    </g>
    <g>
      <line x1="403.9" y1="264.1" x2="403.9" y2="264.1" display="none" fill="none" stroke="#000"/>
      <polygon points="403.9 264.1 404.9 264.1 404.9 264.1 403.9 264.1" fill="none"/>
      <rect x="398.9" y="259.1" width="10" height="5" display="none" fill="none"/>
    </g>
    <g>
      <line x1="495.1" y1="40.9" x2="495.1" y2="40.9" display="none" fill="none" stroke="#000"/>
      <polygon points="495.1 40.9 496.1 40.9 496.1 40.9 495.1 40.9" fill="none"/>
      <rect x="490.1" y="35.9" width="10" height="5" display="none" fill="none"/>
    </g>
    <g>
      <line x1="495.1" y1="59.2" x2="495.1" y2="85.7" fill="none" stroke="#000"/>
      <rect x="495.1" y="64.2" width="1" height="21.6" fill="none"/>
      <text transform="translate(491.1 58.4)" font-family="Helvetica, Helvetica" font-size="12" isolation="isolate"><tspan x="0" y="0">Ingots and semis</tspan></text>
      <rect x="490.1" y="59.2" width="10" height="26.6" display="none" fill="none"/>
    </g>
    <g>
      <line x1="495.1" y1="122.7" x2="495.1" y2="122.7" display="none" fill="none" stroke="#000"/>
      <polygon points="495.1 122.7 496.1 122.7 496.1 122.7 495.1 122.7" fill="none"/>
      <rect x="490.1" y="117.7" width="10" height="5" display="none" fill="none"/>
    </g>
    <g>
      <line x1="495.1" y1="122.7" x2="495.1" y2="122.7" display="none" fill="none" stroke="#000"/>
      <polygon points="495.1 122.7 496.1 122.7 496.1 122.7 495.1 122.7" fill="none"/>
      <rect x="490.1" y="117.7" width="10" height="5" display="none" fill="none"/>
    </g>
    <g>
      <line x1="495.1" y1="122.7" x2="495.1" y2="122.7" display="none" fill="none" stroke="#000"/>
      <polygon points="495.1 122.7 496.1 122.7 496.1 122.7 495.1 122.7" fill="none"/>
      <rect x="490.1" y="117.7" width="10" height="5" display="none" fill="none"/>
    </g>
    <g>
      <line x1="495.1" y1="122.7" x2="495.1" y2="122.7" display="none" fill="none" stroke="#000"/>
      <polygon points="495.1 122.7 496.1 122.7 496.1 122.7 495.1 122.7" fill="none"/>
      <rect x="490.1" y="117.7" width="10" height="5" display="none" fill="none"/>
    </g>
    <g>
      <line x1="495.1" y1="131.9" x2="495.1" y2="135.6" fill="none" stroke="#000"/>
      <rect x="495.1" y="131.9" width="1" height="3.8" fill="none"/>
      <text transform="translate(500.1 138)" font-family="Helvetica, Helvetica" font-size="12" isolation="isolate"><tspan x="0" y="0">Loss</tspan></text>
      <rect x="490.1" y="126.9" width="10" height="8.8" display="none" fill="none"/>
    </g>
    <g>
      <line x1="495.1" y1="145.2" x2="495.1" y2="175.5" display="none" fill="none" stroke="#000"/>
      <rect x="495.1" y="150.2" width="1" height="25.3" fill="none"/>
      <rect x="490.1" y="145.2" width="10" height="30.3" display="none" fill="none"/>
    </g>
    <g>
      <line x1="586.4" y1="33" x2="586.4" y2="48.9" fill="none" stroke="#000"/>
      <rect x="586.4" y="33" width="1" height="15.9" fill="none"/>
      <text transform="translate(542.4 45.1)" font-family="Helvetica, Helvetica" font-size="12" isolation="isolate"><tspan x="0" y="0">Imports</tspan></text>
      <rect x="581.4" y="28" width="10" height="20.9" display="none" fill="none"/>
    </g>
    <g>
      <line x1="586.4" y1="64.2" x2="586.4" y2="64.2" display="none" fill="none" stroke="#000"/>
      <polygon points="586.4 64.2 587.4 64.2 587.4 64.2 586.4 64.2" fill="none"/>
      <rect x="581.4" y="59.2" width="10" height="5" display="none" fill="none"/>
    </g>
    <g>
      <line x1="586.4" y1="64.2" x2="586.4" y2="85.7" fill="none" stroke="#000"/>
      <rect x="586.4" y="64.2" width="1" height="21.6" fill="none"/>
      <text transform="translate(591.4 79.2)" font-family="Helvetica, Helvetica" font-size="12" isolation="isolate"><tspan x="0" y="0">Long products</tspan></text>
      <rect x="581.4" y="59.2" width="10" height="26.6" display="none" fill="none"/>
    </g>
    <g>
      <line x1="586.4" y1="122.7" x2="586.4" y2="122.7" display="none" fill="none" stroke="#000"/>
      <polygon points="586.4 122.7 587.4 122.7 587.4 122.7 586.4 122.7" fill="none"/>
      <rect x="581.4" y="117.7" width="10" height="5" display="none" fill="none"/>
    </g>
    <g>
      <line x1="586.4" y1="122.7" x2="586.4" y2="122.7" display="none" fill="none" stroke="#000"/>
      <polygon points="586.4 122.7 587.4 122.7 587.4 122.7 586.4 122.7" fill="none"/>
      <rect x="581.4" y="117.7" width="10" height="5" display="none" fill="none"/>
    </g>
    <g>
      <line x1="586.4" y1="122.7" x2="586.4" y2="122.7" display="none" fill="none" stroke="#000"/>
      <polygon points="586.4 122.7 587.4 122.7 587.4 122.7 586.4 122.7" fill="none"/>
      <rect x="581.4" y="117.7" width="10" height="5" display="none" fill="none"/>
    </g>
    <g>
      <line x1="586.4" y1="122.7" x2="586.4" y2="122.7" display="none" fill="none" stroke="#000"/>
      <polygon points="586.4 122.7 587.4 122.7 587.4 122.7 586.4 122.7" fill="none"/>
      <rect x="581.4" y="117.7" width="10" height="5" display="none" fill="none"/>
    </g>
    <g>
      <line x1="586.4" y1="122.7" x2="586.4" y2="122.7" display="none" fill="none" stroke="#000"/>
      <polygon points="586.4 122.7 587.4 122.7 587.4 122.7 586.4 122.7" fill="none"/>
      <rect x="581.4" y="117.7" width="10" height="5" display="none" fill="none"/>
    </g>
    <g>
      <line x1="586.4" y1="145.2" x2="586.4" y2="175.5" display="none" fill="none" stroke="#000"/>
      <rect x="586.4" y="150.2" width="1" height="25.3" fill="none"/>
      <rect x="581.4" y="145.2" width="10" height="30.3" display="none" fill="none"/>
    </g>
    <g>
      <line x1="586.4" y1="264.1" x2="586.4" y2="264.1" display="none" fill="none" stroke="#000"/>
      <polygon points="586.4 264.1 587.4 264.1 587.4 264.1 586.4 264.1" fill="none"/>
      <rect x="581.4" y="259.1" width="10" height="5" display="none" fill="none"/>
    </g>
    <g>
      <line x1="677.7" y1="59.2" x2="677.7" y2="77.9" fill="none" stroke="#000"/>
      <rect x="677.7" y="64.2" width="1" height="13.7" fill="none"/>
      <text transform="translate(673.7 58.4)" font-family="Helvetica, Helvetica" font-size="12" isolation="isolate"><tspan x="0" y="0">Construction</tspan></text>
      <rect x="672.7" y="59.2" width="10" height="18.7" display="none" fill="none"/>
    </g>
    <g>
      <line x1="677.7" y1="83.4" x2="677.7" y2="88.2" fill="none" stroke="#000"/>
      <rect x="677.7" y="83.4" width="1" height="4.9" fill="none"/>
      <text transform="translate(682.7 90)" font-family="Helvetica, Helvetica" font-size="12" isolation="isolate"><tspan x="0" y="0">Transport</tspan></text>
      <rect x="672.7" y="78.4" width="10" height="9.9" display="none" fill="none"/>
    </g>
    <g>
      <line x1="677.7" y1="93.7" x2="677.7" y2="100.9" fill="none" stroke="#000"/>
      <rect x="677.7" y="93.7" width="1" height="7.2" fill="none"/>
      <text transform="translate(682.7 101.5)" font-family="Helvetica, Helvetica" font-size="12" isolation="isolate"><tspan x="0" y="0">Machinery</tspan></text>
      <rect x="672.7" y="88.7" width="10" height="12.2" display="none" fill="none"/>
    </g>
    <g>
      <line x1="677.7" y1="106.4" x2="677.7" y2="106.4" display="none" fill="none" stroke="#000"/>
      <polygon points="677.7 106.4 678.7 106.4 678.7 106.4 677.7 106.4" fill="none"/>
      <rect x="672.7" y="101.4" width="10" height="5" display="none" fill="none"/>
    </g>
    <g>
      <line x1="677.7" y1="106.4" x2="677.7" y2="117.2" fill="none" stroke="#000"/>
      <rect x="677.7" y="106.4" width="1" height="10.8" fill="none"/>
      <text transform="translate(682.7 116)" font-family="Helvetica, Helvetica" font-size="12" isolation="isolate"><tspan x="0" y="0">Other goods</tspan></text>
      <rect x="672.7" y="101.4" width="10" height="15.8" display="none" fill="none"/>
    </g>
    <g>
      <line x1="677.7" y1="122.7" x2="677.7" y2="122.7" display="none" fill="none" stroke="#000"/>
      <polygon points="677.7 122.7 678.7 122.7 678.7 122.7 677.7 122.7" fill="none"/>
      <rect x="672.7" y="117.7" width="10" height="5" display="none" fill="none"/>
    </g>
    <g>
      <line x1="677.7" y1="122.7" x2="677.7" y2="122.7" display="none" fill="none" stroke="#000"/>
      <polygon points="677.7 122.7 678.7 122.7 678.7 122.7 677.7 122.7" fill="none"/>
      <rect x="672.7" y="117.7" width="10" height="5" display="none" fill="none"/>
    </g>
    <g>
      <line x1="677.7" y1="145.7" x2="677.7" y2="175.1" display="none" fill="none" stroke="#000"/>
      <rect x="677.7" y="150.7" width="1" height="24.4" fill="none"/>
      <rect x="672.7" y="145.7" width="10" height="29.4" display="none" fill="none"/>
    </g>
    <g>
      <line x1="677.7" y1="264.1" x2="677.7" y2="264.1" display="none" fill="none" stroke="#000"/>
      <polygon points="677.7 264.1 678.7 264.1 678.7 264.1 677.7 264.1" fill="none"/>
      <rect x="672.7" y="259.1" width="10" height="5" display="none" fill="none"/>
    </g>
    <g>
      <line x1="769" y1="64.2" x2="769" y2="64.2" display="none" fill="none" stroke="#000"/>
      <polygon points="769 64.2 770 64.2 770 64.2 769 64.2" fill="none"/>
      <rect x="764" y="59.2" width="10" height="5" display="none" fill="none"/>
    </g>
    <g>
      <line x1="769" y1="64.2" x2="769" y2="64.2" display="none" fill="none" stroke="#000"/>
      <polygon points="769 64.2 770 64.2 770 64.2 769 64.2" fill="none"/>
      <rect x="764" y="59.2" width="10" height="5" display="none" fill="none"/>
    </g>
    <g>
      <line x1="769" y1="64.2" x2="769" y2="98.5" fill="none" stroke="#000"/>
      <rect x="769" y="64.2" width="1" height="34.3" fill="none"/>
      <rect x="764" y="59.2" width="10" height="39.3" display="none" fill="none"/>
    </g>
    <g>
      <line x1="769" y1="122.7" x2="769" y2="122.7" display="none" fill="none" stroke="#000"/>
      <polygon points="769 122.7 770 122.7 770 122.7 769 122.7" fill="none"/>
      <rect x="764" y="117.7" width="10" height="5" display="none" fill="none"/>
    </g>
    <g>
      <line x1="769" y1="122.7" x2="769" y2="122.7" display="none" fill="none" stroke="#000"/>
      <polygon points="769 122.7 770 122.7 770 122.7 769 122.7" fill="none"/>
      <rect x="764" y="117.7" width="10" height="5" display="none" fill="none"/>
    </g>
    <g>
      <line x1="769" y1="146.6" x2="769" y2="174.1" display="none" fill="none" stroke="#000"/>
      <rect x="769" y="151.6" width="1" height="22.5" fill="none"/>
      <rect x="764" y="146.6" width="10" height="27.5" display="none" fill="none"/>
    </g>
    <g>
      <line x1="769" y1="263.9" x2="769" y2="264.9" fill="none" stroke="#000"/>
      <rect x="769" y="263.9" width="1" height="1" fill="none"/>
      <text transform="translate(774 268.3)" font-family="Helvetica, Helvetica" font-size="12" isolation="isolate"><tspan x="0" y="0">Exports</tspan></text>
      <rect x="764" y="258.9" width="10" height="6" display="none" fill="none"/>
    </g>
  </g>
</svg>