<?xml version="1.0" encoding="UTF-8"?>
<svg id="_レイヤー_1" data-name="レイヤー 1" xmlns="http://www.w3.org/2000/svg" viewBox="0 0 728.69 293.32">
  <defs>
    <style>
      .cls-1, .cls-2 {
        fill: none;
      }

      .cls-3 {
        fill: #7bccc4;
      }

      .cls-4 {
        fill: #d1bb9e;
      }

      .cls-5 {
        fill: #4eb3d3;
      }

      .cls-6, .cls-7 {
        font-family: Helvetica, Helvetica;
        font-size: 12px;
        isolation: isolate;
      }

      .cls-8 {
        fill: #d9d9d9;
      }

      .cls-9 {
        fill: #fcc5c0;
      }

      .cls-10 {
        fill: #0868ac;
      }

      .cls-11 {
        fill: #525252;
      }

      .cls-12 {
        fill: #fff2e1;
      }

      .cls-13 {
        fill: #ccebc5;
      }

      .cls-14 {
        fill: #a79277;
      }

      .cls-15 {
        fill: #e0f3db;
      }

      .cls-16 {
        fill: #eee;
        stroke: #bbb;
        stroke-width: .5px;
      }

      .cls-17 {
        fill: #2b8cbe;
      }

      .cls-18 {
        fill: #f0f0f0;
      }

      .cls-19 {
        fill: #a8ddb5;
      }

      .cls-20 {
        opacity: .8;
      }

      .cls-21 {
        letter-spacing: -.04em;
      }

      .cls-22 {
        fill: #ead8c0;
      }

      .cls-2 {
        stroke: #000;
      }

      .cls-7 {
        fill: #999;
      }
    </style>
  </defs>
  <g>
    <rect class="cls-16" x="673.01" y="40.18" width="21" height="90.76"/>
    <text class="cls-7" transform="translate(673.01 35.18)"><tspan x="0" y="0">Stock</tspan></text>
  </g>
  <g>
    <g class="cls-20">
      <path class="cls-9" d="M45.01,0c13.53,0,26.45,5.6,35.7,15.48l33.17,35.42c5.55,5.92,13.3,9.29,21.42,9.29h0c-8.12,0-15.87-3.36-21.42-9.29L80.71,15.48C71.46,5.6,58.54,0,45.01,0Z"/>
    </g>
    <g class="cls-20">
      <path class="cls-9" d="M45.01,29.67c6.74,0,12.99,3.53,16.47,9.3l50.33,83.38c4.97,8.23,13.88,13.25,23.48,13.25h0c-9.61,0-18.52-5.03-23.48-13.25L61.48,38.97c-3.48-5.77-9.73-9.3-16.47-9.3Z"/>
    </g>
    <g class="cls-20">
      <path class="cls-8" d="M45.01,29.67c6.74,0,12.99,3.53,16.47,9.3l50.33,83.38c4.97,8.23,13.88,13.25,23.48,13.25h0c-9.61,0-18.52-5.03-23.48-13.25L61.48,38.97c-3.48-5.77-9.73-9.3-16.47-9.3Z"/>
    </g>
    <g class="cls-20">
      <path class="cls-17" d="M45.01,185.59c6.68,0,13.19-2.09,18.62-5.98l53.05-38.03c5.43-3.89,11.94-5.98,18.62-5.98h0c-6.68,0-13.19,2.09-18.62,5.98l-53.05,38.03c-5.43,3.89-11.94,5.98-18.62,5.98Z"/>
    </g>
    <g class="cls-20">
      <path class="cls-9" d="M45.01,185.59c6.68,0,13.19-2.09,18.62-5.98l53.05-38.03c5.43-3.89,11.94-5.98,18.62-5.98h0c-6.68,0-13.19,2.09-18.62,5.98l-53.05,38.03c-5.43,3.89-11.94,5.98-18.62,5.98Z"/>
    </g>
    <g class="cls-20">
      <path class="cls-5" d="M45.01,185.59c6.68,0,13.19-2.09,18.62-5.98l53.05-38.03c5.43-3.89,11.94-5.98,18.62-5.98h0c-6.68,0-13.19,2.09-18.62,5.98l-53.05,38.03c-5.43,3.89-11.94,5.98-18.62,5.98Z"/>
    </g>
    <g class="cls-20">
      <path class="cls-3" d="M45.01,185.59c6.68,0,13.19-2.09,18.62-5.98l53.05-38.03c5.43-3.89,11.94-5.98,18.62-5.98h0c-6.68,0-13.19,2.09-18.62,5.98l-53.05,38.03c-5.43,3.89-11.94,5.98-18.62,5.98Z"/>
    </g>
    <g class="cls-20">
      <path class="cls-8" d="M45.01,185.59c6.68,0,13.19-2.09,18.62-5.98l53.05-38.03c5.43-3.89,11.94-5.98,18.62-5.98h0c-6.68,0-13.19,2.09-18.62,5.98l-53.05,38.03c-5.43,3.89-11.94,5.98-18.62,5.98Z"/>
    </g>
    <g class="cls-20">
      <path class="cls-19" d="M45.01,185.59c6.68,0,13.19-2.09,18.62-5.98l53.05-38.03c5.43-3.89,11.94-5.98,18.62-5.98h0c-6.68,0-13.19,2.09-18.62,5.98l-53.05,38.03c-5.43,3.89-11.94,5.98-18.62,5.98Z"/>
    </g>
    <g class="cls-20">
      <path class="cls-11" d="M45.01,185.59c6.68,0,13.19-2.09,18.62-5.98l53.05-38.03c5.43-3.89,11.94-5.98,18.62-5.98h0c-6.68,0-13.19,2.09-18.62,5.98l-53.05,38.03c-5.43,3.89-11.94,5.98-18.62,5.98Z"/>
    </g>
    <g class="cls-20">
      <path class="cls-10" d="M45.01,185.59c6.68,0,13.19-2.09,18.62-5.98l53.05-38.03c5.43-3.89,11.94-5.98,18.62-5.98h0c-6.68,0-13.19,2.09-18.62,5.98l-53.05,38.03c-5.43,3.89-11.94,5.98-18.62,5.98Z"/>
    </g>
    <g class="cls-20">
      <path class="cls-17" d="M45.01,185.59c7.89,0,15.41-3.37,20.65-9.26l48.98-54.98c5.25-5.89,12.76-9.26,20.65-9.26h0c-7.89,0-15.41,3.37-20.65,9.26l-48.98,54.98c-5.25,5.89-12.76,9.26-20.65,9.26Z"/>
    </g>
    <g class="cls-20">
      <path class="cls-14" d="M45.01,185.59c7.89,0,15.41-3.37,20.65-9.26l48.98-54.98c5.25-5.89,12.76-9.26,20.65-9.26h0c-7.89,0-15.41,3.37-20.65,9.26l-48.98,54.98c-5.25,5.89-12.76,9.26-20.65,9.26Z"/>
    </g>
    <g class="cls-20">
      <path class="cls-5" d="M45.01,185.59c7.89,0,15.41-3.37,20.65-9.26l48.98-54.98c5.25-5.89,12.76-9.26,20.65-9.26h0c-7.89,0-15.41,3.37-20.65,9.26l-48.98,54.98c-5.25,5.89-12.76,9.26-20.65,9.26Z"/>
    </g>
    <g class="cls-20">
      <path class="cls-3" d="M45.01,185.59c7.89,0,15.41-3.37,20.65-9.26l48.98-54.98c5.25-5.89,12.76-9.26,20.65-9.26h0c-7.89,0-15.41,3.37-20.65,9.26l-48.98,54.98c-5.25,5.89-12.76,9.26-20.65,9.26Z"/>
    </g>
    <g class="cls-20">
      <path class="cls-15" d="M45.01,185.59c7.89,0,15.41-3.37,20.65-9.26l48.98-54.98c5.25-5.89,12.76-9.26,20.65-9.26h0c-7.89,0-15.41,3.37-20.65,9.26l-48.98,54.98c-5.25,5.89-12.76,9.26-20.65,9.26Z"/>
    </g>
    <g class="cls-20">
      <path class="cls-19" d="M45.01,185.59c7.89,0,15.41-3.37,20.65-9.26l48.98-54.98c5.25-5.89,12.76-9.26,20.65-9.26h0c-7.89,0-15.41,3.37-20.65,9.26l-48.98,54.98c-5.25,5.89-12.76,9.26-20.65,9.26Z"/>
    </g>
    <g class="cls-20">
      <path class="cls-13" d="M45.01,185.59c7.89,0,15.41-3.37,20.65-9.26l48.98-54.98c5.25-5.89,12.76-9.26,20.65-9.26h0c-7.89,0-15.41,3.37-20.65,9.26l-48.98,54.98c-5.25,5.89-12.76,9.26-20.65,9.26Z"/>
    </g>
    <g class="cls-20">
      <path class="cls-22" d="M45.01,185.59c7.89,0,15.41-3.37,20.65-9.26l48.98-54.98c5.25-5.89,12.76-9.26,20.65-9.26h0c-7.89,0-15.41,3.37-20.65,9.26l-48.98,54.98c-5.25,5.89-12.76,9.26-20.65,9.26Z"/>
    </g>
    <g class="cls-20">
      <path class="cls-12" d="M45.01,185.59c7.89,0,15.41-3.37,20.65-9.26l48.98-54.98c5.25-5.89,12.76-9.26,20.65-9.26h0c-7.89,0-15.41,3.37-20.65,9.26l-48.98,54.98c-5.25,5.89-12.76,9.26-20.65,9.26Z"/>
    </g>
    <g class="cls-20">
      <path class="cls-10" d="M45.01,185.59c7.89,0,15.41-3.37,20.65-9.26l48.98-54.98c5.25-5.89,12.76-9.26,20.65-9.26h0c-7.89,0-15.41,3.37-20.65,9.26l-48.98,54.98c-5.25,5.89-12.76,9.26-20.65,9.26Z"/>
    </g>
    <g class="cls-20">
      <path class="cls-8" d="M45.01,185.59c7.89,0,15.41-3.37,20.65-9.26l48.98-54.98c5.25-5.89,12.76-9.26,20.65-9.26h0c-7.89,0-15.41,3.37-20.65,9.26l-48.98,54.98c-5.25,5.89-12.76,9.26-20.65,9.26Z"/>
    </g>
    <g class="cls-20">
      <path class="cls-4" d="M45.01,185.59c7.89,0,15.41-3.37,20.65-9.26l48.98-54.98c5.25-5.89,12.76-9.26,20.65-9.26h0c-7.89,0-15.41,3.37-20.65,9.26l-48.98,54.98c-5.25,5.89-12.76,9.26-20.65,9.26Z"/>
    </g>
    <g class="cls-20">
      <path class="cls-9" d="M136.29,14.74c6.51,0,12.88,1.88,18.34,5.41l53.65,34.64c5.45,3.52,11.8,5.39,18.29,5.39h0c-6.49,0-12.84-1.87-18.29-5.39l-53.65-34.64c-5.47-3.53-11.84-5.41-18.34-5.41Z"/>
    </g>
    <g class="cls-20">
      <path class="cls-9" d="M136.29,14.93c8.59,0,16.68,4.07,21.8,10.97l46.7,62.95c5.12,6.9,13.2,10.97,21.8,10.97h0c-8.59,0-16.68-4.07-21.8-10.97l-46.7-62.95c-5.12-6.9-13.2-10.97-21.8-10.97Z"/>
    </g>
    <g class="cls-20">
      <path class="cls-5" d="M136.29,14.93c8.59,0,16.68,4.07,21.8,10.97l46.7,62.95c5.12,6.9,13.2,10.97,21.8,10.97h0c-8.59,0-16.68-4.07-21.8-10.97l-46.7-62.95c-5.12-6.9-13.2-10.97-21.8-10.97Z"/>
    </g>
    <g class="cls-20">
      <path class="cls-8" d="M136.29,95.27c6.69,0,13.29,1.48,19.34,4.34l53.19,25.14c5.55,2.62,11.62,3.99,17.76,3.99h0c-6.14,0-12.21-1.36-17.76-3.99l-53.19-25.14c-6.05-2.86-12.65-4.34-19.34-4.34Z"/>
    </g>
    <g class="cls-20">
      <path class="cls-11" d="M136.29,95.27c6.69,0,13.29,1.48,19.34,4.34l53.19,25.14c5.55,2.62,11.62,3.99,17.76,3.99h0c-6.14,0-12.21-1.36-17.76-3.99l-53.19-25.14c-6.05-2.86-12.65-4.34-19.34-4.34Z"/>
    </g>
    <g class="cls-20">
      <path class="cls-18" d="M136.29,95.27c6.69,0,13.29,1.48,19.34,4.34l53.19,25.14c5.55,2.62,11.62,3.99,17.76,3.99h0c-6.14,0-12.21-1.36-17.76-3.99l-53.19-25.14c-6.05-2.86-12.65-4.34-19.34-4.34Z"/>
    </g>
    <g class="cls-20">
      <path class="cls-9" d="M136.29,162.07c13.51,0,25.21,9.36,28.18,22.54l15.78,70.09c4.88,21.67,24.12,37.06,46.33,37.06h0c-22.21,0-41.45-15.39-46.33-37.06l-15.78-70.09c-2.97-13.18-14.67-22.54-28.18-22.54Z"/>
    </g>
    <g class="cls-20">
      <path class="cls-8" d="M136.29,162.07c13.51,0,25.21,9.36,28.18,22.54l15.78,70.09c4.88,21.67,24.12,37.06,46.33,37.06h0c-22.21,0-41.45-15.39-46.33-37.06l-15.78-70.09c-2.97-13.18-14.67-22.54-28.18-22.54Z"/>
    </g>
    <g class="cls-20">
      <path class="cls-8" d="M136.29,159.16c5.86,0,11.68,1.03,17.19,3.03l55.91,20.36c5.51,2.01,11.33,3.03,17.19,3.03h0c-5.86,0-11.68-1.03-17.19-3.03l-55.91-20.36c-5.51-2.01-11.33-3.03-17.19-3.03Z"/>
    </g>
    <g class="cls-20">
      <path class="cls-17" d="M136.29,185.59c7.89,0,15.4-3.37,20.65-9.26l48.98-54.97c5.25-5.89,12.76-9.26,20.65-9.26h0c-7.89,0-15.4,3.37-20.65,9.26l-48.98,54.97c-5.25,5.89-12.76,9.26-20.65,9.26Z"/>
    </g>
    <g class="cls-20">
      <path class="cls-14" d="M136.29,185.59c7.89,0,15.4-3.37,20.65-9.26l48.98-54.97c5.25-5.89,12.76-9.26,20.65-9.26h0c-7.89,0-15.4,3.37-20.65,9.26l-48.98,54.97c-5.25,5.89-12.76,9.26-20.65,9.26Z"/>
    </g>
    <g class="cls-20">
      <path class="cls-3" d="M136.29,185.59c7.89,0,15.4-3.37,20.65-9.26l48.98-54.97c5.25-5.89,12.76-9.26,20.65-9.26h0c-7.89,0-15.4,3.37-20.65,9.26l-48.98,54.97c-5.25,5.89-12.76,9.26-20.65,9.26Z"/>
    </g>
    <g class="cls-20">
      <path class="cls-15" d="M136.29,185.59c7.89,0,15.4-3.37,20.65-9.26l48.98-54.97c5.25-5.89,12.76-9.26,20.65-9.26h0c-7.89,0-15.4,3.37-20.65,9.26l-48.98,54.97c-5.25,5.89-12.76,9.26-20.65,9.26Z"/>
    </g>
    <g class="cls-20">
      <path class="cls-19" d="M136.29,185.59c7.89,0,15.4-3.37,20.65-9.26l48.98-54.97c5.25-5.89,12.76-9.26,20.65-9.26h0c-7.89,0-15.4,3.37-20.65,9.26l-48.98,54.97c-5.25,5.89-12.76,9.26-20.65,9.26Z"/>
    </g>
    <g class="cls-20">
      <path class="cls-13" d="M136.29,185.59c7.89,0,15.4-3.37,20.65-9.26l48.98-54.97c5.25-5.89,12.76-9.26,20.65-9.26h0c-7.89,0-15.4,3.37-20.65,9.26l-48.98,54.97c-5.25,5.89-12.76,9.26-20.65,9.26Z"/>
    </g>
    <g class="cls-20">
      <path class="cls-22" d="M136.29,185.59c7.89,0,15.4-3.37,20.65-9.26l48.98-54.97c5.25-5.89,12.76-9.26,20.65-9.26h0c-7.89,0-15.4,3.37-20.65,9.26l-48.98,54.97c-5.25,5.89-12.76,9.26-20.65,9.26Z"/>
    </g>
    <g class="cls-20">
      <path class="cls-12" d="M136.29,185.59c7.89,0,15.4-3.37,20.65-9.26l48.98-54.97c5.25-5.89,12.76-9.26,20.65-9.26h0c-7.89,0-15.4,3.37-20.65,9.26l-48.98,54.97c-5.25,5.89-12.76,9.26-20.65,9.26Z"/>
    </g>
    <g class="cls-20">
      <path class="cls-10" d="M136.29,185.59c7.89,0,15.4-3.37,20.65-9.26l48.98-54.97c5.25-5.89,12.76-9.26,20.65-9.26h0c-7.89,0-15.4,3.37-20.65,9.26l-48.98,54.97c-5.25,5.89-12.76,9.26-20.65,9.26Z"/>
    </g>
    <g class="cls-20">
      <path class="cls-8" d="M136.29,185.59c7.89,0,15.4-3.37,20.65-9.26l48.98-54.97c5.25-5.89,12.76-9.26,20.65-9.26h0c-7.89,0-15.4,3.37-20.65,9.26l-48.98,54.97c-5.25,5.89-12.76,9.26-20.65,9.26Z"/>
    </g>
    <g class="cls-20">
      <path class="cls-4" d="M136.29,185.59c7.89,0,15.4-3.37,20.65-9.26l48.98-54.97c5.25-5.89,12.76-9.26,20.65-9.26h0c-7.89,0-15.4,3.37-20.65,9.26l-48.98,54.97c-5.25,5.89-12.76,9.26-20.65,9.26Z"/>
    </g>
    <g class="cls-20">
      <path class="cls-17" d="M136.29,185.59c9.79,0,18.83-5.24,23.69-13.74l42.9-74.94c4.86-8.5,13.9-13.74,23.69-13.74h0c-9.79,0-18.83,5.24-23.69,13.74l-42.9,74.94c-4.86,8.5-13.9,13.74-23.69,13.74Z"/>
    </g>
    <g class="cls-20">
      <path class="cls-14" d="M136.29,185.59c9.79,0,18.83-5.24,23.69-13.74l42.9-74.94c4.86-8.5,13.9-13.74,23.69-13.74h0c-9.79,0-18.83,5.24-23.69,13.74l-42.9,74.94c-4.86,8.5-13.9,13.74-23.69,13.74Z"/>
    </g>
    <g class="cls-20">
      <path class="cls-5" d="M136.29,185.59c9.79,0,18.83-5.24,23.69-13.74l42.9-74.94c4.86-8.5,13.9-13.74,23.69-13.74h0c-9.79,0-18.83,5.24-23.69,13.74l-42.9,74.94c-4.86,8.5-13.9,13.74-23.69,13.74Z"/>
    </g>
    <g class="cls-20">
      <path class="cls-3" d="M136.29,185.59c9.79,0,18.83-5.24,23.69-13.74l42.9-74.94c4.86-8.5,13.9-13.74,23.69-13.74h0c-9.79,0-18.83,5.24-23.69,13.74l-42.9,74.94c-4.86,8.5-13.9,13.74-23.69,13.74Z"/>
    </g>
    <g class="cls-20">
      <path class="cls-15" d="M136.29,185.59c9.79,0,18.83-5.24,23.69-13.74l42.9-74.94c4.86-8.5,13.9-13.74,23.69-13.74h0c-9.79,0-18.83,5.24-23.69,13.74l-42.9,74.94c-4.86,8.5-13.9,13.74-23.69,13.74Z"/>
    </g>
    <g class="cls-20">
      <path class="cls-19" d="M136.29,185.59c9.79,0,18.83-5.24,23.69-13.74l42.9-74.94c4.86-8.5,13.9-13.74,23.69-13.74h0c-9.79,0-18.83,5.24-23.69,13.74l-42.9,74.94c-4.86,8.5-13.9,13.74-23.69,13.74Z"/>
    </g>
    <g class="cls-20">
      <path class="cls-13" d="M136.29,185.59c9.79,0,18.83-5.24,23.69-13.74l42.9-74.94c4.86-8.5,13.9-13.74,23.69-13.74h0c-9.79,0-18.83,5.24-23.69,13.74l-42.9,74.94c-4.86,8.5-13.9,13.74-23.69,13.74Z"/>
    </g>
    <g class="cls-20">
      <path class="cls-22" d="M136.29,185.59c9.79,0,18.83-5.24,23.69-13.74l42.9-74.94c4.86-8.5,13.9-13.74,23.69-13.74h0c-9.79,0-18.83,5.24-23.69,13.74l-42.9,74.94c-4.86,8.5-13.9,13.74-23.69,13.74Z"/>
    </g>
    <g class="cls-20">
      <path class="cls-12" d="M136.29,185.59c9.79,0,18.83-5.24,23.69-13.74l42.9-74.94c4.86-8.5,13.9-13.74,23.69-13.74h0c-9.79,0-18.83,5.24-23.69,13.74l-42.9,74.94c-4.86,8.5-13.9,13.74-23.69,13.74Z"/>
    </g>
    <g class="cls-20">
      <path class="cls-8" d="M136.29,185.59c9.79,0,18.83-5.24,23.69-13.74l42.9-74.94c4.86-8.5,13.9-13.74,23.69-13.74h0c-9.79,0-18.83,5.24-23.69,13.74l-42.9,74.94c-4.86,8.5-13.9,13.74-23.69,13.74Z"/>
    </g>
    <g class="cls-20">
      <path class="cls-4" d="M136.29,185.59c9.79,0,18.83-5.24,23.69-13.74l42.9-74.94c4.86-8.5,13.9-13.74,23.69-13.74h0c-9.79,0-18.83,5.24-23.69,13.74l-42.9,74.94c-4.86,8.5-13.9,13.74-23.69,13.74Z"/>
    </g>
    <g class="cls-20">
      <path class="cls-14" d="M136.29,226.82c-10.07,0-18.24-8.17-18.24-18.24,0-.05,0-.1,0-.14l-1-54.46c-.08-10.07,8.02-18.3,18.1-18.38.05,0,.1,0,.14,0h0c-10.07,0-18.24,8.17-18.24,18.24,0,.05,0,.1,0,.14l1,54.46c-.08,10.07,8.02,18.3,18.1,18.38.05,0,.1,0,.14,0Z"/>
    </g>
    <g class="cls-20">
      <path class="cls-15" d="M136.29,226.82c-10.07,0-18.24-8.17-18.24-18.24,0-.05,0-.1,0-.14l-1-54.46c-.08-10.07,8.02-18.3,18.1-18.38.05,0,.1,0,.14,0h0c-10.07,0-18.24,8.17-18.24,18.24,0,.05,0,.1,0,.14l1,54.46c-.08,10.07,8.02,18.3,18.1,18.38.05,0,.1,0,.14,0Z"/>
    </g>
    <g class="cls-20">
      <path class="cls-13" d="M136.29,253.29c-10.07,0-18.24-8.17-18.24-18.24,0-.05,0-.1,0-.14l-1-54.46c-.08-10.07,8.02-18.3,18.1-18.38.05,0,.1,0,.14,0h0c-10.07,0-18.24,8.17-18.24,18.24,0,.05,0,.1,0,.14l1,54.46c-.08,10.07,8.02,18.3,18.1,18.38.05,0,.1,0,.14,0Z"/>
    </g>
    <g class="cls-20">
      <path class="cls-22" d="M136.29,253.29c-10.07,0-18.24-8.17-18.24-18.24,0-.05,0-.1,0-.14l-1-54.46c-.08-10.07,8.02-18.3,18.1-18.38.05,0,.1,0,.14,0h0c-10.07,0-18.24,8.17-18.24,18.24,0,.05,0,.1,0,.14l1,54.46c-.08,10.07,8.02,18.3,18.1,18.38.05,0,.1,0,.14,0Z"/>
    </g>
    <g class="cls-20">
      <path class="cls-12" d="M136.29,253.29c-10.07,0-18.24-8.17-18.24-18.24,0-.05,0-.1,0-.14l-1-54.46c-.08-10.07,8.02-18.3,18.1-18.38.05,0,.1,0,.14,0h0c-10.07,0-18.24,8.17-18.24,18.24,0,.05,0,.1,0,.14l1,54.46c-.08,10.07,8.02,18.3,18.1,18.38.05,0,.1,0,.14,0Z"/>
    </g>
    <g class="cls-20">
      <path class="cls-4" d="M136.29,253.29c-10.07,0-18.24-8.17-18.24-18.24,0-.05,0-.1,0-.14l-1-54.46c-.08-10.07,8.02-18.3,18.1-18.38.05,0,.1,0,.14,0h0c-10.07,0-18.24,8.17-18.24,18.24,0,.05,0,.1,0,.14l1,54.46c-.08,10.07,8.02,18.3,18.1,18.38.05,0,.1,0,.14,0Z"/>
    </g>
    <g class="cls-20">
      <path class="cls-9" d="M227.58,83.17c18.08,0,33.38,13.36,35.81,31.28l18.67,137.62c2.43,17.91,17.73,31.28,35.81,31.28h0c-18.08,0-33.38-13.36-35.81-31.28l-18.67-137.62c-2.43-17.91-17.73-31.28-35.81-31.28Z"/>
    </g>
    <g class="cls-20">
      <path class="cls-10" d="M227.58,83.17c18.08,0,33.38,13.36,35.81,31.28l18.67,137.62c2.43,17.91,17.73,31.28,35.81,31.28h0c-18.08,0-33.38-13.36-35.81-31.28l-18.67-137.62c-2.43-17.91-17.73-31.28-35.81-31.28Z"/>
    </g>
    <g class="cls-20">
      <path class="cls-8" d="M227.58,83.04c6.19,0,12.29,1.5,17.77,4.38l54.74,28.76c5.48,2.88,11.58,4.38,17.77,4.38h0c-6.19,0-12.29-1.5-17.77-4.38l-54.74-28.76c-5.48-2.88-11.58-4.38-17.77-4.38Z"/>
    </g>
    <g class="cls-20">
      <path class="cls-10" d="M227.58,83.04c6.19,0,12.29,1.5,17.77,4.38l54.74,28.76c5.48,2.88,11.58,4.38,17.77,4.38h0c-6.19,0-12.29-1.5-17.77-4.38l-54.74-28.76c-5.48-2.88-11.58-4.38-17.77-4.38Z"/>
    </g>
    <g class="cls-20">
      <path class="cls-9" d="M227.58,112.09c15.7,0,29.2,11.12,32.22,26.52l22.61,115.54c3.32,16.96,18.18,29.2,35.46,29.2h0c-17.28,0-32.14-12.24-35.46-29.2l-22.61-115.54c-3.01-15.41-16.52-26.52-32.22-26.52Z"/>
    </g>
    <g class="cls-20">
      <path class="cls-5" d="M227.58,112.09c15.7,0,29.2,11.12,32.22,26.52l22.61,115.54c3.32,16.96,18.18,29.2,35.46,29.2h0c-17.28,0-32.14-12.24-35.46-29.2l-22.61-115.54c-3.01-15.41-16.52-26.52-32.22-26.52Z"/>
    </g>
    <g class="cls-20">
      <path class="cls-5" d="M227.58,112.02c9.68,0,18.88,4.27,25.13,11.66l44.04,52.1c5.25,6.22,12.98,9.8,21.12,9.8h0c-8.14,0-15.87-3.59-21.12-9.8l-44.04-52.1c-6.25-7.4-15.44-11.66-25.13-11.66Z"/>
    </g>
    <g class="cls-20">
      <path class="cls-8" d="M227.58,112.02c9.68,0,18.88,4.27,25.13,11.66l44.04,52.1c5.25,6.22,12.98,9.8,21.12,9.8h0c-8.14,0-15.87-3.59-21.12-9.8l-44.04-52.1c-6.25-7.4-15.44-11.66-25.13-11.66Z"/>
    </g>
    <g class="cls-20">
      <path class="cls-17" d="M227.58,153.48c7.48,0,14.66-2.95,19.98-8.22l50.33-49.86c5.32-5.27,12.5-8.22,19.98-8.22h0c-7.48,0-14.66,2.95-19.98,8.22l-50.33,49.86c-5.32,5.27-12.5,8.22-19.98,8.22Z"/>
    </g>
    <g class="cls-20">
      <path class="cls-9" d="M227.58,153.48c7.48,0,14.66-2.95,19.98-8.22l50.33-49.86c5.32-5.27,12.5-8.22,19.98-8.22h0c-7.48,0-14.66,2.95-19.98,8.22l-50.33,49.86c-5.32,5.27-12.5,8.22-19.98,8.22Z"/>
    </g>
    <g class="cls-20">
      <path class="cls-14" d="M227.58,153.48c7.48,0,14.66-2.95,19.98-8.22l50.33-49.86c5.32-5.27,12.5-8.22,19.98-8.22h0c-7.48,0-14.66,2.95-19.98,8.22l-50.33,49.86c-5.32,5.27-12.5,8.22-19.98,8.22Z"/>
    </g>
    <g class="cls-20">
      <path class="cls-5" d="M227.58,153.48c7.48,0,14.66-2.95,19.98-8.22l50.33-49.86c5.32-5.27,12.5-8.22,19.98-8.22h0c-7.48,0-14.66,2.95-19.98,8.22l-50.33,49.86c-5.32,5.27-12.5,8.22-19.98,8.22Z"/>
    </g>
    <g class="cls-20">
      <path class="cls-3" d="M227.58,153.48c7.48,0,14.66-2.95,19.98-8.22l50.33-49.86c5.32-5.27,12.5-8.22,19.98-8.22h0c-7.48,0-14.66,2.95-19.98,8.22l-50.33,49.86c-5.32,5.27-12.5,8.22-19.98,8.22Z"/>
    </g>
    <g class="cls-20">
      <path class="cls-15" d="M227.58,153.48c7.48,0,14.66-2.95,19.98-8.22l50.33-49.86c5.32-5.27,12.5-8.22,19.98-8.22h0c-7.48,0-14.66,2.95-19.98,8.22l-50.33,49.86c-5.32,5.27-12.5,8.22-19.98,8.22Z"/>
    </g>
    <g class="cls-20">
      <path class="cls-19" d="M227.58,153.48c7.48,0,14.66-2.95,19.98-8.22l50.33-49.86c5.32-5.27,12.5-8.22,19.98-8.22h0c-7.48,0-14.66,2.95-19.98,8.22l-50.33,49.86c-5.32,5.27-12.5,8.22-19.98,8.22Z"/>
    </g>
    <g class="cls-20">
      <path class="cls-11" d="M227.58,153.48c7.48,0,14.66-2.95,19.98-8.22l50.33-49.86c5.32-5.27,12.5-8.22,19.98-8.22h0c-7.48,0-14.66,2.95-19.98,8.22l-50.33,49.86c-5.32,5.27-12.5,8.22-19.98,8.22Z"/>
    </g>
    <g class="cls-20">
      <path class="cls-13" d="M227.58,153.48c7.48,0,14.66-2.95,19.98-8.22l50.33-49.86c5.32-5.27,12.5-8.22,19.98-8.22h0c-7.48,0-14.66,2.95-19.98,8.22l-50.33,49.86c-5.32,5.27-12.5,8.22-19.98,8.22Z"/>
    </g>
    <g class="cls-20">
      <path class="cls-22" d="M227.58,153.48c7.48,0,14.66-2.95,19.98-8.22l50.33-49.86c5.32-5.27,12.5-8.22,19.98-8.22h0c-7.48,0-14.66,2.95-19.98,8.22l-50.33,49.86c-5.32,5.27-12.5,8.22-19.98,8.22Z"/>
    </g>
    <g class="cls-20">
      <path class="cls-12" d="M227.58,153.48c7.48,0,14.66-2.95,19.98-8.22l50.33-49.86c5.32-5.27,12.5-8.22,19.98-8.22h0c-7.48,0-14.66,2.95-19.98,8.22l-50.33,49.86c-5.32,5.27-12.5,8.22-19.98,8.22Z"/>
    </g>
    <g class="cls-20">
      <path class="cls-4" d="M227.58,153.48c7.48,0,14.66-2.95,19.98-8.22l50.33-49.86c5.32-5.27,12.5-8.22,19.98-8.22h0c-7.48,0-14.66,2.95-19.98,8.22l-50.33,49.86c-5.32,5.27-12.5,8.22-19.98,8.22Z"/>
    </g>
    <g class="cls-20">
      <path class="cls-17" d="M227.58,185.59c6.06,0,12.04-1.32,17.53-3.87l55.22-25.64c5.49-2.55,11.48-3.87,17.53-3.87h0c-6.06,0-12.04,1.32-17.53,3.87l-55.22,25.64c-5.49,2.55-11.48,3.87-17.53,3.87Z"/>
    </g>
    <g class="cls-20">
      <path class="cls-9" d="M227.58,185.59c6.06,0,12.04-1.32,17.53-3.87l55.22-25.64c5.49-2.55,11.48-3.87,17.53-3.87h0c-6.06,0-12.04,1.32-17.53,3.87l-55.22,25.64c-5.49,2.55-11.48,3.87-17.53,3.87Z"/>
    </g>
    <g class="cls-20">
      <path class="cls-14" d="M227.58,185.59c6.06,0,12.04-1.32,17.53-3.87l55.22-25.64c5.49-2.55,11.48-3.87,17.53-3.87h0c-6.06,0-12.04,1.32-17.53,3.87l-55.22,25.64c-5.49,2.55-11.48,3.87-17.53,3.87Z"/>
    </g>
    <g class="cls-20">
      <path class="cls-3" d="M227.58,185.59c6.06,0,12.04-1.32,17.53-3.87l55.22-25.64c5.49-2.55,11.48-3.87,17.53-3.87h0c-6.06,0-12.04,1.32-17.53,3.87l-55.22,25.64c-5.49,2.55-11.48,3.87-17.53,3.87Z"/>
    </g>
    <g class="cls-20">
      <path class="cls-15" d="M227.58,185.59c6.06,0,12.04-1.32,17.53-3.87l55.22-25.64c5.49-2.55,11.48-3.87,17.53-3.87h0c-6.06,0-12.04,1.32-17.53,3.87l-55.22,25.64c-5.49,2.55-11.48,3.87-17.53,3.87Z"/>
    </g>
    <g class="cls-20">
      <path class="cls-19" d="M227.58,185.59c6.06,0,12.04-1.32,17.53-3.87l55.22-25.64c5.49-2.55,11.48-3.87,17.53-3.87h0c-6.06,0-12.04,1.32-17.53,3.87l-55.22,25.64c-5.49,2.55-11.48,3.87-17.53,3.87Z"/>
    </g>
    <g class="cls-20">
      <path class="cls-11" d="M227.58,185.59c6.06,0,12.04-1.32,17.53-3.87l55.22-25.64c5.49-2.55,11.48-3.87,17.53-3.87h0c-6.06,0-12.04,1.32-17.53,3.87l-55.22,25.64c-5.49,2.55-11.48,3.87-17.53,3.87Z"/>
    </g>
    <g class="cls-20">
      <path class="cls-13" d="M227.58,185.59c6.06,0,12.04-1.32,17.53-3.87l55.22-25.64c5.49-2.55,11.48-3.87,17.53-3.87h0c-6.06,0-12.04,1.32-17.53,3.87l-55.22,25.64c-5.49,2.55-11.48,3.87-17.53,3.87Z"/>
    </g>
    <g class="cls-20">
      <path class="cls-22" d="M227.58,185.59c6.06,0,12.04-1.32,17.53-3.87l55.22-25.64c5.49-2.55,11.48-3.87,17.53-3.87h0c-6.06,0-12.04,1.32-17.53,3.87l-55.22,25.64c-5.49,2.55-11.48,3.87-17.53,3.87Z"/>
    </g>
    <g class="cls-20">
      <path class="cls-12" d="M227.58,185.59c6.06,0,12.04-1.32,17.53-3.87l55.22-25.64c5.49-2.55,11.48-3.87,17.53-3.87h0c-6.06,0-12.04,1.32-17.53,3.87l-55.22,25.64c-5.49,2.55-11.48,3.87-17.53,3.87Z"/>
    </g>
    <g class="cls-20">
      <path class="cls-4" d="M227.58,185.59c6.06,0,12.04-1.32,17.53-3.87l55.22-25.64c5.49-2.55,11.48-3.87,17.53-3.87h0c-6.06,0-12.04,1.32-17.53,3.87l-55.22,25.64c-5.49,2.55-11.48,3.87-17.53,3.87Z"/>
    </g>
    <g class="cls-20">
      <path class="cls-9" d="M318.86,14.76c6.5,0,12.87,1.88,18.33,5.4l53.66,34.63c5.45,3.52,11.8,5.39,18.29,5.39h0c-6.49,0-12.84-1.87-18.29-5.39l-53.66-34.63c-5.46-3.53-11.83-5.4-18.33-5.4Z"/>
    </g>
    <g class="cls-20">
      <path class="cls-14" d="M318.86,60.18c.59,0,1.17,0,1.76,0l86.77.15c.59,0,1.17,0,1.76,0h0c-.59,0-1.17,0-1.76,0l-86.77-.15c-.59,0-1.17,0-1.76,0Z"/>
    </g>
    <g class="cls-20">
      <path class="cls-5" d="M318.86,60.18c.59,0,1.17,0,1.76,0l86.77.15c.59,0,1.17,0,1.76,0h0c-.59,0-1.17,0-1.76,0l-86.77-.15c-.59,0-1.17,0-1.76,0Z"/>
    </g>
    <g class="cls-20">
      <path class="cls-15" d="M318.86,60.18c.59,0,1.17,0,1.76,0l86.77.15c.59,0,1.17,0,1.76,0h0c-.59,0-1.17,0-1.76,0l-86.77-.15c-.59,0-1.17,0-1.76,0Z"/>
    </g>
    <g class="cls-20">
      <path class="cls-11" d="M318.86,60.18c.59,0,1.17,0,1.76,0l86.77.15c.59,0,1.17,0,1.76,0h0c-.59,0-1.17,0-1.76,0l-86.77-.15c-.59,0-1.17,0-1.76,0Z"/>
    </g>
    <g class="cls-20">
      <path class="cls-13" d="M318.86,60.18c.59,0,1.17,0,1.76,0l86.77.15c.59,0,1.17,0,1.76,0h0c-.59,0-1.17,0-1.76,0l-86.77-.15c-.59,0-1.17,0-1.76,0Z"/>
    </g>
    <g class="cls-20">
      <path class="cls-22" d="M318.86,60.18c.59,0,1.17,0,1.76,0l86.77.15c.59,0,1.17,0,1.76,0h0c-.59,0-1.17,0-1.76,0l-86.77-.15c-.59,0-1.17,0-1.76,0Z"/>
    </g>
    <g class="cls-20">
      <path class="cls-12" d="M318.86,60.18c.59,0,1.17,0,1.76,0l86.77.15c.59,0,1.17,0,1.76,0h0c-.59,0-1.17,0-1.76,0l-86.77-.15c-.59,0-1.17,0-1.76,0Z"/>
    </g>
    <g class="cls-20">
      <path class="cls-10" d="M318.86,60.18c.59,0,1.17,0,1.76,0l86.77.15c.59,0,1.17,0,1.76,0h0c-.59,0-1.17,0-1.76,0l-86.77-.15c-.59,0-1.17,0-1.76,0Z"/>
    </g>
    <g class="cls-20">
      <path class="cls-8" d="M318.86,60.18c.59,0,1.17,0,1.76,0l86.77.15c.59,0,1.17,0,1.76,0h0c-.59,0-1.17,0-1.76,0l-86.77-.15c-.59,0-1.17,0-1.76,0Z"/>
    </g>
    <g class="cls-20">
      <path class="cls-4" d="M318.86,60.18c.59,0,1.17,0,1.76,0l86.77.15c.59,0,1.17,0,1.76,0h0c-.59,0-1.17,0-1.76,0l-86.77-.15c-.59,0-1.17,0-1.76,0Z"/>
    </g>
    <g class="cls-20">
      <path class="cls-17" d="M318.86,85.5c10.34,0,19.89,5.51,25.06,14.46l41.65,72.03c4.87,8.42,13.85,13.6,23.57,13.6h0c-9.72,0-18.71-5.18-23.57-13.6l-41.65-72.03c-5.17-8.95-14.73-14.46-25.06-14.46Z"/>
    </g>
    <g class="cls-20">
      <path class="cls-9" d="M318.86,85.5c10.34,0,19.89,5.51,25.06,14.46l41.65,72.03c4.87,8.42,13.85,13.6,23.57,13.6h0c-9.72,0-18.71-5.18-23.57-13.6l-41.65-72.03c-5.17-8.95-14.73-14.46-25.06-14.46Z"/>
    </g>
    <g class="cls-20">
      <path class="cls-8" d="M318.86,85.5c10.34,0,19.89,5.51,25.06,14.46l41.65,72.03c4.87,8.42,13.85,13.6,23.57,13.6h0c-9.72,0-18.71-5.18-23.57-13.6l-41.65-72.03c-5.17-8.95-14.73-14.46-25.06-14.46Z"/>
    </g>
    <g class="cls-20">
      <path class="cls-9" d="M318.86,150.84c6.1,0,12.12,1.38,17.61,4.04l55.07,26.67c5.49,2.66,11.51,4.04,17.61,4.04h0c-6.1,0-12.12-1.38-17.61-4.04l-55.07-26.67c-5.49-2.66-11.51-4.04-17.61-4.04Z"/>
    </g>
    <g class="cls-20">
      <path class="cls-3" d="M318.86,150.84c6.1,0,12.12,1.38,17.61,4.04l55.07,26.67c5.49,2.66,11.51,4.04,17.61,4.04h0c-6.1,0-12.12-1.38-17.61-4.04l-55.07-26.67c-5.49-2.66-11.51-4.04-17.61-4.04Z"/>
    </g>
    <g class="cls-20">
      <path class="cls-8" d="M318.86,150.84c6.1,0,12.12,1.38,17.61,4.04l55.07,26.67c5.49,2.66,11.51,4.04,17.61,4.04h0c-6.1,0-12.12-1.38-17.61-4.04l-55.07-26.67c-5.49-2.66-11.51-4.04-17.61-4.04Z"/>
    </g>
    <g class="cls-20">
      <path class="cls-9" d="M318.86,212.35c5.53,0,11.06-.07,16.6-.21l57.1-1.43c5.53-.14,11.06-.21,16.6-.21h0c-5.53,0-11.06.07-16.6.21l-57.1,1.43c-5.53.14-11.06.21-16.6.21Z"/>
    </g>
    <g class="cls-20">
      <path class="cls-18" d="M318.86,212.35c5.53,0,11.06-.07,16.6-.21l57.1-1.43c5.53-.14,11.06-.21,16.6-.21h0c-5.53,0-11.06.07-16.6.21l-57.1,1.43c-5.53.14-11.06.21-16.6.21Z"/>
    </g>
    <g class="cls-20">
      <path class="cls-9" d="M410.15,11.55c6.98,0,13.79,2.15,19.5,6.16l52.15,36.59c5.46,3.83,11.96,5.88,18.63,5.88h0c-6.67,0-13.17-2.05-18.63-5.88l-52.15-36.59c-5.71-4.01-12.52-6.16-19.5-6.16Z"/>
    </g>
    <g class="cls-20">
      <path class="cls-9" d="M410.15,14.59c11.07,0,21.2,6.23,26.19,16.11l39.47,78.1c4.69,9.29,14.21,15.14,24.62,15.14h0c-10.41,0-19.92-5.86-24.62-15.14l-39.47-78.1c-4.99-9.88-15.12-16.11-26.19-16.11Z"/>
    </g>
    <g class="cls-20">
      <path class="cls-9" d="M410.15,115.93c15.09,0,28.18,10.41,31.58,25.11l27.12,117.2c3.4,14.7,16.49,25.11,31.58,25.11h0c-15.09,0-28.18-10.41-31.58-25.11l-27.12-117.2c-3.4-14.7-16.49-25.11-31.58-25.11Z"/>
    </g>
    <g class="cls-20">
      <path class="cls-19" d="M410.15,115.93c15.09,0,28.18,10.41,31.58,25.11l27.12,117.2c3.4,14.7,16.49,25.11,31.58,25.11h0c-15.09,0-28.18-10.41-31.58-25.11l-27.12-117.2c-3.4-14.7-16.49-25.11-31.58-25.11Z"/>
    </g>
    <g class="cls-20">
      <path class="cls-8" d="M410.15,115.93c1.65,0,3.3.08,4.95.25l70.04,7c5.08.51,10.19.76,15.3.76h0c-5.11,0-10.22-.25-15.3-.76l-70.04-7c-1.64-.16-3.29-.25-4.95-.25Z"/>
    </g>
    <g class="cls-20">
      <path class="cls-19" d="M410.15,115.93c1.65,0,3.3.08,4.95.25l70.04,7c5.08.51,10.19.76,15.3.76h0c-5.11,0-10.22-.25-15.3-.76l-70.04-7c-1.64-.16-3.29-.25-4.95-.25Z"/>
    </g>
    <g class="cls-20">
      <path class="cls-18" d="M410.15,115.93c1.65,0,3.3.08,4.95.25l70.04,7c5.08.51,10.19.76,15.3.76h0c-5.11,0-10.22-.25-15.3-.76l-70.04-7c-1.64-.16-3.29-.25-4.95-.25Z"/>
    </g>
    <g class="cls-20">
      <path class="cls-17" d="M410.15,185.59c9.14,0,17.67-4.61,22.68-12.26l44.93-68.67c5.01-7.65,13.53-12.26,22.68-12.26h0c-9.14,0-17.67,4.61-22.68,12.26l-44.93,68.67c-5.01,7.65-13.53,12.26-22.68,12.26Z"/>
    </g>
    <g class="cls-20">
      <path class="cls-14" d="M410.15,185.59c9.14,0,17.67-4.61,22.68-12.26l44.93-68.67c5.01-7.65,13.53-12.26,22.68-12.26h0c-9.14,0-17.67,4.61-22.68,12.26l-44.93,68.67c-5.01,7.65-13.53,12.26-22.68,12.26Z"/>
    </g>
    <g class="cls-20">
      <path class="cls-5" d="M410.15,185.59c9.14,0,17.67-4.61,22.68-12.26l44.93-68.67c5.01-7.65,13.53-12.26,22.68-12.26h0c-9.14,0-17.67,4.61-22.68,12.26l-44.93,68.67c-5.01,7.65-13.53,12.26-22.68,12.26Z"/>
    </g>
    <g class="cls-20">
      <path class="cls-3" d="M410.15,185.59c9.14,0,17.67-4.61,22.68-12.26l44.93-68.67c5.01-7.65,13.53-12.26,22.68-12.26h0c-9.14,0-17.67,4.61-22.68,12.26l-44.93,68.67c-5.01,7.65-13.53,12.26-22.68,12.26Z"/>
    </g>
    <g class="cls-20">
      <path class="cls-15" d="M410.15,185.59c9.14,0,17.67-4.61,22.68-12.26l44.93-68.67c5.01-7.65,13.53-12.26,22.68-12.26h0c-9.14,0-17.67,4.61-22.68,12.26l-44.93,68.67c-5.01,7.65-13.53,12.26-22.68,12.26Z"/>
    </g>
    <g class="cls-20">
      <path class="cls-11" d="M410.15,185.59c9.14,0,17.67-4.61,22.68-12.26l44.93-68.67c5.01-7.65,13.53-12.26,22.68-12.26h0c-9.14,0-17.67,4.61-22.68,12.26l-44.93,68.67c-5.01,7.65-13.53,12.26-22.68,12.26Z"/>
    </g>
    <g class="cls-20">
      <path class="cls-22" d="M410.15,185.59c9.14,0,17.67-4.61,22.68-12.26l44.93-68.67c5.01-7.65,13.53-12.26,22.68-12.26h0c-9.14,0-17.67,4.61-22.68,12.26l-44.93,68.67c-5.01,7.65-13.53,12.26-22.68,12.26Z"/>
    </g>
    <g class="cls-20">
      <path class="cls-12" d="M410.15,185.59c9.14,0,17.67-4.61,22.68-12.26l44.93-68.67c5.01-7.65,13.53-12.26,22.68-12.26h0c-9.14,0-17.67,4.61-22.68,12.26l-44.93,68.67c-5.01,7.65-13.53,12.26-22.68,12.26Z"/>
    </g>
    <g class="cls-20">
      <path class="cls-10" d="M410.15,185.59c9.14,0,17.67-4.61,22.68-12.26l44.93-68.67c5.01-7.65,13.53-12.26,22.68-12.26h0c-9.14,0-17.67,4.61-22.68,12.26l-44.93,68.67c-5.01,7.65-13.53,12.26-22.68,12.26Z"/>
    </g>
    <g class="cls-20">
      <path class="cls-8" d="M410.15,185.59c9.14,0,17.67-4.61,22.68-12.26l44.93-68.67c5.01-7.65,13.53-12.26,22.68-12.26h0c-9.14,0-17.67,4.61-22.68,12.26l-44.93,68.67c-5.01,7.65-13.53,12.26-22.68,12.26Z"/>
    </g>
    <g class="cls-20">
      <path class="cls-4" d="M410.15,185.59c9.14,0,17.67-4.61,22.68-12.26l44.93-68.67c5.01-7.65,13.53-12.26,22.68-12.26h0c-9.14,0-17.67,4.61-22.68,12.26l-44.93,68.67c-5.01,7.65-13.53,12.26-22.68,12.26Z"/>
    </g>
    <g class="cls-20">
      <path class="cls-17" d="M410.15,185.59c6,0,11.94-1.24,17.44-3.65l55.41-24.25c5.5-2.41,11.43-3.65,17.44-3.65h0c-6,0-11.94,1.24-17.44,3.65l-55.41,24.25c-5.5,2.41-11.43,3.65-17.44,3.65Z"/>
    </g>
    <g class="cls-20">
      <path class="cls-14" d="M410.15,185.59c6,0,11.94-1.24,17.44-3.65l55.41-24.25c5.5-2.41,11.43-3.65,17.44-3.65h0c-6,0-11.94,1.24-17.44,3.65l-55.41,24.25c-5.5,2.41-11.43,3.65-17.44,3.65Z"/>
    </g>
    <g class="cls-20">
      <path class="cls-5" d="M410.15,185.59c6,0,11.94-1.24,17.44-3.65l55.41-24.25c5.5-2.41,11.43-3.65,17.44-3.65h0c-6,0-11.94,1.24-17.44,3.65l-55.41,24.25c-5.5,2.41-11.43,3.65-17.44,3.65Z"/>
    </g>
    <g class="cls-20">
      <path class="cls-3" d="M410.15,185.59c6,0,11.94-1.24,17.44-3.65l55.41-24.25c5.5-2.41,11.43-3.65,17.44-3.65h0c-6,0-11.94,1.24-17.44,3.65l-55.41,24.25c-5.5,2.41-11.43,3.65-17.44,3.65Z"/>
    </g>
    <g class="cls-20">
      <path class="cls-11" d="M410.15,185.59c6,0,11.94-1.24,17.44-3.65l55.41-24.25c5.5-2.41,11.43-3.65,17.44-3.65h0c-6,0-11.94,1.24-17.44,3.65l-55.41,24.25c-5.5,2.41-11.43,3.65-17.44,3.65Z"/>
    </g>
    <g class="cls-20">
      <path class="cls-13" d="M410.15,185.59c6,0,11.94-1.24,17.44-3.65l55.41-24.25c5.5-2.41,11.43-3.65,17.44-3.65h0c-6,0-11.94,1.24-17.44,3.65l-55.41,24.25c-5.5,2.41-11.43,3.65-17.44,3.65Z"/>
    </g>
    <g class="cls-20">
      <path class="cls-22" d="M410.15,185.59c6,0,11.94-1.24,17.44-3.65l55.41-24.25c5.5-2.41,11.43-3.65,17.44-3.65h0c-6,0-11.94,1.24-17.44,3.65l-55.41,24.25c-5.5,2.41-11.43,3.65-17.44,3.65Z"/>
    </g>
    <g class="cls-20">
      <path class="cls-12" d="M410.15,185.59c6,0,11.94-1.24,17.44-3.65l55.41-24.25c5.5-2.41,11.43-3.65,17.44-3.65h0c-6,0-11.94,1.24-17.44,3.65l-55.41,24.25c-5.5,2.41-11.43,3.65-17.44,3.65Z"/>
    </g>
    <g class="cls-20">
      <path class="cls-10" d="M410.15,185.59c6,0,11.94-1.24,17.44-3.65l55.41-24.25c5.5-2.41,11.43-3.65,17.44-3.65h0c-6,0-11.94,1.24-17.44,3.65l-55.41,24.25c-5.5,2.41-11.43,3.65-17.44,3.65Z"/>
    </g>
    <g class="cls-20">
      <path class="cls-8" d="M410.15,185.59c6,0,11.94-1.24,17.44-3.65l55.41-24.25c5.5-2.41,11.43-3.65,17.44-3.65h0c-6,0-11.94,1.24-17.44,3.65l-55.41,24.25c-5.5,2.41-11.43,3.65-17.44,3.65Z"/>
    </g>
    <g class="cls-20">
      <path class="cls-4" d="M410.15,185.59c6,0,11.94-1.24,17.44-3.65l55.41-24.25c5.5-2.41,11.43-3.65,17.44-3.65h0c-6,0-11.94,1.24-17.44,3.65l-55.41,24.25c-5.5,2.41-11.43,3.65-17.44,3.65Z"/>
    </g>
    <g class="cls-20">
      <path class="cls-9" d="M501.44,7.98c15.61,0,29.89,8.77,36.95,22.69l29.14,57.47c4.62,9.11,13.97,14.85,24.19,14.85h0c-10.22,0-19.57-5.74-24.19-14.85l-29.14-57.47c-7.06-13.92-21.34-22.69-36.95-22.69Z"/>
    </g>
    <g class="cls-20">
      <path class="cls-9" d="M501.44,14.31c14.25,0,27.08,8.61,32.48,21.79l31.9,77.79c4.31,10.51,14.54,17.38,25.9,17.38h0c-11.36,0-21.59-6.86-25.9-17.38l-31.9-77.79c-5.4-13.18-18.24-21.79-32.48-21.79Z"/>
    </g>
    <g class="cls-20">
      <path class="cls-9" d="M501.44,17.68c13.73,0,25.91,8.83,30.17,21.88l31.86,97.56c3.99,12.23,15.4,20.5,28.26,20.5h0c-12.86,0-24.27-8.27-28.26-20.5l-31.86-97.56c-4.26-13.05-16.44-21.88-30.17-21.88Z"/>
    </g>
    <g class="cls-20">
      <path class="cls-9" d="M501.44,89.69c17.53,0,32.44,12.81,35.07,30.14l20.27,133.35c2.63,17.27,17.48,30.04,34.95,30.04h0c-17.47,0-32.32-12.76-34.95-30.04l-20.27-133.35c-2.63-17.33-17.54-30.14-35.07-30.14Z"/>
    </g>
    <g class="cls-20">
      <path class="cls-13" d="M501.44,92.4c4.06,0,7.35,3.29,7.35,7.35,0,.02,0,.04,0,.06l-1,124.3c.03,4.06-3.23,7.37-7.29,7.4-.02,0-.04,0-.06,0h0c4.06,0,7.35-3.29,7.35-7.35,0-.02,0-.04,0-.06l1-124.3c.03-4.06-3.23-7.37-7.29-7.41-.02,0-.04,0-.06,0Z"/>
    </g>
    <g class="cls-20">
      <path class="cls-13" d="M501.44,89.69c12.86,0,24.71,6.96,30.97,18.18l35.62,63.81c4.79,8.59,13.86,13.91,23.69,13.91h0c-9.83,0-18.9-5.32-23.69-13.91l-35.62-63.81c-6.27-11.23-18.12-18.18-30.97-18.18Z"/>
    </g>
    <g class="cls-20">
      <path class="cls-18" d="M501.44,89.69c12.86,0,24.71,6.96,30.97,18.18l35.62,63.81c4.79,8.59,13.86,13.91,23.69,13.91h0c-9.83,0-18.9-5.32-23.69-13.91l-35.62-63.81c-6.27-11.23-18.12-18.18-30.97-18.18Z"/>
    </g>
    <g class="cls-20">
      <path class="cls-17" d="M501.44,123.94c5.61,0,11.21-.49,16.74-1.45l56.81-9.94c5.53-.97,11.13-1.45,16.74-1.45h0c-5.61,0-11.21.49-16.74,1.45l-56.81,9.94c-5.53.97-11.13,1.45-16.74,1.45Z"/>
    </g>
    <g class="cls-20">
      <path class="cls-14" d="M501.44,123.94c5.61,0,11.21-.49,16.74-1.45l56.81-9.94c5.53-.97,11.13-1.45,16.74-1.45h0c-5.61,0-11.21.49-16.74,1.45l-56.81,9.94c-5.53.97-11.13,1.45-16.74,1.45Z"/>
    </g>
    <g class="cls-20">
      <path class="cls-5" d="M501.44,123.94c5.61,0,11.21-.49,16.74-1.45l56.81-9.94c5.53-.97,11.13-1.45,16.74-1.45h0c-5.61,0-11.21.49-16.74,1.45l-56.81,9.94c-5.53.97-11.13,1.45-16.74,1.45Z"/>
    </g>
    <g class="cls-20">
      <path class="cls-3" d="M501.44,123.94c5.61,0,11.21-.49,16.74-1.45l56.81-9.94c5.53-.97,11.13-1.45,16.74-1.45h0c-5.61,0-11.21.49-16.74,1.45l-56.81,9.94c-5.53.97-11.13,1.45-16.74,1.45Z"/>
    </g>
    <g class="cls-20">
      <path class="cls-19" d="M501.44,123.94c5.61,0,11.21-.49,16.74-1.45l56.81-9.94c5.53-.97,11.13-1.45,16.74-1.45h0c-5.61,0-11.21.49-16.74,1.45l-56.81,9.94c-5.53.97-11.13,1.45-16.74,1.45Z"/>
    </g>
    <g class="cls-20">
      <path class="cls-11" d="M501.44,123.94c5.61,0,11.21-.49,16.74-1.45l56.81-9.94c5.53-.97,11.13-1.45,16.74-1.45h0c-5.61,0-11.21.49-16.74,1.45l-56.81,9.94c-5.53.97-11.13,1.45-16.74,1.45Z"/>
    </g>
    <g class="cls-20">
      <path class="cls-22" d="M501.44,123.94c5.61,0,11.21-.49,16.74-1.45l56.81-9.94c5.53-.97,11.13-1.45,16.74-1.45h0c-5.61,0-11.21.49-16.74,1.45l-56.81,9.94c-5.53.97-11.13,1.45-16.74,1.45Z"/>
    </g>
    <g class="cls-20">
      <path class="cls-12" d="M501.44,123.94c5.61,0,11.21-.49,16.74-1.45l56.81-9.94c5.53-.97,11.13-1.45,16.74-1.45h0c-5.61,0-11.21.49-16.74,1.45l-56.81,9.94c-5.53.97-11.13,1.45-16.74,1.45Z"/>
    </g>
    <g class="cls-20">
      <path class="cls-10" d="M501.44,123.94c5.61,0,11.21-.49,16.74-1.45l56.81-9.94c5.53-.97,11.13-1.45,16.74-1.45h0c-5.61,0-11.21.49-16.74,1.45l-56.81,9.94c-5.53.97-11.13,1.45-16.74,1.45Z"/>
    </g>
    <g class="cls-20">
      <path class="cls-8" d="M501.44,123.94c5.61,0,11.21-.49,16.74-1.45l56.81-9.94c5.53-.97,11.13-1.45,16.74-1.45h0c-5.61,0-11.21.49-16.74,1.45l-56.81,9.94c-5.53.97-11.13,1.45-16.74,1.45Z"/>
    </g>
    <g class="cls-20">
      <path class="cls-9" d="M501.44,151.81c12.52,0,23.63,8.02,27.56,19.91l28.93,87.35c4.83,14.57,18.45,24.41,33.79,24.41h0c-15.35,0-28.97-9.84-33.79-24.41l-28.93-87.35c-3.94-11.88-15.05-19.91-27.56-19.91Z"/>
    </g>
    <g class="cls-20">
      <path class="cls-15" d="M501.44,151.81c12.52,0,23.63,8.02,27.56,19.91l28.93,87.35c4.83,14.57,18.45,24.41,33.79,24.41h0c-15.35,0-28.97-9.84-33.79-24.41l-28.93-87.35c-3.94-11.88-15.05-19.91-27.56-19.91Z"/>
    </g>
    <g class="cls-20">
      <path class="cls-15" d="M501.44,151.81c3.38,0,6.12,2.74,6.12,6.12,0,.03,0,.06,0,.1l-1,62.58c.05,3.38-2.64,6.16-6.02,6.22-.03,0-.07,0-.1,0h0c3.38,0,6.12-2.74,6.12-6.12,0-.03,0-.06,0-.1l1-62.58c.05-3.38-2.64-6.16-6.02-6.22-.03,0-.06,0-.1,0Z"/>
    </g>
    <g class="cls-20">
      <path class="cls-15" d="M501.44,151.81c6.07,0,12.06,1.34,17.56,3.92l55.17,25.94c5.49,2.58,11.49,3.92,17.56,3.92h0c-6.07,0-12.06-1.34-17.56-3.92l-55.17-25.94c-5.49-2.58-11.49-3.92-17.56-3.92Z"/>
    </g>
    <g class="cls-20">
      <path class="cls-18" d="M501.44,151.81c6.07,0,12.06,1.34,17.56,3.92l55.17,25.94c5.49,2.58,11.49,3.92,17.56,3.92h0c-6.07,0-12.06-1.34-17.56-3.92l-55.17-25.94c-5.49-2.58-11.49-3.92-17.56-3.92Z"/>
    </g>
    <g class="cls-20">
      <path class="cls-17" d="M501.44,185.59c5.62,0,11.23-.51,16.75-1.54l56.78-10.51c5.53-1.02,11.13-1.54,16.75-1.54h0c-5.62,0-11.23.51-16.75,1.54l-56.78,10.51c-5.53,1.02-11.13,1.54-16.75,1.54Z"/>
    </g>
    <g class="cls-20">
      <path class="cls-14" d="M501.44,185.59c5.62,0,11.23-.51,16.75-1.54l56.78-10.51c5.53-1.02,11.13-1.54,16.75-1.54h0c-5.62,0-11.23.51-16.75,1.54l-56.78,10.51c-5.53,1.02-11.13,1.54-16.75,1.54Z"/>
    </g>
    <g class="cls-20">
      <path class="cls-5" d="M501.44,185.59c5.62,0,11.23-.51,16.75-1.54l56.78-10.51c5.53-1.02,11.13-1.54,16.75-1.54h0c-5.62,0-11.23.51-16.75,1.54l-56.78,10.51c-5.53,1.02-11.13,1.54-16.75,1.54Z"/>
    </g>
    <g class="cls-20">
      <path class="cls-3" d="M501.44,185.59c5.62,0,11.23-.51,16.75-1.54l56.78-10.51c5.53-1.02,11.13-1.54,16.75-1.54h0c-5.62,0-11.23.51-16.75,1.54l-56.78,10.51c-5.53,1.02-11.13,1.54-16.75,1.54Z"/>
    </g>
    <g class="cls-20">
      <path class="cls-19" d="M501.44,185.59c5.62,0,11.23-.51,16.75-1.54l56.78-10.51c5.53-1.02,11.13-1.54,16.75-1.54h0c-5.62,0-11.23.51-16.75,1.54l-56.78,10.51c-5.53,1.02-11.13,1.54-16.75,1.54Z"/>
    </g>
    <g class="cls-20">
      <path class="cls-11" d="M501.44,185.59c5.62,0,11.23-.51,16.75-1.54l56.78-10.51c5.53-1.02,11.13-1.54,16.75-1.54h0c-5.62,0-11.23.51-16.75,1.54l-56.78,10.51c-5.53,1.02-11.13,1.54-16.75,1.54Z"/>
    </g>
    <g class="cls-20">
      <path class="cls-22" d="M501.44,185.59c5.62,0,11.23-.51,16.75-1.54l56.78-10.51c5.53-1.02,11.13-1.54,16.75-1.54h0c-5.62,0-11.23.51-16.75,1.54l-56.78,10.51c-5.53,1.02-11.13,1.54-16.75,1.54Z"/>
    </g>
    <g class="cls-20">
      <path class="cls-10" d="M501.44,185.59c5.62,0,11.23-.51,16.75-1.54l56.78-10.51c5.53-1.02,11.13-1.54,16.75-1.54h0c-5.62,0-11.23.51-16.75,1.54l-56.78,10.51c-5.53,1.02-11.13,1.54-16.75,1.54Z"/>
    </g>
    <g class="cls-20">
      <path class="cls-8" d="M501.44,185.59c5.62,0,11.23-.51,16.75-1.54l56.78-10.51c5.53-1.02,11.13-1.54,16.75-1.54h0c-5.62,0-11.23.51-16.75,1.54l-56.78,10.51c-5.53,1.02-11.13,1.54-16.75,1.54Z"/>
    </g>
    <g class="cls-20">
      <path class="cls-4" d="M501.44,185.59c5.62,0,11.23-.51,16.75-1.54l56.78-10.51c5.53-1.02,11.13-1.54,16.75-1.54h0c-5.62,0-11.23.51-16.75,1.54l-56.78,10.51c-5.53,1.02-11.13,1.54-16.75,1.54Z"/>
    </g>
    <g class="cls-20">
      <path class="cls-17" d="M501.44,185.59c6.34,0,12.56-1.69,18.02-4.89l54.24-31.77c5.47-3.2,11.69-4.89,18.02-4.89h0c-6.34,0-12.56,1.69-18.02,4.89l-54.24,31.77c-5.47,3.2-11.69,4.89-18.02,4.89Z"/>
    </g>
    <g class="cls-20">
      <path class="cls-14" d="M501.44,185.59c6.34,0,12.56-1.69,18.02-4.89l54.24-31.77c5.47-3.2,11.69-4.89,18.02-4.89h0c-6.34,0-12.56,1.69-18.02,4.89l-54.24,31.77c-5.47,3.2-11.69,4.89-18.02,4.89Z"/>
    </g>
    <g class="cls-20">
      <path class="cls-5" d="M501.44,185.59c6.34,0,12.56-1.69,18.02-4.89l54.24-31.77c5.47-3.2,11.69-4.89,18.02-4.89h0c-6.34,0-12.56,1.69-18.02,4.89l-54.24,31.77c-5.47,3.2-11.69,4.89-18.02,4.89Z"/>
    </g>
    <g class="cls-20">
      <path class="cls-3" d="M501.44,185.59c6.34,0,12.56-1.69,18.02-4.89l54.24-31.77c5.47-3.2,11.69-4.89,18.02-4.89h0c-6.34,0-12.56,1.69-18.02,4.89l-54.24,31.77c-5.47,3.2-11.69,4.89-18.02,4.89Z"/>
    </g>
    <g class="cls-20">
      <path class="cls-19" d="M501.44,185.59c6.34,0,12.56-1.69,18.02-4.89l54.24-31.77c5.47-3.2,11.69-4.89,18.02-4.89h0c-6.34,0-12.56,1.69-18.02,4.89l-54.24,31.77c-5.47,3.2-11.69,4.89-18.02,4.89Z"/>
    </g>
    <g class="cls-20">
      <path class="cls-11" d="M501.44,185.59c6.34,0,12.56-1.69,18.02-4.89l54.24-31.77c5.47-3.2,11.69-4.89,18.02-4.89h0c-6.34,0-12.56,1.69-18.02,4.89l-54.24,31.77c-5.47,3.2-11.69,4.89-18.02,4.89Z"/>
    </g>
    <g class="cls-20">
      <path class="cls-12" d="M501.44,185.59c6.34,0,12.56-1.69,18.02-4.89l54.24-31.77c5.47-3.2,11.69-4.89,18.02-4.89h0c-6.34,0-12.56,1.69-18.02,4.89l-54.24,31.77c-5.47,3.2-11.69,4.89-18.02,4.89Z"/>
    </g>
    <g class="cls-20">
      <path class="cls-10" d="M501.44,185.59c6.34,0,12.56-1.69,18.02-4.89l54.24-31.77c5.47-3.2,11.69-4.89,18.02-4.89h0c-6.34,0-12.56,1.69-18.02,4.89l-54.24,31.77c-5.47,3.2-11.69,4.89-18.02,4.89Z"/>
    </g>
    <g class="cls-20">
      <path class="cls-8" d="M501.44,185.59c6.34,0,12.56-1.69,18.02-4.89l54.24-31.77c5.47-3.2,11.69-4.89,18.02-4.89h0c-6.34,0-12.56,1.69-18.02,4.89l-54.24,31.77c-5.47,3.2-11.69,4.89-18.02,4.89Z"/>
    </g>
    <g class="cls-20">
      <path class="cls-4" d="M501.44,185.59c6.34,0,12.56-1.69,18.02-4.89l54.24-31.77c5.47-3.2,11.69-4.89,18.02-4.89h0c-6.34,0-12.56,1.69-18.02,4.89l-54.24,31.77c-5.47,3.2-11.69,4.89-18.02,4.89Z"/>
    </g>
    <g class="cls-20">
      <path class="cls-14" d="M592.72,87.37c4.41,0,7.99,3.58,7.99,7.99,0,.02,0,.04,0,.06l-1,129.62c.03,4.41-3.52,8.02-7.93,8.05-.02,0-.04,0-.06,0h0c4.41,0,7.99-3.58,7.99-7.99,0-.02,0-.04,0-.06l1-129.62c.03-4.41-3.52-8.02-7.93-8.05-.02,0-.04,0-.06,0Z"/>
    </g>
    <g class="cls-20">
      <path class="cls-9" d="M592.72,87.37c11.07,0,22.03-2.25,32.2-6.61l38.76-16.61c6.11-2.62,12.68-3.97,19.32-3.97h0c-6.64,0-13.22,1.35-19.32,3.97l-38.76,16.61c-10.18,4.36-21.13,6.61-32.2,6.61Z"/>
    </g>
    <g class="cls-20">
      <path class="cls-14" d="M592.72,87.37c11.07,0,22.03-2.25,32.2-6.61l38.76-16.61c6.11-2.62,12.68-3.97,19.32-3.97h0c-6.64,0-13.22,1.35-19.32,3.97l-38.76,16.61c-10.18,4.36-21.13,6.61-32.2,6.61Z"/>
    </g>
    <g class="cls-20">
      <path class="cls-18" d="M592.72,87.37c11.07,0,22.03-2.25,32.2-6.61l38.76-16.61c6.11-2.62,12.68-3.97,19.32-3.97h0c-6.64,0-13.22,1.35-19.32,3.97l-38.76,16.61c-10.18,4.36-21.13,6.61-32.2,6.61Z"/>
    </g>
    <g class="cls-20">
      <path class="cls-9" d="M592.72,112.9c16.16,0,30.12,11.27,33.53,27.06l24.98,115.57c3.23,14.96,16.47,25.64,31.77,25.64h0c-15.31,0-28.54-10.68-31.77-25.64l-24.98-115.57c-3.41-15.79-17.38-27.06-33.53-27.06Z"/>
    </g>
    <g class="cls-20">
      <path class="cls-4" d="M592.72,117.68c3.85,0,6.97,3.12,6.97,6.97,0,.02,0,.05,0,.07l-1,101.35c.04,3.85-3.05,7-6.9,7.04-.02,0-.05,0-.07,0h0c3.85,0,6.97-3.12,6.97-6.97,0-.02,0-.05,0-.07l1-101.35c.04-3.85-3.05-7-6.9-7.04-.02,0-.05,0-.07,0Z"/>
    </g>
    <g class="cls-20">
      <path class="cls-18" d="M592.72,112.9c12.84,0,25.21-4.76,34.74-13.37l34.7-31.34c5.72-5.16,13.14-8.02,20.84-8.02h0c-7.7,0-15.13,2.86-20.84,8.02l-34.7,31.34c-9.53,8.6-21.9,13.37-34.74,13.37Z"/>
    </g>
    <g class="cls-20">
      <path class="cls-4" d="M592.72,112.9c12.84,0,25.21-4.76,34.74-13.37l34.7-31.34c5.72-5.16,13.14-8.02,20.84-8.02h0c-7.7,0-15.13,2.86-20.84,8.02l-34.7,31.34c-9.53,8.6-21.9,13.37-34.74,13.37Z"/>
    </g>
    <g class="cls-20">
      <path class="cls-9" d="M592.72,142.36c13.49,0,25.34,8.97,29,21.96l26.53,94.14c4.39,15.57,18.59,26.32,34.76,26.32h0c-16.17,0-30.37-10.75-34.76-26.32l-26.53-94.14c-3.66-12.99-15.51-21.96-29-21.96Z"/>
    </g>
    <g class="cls-20">
      <path class="cls-22" d="M592.72,144.04c3.53,0,6.38,2.86,6.38,6.38,0,.03,0,.06,0,.08l-1,74.95c.05,3.53-2.77,6.42-6.3,6.47-.03,0-.06,0-.09,0h0c3.53,0,6.38-2.86,6.38-6.38,0-.03,0-.06,0-.08l1-74.95c.05-3.53-2.77-6.42-6.3-6.47-.03,0-.06,0-.08,0Z"/>
    </g>
    <g class="cls-20">
      <path class="cls-18" d="M592.72,142.36c6.4,0,12.67,1.77,18.13,5.1l54.02,33.02c5.46,3.34,11.74,5.1,18.13,5.1h0c-6.4,0-12.67-1.77-18.13-5.1l-54.02-33.02c-5.46-3.34-11.74-5.1-18.13-5.1Z"/>
    </g>
    <g class="cls-20">
      <path class="cls-22" d="M592.72,142.36c6.4,0,12.67,1.77,18.13,5.1l54.02,33.02c5.46,3.34,11.74,5.1,18.13,5.1h0c-6.4,0-12.67-1.77-18.13-5.1l-54.02-33.02c-5.46-3.34-11.74-5.1-18.13-5.1Z"/>
    </g>
    <g class="cls-20">
      <path class="cls-17" d="M592.72,157.62c6.85,0,13.53-2.19,19.05-6.24l48.46-35.55c6.6-4.84,14.58-7.45,22.77-7.45h0c-8.19,0-16.16,2.61-22.77,7.45l-48.46,35.55c-5.53,4.05-12.2,6.24-19.05,6.24Z"/>
    </g>
    <g class="cls-20">
      <path class="cls-5" d="M592.72,157.62c6.85,0,13.53-2.19,19.05-6.24l48.46-35.55c6.6-4.84,14.58-7.45,22.77-7.45h0c-8.19,0-16.16,2.61-22.77,7.45l-48.46,35.55c-5.53,4.05-12.2,6.24-19.05,6.24Z"/>
    </g>
    <g class="cls-20">
      <path class="cls-3" d="M592.72,157.62c6.85,0,13.53-2.19,19.05-6.24l48.46-35.55c6.6-4.84,14.58-7.45,22.77-7.45h0c-8.19,0-16.16,2.61-22.77,7.45l-48.46,35.55c-5.53,4.05-12.2,6.24-19.05,6.24Z"/>
    </g>
    <g class="cls-20">
      <path class="cls-15" d="M592.72,157.62c6.85,0,13.53-2.19,19.05-6.24l48.46-35.55c6.6-4.84,14.58-7.45,22.77-7.45h0c-8.19,0-16.16,2.61-22.77,7.45l-48.46,35.55c-5.53,4.05-12.2,6.24-19.05,6.24Z"/>
    </g>
    <g class="cls-20">
      <path class="cls-19" d="M592.72,157.62c6.85,0,13.53-2.19,19.05-6.24l48.46-35.55c6.6-4.84,14.58-7.45,22.77-7.45h0c-8.19,0-16.16,2.61-22.77,7.45l-48.46,35.55c-5.53,4.05-12.2,6.24-19.05,6.24Z"/>
    </g>
    <g class="cls-20">
      <path class="cls-11" d="M592.72,157.62c6.85,0,13.53-2.19,19.05-6.24l48.46-35.55c6.6-4.84,14.58-7.45,22.77-7.45h0c-8.19,0-16.16,2.61-22.77,7.45l-48.46,35.55c-5.53,4.05-12.2,6.24-19.05,6.24Z"/>
    </g>
    <g class="cls-20">
      <path class="cls-13" d="M592.72,157.62c6.85,0,13.53-2.19,19.05-6.24l48.46-35.55c6.6-4.84,14.58-7.45,22.77-7.45h0c-8.19,0-16.16,2.61-22.77,7.45l-48.46,35.55c-5.53,4.05-12.2,6.24-19.05,6.24Z"/>
    </g>
    <g class="cls-20">
      <path class="cls-10" d="M592.72,157.62c6.85,0,13.53-2.19,19.05-6.24l48.46-35.55c6.6-4.84,14.58-7.45,22.77-7.45h0c-8.19,0-16.16,2.61-22.77,7.45l-48.46,35.55c-5.53,4.05-12.2,6.24-19.05,6.24Z"/>
    </g>
    <g class="cls-20">
      <path class="cls-8" d="M592.72,157.62c6.85,0,13.53-2.19,19.05-6.24l48.46-35.55c6.6-4.84,14.58-7.45,22.77-7.45h0c-8.19,0-16.16,2.61-22.77,7.45l-48.46,35.55c-5.53,4.05-12.2,6.24-19.05,6.24Z"/>
    </g>
    <g class="cls-20">
      <path class="cls-9" d="M592.72,170.18c11.41,0,21.68,6.9,25.99,17.46l30.53,74.81c5.6,13.72,18.95,22.69,33.77,22.69h0c-14.82,0-28.17-8.97-33.77-22.69l-30.53-74.81c-4.31-10.56-14.58-17.46-25.99-17.46Z"/>
    </g>
    <g class="cls-20">
      <path class="cls-12" d="M592.72,172.01c3.16,0,5.73,2.56,5.73,5.73,0,.04,0,.08,0,.12l-1,46.91c.07,3.16-2.44,5.78-5.6,5.85-.04,0-.08,0-.12,0h0c3.16,0,5.73-2.56,5.73-5.73,0-.04,0-.08,0-.12l1-46.91c.07-3.16-2.44-5.78-5.6-5.85-.04,0-.08,0-.12,0Z"/>
    </g>
    <g class="cls-20">
      <path class="cls-18" d="M592.72,170.18c5.64,0,11.27.59,16.8,1.75l56.69,11.92c5.52,1.16,11.15,1.75,16.8,1.75h0c-5.64,0-11.27-.59-16.8-1.75l-56.69-11.92c-5.52-1.16-11.15-1.75-16.8-1.75Z"/>
    </g>
    <g class="cls-20">
      <path class="cls-12" d="M592.72,170.18c5.64,0,11.27.59,16.8,1.75l56.69,11.92c5.52,1.16,11.15,1.75,16.8,1.75h0c-5.64,0-11.27-.59-16.8-1.75l-56.69-11.92c-5.52-1.16-11.15-1.75-16.8-1.75Z"/>
    </g>
    <g class="cls-20">
      <path class="cls-14" d="M500.44,231.51c5.92,0,11.83-.09,17.75-.28l57.48-1.8c5.69-.18,11.38-.27,17.06-.27h0c-5.69,0-11.38.09-17.06.27l-57.48,1.8c-5.91.19-11.83.28-17.75.28Z"/>
    </g>
    <g class="cls-20">
      <path class="cls-22" d="M500.44,253.29c5.69,0,11.38-.09,17.06-.27l57.48-1.8c5.91-.19,11.83-.28,17.75-.28h0c-5.92,0-11.83.09-17.75.28l-57.48,1.8c-5.69.18-11.38.27-17.06.27Z"/>
    </g>
    <g class="cls-20">
      <path class="cls-12" d="M500.44,253.29c5.69,0,11.38-.09,17.06-.27l57.48-1.8c5.91-.19,11.83-.28,17.75-.28h0c-5.92,0-11.83.09-17.75.28l-57.48,1.8c-5.69.18-11.38.27-17.06.27Z"/>
    </g>
    <g class="cls-20">
      <path class="cls-4" d="M500.44,253.29c5.69,0,11.38-.09,17.06-.27l57.48-1.8c5.91-.19,11.83-.28,17.75-.28h0c-5.92,0-11.83.09-17.75.28l-57.48,1.8c-5.69.18-11.38.27-17.06.27Z"/>
    </g>
    <g class="cls-20">
      <path class="cls-18" d="M227.58,111.06c11.71,0,22.59,6.05,28.76,15.99l38.37,61.75c4.97,8,13.73,12.87,23.15,12.87v2c-10.12,0-19.51-5.22-24.85-13.82l-38.37-61.75c-5.81-9.36-16.05-15.05-27.07-15.05v-2Z"/>
    </g>
    <g class="cls-20">
      <path class="cls-18" d="M227.58,82.1c15.37,0,29.16,9.45,34.7,23.79l30.25,78.3c4.04,10.47,14.11,17.37,25.33,17.37v2c-12.05,0-22.85-7.41-27.19-18.65l-30.25-78.3c-5.24-13.57-18.29-22.51-32.84-22.51v-2Z"/>
    </g>
    <g class="cls-20">
      <path class="cls-19" d="M318.86,13.84c6.68,0,13.22,1.93,18.83,5.55l53.66,34.63c5.3,3.42,11.48,5.24,17.79,5.24v2c-6.7,0-13.25-1.93-18.88-5.56l-53.66-34.63c-5.29-3.41-11.45-5.23-17.75-5.23v-2Z"/>
    </g>
    <g class="cls-20">
      <path class="cls-10" d="M136.29,13.84c6.68,0,13.22,1.93,18.84,5.55l53.65,34.64c5.31,3.43,11.49,5.25,17.8,5.25v2c-6.7,0-13.26-1.93-18.89-5.57l-53.65-34.64c-5.29-3.42-11.45-5.23-17.75-5.23v-2Z"/>
    </g>
    <g class="cls-20">
      <path class="cls-13" d="M501.44,88.81c17.97,0,33.24,13.12,35.94,30.89l20.27,133.35c2.56,16.85,17.04,29.29,34.08,29.29v2c-18.03,0-33.35-13.17-36.06-30.99l-20.27-133.35c-2.55-16.78-16.98-29.19-33.96-29.19v-2Z"/>
    </g>
    <g class="cls-20">
      <path class="cls-22" d="M592.72,141.54c13.86,0,26.03,9.21,29.79,22.55l26.53,94.14c4.29,15.21,18.16,25.72,33.97,25.72v2c-16.7,0-31.37-11.1-35.89-27.18l-26.53-94.14c-3.52-12.48-14.9-21.1-27.86-21.1v-2Z"/>
    </g>
    <g class="cls-20">
      <path class="cls-12" d="M592.72,169.37c11.74,0,22.31,7.1,26.74,17.97l30.53,74.81c5.48,13.42,18.53,22.19,33.02,22.19v2c-15.31,0-29.09-9.26-34.87-23.43l-30.53-74.81c-4.13-10.11-13.96-16.72-24.89-16.72v-2Z"/>
    </g>
    <g class="cls-20">
      <path class="cls-8" d="M592.72,116.09c4.4,0,7.97,3.57,7.97,7.97,0,.03,0,.05,0,.08l-1,101.35c.03,4.4-3.51,8-7.91,8.03-.02,0-.04,0-.06,0v-2c3.3,0,5.97-2.67,5.97-5.97,0-.03,0-.05,0-.08l1-101.35c.03-3.3-2.61-6-5.91-6.03-.02,0-.04,0-.06,0v-2Z"/>
    </g>
    <g class="cls-20">
      <path class="cls-8" d="M592.72,142.38c4.08,0,7.38,3.31,7.38,7.38,0,.03,0,.07,0,.1l-1,74.95c.04,4.08-3.23,7.42-7.31,7.46-.02,0-.05,0-.07,0v-2c2.97,0,5.39-2.41,5.39-5.38,0-.03,0-.07,0-.1l1-74.95c.04-2.97-2.34-5.42-5.31-5.46-.02,0-.05,0-.07,0v-2Z"/>
    </g>
    <g class="cls-20">
      <path class="cls-18" d="M318.86,150.52c7.14,0,14.07,2.43,19.65,6.9l52.24,41.83c5.22,4.18,11.71,6.46,18.4,6.46v2c-7.14,0-14.07-2.43-19.65-6.9l-52.24-41.83c-5.22-4.18-11.71-6.46-18.4-6.46v-2Z"/>
    </g>
    <g class="cls-20">
      <path class="cls-8" d="M592.72,170.28c3.71,0,6.73,3.01,6.73,6.73,0,.05,0,.1,0,.14l-1,46.91c.06,3.71-2.91,6.77-6.63,6.83-.03,0-.07,0-.1,0v-2c2.61,0,4.73-2.11,4.73-4.72,0-.05,0-.1,0-.14l1-46.91c.06-2.61-2.02-4.77-4.62-4.83-.03,0-.07,0-.1,0v-2Z"/>
    </g>
    <g class="cls-20">
      <path class="cls-18" d="M318.86,85.34c11.41,0,21.77,6.67,26.5,17.05l39.11,85.91c4.4,9.67,14.05,15.88,24.68,15.88v2c-11.41,0-21.77-6.67-26.5-17.05l-39.11-85.91c-4.4-9.67-14.05-15.88-24.68-15.88v-2Z"/>
    </g>
    <g class="cls-20">
      <path class="cls-13" d="M501.44,79.64c6.08,0,12.09,1.18,17.72,3.48l55.61,22.75c5.38,2.2,11.14,3.33,16.96,3.33v2c-6.08,0-12.09-1.18-17.72-3.48l-55.61-22.75c-5.38-2.2-11.14-3.33-16.96-3.33v-2Z"/>
    </g>
    <g class="cls-20">
      <path class="cls-8" d="M592.72,87.37c4.98,0,9.02,4.04,9.02,9.02,0,.02,0,.05,0,.07l-1,129.62c.03,4.98-3.98,9.04-8.96,9.07-.02,0-.04,0-.05,0v-2.05c3.85,0,6.97-3.12,6.97-6.97,0-.02,0-.05,0-.07l1-129.62c.03-3.85-3.07-6.99-6.92-7.02-.02,0-.04,0-.05,0v-2.05Z"/>
    </g>
    <g class="cls-20">
      <path class="cls-8" d="M501.44,151.81c4,0,7.24,3.24,7.24,7.24,0,.04,0,.08,0,.12l-1,62.58c.04,4-3.16,7.27-7.16,7.32-.03,0-.05,0-.08,0v-2.24c2.76,0,5-2.24,5-5,0-.04,0-.08,0-.12l1-62.58c.04-2.76-2.16-5.04-4.92-5.08-.03,0-.05,0-.08,0v-2.24Z"/>
    </g>
    <g class="cls-20">
      <path class="cls-8" d="M501.44,89.94c4.74,0,8.57,3.84,8.57,8.57,0,.02,0,.05,0,.07l-1,124.3c.03,4.74-3.79,8.6-8.52,8.62-.02,0-.03,0-.05,0v-2.46c3.38,0,6.12-2.74,6.12-6.12,0-.02,0-.05,0-.07l1-124.3c.03-3.38-2.69-6.14-6.07-6.17-.02,0-.03,0-.05,0v-2.46Z"/>
    </g>
    <g class="cls-20">
      <path class="cls-18" d="M136.29,159.16c6.83,0,13.51,2.02,19.19,5.81l53.52,35.67c5.21,3.47,11.32,5.32,17.58,5.32v2.91c-6.83,0-13.51-2.02-19.19-5.81l-53.52-35.67c-5.21-3.47-11.32-5.32-17.58-5.32v-2.91Z"/>
    </g>
    <g class="cls-20">
      <path class="cls-18" d="M227.58,205.96c5.51,0,11.03-.12,16.54-.37l57.08-2.52c5.55-.25,11.11-.37,16.67-.37v2.91c-5.51,0-11.03.12-16.54.37l-57.08,2.52c-5.55.25-11.11.37-16.67.37v-2.91Z"/>
    </g>
    <g class="cls-20">
      <path class="cls-13" d="M410.15,11.55c6.98,0,13.79,2.15,19.5,6.16l52.15,36.59c5.46,3.83,11.96,5.88,18.63,5.88v3.04c-7.29,0-14.41-2.25-20.38-6.43l-52.15-36.59c-5.2-3.65-11.4-5.61-17.76-5.61v-3.04Z"/>
    </g>
    <g class="cls-20">
      <path class="cls-18" d="M318.86,202.49c5.58,0,11.15.18,16.72.55l57.06,3.78c5.5.36,11,.55,16.51.55v3.12c-5.58,0-11.15-.18-16.72-.55l-57.06-3.78c-5.5-.36-11-.55-16.51-.55v-3.12Z"/>
    </g>
    <g class="cls-20">
      <path class="cls-22" d="M501.44,14.31c14.25,0,27.08,8.61,32.48,21.79l31.9,77.79c4.31,10.51,14.54,17.38,25.9,17.38v3.37c-12.73,0-24.2-7.69-29.02-19.47l-31.9-77.79c-4.89-11.91-16.49-19.69-29.36-19.69v-3.37Z"/>
    </g>
    <g class="cls-20">
      <path class="cls-15" d="M410.15,14.59c11.07,0,21.2,6.23,26.19,16.11l39.47,78.1c4.69,9.29,14.21,15.14,24.62,15.14v3.53c-11.74,0-22.48-6.6-27.77-17.08l-39.47-78.1c-4.39-8.69-13.3-14.17-23.04-14.17v-3.53Z"/>
    </g>
    <g class="cls-20">
      <path class="cls-4" d="M592.72,112.9c16.16,0,30.12,11.27,33.53,27.06l24.98,115.57c3.23,14.96,16.47,25.64,31.77,25.64v3.6c-17,0-31.7-11.86-35.3-28.48l-24.98-115.57c-3.05-14.13-15.55-24.22-30.01-24.22v-3.6Z"/>
    </g>
    <g class="cls-20">
      <path class="cls-13" d="M501.44,81.53c10.31,0,20.29,3.65,28.16,10.3l41.88,35.39c5.66,4.78,12.83,7.41,20.25,7.41v3.84c-8.32,0-16.37-2.95-22.72-8.32l-41.88-35.39c-7.18-6.07-16.28-9.4-25.68-9.4v-3.84Z"/>
    </g>
    <g class="cls-20">
      <path class="cls-10" d="M227.58,79.07c7.63,0,15.11,2.07,21.66,5.99l51.31,30.71c5.23,3.13,11.22,4.79,17.32,4.79v3.96c-6.82,0-13.5-1.85-19.35-5.35l-51.31-30.71c-5.93-3.55-12.71-5.43-19.63-5.43v-3.96Z"/>
    </g>
    <g class="cls-20">
      <path class="cls-12" d="M501.44,17.68c13.73,0,25.91,8.83,30.17,21.88l31.86,97.56c3.99,12.23,15.4,20.5,28.26,20.5v4.01c-14.6,0-27.54-9.39-32.07-23.27l-31.86-97.56c-3.72-11.4-14.36-19.12-26.35-19.12v-4.01Z"/>
    </g>
    <g class="cls-20">
      <path class="cls-13" d="M501.44,85.37c13.28,0,25.69,6.63,33.08,17.67l29.16,43.61c6.26,9.36,16.78,14.99,28.05,14.99v4.32c-12.71,0-24.58-6.34-31.64-16.9l-29.16-43.61c-6.58-9.84-17.65-15.76-29.49-15.76v-4.32Z"/>
    </g>
    <g class="cls-20">
      <path class="cls-15" d="M501.44,140.18c5.51,0,11.02-.06,16.53-.19l57.1-1.32c5.55-.13,11.11-.19,16.66-.19v5.57c-5.51,0-11.02.06-16.53.19l-57.1,1.32c-5.55.13-11.11.19-16.66.19v-5.57Z"/>
    </g>
    <g class="cls-20">
      <path class="cls-15" d="M501.44,145.75c6,0,11.97.81,17.75,2.41l56.4,15.6c5.26,1.45,10.68,2.19,16.14,2.19v6.05c-6,0-11.97-.81-17.75-2.41l-56.4-15.6c-5.26-1.45-10.68-2.19-16.14-2.19v-6.05Z"/>
    </g>
    <g class="cls-20">
      <path class="cls-9" d="M136.29,95.27c22.7,0,41.88,16.82,44.86,39.32l15.02,113.7c2.02,15.26,15.02,26.66,30.41,26.66v6.16c-18.48,0-34.1-13.69-36.52-32.01l-15.02-113.7c-2.57-19.44-19.14-33.96-38.75-33.96v-6.16Z"/>
    </g>
    <g class="cls-20">
      <path class="cls-4" d="M501.44,7.98c15.61,0,29.89,8.77,36.95,22.69l29.14,57.47c4.62,9.11,13.97,14.85,24.19,14.85v6.33c-12.6,0-24.13-7.08-29.83-18.32l-29.14-57.47c-5.98-11.8-18.09-19.23-31.31-19.23v-6.33Z"/>
    </g>
    <g class="cls-20">
      <path class="cls-15" d="M501.44,133.6c5.44,0,10.86-.82,16.06-2.42l56.23-17.36c5.83-1.8,11.9-2.72,18-2.72v6.58c-5.44,0-10.86.82-16.06,2.42l-56.23,17.36c-5.83,1.8-11.9,2.72-18,2.72v-6.58Z"/>
    </g>
    <g class="cls-20">
      <path class="cls-8" d="M136.29,135.6c5.43,0,10.85-.25,16.26-.76l57.02-5.31c5.65-.53,11.33-.79,17.01-.79v8.1c-5.43,0-10.85.25-16.26.76l-57.02,5.31c-5.65.53-11.33.79-17.01.79v-8.1Z"/>
    </g>
    <g class="cls-20">
      <path class="cls-8" d="M227.58,128.74c5.83,0,11.52-1.82,16.27-5.21l52.83-37.68c6.18-4.41,13.59-6.78,21.18-6.78v8.1c-5.91,0-11.67,1.84-16.48,5.27l-52.83,37.68c-6.12,4.37-13.45,6.71-20.97,6.71v-8.1Z"/>
    </g>
    <g class="cls-20">
      <path class="cls-15" d="M501.44,123.94c5.53,0,10.95-1.56,15.64-4.49l53.89-33.73c6.22-3.9,13.42-5.96,20.76-5.96v9.66c-5.53,0-10.95,1.56-15.64,4.49l-53.89,33.73c-6.22,3.9-13.42,5.96-20.76,5.96v-9.66Z"/>
    </g>
    <g class="cls-20">
      <path class="cls-4" d="M592.72,102.99c2.78,0,5.55-.28,8.28-.83l65.11-13.12c5.56-1.12,11.22-1.68,16.89-1.68v9.91c-5.02,0-10.02.5-14.94,1.49l-65.11,13.12c-3.37.68-6.8,1.02-10.24,1.02v-9.91Z"/>
    </g>
    <g class="cls-20">
      <path class="cls-11" d="M136.29,101.43c19.61,0,36.18,14.53,38.75,33.96l15.02,113.7c2.42,18.32,18.04,32.01,36.52,32.01v10.65c-23.82,0-43.96-17.65-47.08-41.27l-15.02-113.7c-1.87-14.14-13.92-24.71-28.19-24.71v-10.65Z"/>
    </g>
    <g class="cls-20">
      <path class="cls-22" d="M592.72,131.26c5.31,0,10.56-1.19,15.35-3.49l53.52-25.63c6.69-3.2,14.01-4.87,21.42-4.87v11.1c-5.75,0-11.44,1.29-16.63,3.78l-53.52,25.63c-6.29,3.01-13.17,4.57-20.14,4.57v-11.1Z"/>
    </g>
    <g class="cls-20">
      <path class="cls-5" d="M227.58,99.82c6.49,0,12.94,1.07,19.08,3.15l56.05,19.05c4.88,1.66,10,2.5,15.15,2.5v12.2c-6.49,0-12.94-1.07-19.08-3.15l-56.05-19.05c-4.88-1.66-10-2.5-15.15-2.5v-12.2Z"/>
    </g>
    <g class="cls-20">
      <path class="cls-8" d="M45.01,277.24h90.29v12.21H45.01v-12.21Z"/>
    </g>
    <g class="cls-20">
      <path class="cls-11" d="M136.29,82.99c6.13,0,12.24.69,18.21,2.07l56.61,13.01c5.07,1.17,10.26,1.75,15.46,1.75v12.28c-6.13,0-12.24-.69-18.21-2.07l-56.61-13.01c-5.07-1.17-10.26-1.75-15.46-1.75v-12.28Z"/>
    </g>
    <g class="cls-20">
      <path class="cls-12" d="M592.72,157.62c5.35,0,10.57-1.65,14.94-4.74l53.16-37.47c6.49-4.58,14.24-7.03,22.18-7.03v12.56c-5.35,0-10.57,1.65-14.94,4.74l-53.16,37.47c-6.49,4.58-14.24,7.03-22.18,7.03v-12.56Z"/>
    </g>
    <g class="cls-20">
      <path class="cls-8" d="M136.29,143.69c5.92,0,11.83.39,17.7,1.17l56.93,7.57c5.19.69,10.42,1.04,15.66,1.04v15.47c-5.92,0-11.83-.39-17.7-1.17l-56.93-7.57c-5.19-.69-10.42-1.04-15.66-1.04v-15.47Z"/>
    </g>
    <g class="cls-20">
      <path class="cls-8" d="M227.58,153.48c5.09,0,10.15-.57,15.11-1.71l56.61-12.95c6.09-1.39,12.31-2.1,18.56-2.1v15.47c-5.09,0-10.15.57-15.11,1.71l-56.61,12.95c-6.09,1.39-12.31,2.1-18.56,2.1v-15.47Z"/>
    </g>
    <g class="cls-20">
      <path class="cls-8" d="M684.01,60.18c11.49,0,20.8,9.31,20.8,20.8,0,.05,0,.09,0,.14l-1,146c.02,11.49-9.28,20.81-20.77,20.83-.01,0-.02,0-.03,0v-15.8c2.76,0,5-2.24,5-5,0-.05,0-.1,0-.14l1-146c.02-2.76-2.2-5.02-4.97-5.03-.01,0-.02,0-.03,0v-15.8Z"/>
    </g>
    <g class="cls-20">
      <path class="cls-8" d="M591.72,235.15c5.55,0,11.11-.11,16.65-.33l58.35-2.32c5.76-.23,11.52-.34,17.28-.34v15.8c-5.55,0-11.11.11-16.65.33l-58.35,2.32c-5.76.23-11.52.34-17.28.34v-15.8Z"/>
    </g>
    <g class="cls-20">
      <path class="cls-10" d="M227.58,60.18h90.29v18.89h-90.29v-18.89Z"/>
    </g>
    <g class="cls-20">
      <path class="cls-13" d="M501.44,60.18h90.29v19.58h-90.29v-19.58Z"/>
    </g>
    <g class="cls-20">
      <path class="cls-8" d="M500.44,231.51c5.69,0,11.38-.09,17.06-.27l57.48-1.8c5.91-.19,11.83-.28,17.75-.28v21.79c-5.69,0-11.38.09-17.06.27l-57.48,1.8c-5.91.19-11.83.28-17.75.28v-21.79Z"/>
    </g>
    <g class="cls-20">
      <path class="cls-11" d="M45.01,60.18c8.12,0,16.14,1.74,23.53,5.1l42.31,19.26c7.68,3.5,16.02,5.3,24.45,5.3v22.23c-11.61,0-23.09-2.49-33.67-7.3l-42.31-19.26c-4.49-2.05-9.38-3.11-14.31-3.11v-22.23Z"/>
    </g>
    <g class="cls-20">
      <path class="cls-11" d="M136.29,60.18c.71,0,1.41,0,2.12,0l86.1.18c.69,0,1.38,0,2.07,0v22.81c-.71,0-1.41,0-2.12,0l-86.1-.18c-.69,0-1.38,0-2.07,0v-22.81Z"/>
    </g>
    <g class="cls-20">
      <path class="cls-17" d="M318.86,60.18c.59,0,1.19,0,1.78,0l86.77.15c.58,0,1.16,0,1.74,0v25.32c-.59,0-1.19,0-1.78,0l-86.77-.15c-.58,0-1.16,0-1.74,0v-25.32Z"/>
    </g>
    <g class="cls-20">
      <path class="cls-8" d="M136.29,226.82c-2.76,0-5-2.24-5-5,0-.01,0-.03,0-.04l-1-54.46c-.14-2.76,1.99-5.1,4.75-5.24.08,0,.17,0,.25,0v-26.48c-17.38,0-31.48,14.09-31.48,31.48,0,.08,0,.16,0,.25l1,54.46c-.02,17.38,14.05,31.5,31.44,31.52.01,0,.03,0,.04,0v-26.48Z"/>
    </g>
    <g class="cls-20">
      <path class="cls-8" d="M135.29,226.82h92.29v26.48h-92.29v-26.48Z"/>
    </g>
    <g class="cls-20">
      <path class="cls-8" d="M226.58,226.82h92.29v26.48h-92.29v-26.48Z"/>
    </g>
    <g class="cls-20">
      <path class="cls-8" d="M317.86,226.82h92.29v26.48h-92.29v-26.48Z"/>
    </g>
    <g class="cls-20">
      <path class="cls-8" d="M409.15,226.82h92.29v26.48h-92.29v-26.48Z"/>
    </g>
    <g class="cls-20">
      <path class="cls-19" d="M410.15,89.35c14.83,0,29.34,4.32,41.75,12.44l31.51,20.6c5.06,3.31,10.98,5.07,17.03,5.07v26.57c-11.21,0-22.19-3.27-31.57-9.41l-31.51-20.6c-8.09-5.29-17.54-8.11-27.2-8.11v-26.57Z"/>
    </g>
    <g class="cls-20">
      <path class="cls-14" d="M592.72,60.18h90.29v27.19h-90.29v-27.19Z"/>
    </g>
    <g class="cls-20">
      <path class="cls-19" d="M410.15,60.18c5.74,0,11.47.12,17.2.35l57.09,2.36c5.33.22,10.66.33,16,.33v29.17c-5.74,0-11.47-.12-17.2-.35l-57.09-2.36c-5.33-.22-10.66-.33-16-.33v-29.17Z"/>
    </g>
    <g class="cls-20">
      <path class="cls-11" d="M45.01,0c13.53,0,26.45,5.6,35.7,15.48l33.17,35.42c5.55,5.92,13.3,9.29,21.42,9.29v29.67c-16.32,0-31.92-6.76-43.07-18.68l-33.17-35.42c-3.64-3.88-8.72-6.09-14.04-6.09V0Z"/>
    </g>
    <g class="cls-20">
      <path class="cls-3" d="M318.86,120.56c3.81,0,7.57-.87,10.99-2.53l55.05-26.79c7.55-3.68,15.84-5.59,24.24-5.59v30.27c-3.81,0-7.57.87-10.99,2.53l-55.05,26.79c-7.55,3.68-15.84,5.59-24.24,5.59v-30.27Z"/>
    </g>
  </g>
  <g>
    <g>
      <line class="cls-2" x1="44.01" y1="0" x2="44.01" y2="29.67"/>
      <rect class="cls-1" x="44.01" y="0" width="1" height="29.67"/>
      <text class="cls-6" transform="translate(0 19.04)"><tspan x="0" y="0">Imports</tspan></text>
    </g>
    <g>
      <line class="cls-2" x1="44.01" y1="60.18" x2="44.01" y2="82.41"/>
      <rect class="cls-1" x="44.01" y="60.18" width="1" height="22.23"/>
      <text class="cls-6" transform="translate(14 75.5)"><tspan x="0" y="0">Mine</tspan></text>
    </g>
    <g>
      <line class="cls-2" x1="44.01" y1="277.24" x2="44.01" y2="289.46"/>
      <rect class="cls-1" x="44.01" y="277.24" width="1" height="12.21"/>
      <text class="cls-6" transform="translate(16.67 287.55)"><tspan x="0" y="0">1 Mt</tspan></text>
    </g>
    <g>
      <line class="cls-2" x1="135.29" y1="14.74" x2="135.29" y2="15.74"/>
      <rect class="cls-1" x="135.29" y="14.74" width="1" height="1"/>
      <text class="cls-6" transform="translate(91.29 19.03)"><tspan x="0" y="0">Imports</tspan></text>
    </g>
    <g>
      <line class="cls-2" x1="135.29" y1="55.18" x2="135.29" y2="112.08"/>
      <rect class="cls-1" x="135.29" y="60.18" width="1" height="51.9"/>
      <text class="cls-6" transform="translate(131.29 54.38)"><tspan x="0" y="0">Iron ore</tspan></text>
    </g>
    <g>
      <line class="cls-2" x1="135.29" y1="130.6" x2="135.29" y2="162.07"/>
      <rect class="cls-1" x="135.29" y="135.6" width="1" height="26.48"/>
      <text class="cls-6" transform="translate(131.29 129.8)"><tspan x="0" y="0">Scrap steel</tspan></text>
    </g>
    <rect class="cls-1" x="135.29" y="226.82" width="1" height="26.48"/>
    <g>
      <line class="cls-2" x1="135.29" y1="277.24" x2="135.29" y2="289.46"/>
      <rect class="cls-1" x="135.29" y="277.24" width="1" height="12.21"/>
    </g>
    <g>
      <line class="cls-2" x1="226.58" y1="55.18" x2="226.58" y2="83.17"/>
      <rect class="cls-1" x="226.58" y="60.18" width="1" height="22.99"/>
      <text class="cls-6" transform="translate(222.58 54.38)"><tspan x="0" y="0">Pig iron</tspan></text>
    </g>
    <g>
      <line class="cls-2" x1="226.58" y1="99.82" x2="226.58" y2="112.09"/>
      <rect class="cls-1" x="226.58" y="99.82" width="1" height="12.28"/>
      <text class="cls-6" transform="translate(231.58 110.15)"><tspan x="0" y="0">Direct reduced iron</tspan></text>
    </g>
    <rect class="cls-1" x="226.58" y="128.74" width="1" height="8.1"/>
    <rect class="cls-1" x="226.58" y="153.48" width="1" height="15.47"/>
    <rect class="cls-1" x="226.58" y="205.96" width="1" height="2.91"/>
    <rect class="cls-1" x="226.58" y="226.82" width="1" height="26.48"/>
    <g>
      <line class="cls-2" x1="226.58" y1="274.94" x2="226.58" y2="291.76"/>
      <rect class="cls-1" x="226.58" y="274.94" width="1" height="16.82"/>
      <text class="cls-6" transform="translate(231.58 287.55)"><tspan x="0" y="0">Exports</tspan></text>
    </g>
    <g>
      <line class="cls-2" x1="317.86" y1="14.76" x2="317.86" y2="15.76"/>
      <rect class="cls-1" x="317.86" y="14.76" width="1" height="1"/>
      <text class="cls-6" transform="translate(273.86 19.04)"><tspan x="0" y="0">Imports</tspan></text>
    </g>
    <g>
      <line class="cls-2" x1="317.86" y1="60.18" x2="317.86" y2="87.17"/>
      <rect class="cls-1" x="317.86" y="60.18" width="1" height="26.99"/>
      <text class="cls-6" transform="translate(322.86 77.88)"><tspan x="0" y="0">BOF steel</tspan></text>
    </g>
    <g>
      <line class="cls-2" x1="317.86" y1="120.56" x2="317.86" y2="152.2"/>
      <rect class="cls-1" x="317.86" y="120.56" width="1" height="31.63"/>
      <text class="cls-6" transform="translate(322.86 140.58)"><tspan x="0" y="0">EAF steel</tspan></text>
    </g>
    <rect class="cls-1" x="317.86" y="202.49" width="1" height="3.12"/>
    <rect class="cls-1" x="317.86" y="226.82" width="1" height="26.48"/>
    <g>
      <line class="cls-2" x1="409.15" y1="11.55" x2="409.15" y2="18.12"/>
      <rect class="cls-1" x="409.15" y="11.55" width="1" height="6.57"/>
      <text class="cls-6" transform="translate(365.14 19.04)"><tspan x="0" y="0">Imports</tspan></text>
    </g>
    <g>
      <line class="cls-2" x1="409.15" y1="55.18" x2="409.15" y2="115.93"/>
      <rect class="cls-1" x="409.15" y="60.18" width="1" height="55.75"/>
      <text class="cls-6" transform="translate(405.15 54.38)"><tspan x="0" y="0">Ingots and semis</tspan></text>
    </g>
    <g>
      <line class="cls-2" x1="409.15" y1="204.34" x2="409.15" y2="210.5"/>
      <rect class="cls-1" x="409.15" y="204.34" width="1" height="6.16"/>
      <text class="cls-6" transform="translate(414.15 211.62)"><tspan x="0" y="0">Loss</tspan></text>
    </g>
    <rect class="cls-1" x="409.15" y="226.82" width="1" height="26.48"/>
    <g>
      <line class="cls-2" x1="500.44" y1="7.98" x2="500.44" y2="21.69"/>
      <rect class="cls-1" x="500.44" y="7.98" width="1" height="13.71"/>
      <text class="cls-6" transform="translate(456.43 19.04)"><tspan x="0" y="0">Imports</tspan></text>
    </g>
    <g>
      <line class="cls-2" x1="500.44" y1="60.18" x2="500.44" y2="92.4"/>
      <rect class="cls-1" x="500.44" y="60.18" width="1" height="32.21"/>
      <text class="cls-6" transform="translate(505.44 80.49)"><tspan x="0" y="0">Long products</tspan></text>
    </g>
    <g>
      <line class="cls-2" x1="500.44" y1="123.94" x2="500.44" y2="154.04"/>
      <rect class="cls-1" x="500.44" y="123.94" width="1" height="30.1"/>
      <text class="cls-6" transform="translate(505.44 143.19)"><tspan x="0" y="0">Flat products</tspan></text>
    </g>
    <rect class="cls-1" x="500.44" y="226.82" width="1" height="26.48"/>
    <g>
      <line class="cls-2" x1="591.72" y1="55.18" x2="591.72" y2="89.41"/>
      <rect class="cls-1" x="591.72" y="60.18" width="1" height="29.23"/>
      <text class="cls-6" transform="translate(587.72 54.38)"><tspan x="0" y="0">Construction</tspan></text>
    </g>
    <g>
      <line class="cls-2" x1="591.72" y1="102.99" x2="591.72" y2="117.68"/>
      <rect class="cls-1" x="591.72" y="102.99" width="1" height="14.68"/>
      <text class="cls-6" transform="translate(596.72 114.54)"><tspan class="cls-21" x="0" y="0">T</tspan><tspan x="6.89" y="0">ransport</tspan></text>
    </g>
    <g>
      <line class="cls-2" x1="591.72" y1="131.26" x2="591.72" y2="144.04"/>
      <rect class="cls-1" x="591.72" y="131.26" width="1" height="12.78"/>
      <text class="cls-6" transform="translate(596.72 141.85)"><tspan x="0" y="0">Machinery</tspan></text>
    </g>
    <g>
      <line class="cls-2" x1="591.72" y1="157.62" x2="591.72" y2="172.01"/>
      <rect class="cls-1" x="591.72" y="157.62" width="1" height="14.38"/>
      <text class="cls-6" transform="translate(596.72 169.01)"><tspan x="0" y="0">Other goods</tspan></text>
    </g>
    <rect class="cls-1" x="591.72" y="229.16" width="1" height="21.79"/>
    <g>
      <line class="cls-2" x1="591.72" y1="283.22" x2="591.72" y2="284.22"/>
      <rect class="cls-1" x="591.72" y="283.22" width="1" height="1"/>
      <text class="cls-6" transform="translate(596.72 287.55)"><tspan x="0" y="0">Exports</tspan></text>
    </g>
    <g>
      <line class="cls-2" x1="683.01" y1="60.18" x2="683.01" y2="120.94"/>
      <rect class="cls-1" x="683.01" y="60.18" width="1" height="60.76"/>
      <text class="cls-6" transform="translate(688.01 94.76)"><tspan x="0" y="0">_</tspan></text>
    </g>
    <rect class="cls-1" x="683.01" y="232.15" width="1" height="15.8"/>
    <g>
      <line class="cls-2" x1="683.01" y1="281.18" x2="683.01" y2="285.52"/>
      <rect class="cls-1" x="683.01" y="281.18" width="1" height="4.34"/>
      <text class="cls-6" transform="translate(688.01 287.55)"><tspan x="0" y="0">Exports</tspan></text>
    </g>
  </g>
</svg>