<?xml version="1.0" encoding="UTF-8"?>
<svg id="_レイヤー_1" xmlns="http://www.w3.org/2000/svg" version="1.1" viewBox="0 0 900 350">
  <!-- Generator: Adobe Illustrator 29.2.1, SVG Export Plug-In . SVG Version: 2.1.0 Build 116)  -->
  <defs>
    <style>
      .st0, .st1, .st2, .st3 {
        fill: none;
      }

      .st4 {
        fill: #7bccc4;
      }

      .st5 {
        fill: #d1bb9e;
      }

      .st1, .st2, .st6 {
        display: none;
      }

      .st7 {
        fill: #4eb3d3;
      }

      .st8, .st9, .st10 {
        isolation: isolate;
      }

      .st8, .st10 {
        font-family: Helvetica, Helvetica;
        font-size: 12px;
      }

      .st11 {
        fill: #d9d9d9;
      }

      .st2, .st3 {
        stroke: #000;
      }

      .st12 {
        fill: #fcc5c0;
      }

      .st13 {
        fill: #0868ac;
      }

      .st14 {
        fill: #525252;
      }

      .st15 {
        fill: #fff2e1;
      }

      .st16 {
        fill: #ccebc5;
      }

      .st17 {
        fill: #a79277;
      }

      .st18 {
        fill: #e0f3db;
      }

      .st19 {
        fill: #eee;
        stroke: #bbb;
        stroke-width: .5px;
      }

      .st20 {
        fill: #2b8cbe;
      }

      .st21 {
        fill: #f0f0f0;
      }

      .st22 {
        fill: #a8ddb5;
      }

      .st23 {
        opacity: .8;
      }

      .st24 {
        fill: #ead8c0;
      }

      .st10 {
        fill: #999;
      }
    </style>
  </defs>
  <g>
    <g class="st6">
      <rect class="st19" x="211.3" y="246.7" width="21" height="56.5"/>
    </g>
    <g class="st6">
      <rect class="st19" x="302.6" y="148.6" width="21" height="38.1"/>
    </g>
    <g class="st6">
      <rect class="st19" x="302.6" y="173.3" width="21" height="45.5"/>
    </g>
    <g class="st6">
      <rect class="st19" x="302.6" y="225.8" width="21" height="32.9"/>
    </g>
    <g class="st6">
      <rect class="st19" x="302.6" y="246.7" width="21" height="56.5"/>
    </g>
    <g class="st6">
      <rect class="st19" x="393.9" y="222.3" width="21" height="33.1"/>
    </g>
    <g class="st6">
      <rect class="st19" x="393.9" y="246.7" width="21" height="56.5"/>
    </g>
    <g class="st6">
      <rect class="st19" x="485.1" y="246.7" width="21" height="56.5"/>
    </g>
    <g class="st6">
      <rect class="st19" x="576.4" y="246.7" width="21" height="56.5"/>
    </g>
    <g class="st6">
      <rect class="st19" x="667.7" y="249" width="21" height="51.8"/>
    </g>
    <g>
      <rect class="st19" x="759" y="80" width="21" height="90.8"/>
      <g class="st9">
        <text class="st10" transform="translate(759 75)"><tspan x="0" y="0">Stock</tspan></text>
      </g>
    </g>
    <g class="st6">
      <rect class="st19" x="759" y="252" width="21" height="45.8"/>
    </g>
  </g>
  <g>
    <g class="st23">
      <path class="st12" d="M131,39.8c13.5,0,26.5,5.6,35.7,15.5l33.2,35.4c5.5,5.9,13.3,9.3,21.4,9.3h0c-8.1,0-15.9-3.4-21.4-9.3l-33.2-35.4c-9.2-9.9-22.2-15.5-35.7-15.5Z"/>
    </g>
    <g class="st23">
      <path class="st12" d="M131,69.5c6.7,0,13,3.5,16.5,9.3l50.3,83.4c5,8.2,13.9,13.3,23.5,13.3h0c-9.6,0-18.5-5-23.5-13.3l-50.3-83.4c-3.5-5.8-9.7-9.3-16.5-9.3Z"/>
    </g>
    <g class="st23">
      <path class="st11" d="M131,69.5c6.7,0,13,3.5,16.5,9.3l50.3,83.4c5,8.2,13.9,13.3,23.5,13.3h0c-9.6,0-18.5-5-23.5-13.3l-50.3-83.4c-3.5-5.8-9.7-9.3-16.5-9.3Z"/>
    </g>
    <g class="st23">
      <path class="st20" d="M131,225.4c6.7,0,13.2-2.1,18.6-6l53.1-38c5.4-3.9,11.9-6,18.6-6h0c-6.7,0-13.2,2.1-18.6,6l-53.1,38c-5.4,3.9-11.9,6-18.6,6Z"/>
    </g>
    <g class="st23">
      <path class="st12" d="M131,225.4c6.7,0,13.2-2.1,18.6-6l53.1-38c5.4-3.9,11.9-6,18.6-6h0c-6.7,0-13.2,2.1-18.6,6l-53.1,38c-5.4,3.9-11.9,6-18.6,6Z"/>
    </g>
    <g class="st23">
      <path class="st7" d="M131,225.4c6.7,0,13.2-2.1,18.6-6l53.1-38c5.4-3.9,11.9-6,18.6-6h0c-6.7,0-13.2,2.1-18.6,6l-53.1,38c-5.4,3.9-11.9,6-18.6,6Z"/>
    </g>
    <g class="st23">
      <path class="st4" d="M131,225.4c6.7,0,13.2-2.1,18.6-6l53.1-38c5.4-3.9,11.9-6,18.6-6h0c-6.7,0-13.2,2.1-18.6,6l-53.1,38c-5.4,3.9-11.9,6-18.6,6Z"/>
    </g>
    <g class="st23">
      <path class="st11" d="M131,225.4c6.7,0,13.2-2.1,18.6-6l53.1-38c5.4-3.9,11.9-6,18.6-6h0c-6.7,0-13.2,2.1-18.6,6l-53.1,38c-5.4,3.9-11.9,6-18.6,6Z"/>
    </g>
    <g class="st23">
      <path class="st22" d="M131,225.4c6.7,0,13.2-2.1,18.6-6l53.1-38c5.4-3.9,11.9-6,18.6-6h0c-6.7,0-13.2,2.1-18.6,6l-53.1,38c-5.4,3.9-11.9,6-18.6,6Z"/>
    </g>
    <g class="st23">
      <path class="st14" d="M131,225.4c6.7,0,13.2-2.1,18.6-6l53.1-38c5.4-3.9,11.9-6,18.6-6h0c-6.7,0-13.2,2.1-18.6,6l-53.1,38c-5.4,3.9-11.9,6-18.6,6Z"/>
    </g>
    <g class="st23">
      <path class="st13" d="M131,225.4c6.7,0,13.2-2.1,18.6-6l53.1-38c5.4-3.9,11.9-6,18.6-6h0c-6.7,0-13.2,2.1-18.6,6l-53.1,38c-5.4,3.9-11.9,6-18.6,6Z"/>
    </g>
    <g class="st23">
      <path class="st20" d="M131,225.4c7.9,0,15.4-3.4,20.7-9.3l49-55c5.2-5.9,12.8-9.3,20.7-9.3h0c-7.9,0-15.4,3.4-20.7,9.3l-49,55c-5.2,5.9-12.8,9.3-20.7,9.3Z"/>
    </g>
    <g class="st23">
      <path class="st17" d="M131,225.4c7.9,0,15.4-3.4,20.7-9.3l49-55c5.2-5.9,12.8-9.3,20.7-9.3h0c-7.9,0-15.4,3.4-20.7,9.3l-49,55c-5.2,5.9-12.8,9.3-20.7,9.3Z"/>
    </g>
    <g class="st23">
      <path class="st7" d="M131,225.4c7.9,0,15.4-3.4,20.7-9.3l49-55c5.2-5.9,12.8-9.3,20.7-9.3h0c-7.9,0-15.4,3.4-20.7,9.3l-49,55c-5.2,5.9-12.8,9.3-20.7,9.3Z"/>
    </g>
    <g class="st23">
      <path class="st4" d="M131,225.4c7.9,0,15.4-3.4,20.7-9.3l49-55c5.2-5.9,12.8-9.3,20.7-9.3h0c-7.9,0-15.4,3.4-20.7,9.3l-49,55c-5.2,5.9-12.8,9.3-20.7,9.3Z"/>
    </g>
    <g class="st23">
      <path class="st18" d="M131,225.4c7.9,0,15.4-3.4,20.7-9.3l49-55c5.2-5.9,12.8-9.3,20.7-9.3h0c-7.9,0-15.4,3.4-20.7,9.3l-49,55c-5.2,5.9-12.8,9.3-20.7,9.3Z"/>
    </g>
    <g class="st23">
      <path class="st22" d="M131,225.4c7.9,0,15.4-3.4,20.7-9.3l49-55c5.2-5.9,12.8-9.3,20.7-9.3h0c-7.9,0-15.4,3.4-20.7,9.3l-49,55c-5.2,5.9-12.8,9.3-20.7,9.3Z"/>
    </g>
    <g class="st23">
      <path class="st16" d="M131,225.4c7.9,0,15.4-3.4,20.7-9.3l49-55c5.2-5.9,12.8-9.3,20.7-9.3h0c-7.9,0-15.4,3.4-20.7,9.3l-49,55c-5.2,5.9-12.8,9.3-20.7,9.3Z"/>
    </g>
    <g class="st23">
      <path class="st24" d="M131,225.4c7.9,0,15.4-3.4,20.7-9.3l49-55c5.2-5.9,12.8-9.3,20.7-9.3h0c-7.9,0-15.4,3.4-20.7,9.3l-49,55c-5.2,5.9-12.8,9.3-20.7,9.3Z"/>
    </g>
    <g class="st23">
      <path class="st15" d="M131,225.4c7.9,0,15.4-3.4,20.7-9.3l49-55c5.2-5.9,12.8-9.3,20.7-9.3h0c-7.9,0-15.4,3.4-20.7,9.3l-49,55c-5.2,5.9-12.8,9.3-20.7,9.3Z"/>
    </g>
    <g class="st23">
      <path class="st13" d="M131,225.4c7.9,0,15.4-3.4,20.7-9.3l49-55c5.2-5.9,12.8-9.3,20.7-9.3h0c-7.9,0-15.4,3.4-20.7,9.3l-49,55c-5.2,5.9-12.8,9.3-20.7,9.3Z"/>
    </g>
    <g class="st23">
      <path class="st11" d="M131,225.4c7.9,0,15.4-3.4,20.7-9.3l49-55c5.2-5.9,12.8-9.3,20.7-9.3h0c-7.9,0-15.4,3.4-20.7,9.3l-49,55c-5.2,5.9-12.8,9.3-20.7,9.3Z"/>
    </g>
    <g class="st23">
      <path class="st5" d="M131,225.4c7.9,0,15.4-3.4,20.7-9.3l49-55c5.2-5.9,12.8-9.3,20.7-9.3h0c-7.9,0-15.4,3.4-20.7,9.3l-49,55c-5.2,5.9-12.8,9.3-20.7,9.3Z"/>
    </g>
    <g class="st23">
      <path class="st12" d="M222.3,54.6c6.5,0,12.9,1.9,18.3,5.4l53.6,34.6c5.5,3.5,11.8,5.4,18.3,5.4h0c-6.5,0-12.8-1.9-18.3-5.4l-53.6-34.6c-5.5-3.5-11.8-5.4-18.3-5.4Z"/>
    </g>
    <g class="st23">
      <path class="st12" d="M222.3,54.8c8.6,0,16.7,4.1,21.8,11l46.7,62.9c5.1,6.9,13.2,11,21.8,11h0c-8.6,0-16.7-4.1-21.8-11l-46.7-62.9c-5.1-6.9-13.2-11-21.8-11h0Z"/>
    </g>
    <g class="st23">
      <path class="st7" d="M222.3,54.8c8.6,0,16.7,4.1,21.8,11l46.7,62.9c5.1,6.9,13.2,11,21.8,11h0c-8.6,0-16.7-4.1-21.8-11l-46.7-62.9c-5.1-6.9-13.2-11-21.8-11h0Z"/>
    </g>
    <g class="st23">
      <path class="st11" d="M222.3,135.1c6.7,0,13.3,1.5,19.3,4.3l53.2,25.1c5.6,2.6,11.6,4,17.8,4h0c-6.1,0-12.2-1.4-17.8-4l-53.2-25.1c-6-2.9-12.7-4.3-19.3-4.3h0Z"/>
    </g>
    <g class="st23">
      <path class="st14" d="M222.3,135.1c6.7,0,13.3,1.5,19.3,4.3l53.2,25.1c5.6,2.6,11.6,4,17.8,4h0c-6.1,0-12.2-1.4-17.8-4l-53.2-25.1c-6-2.9-12.7-4.3-19.3-4.3h0Z"/>
    </g>
    <g class="st23">
      <path class="st21" d="M222.3,135.1c6.7,0,13.3,1.5,19.3,4.3l53.2,25.1c5.6,2.6,11.6,4,17.8,4h0c-6.1,0-12.2-1.4-17.8-4l-53.2-25.1c-6-2.9-12.7-4.3-19.3-4.3h0Z"/>
    </g>
    <g class="st23">
      <path class="st12" d="M222.3,201.9c13.5,0,25.2,9.4,28.2,22.5l15.8,70.1c4.9,21.7,24.1,37.1,46.3,37.1h0c-22.2,0-41.5-15.4-46.3-37.1l-15.8-70.1c-3-13.2-14.7-22.5-28.2-22.5h0Z"/>
    </g>
    <g class="st23">
      <path class="st11" d="M222.3,201.9c13.5,0,25.2,9.4,28.2,22.5l15.8,70.1c4.9,21.7,24.1,37.1,46.3,37.1h0c-22.2,0-41.5-15.4-46.3-37.1l-15.8-70.1c-3-13.2-14.7-22.5-28.2-22.5h0Z"/>
    </g>
    <g class="st23">
      <path class="st11" d="M222.3,199c5.9,0,11.7,1,17.2,3l55.9,20.4c5.5,2,11.3,3,17.2,3h0c-5.9,0-11.7-1-17.2-3l-55.9-20.4c-5.5-2-11.3-3-17.2-3Z"/>
    </g>
    <g class="st23">
      <path class="st20" d="M222.3,225.4c7.9,0,15.4-3.4,20.7-9.3l49-55c5.2-5.9,12.8-9.3,20.7-9.3h0c-7.9,0-15.4,3.4-20.7,9.3l-49,55c-5.2,5.9-12.8,9.3-20.7,9.3Z"/>
    </g>
    <g class="st23">
      <path class="st17" d="M222.3,225.4c7.9,0,15.4-3.4,20.7-9.3l49-55c5.2-5.9,12.8-9.3,20.7-9.3h0c-7.9,0-15.4,3.4-20.7,9.3l-49,55c-5.2,5.9-12.8,9.3-20.7,9.3Z"/>
    </g>
    <g class="st23">
      <path class="st4" d="M222.3,225.4c7.9,0,15.4-3.4,20.7-9.3l49-55c5.2-5.9,12.8-9.3,20.7-9.3h0c-7.9,0-15.4,3.4-20.7,9.3l-49,55c-5.2,5.9-12.8,9.3-20.7,9.3Z"/>
    </g>
    <g class="st23">
      <path class="st18" d="M222.3,225.4c7.9,0,15.4-3.4,20.7-9.3l49-55c5.2-5.9,12.8-9.3,20.7-9.3h0c-7.9,0-15.4,3.4-20.7,9.3l-49,55c-5.2,5.9-12.8,9.3-20.7,9.3Z"/>
    </g>
    <g class="st23">
      <path class="st22" d="M222.3,225.4c7.9,0,15.4-3.4,20.7-9.3l49-55c5.2-5.9,12.8-9.3,20.7-9.3h0c-7.9,0-15.4,3.4-20.7,9.3l-49,55c-5.2,5.9-12.8,9.3-20.7,9.3Z"/>
    </g>
    <g class="st23">
      <path class="st16" d="M222.3,225.4c7.9,0,15.4-3.4,20.7-9.3l49-55c5.2-5.9,12.8-9.3,20.7-9.3h0c-7.9,0-15.4,3.4-20.7,9.3l-49,55c-5.2,5.9-12.8,9.3-20.7,9.3Z"/>
    </g>
    <g class="st23">
      <path class="st24" d="M222.3,225.4c7.9,0,15.4-3.4,20.7-9.3l49-55c5.2-5.9,12.8-9.3,20.7-9.3h0c-7.9,0-15.4,3.4-20.7,9.3l-49,55c-5.2,5.9-12.8,9.3-20.7,9.3Z"/>
    </g>
    <g class="st23">
      <path class="st15" d="M222.3,225.4c7.9,0,15.4-3.4,20.7-9.3l49-55c5.2-5.9,12.8-9.3,20.7-9.3h0c-7.9,0-15.4,3.4-20.7,9.3l-49,55c-5.2,5.9-12.8,9.3-20.7,9.3Z"/>
    </g>
    <g class="st23">
      <path class="st13" d="M222.3,225.4c7.9,0,15.4-3.4,20.7-9.3l49-55c5.2-5.9,12.8-9.3,20.7-9.3h0c-7.9,0-15.4,3.4-20.7,9.3l-49,55c-5.2,5.9-12.8,9.3-20.7,9.3Z"/>
    </g>
    <g class="st23">
      <path class="st11" d="M222.3,225.4c7.9,0,15.4-3.4,20.7-9.3l49-55c5.2-5.9,12.8-9.3,20.7-9.3h0c-7.9,0-15.4,3.4-20.7,9.3l-49,55c-5.2,5.9-12.8,9.3-20.7,9.3Z"/>
    </g>
    <g class="st23">
      <path class="st5" d="M222.3,225.4c7.9,0,15.4-3.4,20.7-9.3l49-55c5.2-5.9,12.8-9.3,20.7-9.3h0c-7.9,0-15.4,3.4-20.7,9.3l-49,55c-5.2,5.9-12.8,9.3-20.7,9.3Z"/>
    </g>
    <g class="st23">
      <path class="st20" d="M222.3,225.4c9.8,0,18.8-5.2,23.7-13.7l42.9-74.9c4.9-8.5,13.9-13.7,23.7-13.7h0c-9.8,0-18.8,5.2-23.7,13.7l-42.9,74.9c-4.9,8.5-13.9,13.7-23.7,13.7h0Z"/>
    </g>
    <g class="st23">
      <path class="st17" d="M222.3,225.4c9.8,0,18.8-5.2,23.7-13.7l42.9-74.9c4.9-8.5,13.9-13.7,23.7-13.7h0c-9.8,0-18.8,5.2-23.7,13.7l-42.9,74.9c-4.9,8.5-13.9,13.7-23.7,13.7h0Z"/>
    </g>
    <g class="st23">
      <path class="st7" d="M222.3,225.4c9.8,0,18.8-5.2,23.7-13.7l42.9-74.9c4.9-8.5,13.9-13.7,23.7-13.7h0c-9.8,0-18.8,5.2-23.7,13.7l-42.9,74.9c-4.9,8.5-13.9,13.7-23.7,13.7h0Z"/>
    </g>
    <g class="st23">
      <path class="st4" d="M222.3,225.4c9.8,0,18.8-5.2,23.7-13.7l42.9-74.9c4.9-8.5,13.9-13.7,23.7-13.7h0c-9.8,0-18.8,5.2-23.7,13.7l-42.9,74.9c-4.9,8.5-13.9,13.7-23.7,13.7h0Z"/>
    </g>
    <g class="st23">
      <path class="st18" d="M222.3,225.4c9.8,0,18.8-5.2,23.7-13.7l42.9-74.9c4.9-8.5,13.9-13.7,23.7-13.7h0c-9.8,0-18.8,5.2-23.7,13.7l-42.9,74.9c-4.9,8.5-13.9,13.7-23.7,13.7h0Z"/>
    </g>
    <g class="st23">
      <path class="st22" d="M222.3,225.4c9.8,0,18.8-5.2,23.7-13.7l42.9-74.9c4.9-8.5,13.9-13.7,23.7-13.7h0c-9.8,0-18.8,5.2-23.7,13.7l-42.9,74.9c-4.9,8.5-13.9,13.7-23.7,13.7h0Z"/>
    </g>
    <g class="st23">
      <path class="st16" d="M222.3,225.4c9.8,0,18.8-5.2,23.7-13.7l42.9-74.9c4.9-8.5,13.9-13.7,23.7-13.7h0c-9.8,0-18.8,5.2-23.7,13.7l-42.9,74.9c-4.9,8.5-13.9,13.7-23.7,13.7h0Z"/>
    </g>
    <g class="st23">
      <path class="st24" d="M222.3,225.4c9.8,0,18.8-5.2,23.7-13.7l42.9-74.9c4.9-8.5,13.9-13.7,23.7-13.7h0c-9.8,0-18.8,5.2-23.7,13.7l-42.9,74.9c-4.9,8.5-13.9,13.7-23.7,13.7h0Z"/>
    </g>
    <g class="st23">
      <path class="st15" d="M222.3,225.4c9.8,0,18.8-5.2,23.7-13.7l42.9-74.9c4.9-8.5,13.9-13.7,23.7-13.7h0c-9.8,0-18.8,5.2-23.7,13.7l-42.9,74.9c-4.9,8.5-13.9,13.7-23.7,13.7h0Z"/>
    </g>
    <g class="st23">
      <path class="st11" d="M222.3,225.4c9.8,0,18.8-5.2,23.7-13.7l42.9-74.9c4.9-8.5,13.9-13.7,23.7-13.7h0c-9.8,0-18.8,5.2-23.7,13.7l-42.9,74.9c-4.9,8.5-13.9,13.7-23.7,13.7h0Z"/>
    </g>
    <g class="st23">
      <path class="st5" d="M222.3,225.4c9.8,0,18.8-5.2,23.7-13.7l42.9-74.9c4.9-8.5,13.9-13.7,23.7-13.7h0c-9.8,0-18.8,5.2-23.7,13.7l-42.9,74.9c-4.9,8.5-13.9,13.7-23.7,13.7h0Z"/>
    </g>
    <g class="st23">
      <path class="st17" d="M222.3,266.7c-10.1,0-18.2-8.2-18.2-18.2h0c0-.1-1-54.6-1-54.6,0-10.1,8-18.3,18.1-18.4h.1c-10.1,0-18.2,8.2-18.2,18.2h0c0,.1,1,54.6,1,54.6,0,10.1,8,18.3,18.1,18.4h.1,0Z"/>
    </g>
    <g class="st23">
      <path class="st18" d="M222.3,266.7c-10.1,0-18.2-8.2-18.2-18.2h0c0-.1-1-54.6-1-54.6,0-10.1,8-18.3,18.1-18.4h.1c-10.1,0-18.2,8.2-18.2,18.2h0c0,.1,1,54.6,1,54.6,0,10.1,8,18.3,18.1,18.4h.1,0Z"/>
    </g>
    <g class="st23">
      <path class="st16" d="M222.3,293.1c-10.1,0-18.2-8.2-18.2-18.2h0c0-.1-1-54.6-1-54.6,0-10.1,8-18.3,18.1-18.4h.1c-10.1,0-18.2,8.2-18.2,18.2s0,0,0,.1l1,54.5c0,10.1,8,18.3,18.1,18.4h.1,0Z"/>
    </g>
    <g class="st23">
      <path class="st24" d="M222.3,293.1c-10.1,0-18.2-8.2-18.2-18.2h0c0-.1-1-54.6-1-54.6,0-10.1,8-18.3,18.1-18.4h.1c-10.1,0-18.2,8.2-18.2,18.2s0,0,0,.1l1,54.5c0,10.1,8,18.3,18.1,18.4h.1,0Z"/>
    </g>
    <g class="st23">
      <path class="st15" d="M222.3,293.1c-10.1,0-18.2-8.2-18.2-18.2h0c0-.1-1-54.6-1-54.6,0-10.1,8-18.3,18.1-18.4h.1c-10.1,0-18.2,8.2-18.2,18.2s0,0,0,.1l1,54.5c0,10.1,8,18.3,18.1,18.4h.1,0Z"/>
    </g>
    <g class="st23">
      <path class="st5" d="M222.3,293.1c-10.1,0-18.2-8.2-18.2-18.2h0c0-.1-1-54.6-1-54.6,0-10.1,8-18.3,18.1-18.4h.1c-10.1,0-18.2,8.2-18.2,18.2s0,0,0,.1l1,54.5c0,10.1,8,18.3,18.1,18.4h.1,0Z"/>
    </g>
    <g class="st23">
      <path class="st12" d="M313.6,123c18.1,0,33.4,13.4,35.8,31.3l18.7,137.6c2.4,17.9,17.7,31.3,35.8,31.3h0c-18.1,0-33.4-13.4-35.8-31.3l-18.7-137.6c-2.4-17.9-17.7-31.3-35.8-31.3h0Z"/>
    </g>
    <g class="st23">
      <path class="st13" d="M313.6,123c18.1,0,33.4,13.4,35.8,31.3l18.7,137.6c2.4,17.9,17.7,31.3,35.8,31.3h0c-18.1,0-33.4-13.4-35.8-31.3l-18.7-137.6c-2.4-17.9-17.7-31.3-35.8-31.3h0Z"/>
    </g>
    <g class="st23">
      <path class="st11" d="M313.6,122.9c6.2,0,12.3,1.5,17.8,4.4l54.7,28.8c5.5,2.9,11.6,4.4,17.8,4.4h0c-6.2,0-12.3-1.5-17.8-4.4l-54.7-28.8c-5.5-2.9-11.6-4.4-17.8-4.4Z"/>
    </g>
    <g class="st23">
      <path class="st13" d="M313.6,122.9c6.2,0,12.3,1.5,17.8,4.4l54.7,28.8c5.5,2.9,11.6,4.4,17.8,4.4h0c-6.2,0-12.3-1.5-17.8-4.4l-54.7-28.8c-5.5-2.9-11.6-4.4-17.8-4.4Z"/>
    </g>
    <g class="st23">
      <path class="st12" d="M313.6,151.9c15.7,0,29.2,11.1,32.2,26.5l22.6,115.5c3.3,17,18.2,29.2,35.5,29.2h0c-17.3,0-32.1-12.2-35.5-29.2l-22.6-115.5c-3-15.4-16.5-26.5-32.2-26.5Z"/>
    </g>
    <g class="st23">
      <path class="st7" d="M313.6,151.9c15.7,0,29.2,11.1,32.2,26.5l22.6,115.5c3.3,17,18.2,29.2,35.5,29.2h0c-17.3,0-32.1-12.2-35.5-29.2l-22.6-115.5c-3-15.4-16.5-26.5-32.2-26.5Z"/>
    </g>
    <g class="st23">
      <path class="st7" d="M313.6,151.9c9.7,0,18.9,4.3,25.1,11.7l44,52.1c5.3,6.2,13,9.8,21.1,9.8h0c-8.1,0-15.9-3.6-21.1-9.8l-44-52.1c-6.3-7.4-15.4-11.7-25.1-11.7h0Z"/>
    </g>
    <g class="st23">
      <path class="st11" d="M313.6,151.9c9.7,0,18.9,4.3,25.1,11.7l44,52.1c5.3,6.2,13,9.8,21.1,9.8h0c-8.1,0-15.9-3.6-21.1-9.8l-44-52.1c-6.3-7.4-15.4-11.7-25.1-11.7h0Z"/>
    </g>
    <g class="st23">
      <path class="st20" d="M313.6,193.3c7.5,0,14.7-3,20-8.2l50.3-49.9c5.3-5.3,12.5-8.2,20-8.2h0c-7.5,0-14.7,3-20,8.2l-50.3,49.9c-5.3,5.3-12.5,8.2-20,8.2Z"/>
    </g>
    <g class="st23">
      <path class="st12" d="M313.6,193.3c7.5,0,14.7-3,20-8.2l50.3-49.9c5.3-5.3,12.5-8.2,20-8.2h0c-7.5,0-14.7,3-20,8.2l-50.3,49.9c-5.3,5.3-12.5,8.2-20,8.2Z"/>
    </g>
    <g class="st23">
      <path class="st17" d="M313.6,193.3c7.5,0,14.7-3,20-8.2l50.3-49.9c5.3-5.3,12.5-8.2,20-8.2h0c-7.5,0-14.7,3-20,8.2l-50.3,49.9c-5.3,5.3-12.5,8.2-20,8.2Z"/>
    </g>
    <g class="st23">
      <path class="st7" d="M313.6,193.3c7.5,0,14.7-3,20-8.2l50.3-49.9c5.3-5.3,12.5-8.2,20-8.2h0c-7.5,0-14.7,3-20,8.2l-50.3,49.9c-5.3,5.3-12.5,8.2-20,8.2Z"/>
    </g>
    <g class="st23">
      <path class="st4" d="M313.6,193.3c7.5,0,14.7-3,20-8.2l50.3-49.9c5.3-5.3,12.5-8.2,20-8.2h0c-7.5,0-14.7,3-20,8.2l-50.3,49.9c-5.3,5.3-12.5,8.2-20,8.2Z"/>
    </g>
    <g class="st23">
      <path class="st18" d="M313.6,193.3c7.5,0,14.7-3,20-8.2l50.3-49.9c5.3-5.3,12.5-8.2,20-8.2h0c-7.5,0-14.7,3-20,8.2l-50.3,49.9c-5.3,5.3-12.5,8.2-20,8.2Z"/>
    </g>
    <g class="st23">
      <path class="st22" d="M313.6,193.3c7.5,0,14.7-3,20-8.2l50.3-49.9c5.3-5.3,12.5-8.2,20-8.2h0c-7.5,0-14.7,3-20,8.2l-50.3,49.9c-5.3,5.3-12.5,8.2-20,8.2Z"/>
    </g>
    <g class="st23">
      <path class="st14" d="M313.6,193.3c7.5,0,14.7-3,20-8.2l50.3-49.9c5.3-5.3,12.5-8.2,20-8.2h0c-7.5,0-14.7,3-20,8.2l-50.3,49.9c-5.3,5.3-12.5,8.2-20,8.2Z"/>
    </g>
    <g class="st23">
      <path class="st16" d="M313.6,193.3c7.5,0,14.7-3,20-8.2l50.3-49.9c5.3-5.3,12.5-8.2,20-8.2h0c-7.5,0-14.7,3-20,8.2l-50.3,49.9c-5.3,5.3-12.5,8.2-20,8.2Z"/>
    </g>
    <g class="st23">
      <path class="st24" d="M313.6,193.3c7.5,0,14.7-3,20-8.2l50.3-49.9c5.3-5.3,12.5-8.2,20-8.2h0c-7.5,0-14.7,3-20,8.2l-50.3,49.9c-5.3,5.3-12.5,8.2-20,8.2Z"/>
    </g>
    <g class="st23">
      <path class="st15" d="M313.6,193.3c7.5,0,14.7-3,20-8.2l50.3-49.9c5.3-5.3,12.5-8.2,20-8.2h0c-7.5,0-14.7,3-20,8.2l-50.3,49.9c-5.3,5.3-12.5,8.2-20,8.2Z"/>
    </g>
    <g class="st23">
      <path class="st5" d="M313.6,193.3c7.5,0,14.7-3,20-8.2l50.3-49.9c5.3-5.3,12.5-8.2,20-8.2h0c-7.5,0-14.7,3-20,8.2l-50.3,49.9c-5.3,5.3-12.5,8.2-20,8.2Z"/>
    </g>
    <g class="st23">
      <path class="st20" d="M313.6,225.4c6.1,0,12-1.3,17.5-3.9l55.2-25.6c5.5-2.6,11.5-3.9,17.5-3.9h0c-6.1,0-12,1.3-17.5,3.9l-55.2,25.6c-5.5,2.6-11.5,3.9-17.5,3.9Z"/>
    </g>
    <g class="st23">
      <path class="st12" d="M313.6,225.4c6.1,0,12-1.3,17.5-3.9l55.2-25.6c5.5-2.6,11.5-3.9,17.5-3.9h0c-6.1,0-12,1.3-17.5,3.9l-55.2,25.6c-5.5,2.6-11.5,3.9-17.5,3.9Z"/>
    </g>
    <g class="st23">
      <path class="st17" d="M313.6,225.4c6.1,0,12-1.3,17.5-3.9l55.2-25.6c5.5-2.6,11.5-3.9,17.5-3.9h0c-6.1,0-12,1.3-17.5,3.9l-55.2,25.6c-5.5,2.6-11.5,3.9-17.5,3.9Z"/>
    </g>
    <g class="st23">
      <path class="st4" d="M313.6,225.4c6.1,0,12-1.3,17.5-3.9l55.2-25.6c5.5-2.6,11.5-3.9,17.5-3.9h0c-6.1,0-12,1.3-17.5,3.9l-55.2,25.6c-5.5,2.6-11.5,3.9-17.5,3.9Z"/>
    </g>
    <g class="st23">
      <path class="st18" d="M313.6,225.4c6.1,0,12-1.3,17.5-3.9l55.2-25.6c5.5-2.6,11.5-3.9,17.5-3.9h0c-6.1,0-12,1.3-17.5,3.9l-55.2,25.6c-5.5,2.6-11.5,3.9-17.5,3.9Z"/>
    </g>
    <g class="st23">
      <path class="st22" d="M313.6,225.4c6.1,0,12-1.3,17.5-3.9l55.2-25.6c5.5-2.6,11.5-3.9,17.5-3.9h0c-6.1,0-12,1.3-17.5,3.9l-55.2,25.6c-5.5,2.6-11.5,3.9-17.5,3.9Z"/>
    </g>
    <g class="st23">
      <path class="st14" d="M313.6,225.4c6.1,0,12-1.3,17.5-3.9l55.2-25.6c5.5-2.6,11.5-3.9,17.5-3.9h0c-6.1,0-12,1.3-17.5,3.9l-55.2,25.6c-5.5,2.6-11.5,3.9-17.5,3.9Z"/>
    </g>
    <g class="st23">
      <path class="st16" d="M313.6,225.4c6.1,0,12-1.3,17.5-3.9l55.2-25.6c5.5-2.6,11.5-3.9,17.5-3.9h0c-6.1,0-12,1.3-17.5,3.9l-55.2,25.6c-5.5,2.6-11.5,3.9-17.5,3.9Z"/>
    </g>
    <g class="st23">
      <path class="st24" d="M313.6,225.4c6.1,0,12-1.3,17.5-3.9l55.2-25.6c5.5-2.6,11.5-3.9,17.5-3.9h0c-6.1,0-12,1.3-17.5,3.9l-55.2,25.6c-5.5,2.6-11.5,3.9-17.5,3.9Z"/>
    </g>
    <g class="st23">
      <path class="st15" d="M313.6,225.4c6.1,0,12-1.3,17.5-3.9l55.2-25.6c5.5-2.6,11.5-3.9,17.5-3.9h0c-6.1,0-12,1.3-17.5,3.9l-55.2,25.6c-5.5,2.6-11.5,3.9-17.5,3.9Z"/>
    </g>
    <g class="st23">
      <path class="st5" d="M313.6,225.4c6.1,0,12-1.3,17.5-3.9l55.2-25.6c5.5-2.6,11.5-3.9,17.5-3.9h0c-6.1,0-12,1.3-17.5,3.9l-55.2,25.6c-5.5,2.6-11.5,3.9-17.5,3.9Z"/>
    </g>
    <g class="st23">
      <path class="st17" d="M221.3,266.7h92.3-92.3Z"/>
    </g>
    <g class="st23">
      <path class="st18" d="M221.3,266.7h92.3-92.3Z"/>
    </g>
    <g class="st23">
      <path class="st16" d="M221.3,293.1h92.3-92.3Z"/>
    </g>
    <g class="st23">
      <path class="st24" d="M221.3,293.1h92.3-92.3Z"/>
    </g>
    <g class="st23">
      <path class="st15" d="M221.3,293.1h92.3-92.3Z"/>
    </g>
    <g class="st23">
      <path class="st5" d="M221.3,293.1h92.3-92.3Z"/>
    </g>
    <g class="st23">
      <path class="st12" d="M404.9,54.6c6.5,0,12.9,1.9,18.3,5.4l53.7,34.6c5.5,3.5,11.8,5.4,18.3,5.4h0c-6.5,0-12.8-1.9-18.3-5.4l-53.7-34.6c-5.5-3.5-11.8-5.4-18.3-5.4Z"/>
    </g>
    <g class="st23">
      <path class="st17" d="M404.9,100h1.8l86.8.2h1.8-1.8l-86.8-.2h-1.8Z"/>
    </g>
    <g class="st23">
      <path class="st7" d="M404.9,100h1.8l86.8.2h1.8-1.8l-86.8-.2h-1.8Z"/>
    </g>
    <g class="st23">
      <path class="st18" d="M404.9,100h1.8l86.8.2h1.8-1.8l-86.8-.2h-1.8Z"/>
    </g>
    <g class="st23">
      <path class="st14" d="M404.9,100h1.8l86.8.2h1.8-1.8l-86.8-.2h-1.8Z"/>
    </g>
    <g class="st23">
      <path class="st16" d="M404.9,100h1.8l86.8.2h1.8-1.8l-86.8-.2h-1.8Z"/>
    </g>
    <g class="st23">
      <path class="st24" d="M404.9,100h1.8l86.8.2h1.8-1.8l-86.8-.2h-1.8Z"/>
    </g>
    <g class="st23">
      <path class="st15" d="M404.9,100h1.8l86.8.2h1.8-1.8l-86.8-.2h-1.8Z"/>
    </g>
    <g class="st23">
      <path class="st13" d="M404.9,100h1.8l86.8.2h1.8-1.8l-86.8-.2h-1.8Z"/>
    </g>
    <g class="st23">
      <path class="st11" d="M404.9,100h1.8l86.8.2h1.8-1.8l-86.8-.2h-1.8Z"/>
    </g>
    <g class="st23">
      <path class="st5" d="M404.9,100h1.8l86.8.2h1.8-1.8l-86.8-.2h-1.8Z"/>
    </g>
    <g class="st23">
      <path class="st20" d="M404.9,125.3c10.3,0,19.9,5.5,25.1,14.5l41.6,72c4.9,8.4,13.9,13.6,23.6,13.6h0c-9.7,0-18.7-5.2-23.6-13.6l-41.6-72c-5.2-8.9-14.7-14.5-25.1-14.5Z"/>
    </g>
    <g class="st23">
      <path class="st12" d="M404.9,125.3c10.3,0,19.9,5.5,25.1,14.5l41.6,72c4.9,8.4,13.9,13.6,23.6,13.6h0c-9.7,0-18.7-5.2-23.6-13.6l-41.6-72c-5.2-8.9-14.7-14.5-25.1-14.5Z"/>
    </g>
    <g class="st23">
      <path class="st11" d="M404.9,125.3c10.3,0,19.9,5.5,25.1,14.5l41.6,72c4.9,8.4,13.9,13.6,23.6,13.6h0c-9.7,0-18.7-5.2-23.6-13.6l-41.6-72c-5.2-8.9-14.7-14.5-25.1-14.5Z"/>
    </g>
    <g class="st23">
      <path class="st12" d="M404.9,190.7c6.1,0,12.1,1.4,17.6,4l55.1,26.7c5.5,2.7,11.5,4,17.6,4h0c-6.1,0-12.1-1.4-17.6-4l-55.1-26.7c-5.5-2.7-11.5-4-17.6-4Z"/>
    </g>
    <g class="st23">
      <path class="st4" d="M404.9,190.7c6.1,0,12.1,1.4,17.6,4l55.1,26.7c5.5,2.7,11.5,4,17.6,4h0c-6.1,0-12.1-1.4-17.6-4l-55.1-26.7c-5.5-2.7-11.5-4-17.6-4Z"/>
    </g>
    <g class="st23">
      <path class="st11" d="M404.9,190.7c6.1,0,12.1,1.4,17.6,4l55.1,26.7c5.5,2.7,11.5,4,17.6,4h0c-6.1,0-12.1-1.4-17.6-4l-55.1-26.7c-5.5-2.7-11.5-4-17.6-4Z"/>
    </g>
    <g class="st23">
      <path class="st12" d="M404.9,252.2c5.5,0,11.1,0,16.6-.2l57.1-1.4c5.5-.1,11.1-.2,16.6-.2h0c-5.5,0-11.1,0-16.6.2l-57.1,1.4c-5.5.1-11.1.2-16.6.2Z"/>
    </g>
    <g class="st23">
      <path class="st21" d="M404.9,252.2c5.5,0,11.1,0,16.6-.2l57.1-1.4c5.5-.1,11.1-.2,16.6-.2h0c-5.5,0-11.1,0-16.6.2l-57.1,1.4c-5.5.1-11.1.2-16.6.2Z"/>
    </g>
    <g class="st23">
      <path class="st17" d="M312.6,266.7h92.3-92.3Z"/>
    </g>
    <g class="st23">
      <path class="st18" d="M312.6,266.7h92.3-92.3Z"/>
    </g>
    <g class="st23">
      <path class="st16" d="M312.6,293.1h92.3-92.3Z"/>
    </g>
    <g class="st23">
      <path class="st24" d="M312.6,293.1h92.3-92.3Z"/>
    </g>
    <g class="st23">
      <path class="st15" d="M312.6,293.1h92.3-92.3Z"/>
    </g>
    <g class="st23">
      <path class="st5" d="M312.6,293.1h92.3-92.3Z"/>
    </g>
    <g class="st23">
      <path class="st12" d="M496.1,51.4c7,0,13.8,2.2,19.5,6.2l52.2,36.6c5.5,3.8,12,5.9,18.6,5.9h0c-6.7,0-13.2-2.1-18.6-5.9l-52.2-36.6c-5.7-4-12.5-6.2-19.5-6.2h0Z"/>
    </g>
    <g class="st23">
      <path class="st12" d="M496.1,54.4c11.1,0,21.2,6.2,26.2,16.1l39.5,78.1c4.7,9.3,14.2,15.1,24.6,15.1h0c-10.4,0-19.9-5.9-24.6-15.1l-39.5-78.1c-5-9.9-15.1-16.1-26.2-16.1h0Z"/>
    </g>
    <g class="st23">
      <path class="st12" d="M496.1,155.8c15.1,0,28.2,10.4,31.6,25.1l27.1,117.2c3.4,14.7,16.5,25.1,31.6,25.1h0c-15.1,0-28.2-10.4-31.6-25.1l-27.1-117.2c-3.4-14.7-16.5-25.1-31.6-25.1Z"/>
    </g>
    <g class="st23">
      <path class="st22" d="M496.1,155.8c15.1,0,28.2,10.4,31.6,25.1l27.1,117.2c3.4,14.7,16.5,25.1,31.6,25.1h0c-15.1,0-28.2-10.4-31.6-25.1l-27.1-117.2c-3.4-14.7-16.5-25.1-31.6-25.1Z"/>
    </g>
    <g class="st23">
      <path class="st11" d="M496.1,155.8c1.7,0,3.3,0,4.9.2l70,7c5.1.5,10.2.8,15.3.8h0c-5.1,0-10.2-.3-15.3-.8l-70-7c-1.6-.2-3.3-.2-4.9-.2Z"/>
    </g>
    <g class="st23">
      <path class="st22" d="M496.1,155.8c1.7,0,3.3,0,4.9.2l70,7c5.1.5,10.2.8,15.3.8h0c-5.1,0-10.2-.3-15.3-.8l-70-7c-1.6-.2-3.3-.2-4.9-.2Z"/>
    </g>
    <g class="st23">
      <path class="st21" d="M496.1,155.8c1.7,0,3.3,0,4.9.2l70,7c5.1.5,10.2.8,15.3.8h0c-5.1,0-10.2-.3-15.3-.8l-70-7c-1.6-.2-3.3-.2-4.9-.2Z"/>
    </g>
    <g class="st23">
      <path class="st20" d="M496.1,225.4c9.1,0,17.7-4.6,22.7-12.3l44.9-68.7c5-7.7,13.5-12.3,22.7-12.3h0c-9.1,0-17.7,4.6-22.7,12.3l-44.9,68.7c-5,7.7-13.5,12.3-22.7,12.3h0Z"/>
    </g>
    <g class="st23">
      <path class="st17" d="M496.1,225.4c9.1,0,17.7-4.6,22.7-12.3l44.9-68.7c5-7.7,13.5-12.3,22.7-12.3h0c-9.1,0-17.7,4.6-22.7,12.3l-44.9,68.7c-5,7.7-13.5,12.3-22.7,12.3h0Z"/>
    </g>
    <g class="st23">
      <path class="st7" d="M496.1,225.4c9.1,0,17.7-4.6,22.7-12.3l44.9-68.7c5-7.7,13.5-12.3,22.7-12.3h0c-9.1,0-17.7,4.6-22.7,12.3l-44.9,68.7c-5,7.7-13.5,12.3-22.7,12.3h0Z"/>
    </g>
    <g class="st23">
      <path class="st4" d="M496.1,225.4c9.1,0,17.7-4.6,22.7-12.3l44.9-68.7c5-7.7,13.5-12.3,22.7-12.3h0c-9.1,0-17.7,4.6-22.7,12.3l-44.9,68.7c-5,7.7-13.5,12.3-22.7,12.3h0Z"/>
    </g>
    <g class="st23">
      <path class="st18" d="M496.1,225.4c9.1,0,17.7-4.6,22.7-12.3l44.9-68.7c5-7.7,13.5-12.3,22.7-12.3h0c-9.1,0-17.7,4.6-22.7,12.3l-44.9,68.7c-5,7.7-13.5,12.3-22.7,12.3h0Z"/>
    </g>
    <g class="st23">
      <path class="st14" d="M496.1,225.4c9.1,0,17.7-4.6,22.7-12.3l44.9-68.7c5-7.7,13.5-12.3,22.7-12.3h0c-9.1,0-17.7,4.6-22.7,12.3l-44.9,68.7c-5,7.7-13.5,12.3-22.7,12.3h0Z"/>
    </g>
    <g class="st23">
      <path class="st24" d="M496.1,225.4c9.1,0,17.7-4.6,22.7-12.3l44.9-68.7c5-7.7,13.5-12.3,22.7-12.3h0c-9.1,0-17.7,4.6-22.7,12.3l-44.9,68.7c-5,7.7-13.5,12.3-22.7,12.3h0Z"/>
    </g>
    <g class="st23">
      <path class="st15" d="M496.1,225.4c9.1,0,17.7-4.6,22.7-12.3l44.9-68.7c5-7.7,13.5-12.3,22.7-12.3h0c-9.1,0-17.7,4.6-22.7,12.3l-44.9,68.7c-5,7.7-13.5,12.3-22.7,12.3h0Z"/>
    </g>
    <g class="st23">
      <path class="st13" d="M496.1,225.4c9.1,0,17.7-4.6,22.7-12.3l44.9-68.7c5-7.7,13.5-12.3,22.7-12.3h0c-9.1,0-17.7,4.6-22.7,12.3l-44.9,68.7c-5,7.7-13.5,12.3-22.7,12.3h0Z"/>
    </g>
    <g class="st23">
      <path class="st11" d="M496.1,225.4c9.1,0,17.7-4.6,22.7-12.3l44.9-68.7c5-7.7,13.5-12.3,22.7-12.3h0c-9.1,0-17.7,4.6-22.7,12.3l-44.9,68.7c-5,7.7-13.5,12.3-22.7,12.3h0Z"/>
    </g>
    <g class="st23">
      <path class="st5" d="M496.1,225.4c9.1,0,17.7-4.6,22.7-12.3l44.9-68.7c5-7.7,13.5-12.3,22.7-12.3h0c-9.1,0-17.7,4.6-22.7,12.3l-44.9,68.7c-5,7.7-13.5,12.3-22.7,12.3h0Z"/>
    </g>
    <g class="st23">
      <path class="st20" d="M496.1,225.4c6,0,11.9-1.2,17.4-3.6l55.4-24.2c5.5-2.4,11.4-3.6,17.4-3.6h0c-6,0-11.9,1.2-17.4,3.6l-55.4,24.2c-5.5,2.4-11.4,3.6-17.4,3.6Z"/>
    </g>
    <g class="st23">
      <path class="st17" d="M496.1,225.4c6,0,11.9-1.2,17.4-3.6l55.4-24.2c5.5-2.4,11.4-3.6,17.4-3.6h0c-6,0-11.9,1.2-17.4,3.6l-55.4,24.2c-5.5,2.4-11.4,3.6-17.4,3.6Z"/>
    </g>
    <g class="st23">
      <path class="st7" d="M496.1,225.4c6,0,11.9-1.2,17.4-3.6l55.4-24.2c5.5-2.4,11.4-3.6,17.4-3.6h0c-6,0-11.9,1.2-17.4,3.6l-55.4,24.2c-5.5,2.4-11.4,3.6-17.4,3.6Z"/>
    </g>
    <g class="st23">
      <path class="st4" d="M496.1,225.4c6,0,11.9-1.2,17.4-3.6l55.4-24.2c5.5-2.4,11.4-3.6,17.4-3.6h0c-6,0-11.9,1.2-17.4,3.6l-55.4,24.2c-5.5,2.4-11.4,3.6-17.4,3.6Z"/>
    </g>
    <g class="st23">
      <path class="st14" d="M496.1,225.4c6,0,11.9-1.2,17.4-3.6l55.4-24.2c5.5-2.4,11.4-3.6,17.4-3.6h0c-6,0-11.9,1.2-17.4,3.6l-55.4,24.2c-5.5,2.4-11.4,3.6-17.4,3.6Z"/>
    </g>
    <g class="st23">
      <path class="st16" d="M496.1,225.4c6,0,11.9-1.2,17.4-3.6l55.4-24.2c5.5-2.4,11.4-3.6,17.4-3.6h0c-6,0-11.9,1.2-17.4,3.6l-55.4,24.2c-5.5,2.4-11.4,3.6-17.4,3.6Z"/>
    </g>
    <g class="st23">
      <path class="st24" d="M496.1,225.4c6,0,11.9-1.2,17.4-3.6l55.4-24.2c5.5-2.4,11.4-3.6,17.4-3.6h0c-6,0-11.9,1.2-17.4,3.6l-55.4,24.2c-5.5,2.4-11.4,3.6-17.4,3.6Z"/>
    </g>
    <g class="st23">
      <path class="st15" d="M496.1,225.4c6,0,11.9-1.2,17.4-3.6l55.4-24.2c5.5-2.4,11.4-3.6,17.4-3.6h0c-6,0-11.9,1.2-17.4,3.6l-55.4,24.2c-5.5,2.4-11.4,3.6-17.4,3.6Z"/>
    </g>
    <g class="st23">
      <path class="st13" d="M496.1,225.4c6,0,11.9-1.2,17.4-3.6l55.4-24.2c5.5-2.4,11.4-3.6,17.4-3.6h0c-6,0-11.9,1.2-17.4,3.6l-55.4,24.2c-5.5,2.4-11.4,3.6-17.4,3.6Z"/>
    </g>
    <g class="st23">
      <path class="st11" d="M496.1,225.4c6,0,11.9-1.2,17.4-3.6l55.4-24.2c5.5-2.4,11.4-3.6,17.4-3.6h0c-6,0-11.9,1.2-17.4,3.6l-55.4,24.2c-5.5,2.4-11.4,3.6-17.4,3.6Z"/>
    </g>
    <g class="st23">
      <path class="st5" d="M496.1,225.4c6,0,11.9-1.2,17.4-3.6l55.4-24.2c5.5-2.4,11.4-3.6,17.4-3.6h0c-6,0-11.9,1.2-17.4,3.6l-55.4,24.2c-5.5,2.4-11.4,3.6-17.4,3.6Z"/>
    </g>
    <g class="st23">
      <path class="st17" d="M403.9,266.7h92.3-92.3Z"/>
    </g>
    <g class="st23">
      <path class="st18" d="M403.9,266.7h92.3-92.3Z"/>
    </g>
    <g class="st23">
      <path class="st16" d="M403.9,293.1h92.3-92.3Z"/>
    </g>
    <g class="st23">
      <path class="st24" d="M403.9,293.1h92.3-92.3Z"/>
    </g>
    <g class="st23">
      <path class="st15" d="M403.9,293.1h92.3-92.3Z"/>
    </g>
    <g class="st23">
      <path class="st5" d="M403.9,293.1h92.3-92.3Z"/>
    </g>
    <g class="st23">
      <path class="st12" d="M587.4,47.8c15.6,0,29.9,8.8,37,22.7l29.1,57.5c4.6,9.1,14,14.9,24.2,14.9h0c-10.2,0-19.6-5.7-24.2-14.9l-29.1-57.5c-7.1-13.9-21.3-22.7-37-22.7Z"/>
    </g>
    <g class="st23">
      <path class="st12" d="M587.4,54.1c14.2,0,27.1,8.6,32.5,21.8l31.9,77.8c4.3,10.5,14.5,17.4,25.9,17.4h0c-11.4,0-21.6-6.9-25.9-17.4l-31.9-77.8c-5.4-13.2-18.2-21.8-32.5-21.8Z"/>
    </g>
    <g class="st23">
      <path class="st12" d="M587.4,57.5c13.7,0,25.9,8.8,30.2,21.9l31.9,97.6c4,12.2,15.4,20.5,28.3,20.5h0c-12.9,0-24.3-8.3-28.3-20.5l-31.9-97.6c-4.3-13.1-16.4-21.9-30.2-21.9Z"/>
    </g>
    <g class="st23">
      <path class="st20" d="M587.4,100h90.3-90.3Z"/>
    </g>
    <g class="st23">
      <path class="st12" d="M587.4,100h90.3-90.3Z"/>
    </g>
    <g class="st23">
      <path class="st17" d="M587.4,100h90.3-90.3Z"/>
    </g>
    <g class="st23">
      <path class="st7" d="M587.4,100h90.3-90.3Z"/>
    </g>
    <g class="st23">
      <path class="st4" d="M587.4,100h90.3-90.3Z"/>
    </g>
    <g class="st23">
      <path class="st22" d="M587.4,100h90.3-90.3Z"/>
    </g>
    <g class="st23">
      <path class="st14" d="M587.4,100h90.3-90.3Z"/>
    </g>
    <g class="st23">
      <path class="st24" d="M587.4,100h90.3-90.3Z"/>
    </g>
    <g class="st23">
      <path class="st15" d="M587.4,100h90.3-90.3Z"/>
    </g>
    <g class="st23">
      <path class="st13" d="M587.4,100h90.3-90.3Z"/>
    </g>
    <g class="st23">
      <path class="st11" d="M587.4,100h90.3-90.3Z"/>
    </g>
    <g class="st23">
      <path class="st5" d="M587.4,100h90.3-90.3Z"/>
    </g>
    <g class="st23">
      <path class="st12" d="M587.4,129.5c17.5,0,32.4,12.8,35.1,30.1l20.3,133.4c2.6,17.3,17.5,30,34.9,30h0c-17.5,0-32.3-12.8-34.9-30l-20.3-133.4c-2.6-17.3-17.5-30.1-35.1-30.1Z"/>
    </g>
    <g class="st23">
      <path class="st16" d="M587.4,132.2c4.1,0,7.3,3.3,7.3,7.3h0l-1,124.3c0,4.1-3.2,7.4-7.3,7.4h0c4.1,0,7.3-3.3,7.3-7.3h0l1-124.3c0-4.1-3.2-7.4-7.3-7.4h0Z"/>
    </g>
    <g class="st23">
      <path class="st16" d="M587.4,129.5c12.9,0,24.7,7,31,18.2l35.6,63.8c4.8,8.6,13.9,13.9,23.7,13.9h0c-9.8,0-18.9-5.3-23.7-13.9l-35.6-63.8c-6.3-11.2-18.1-18.2-31-18.2Z"/>
    </g>
    <g class="st23">
      <path class="st21" d="M587.4,129.5c12.9,0,24.7,7,31,18.2l35.6,63.8c4.8,8.6,13.9,13.9,23.7,13.9h0c-9.8,0-18.9-5.3-23.7-13.9l-35.6-63.8c-6.3-11.2-18.1-18.2-31-18.2Z"/>
    </g>
    <g class="st23">
      <path class="st20" d="M587.4,163.8c5.6,0,11.2-.5,16.7-1.5l56.8-9.9c5.5-1,11.1-1.5,16.7-1.5h0c-5.6,0-11.2.5-16.7,1.5l-56.8,9.9c-5.5,1-11.1,1.5-16.7,1.5Z"/>
    </g>
    <g class="st23">
      <path class="st17" d="M587.4,163.8c5.6,0,11.2-.5,16.7-1.5l56.8-9.9c5.5-1,11.1-1.5,16.7-1.5h0c-5.6,0-11.2.5-16.7,1.5l-56.8,9.9c-5.5,1-11.1,1.5-16.7,1.5Z"/>
    </g>
    <g class="st23">
      <path class="st7" d="M587.4,163.8c5.6,0,11.2-.5,16.7-1.5l56.8-9.9c5.5-1,11.1-1.5,16.7-1.5h0c-5.6,0-11.2.5-16.7,1.5l-56.8,9.9c-5.5,1-11.1,1.5-16.7,1.5Z"/>
    </g>
    <g class="st23">
      <path class="st4" d="M587.4,163.8c5.6,0,11.2-.5,16.7-1.5l56.8-9.9c5.5-1,11.1-1.5,16.7-1.5h0c-5.6,0-11.2.5-16.7,1.5l-56.8,9.9c-5.5,1-11.1,1.5-16.7,1.5Z"/>
    </g>
    <g class="st23">
      <path class="st22" d="M587.4,163.8c5.6,0,11.2-.5,16.7-1.5l56.8-9.9c5.5-1,11.1-1.5,16.7-1.5h0c-5.6,0-11.2.5-16.7,1.5l-56.8,9.9c-5.5,1-11.1,1.5-16.7,1.5Z"/>
    </g>
    <g class="st23">
      <path class="st14" d="M587.4,163.8c5.6,0,11.2-.5,16.7-1.5l56.8-9.9c5.5-1,11.1-1.5,16.7-1.5h0c-5.6,0-11.2.5-16.7,1.5l-56.8,9.9c-5.5,1-11.1,1.5-16.7,1.5Z"/>
    </g>
    <g class="st23">
      <path class="st24" d="M587.4,163.8c5.6,0,11.2-.5,16.7-1.5l56.8-9.9c5.5-1,11.1-1.5,16.7-1.5h0c-5.6,0-11.2.5-16.7,1.5l-56.8,9.9c-5.5,1-11.1,1.5-16.7,1.5Z"/>
    </g>
    <g class="st23">
      <path class="st15" d="M587.4,163.8c5.6,0,11.2-.5,16.7-1.5l56.8-9.9c5.5-1,11.1-1.5,16.7-1.5h0c-5.6,0-11.2.5-16.7,1.5l-56.8,9.9c-5.5,1-11.1,1.5-16.7,1.5Z"/>
    </g>
    <g class="st23">
      <path class="st13" d="M587.4,163.8c5.6,0,11.2-.5,16.7-1.5l56.8-9.9c5.5-1,11.1-1.5,16.7-1.5h0c-5.6,0-11.2.5-16.7,1.5l-56.8,9.9c-5.5,1-11.1,1.5-16.7,1.5Z"/>
    </g>
    <g class="st23">
      <path class="st11" d="M587.4,163.8c5.6,0,11.2-.5,16.7-1.5l56.8-9.9c5.5-1,11.1-1.5,16.7-1.5h0c-5.6,0-11.2.5-16.7,1.5l-56.8,9.9c-5.5,1-11.1,1.5-16.7,1.5Z"/>
    </g>
    <g class="st23">
      <path class="st12" d="M587.4,191.6c12.5,0,23.6,8,27.6,19.9l28.9,87.4c4.8,14.6,18.4,24.4,33.8,24.4h0c-15.3,0-29-9.8-33.8-24.4l-28.9-87.4c-3.9-11.9-15-19.9-27.6-19.9Z"/>
    </g>
    <g class="st23">
      <path class="st18" d="M587.4,191.6c12.5,0,23.6,8,27.6,19.9l28.9,87.4c4.8,14.6,18.4,24.4,33.8,24.4h0c-15.3,0-29-9.8-33.8-24.4l-28.9-87.4c-3.9-11.9-15-19.9-27.6-19.9Z"/>
    </g>
    <g class="st23">
      <path class="st18" d="M587.4,191.6c3.4,0,6.1,2.7,6.1,6.1h0l-1,62.6c0,3.4-2.6,6.2-6,6.2h0c3.4,0,6.1-2.7,6.1-6.1h0l1-62.6c0-3.4-2.6-6.2-6-6.2h-.2Z"/>
    </g>
    <g class="st23">
      <path class="st18" d="M587.4,191.6c6.1,0,12.1,1.3,17.6,3.9l55.2,25.9c5.5,2.6,11.5,3.9,17.6,3.9h0c-6.1,0-12.1-1.3-17.6-3.9l-55.2-25.9c-5.5-2.6-11.5-3.9-17.6-3.9Z"/>
    </g>
    <g class="st23">
      <path class="st21" d="M587.4,191.6c6.1,0,12.1,1.3,17.6,3.9l55.2,25.9c5.5,2.6,11.5,3.9,17.6,3.9h0c-6.1,0-12.1-1.3-17.6-3.9l-55.2-25.9c-5.5-2.6-11.5-3.9-17.6-3.9Z"/>
    </g>
    <g class="st23">
      <path class="st20" d="M587.4,225.4c5.6,0,11.2-.5,16.8-1.5l56.8-10.5c5.5-1,11.1-1.5,16.8-1.5h0c-5.6,0-11.2.5-16.8,1.5l-56.8,10.5c-5.5,1-11.1,1.5-16.8,1.5Z"/>
    </g>
    <g class="st23">
      <path class="st17" d="M587.4,225.4c5.6,0,11.2-.5,16.8-1.5l56.8-10.5c5.5-1,11.1-1.5,16.8-1.5h0c-5.6,0-11.2.5-16.8,1.5l-56.8,10.5c-5.5,1-11.1,1.5-16.8,1.5Z"/>
    </g>
    <g class="st23">
      <path class="st7" d="M587.4,225.4c5.6,0,11.2-.5,16.8-1.5l56.8-10.5c5.5-1,11.1-1.5,16.8-1.5h0c-5.6,0-11.2.5-16.8,1.5l-56.8,10.5c-5.5,1-11.1,1.5-16.8,1.5Z"/>
    </g>
    <g class="st23">
      <path class="st4" d="M587.4,225.4c5.6,0,11.2-.5,16.8-1.5l56.8-10.5c5.5-1,11.1-1.5,16.8-1.5h0c-5.6,0-11.2.5-16.8,1.5l-56.8,10.5c-5.5,1-11.1,1.5-16.8,1.5Z"/>
    </g>
    <g class="st23">
      <path class="st22" d="M587.4,225.4c5.6,0,11.2-.5,16.8-1.5l56.8-10.5c5.5-1,11.1-1.5,16.8-1.5h0c-5.6,0-11.2.5-16.8,1.5l-56.8,10.5c-5.5,1-11.1,1.5-16.8,1.5Z"/>
    </g>
    <g class="st23">
      <path class="st14" d="M587.4,225.4c5.6,0,11.2-.5,16.8-1.5l56.8-10.5c5.5-1,11.1-1.5,16.8-1.5h0c-5.6,0-11.2.5-16.8,1.5l-56.8,10.5c-5.5,1-11.1,1.5-16.8,1.5Z"/>
    </g>
    <g class="st23">
      <path class="st24" d="M587.4,225.4c5.6,0,11.2-.5,16.8-1.5l56.8-10.5c5.5-1,11.1-1.5,16.8-1.5h0c-5.6,0-11.2.5-16.8,1.5l-56.8,10.5c-5.5,1-11.1,1.5-16.8,1.5Z"/>
    </g>
    <g class="st23">
      <path class="st13" d="M587.4,225.4c5.6,0,11.2-.5,16.8-1.5l56.8-10.5c5.5-1,11.1-1.5,16.8-1.5h0c-5.6,0-11.2.5-16.8,1.5l-56.8,10.5c-5.5,1-11.1,1.5-16.8,1.5Z"/>
    </g>
    <g class="st23">
      <path class="st11" d="M587.4,225.4c5.6,0,11.2-.5,16.8-1.5l56.8-10.5c5.5-1,11.1-1.5,16.8-1.5h0c-5.6,0-11.2.5-16.8,1.5l-56.8,10.5c-5.5,1-11.1,1.5-16.8,1.5Z"/>
    </g>
    <g class="st23">
      <path class="st5" d="M587.4,225.4c5.6,0,11.2-.5,16.8-1.5l56.8-10.5c5.5-1,11.1-1.5,16.8-1.5h0c-5.6,0-11.2.5-16.8,1.5l-56.8,10.5c-5.5,1-11.1,1.5-16.8,1.5Z"/>
    </g>
    <g class="st23">
      <path class="st20" d="M587.4,225.4c6.3,0,12.6-1.7,18-4.9l54.2-31.8c5.5-3.2,11.7-4.9,18-4.9h0c-6.3,0-12.6,1.7-18,4.9l-54.2,31.8c-5.5,3.2-11.7,4.9-18,4.9Z"/>
    </g>
    <g class="st23">
      <path class="st17" d="M587.4,225.4c6.3,0,12.6-1.7,18-4.9l54.2-31.8c5.5-3.2,11.7-4.9,18-4.9h0c-6.3,0-12.6,1.7-18,4.9l-54.2,31.8c-5.5,3.2-11.7,4.9-18,4.9Z"/>
    </g>
    <g class="st23">
      <path class="st7" d="M587.4,225.4c6.3,0,12.6-1.7,18-4.9l54.2-31.8c5.5-3.2,11.7-4.9,18-4.9h0c-6.3,0-12.6,1.7-18,4.9l-54.2,31.8c-5.5,3.2-11.7,4.9-18,4.9Z"/>
    </g>
    <g class="st23">
      <path class="st4" d="M587.4,225.4c6.3,0,12.6-1.7,18-4.9l54.2-31.8c5.5-3.2,11.7-4.9,18-4.9h0c-6.3,0-12.6,1.7-18,4.9l-54.2,31.8c-5.5,3.2-11.7,4.9-18,4.9Z"/>
    </g>
    <g class="st23">
      <path class="st22" d="M587.4,225.4c6.3,0,12.6-1.7,18-4.9l54.2-31.8c5.5-3.2,11.7-4.9,18-4.9h0c-6.3,0-12.6,1.7-18,4.9l-54.2,31.8c-5.5,3.2-11.7,4.9-18,4.9Z"/>
    </g>
    <g class="st23">
      <path class="st14" d="M587.4,225.4c6.3,0,12.6-1.7,18-4.9l54.2-31.8c5.5-3.2,11.7-4.9,18-4.9h0c-6.3,0-12.6,1.7-18,4.9l-54.2,31.8c-5.5,3.2-11.7,4.9-18,4.9Z"/>
    </g>
    <g class="st23">
      <path class="st15" d="M587.4,225.4c6.3,0,12.6-1.7,18-4.9l54.2-31.8c5.5-3.2,11.7-4.9,18-4.9h0c-6.3,0-12.6,1.7-18,4.9l-54.2,31.8c-5.5,3.2-11.7,4.9-18,4.9Z"/>
    </g>
    <g class="st23">
      <path class="st13" d="M587.4,225.4c6.3,0,12.6-1.7,18-4.9l54.2-31.8c5.5-3.2,11.7-4.9,18-4.9h0c-6.3,0-12.6,1.7-18,4.9l-54.2,31.8c-5.5,3.2-11.7,4.9-18,4.9Z"/>
    </g>
    <g class="st23">
      <path class="st11" d="M587.4,225.4c6.3,0,12.6-1.7,18-4.9l54.2-31.8c5.5-3.2,11.7-4.9,18-4.9h0c-6.3,0-12.6,1.7-18,4.9l-54.2,31.8c-5.5,3.2-11.7,4.9-18,4.9Z"/>
    </g>
    <g class="st23">
      <path class="st5" d="M587.4,225.4c6.3,0,12.6-1.7,18-4.9l54.2-31.8c5.5-3.2,11.7-4.9,18-4.9h0c-6.3,0-12.6,1.7-18,4.9l-54.2,31.8c-5.5,3.2-11.7,4.9-18,4.9Z"/>
    </g>
    <g class="st23">
      <path class="st17" d="M495.1,266.7h92.3-92.3Z"/>
    </g>
    <g class="st23">
      <path class="st18" d="M495.1,266.7h92.3-92.3Z"/>
    </g>
    <g class="st23">
      <path class="st16" d="M495.1,293.1h92.3-92.3Z"/>
    </g>
    <g class="st23">
      <path class="st24" d="M495.1,293.1h92.3-92.3Z"/>
    </g>
    <g class="st23">
      <path class="st15" d="M495.1,293.1h92.3-92.3Z"/>
    </g>
    <g class="st23">
      <path class="st5" d="M495.1,293.1h92.3-92.3Z"/>
    </g>
    <g class="st23">
      <path class="st17" d="M678.7,127.2c4.4,0,8,3.6,8,8s0,0,0,0l-1,129.6c0,4.4-3.5,8-7.9,8.1h0c4.4,0,8-3.6,8-8s0,0,0,0l1-129.6c0-4.4-3.5-8-7.9-8.1h-.2Z"/>
    </g>
    <g class="st23">
      <path class="st12" d="M678.7,127.2c11.1,0,22-2.2,32.2-6.6l38.8-16.6c6.1-2.6,12.7-4,19.3-4h0c-6.6,0-13.2,1.3-19.3,4l-38.8,16.6c-10.2,4.4-21.1,6.6-32.2,6.6Z"/>
    </g>
    <g class="st23">
      <path class="st17" d="M678.7,127.2c11.1,0,22-2.2,32.2-6.6l38.8-16.6c6.1-2.6,12.7-4,19.3-4h0c-6.6,0-13.2,1.3-19.3,4l-38.8,16.6c-10.2,4.4-21.1,6.6-32.2,6.6Z"/>
    </g>
    <g class="st23">
      <path class="st21" d="M678.7,127.2c11.1,0,22-2.2,32.2-6.6l38.8-16.6c6.1-2.6,12.7-4,19.3-4h0c-6.6,0-13.2,1.3-19.3,4l-38.8,16.6c-10.2,4.4-21.1,6.6-32.2,6.6Z"/>
    </g>
    <g class="st23">
      <path class="st12" d="M678.7,152.7c16.2,0,30.1,11.3,33.5,27.1l25,115.6c3.2,15,16.5,25.6,31.8,25.6h0c-15.3,0-28.5-10.7-31.8-25.6l-25-115.6c-3.4-15.8-17.4-27.1-33.5-27.1h0Z"/>
    </g>
    <g class="st23">
      <path class="st5" d="M678.7,157.5c3.8,0,7,3.1,7,7h0l-1,101.3c0,3.8-3.1,7-6.9,7h0c3.8,0,7-3.1,7-7h0l1-101.3c0-3.8-3.1-7-6.9-7h-.2Z"/>
    </g>
    <g class="st23">
      <path class="st21" d="M678.7,152.7c12.8,0,25.2-4.8,34.7-13.4l34.7-31.3c5.7-5.2,13.1-8,20.8-8h0c-7.7,0-15.1,2.9-20.8,8l-34.7,31.3c-9.5,8.6-21.9,13.4-34.7,13.4Z"/>
    </g>
    <g class="st23">
      <path class="st5" d="M678.7,152.7c12.8,0,25.2-4.8,34.7-13.4l34.7-31.3c5.7-5.2,13.1-8,20.8-8h0c-7.7,0-15.1,2.9-20.8,8l-34.7,31.3c-9.5,8.6-21.9,13.4-34.7,13.4Z"/>
    </g>
    <g class="st23">
      <path class="st12" d="M678.7,182.2c13.5,0,25.3,9,29,22l26.5,94.1c4.4,15.6,18.6,26.3,34.8,26.3h0c-16.2,0-30.4-10.8-34.8-26.3l-26.5-94.1c-3.7-13-15.5-22-29-22h0Z"/>
    </g>
    <g class="st23">
      <path class="st24" d="M678.7,183.9c3.5,0,6.4,2.9,6.4,6.4s0,0,0,0l-1,74.9c0,3.5-2.8,6.4-6.3,6.5h0c3.5,0,6.4-2.9,6.4-6.4h0l1-74.9c0-3.5-2.8-6.4-6.3-6.5h-.2Z"/>
    </g>
    <g class="st23">
      <path class="st21" d="M678.7,182.2c6.4,0,12.7,1.8,18.1,5.1l54,33c5.5,3.3,11.7,5.1,18.1,5.1h0c-6.4,0-12.7-1.8-18.1-5.1l-54-33c-5.5-3.3-11.7-5.1-18.1-5.1Z"/>
    </g>
    <g class="st23">
      <path class="st24" d="M678.7,182.2c6.4,0,12.7,1.8,18.1,5.1l54,33c5.5,3.3,11.7,5.1,18.1,5.1h0c-6.4,0-12.7-1.8-18.1-5.1l-54-33c-5.5-3.3-11.7-5.1-18.1-5.1Z"/>
    </g>
    <g class="st23">
      <path class="st20" d="M678.7,197.5c6.9,0,13.5-2.2,19.1-6.2l48.5-35.5c6.6-4.8,14.6-7.5,22.8-7.5h0c-8.2,0-16.2,2.6-22.8,7.5l-48.5,35.5c-5.5,4.1-12.2,6.2-19.1,6.2Z"/>
    </g>
    <g class="st23">
      <path class="st7" d="M678.7,197.5c6.9,0,13.5-2.2,19.1-6.2l48.5-35.5c6.6-4.8,14.6-7.5,22.8-7.5h0c-8.2,0-16.2,2.6-22.8,7.5l-48.5,35.5c-5.5,4.1-12.2,6.2-19.1,6.2Z"/>
    </g>
    <g class="st23">
      <path class="st4" d="M678.7,197.5c6.9,0,13.5-2.2,19.1-6.2l48.5-35.5c6.6-4.8,14.6-7.5,22.8-7.5h0c-8.2,0-16.2,2.6-22.8,7.5l-48.5,35.5c-5.5,4.1-12.2,6.2-19.1,6.2Z"/>
    </g>
    <g class="st23">
      <path class="st18" d="M678.7,197.5c6.9,0,13.5-2.2,19.1-6.2l48.5-35.5c6.6-4.8,14.6-7.5,22.8-7.5h0c-8.2,0-16.2,2.6-22.8,7.5l-48.5,35.5c-5.5,4.1-12.2,6.2-19.1,6.2Z"/>
    </g>
    <g class="st23">
      <path class="st22" d="M678.7,197.5c6.9,0,13.5-2.2,19.1-6.2l48.5-35.5c6.6-4.8,14.6-7.5,22.8-7.5h0c-8.2,0-16.2,2.6-22.8,7.5l-48.5,35.5c-5.5,4.1-12.2,6.2-19.1,6.2Z"/>
    </g>
    <g class="st23">
      <path class="st14" d="M678.7,197.5c6.9,0,13.5-2.2,19.1-6.2l48.5-35.5c6.6-4.8,14.6-7.5,22.8-7.5h0c-8.2,0-16.2,2.6-22.8,7.5l-48.5,35.5c-5.5,4.1-12.2,6.2-19.1,6.2Z"/>
    </g>
    <g class="st23">
      <path class="st16" d="M678.7,197.5c6.9,0,13.5-2.2,19.1-6.2l48.5-35.5c6.6-4.8,14.6-7.5,22.8-7.5h0c-8.2,0-16.2,2.6-22.8,7.5l-48.5,35.5c-5.5,4.1-12.2,6.2-19.1,6.2Z"/>
    </g>
    <g class="st23">
      <path class="st13" d="M678.7,197.5c6.9,0,13.5-2.2,19.1-6.2l48.5-35.5c6.6-4.8,14.6-7.5,22.8-7.5h0c-8.2,0-16.2,2.6-22.8,7.5l-48.5,35.5c-5.5,4.1-12.2,6.2-19.1,6.2Z"/>
    </g>
    <g class="st23">
      <path class="st11" d="M678.7,197.5c6.9,0,13.5-2.2,19.1-6.2l48.5-35.5c6.6-4.8,14.6-7.5,22.8-7.5h0c-8.2,0-16.2,2.6-22.8,7.5l-48.5,35.5c-5.5,4.1-12.2,6.2-19.1,6.2Z"/>
    </g>
    <g class="st23">
      <path class="st12" d="M678.7,210c11.4,0,21.7,6.9,26,17.5l30.5,74.8c5.6,13.7,18.9,22.7,33.8,22.7h0c-14.8,0-28.2-9-33.8-22.7l-30.5-74.8c-4.3-10.6-14.6-17.5-26-17.5h0Z"/>
    </g>
    <g class="st23">
      <path class="st15" d="M678.7,211.8c3.2,0,5.7,2.6,5.7,5.7s0,0,0,.1l-1,46.9c0,3.2-2.4,5.8-5.6,5.8h0c3.2,0,5.7-2.6,5.7-5.7s0,0,0-.1l1-46.9c0-3.2-2.4-5.8-5.6-5.8h-.1Z"/>
    </g>
    <g class="st23">
      <path class="st21" d="M678.7,210c5.6,0,11.3.6,16.8,1.7l56.7,11.9c5.5,1.2,11.2,1.7,16.8,1.7h0c-5.6,0-11.3-.6-16.8-1.7l-56.7-11.9c-5.5-1.2-11.2-1.7-16.8-1.7Z"/>
    </g>
    <g class="st23">
      <path class="st15" d="M678.7,210c5.6,0,11.3.6,16.8,1.7l56.7,11.9c5.5,1.2,11.2,1.7,16.8,1.7h0c-5.6,0-11.3-.6-16.8-1.7l-56.7-11.9c-5.5-1.2-11.2-1.7-16.8-1.7Z"/>
    </g>
    <g class="st23">
      <path class="st17" d="M586.4,271.3c5.9,0,11.8,0,17.7-.3l57.5-1.8c5.7-.2,11.4-.3,17.1-.3h0c-5.7,0-11.4,0-17.1.3l-57.5,1.8c-5.9.2-11.8.3-17.7.3Z"/>
    </g>
    <g class="st23">
      <path class="st24" d="M586.4,293.1c5.7,0,11.4,0,17.1-.3l57.5-1.8c5.9-.2,11.8-.3,17.7-.3h0c-5.9,0-11.8,0-17.7.3l-57.5,1.8c-5.7.2-11.4.3-17.1.3Z"/>
    </g>
    <g class="st23">
      <path class="st15" d="M586.4,293.1c5.7,0,11.4,0,17.1-.3l57.5-1.8c5.9-.2,11.8-.3,17.7-.3h0c-5.9,0-11.8,0-17.7.3l-57.5,1.8c-5.7.2-11.4.3-17.1.3Z"/>
    </g>
    <g class="st23">
      <path class="st5" d="M586.4,293.1c5.7,0,11.4,0,17.1-.3l57.5-1.8c5.9-.2,11.8-.3,17.7-.3h0c-5.9,0-11.8,0-17.7.3l-57.5,1.8c-5.7.2-11.4.3-17.1.3Z"/>
    </g>
    <g class="st23">
      <path class="st21" d="M313.6,150.9c11.7,0,22.6,6,28.8,16l38.4,61.7c5,8,13.7,12.9,23.2,12.9v2c-10.1,0-19.5-5.2-24.9-13.8l-38.4-61.7c-5.8-9.4-16-15-27.1-15v-2h0Z"/>
    </g>
    <g class="st23">
      <path class="st21" d="M313.6,121.9c15.4,0,29.2,9.5,34.7,23.8l30.3,78.3c4,10.5,14.1,17.4,25.3,17.4v2c-12,0-22.9-7.4-27.2-18.6l-30.3-78.3c-5.2-13.6-18.3-22.5-32.8-22.5v-2h0Z"/>
    </g>
    <g class="st23">
      <path class="st22" d="M404.9,53.7c6.7,0,13.2,1.9,18.8,5.5l53.7,34.6c5.3,3.4,11.5,5.2,17.8,5.2v2c-6.7,0-13.2-1.9-18.9-5.6l-53.7-34.6c-5.3-3.4-11.5-5.2-17.7-5.2v-2h0Z"/>
    </g>
    <g class="st23">
      <path class="st13" d="M222.3,53.7c6.7,0,13.2,1.9,18.8,5.6l53.6,34.6c5.3,3.4,11.5,5.2,17.8,5.2v2c-6.7,0-13.3-1.9-18.9-5.6l-53.6-34.6c-5.3-3.4-11.5-5.2-17.8-5.2v-2h.1Z"/>
    </g>
    <g class="st23">
      <path class="st16" d="M587.4,128.6c18,0,33.2,13.1,35.9,30.9l20.3,133.4c2.6,16.8,17,29.3,34.1,29.3v2c-18,0-33.4-13.2-36.1-31l-20.3-133.4c-2.6-16.8-17-29.2-34-29.2v-2h0Z"/>
    </g>
    <g class="st23">
      <path class="st24" d="M678.7,181.4c13.9,0,26,9.2,29.8,22.6l26.5,94.1c4.3,15.2,18.2,25.7,34,25.7v2c-16.7,0-31.4-11.1-35.9-27.2l-26.5-94.1c-3.5-12.5-14.9-21.1-27.9-21.1v-2h0Z"/>
    </g>
    <g class="st23">
      <path class="st15" d="M678.7,209.2c11.7,0,22.3,7.1,26.7,18l30.5,74.8c5.5,13.4,18.5,22.2,33,22.2v2c-15.3,0-29.1-9.3-34.9-23.4l-30.5-74.8c-4.1-10.1-14-16.7-24.9-16.7v-2h.1Z"/>
    </g>
    <g class="st23">
      <path class="st11" d="M678.7,155.9c4.4,0,8,3.6,8,8h0l-1,101.3c0,4.4-3.5,8-7.9,8h0v-2c3.3,0,6-2.7,6-6h0l1-101.3c0-3.3-2.6-6-5.9-6h0v-2h-.2Z"/>
    </g>
    <g class="st23">
      <path class="st11" d="M678.7,182.2c4.1,0,7.4,3.3,7.4,7.4h0l-1,74.9c0,4.1-3.2,7.4-7.3,7.5h0v-2c3,0,5.4-2.4,5.4-5.4h0l1-74.9c0-3-2.3-5.4-5.3-5.5h0v-2h-.2Z"/>
    </g>
    <g class="st23">
      <path class="st21" d="M404.9,190.4c7.1,0,14.1,2.4,19.6,6.9l52.2,41.8c5.2,4.2,11.7,6.5,18.4,6.5v2c-7.1,0-14.1-2.4-19.6-6.9l-52.2-41.8c-5.2-4.2-11.7-6.5-18.4-6.5v-2Z"/>
    </g>
    <g class="st23">
      <path class="st11" d="M678.7,210.1c3.7,0,6.7,3,6.7,6.7h0c0,.1-1,47-1,47,0,3.7-2.9,6.8-6.6,6.8h0v-2c2.6,0,4.7-2.1,4.7-4.7h0c0-.1,1-47,1-47,0-2.6-2-4.8-4.6-4.8h0v-2h-.1Z"/>
    </g>
    <g class="st23">
      <path class="st21" d="M404.9,125.2c11.4,0,21.8,6.7,26.5,17.1l39.1,85.9c4.4,9.7,14.1,15.9,24.7,15.9v2c-11.4,0-21.8-6.7-26.5-17.1l-39.1-85.9c-4.4-9.7-14.1-15.9-24.7-15.9v-2Z"/>
    </g>
    <g class="st23">
      <path class="st16" d="M587.4,119.5c6.1,0,12.1,1.2,17.7,3.5l55.6,22.7c5.4,2.2,11.1,3.3,17,3.3v2c-6.1,0-12.1-1.2-17.7-3.5l-55.6-22.7c-5.4-2.2-11.1-3.3-17-3.3v-2Z"/>
    </g>
    <g class="st23">
      <path class="st11" d="M678.7,127.2c5,0,9,4,9,9h0l-1,129.6c0,5-4,9-9,9.1h0v-2c3.8,0,7-3.1,7-7h0l1-129.6c0-3.8-3.1-7-6.9-7h0v-2h0Z"/>
    </g>
    <g class="st23">
      <path class="st11" d="M587.4,191.6c4,0,7.2,3.2,7.2,7.2h0c0,.1-1,62.7-1,62.7,0,4-3.2,7.3-7.2,7.3h0v-2.2c2.8,0,5-2.2,5-5h0c0-.1,1-62.7,1-62.7,0-2.8-2.2-5-4.9-5.1h0v-2.2h0Z"/>
    </g>
    <g class="st23">
      <path class="st11" d="M587.4,129.8c4.7,0,8.6,3.8,8.6,8.6h0l-1,124.3c0,4.7-3.8,8.6-8.5,8.6h0v-2.5c3.4,0,6.1-2.7,6.1-6.1h0l1-124.3c0-3.4-2.7-6.1-6.1-6.2h0v-2.5h0Z"/>
    </g>
    <g class="st23">
      <path class="st21" d="M222.3,199c6.8,0,13.5,2,19.2,5.8l53.5,35.7c5.2,3.5,11.3,5.3,17.6,5.3v2.9c-6.8,0-13.5-2-19.2-5.8l-53.5-35.7c-5.2-3.5-11.3-5.3-17.6-5.3v-2.9h0Z"/>
    </g>
    <g class="st23">
      <path class="st21" d="M313.6,245.8c5.5,0,11-.1,16.5-.4l57.1-2.5c5.6-.2,11.1-.4,16.7-.4v2.9c-5.5,0-11,.1-16.5.4l-57.1,2.5c-5.6.2-11.1.4-16.7.4v-2.9Z"/>
    </g>
    <g class="st23">
      <path class="st16" d="M496.1,51.4c7,0,13.8,2.2,19.5,6.2l52.2,36.6c5.5,3.8,12,5.9,18.6,5.9v3c-7.3,0-14.4-2.2-20.4-6.4l-52.2-36.6c-5.2-3.6-11.4-5.6-17.8-5.6v-3h.1Z"/>
    </g>
    <g class="st23">
      <path class="st21" d="M404.9,242.3c5.6,0,11.2.2,16.7.6l57.1,3.8c5.5.4,11,.5,16.5.5v3.1c-5.6,0-11.2-.2-16.7-.6l-57.1-3.8c-5.5-.4-11-.5-16.5-.5v-3.1Z"/>
    </g>
    <g class="st23">
      <path class="st24" d="M587.4,54.1c14.2,0,27.1,8.6,32.5,21.8l31.9,77.8c4.3,10.5,14.5,17.4,25.9,17.4v3.4c-12.7,0-24.2-7.7-29-19.5l-31.9-77.8c-4.9-11.9-16.5-19.7-29.4-19.7v-3.4h0Z"/>
    </g>
    <g class="st23">
      <path class="st18" d="M496.1,54.4c11.1,0,21.2,6.2,26.2,16.1l39.5,78.1c4.7,9.3,14.2,15.1,24.6,15.1v3.5c-11.7,0-22.5-6.6-27.8-17.1l-39.5-78.1c-4.4-8.7-13.3-14.2-23-14.2v-3.5h0Z"/>
    </g>
    <g class="st23">
      <path class="st5" d="M678.7,152.7c16.2,0,30.1,11.3,33.5,27.1l25,115.6c3.2,15,16.5,25.6,31.8,25.6v3.6c-17,0-31.7-11.9-35.3-28.5l-25-115.6c-3.1-14.1-15.6-24.2-30-24.2v-3.6Z"/>
    </g>
    <g class="st23">
      <path class="st16" d="M587.4,121.4c10.3,0,20.3,3.7,28.2,10.3l41.9,35.4c5.7,4.8,12.8,7.4,20.2,7.4v3.8c-8.3,0-16.4-2.9-22.7-8.3l-41.9-35.4c-7.2-6.1-16.3-9.4-25.7-9.4v-3.8Z"/>
    </g>
    <g class="st23">
      <path class="st13" d="M313.6,118.9c7.6,0,15.1,2.1,21.7,6l51.3,30.7c5.2,3.1,11.2,4.8,17.3,4.8v4c-6.8,0-13.5-1.8-19.4-5.3l-51.3-30.7c-5.9-3.6-12.7-5.4-19.6-5.4v-4h0Z"/>
    </g>
    <g class="st23">
      <path class="st15" d="M587.4,57.5c13.7,0,25.9,8.8,30.2,21.9l31.9,97.6c4,12.2,15.4,20.5,28.3,20.5v4c-14.6,0-27.5-9.4-32.1-23.3l-31.9-97.6c-3.7-11.4-14.4-19.1-26.4-19.1v-4Z"/>
    </g>
    <g class="st23">
      <path class="st16" d="M587.4,125.2c13.3,0,25.7,6.6,33.1,17.7l29.2,43.6c6.3,9.4,16.8,15,28,15v4.3c-12.7,0-24.6-6.3-31.6-16.9l-29.2-43.6c-6.6-9.8-17.6-15.8-29.5-15.8v-4.3h0Z"/>
    </g>
    <g class="st23">
      <path class="st18" d="M587.4,180c5.5,0,11,0,16.5-.2l57.1-1.3c5.6-.1,11.1-.2,16.7-.2v5.6c-5.5,0-11,0-16.5.2l-57.1,1.3c-5.6.1-11.1.2-16.7.2v-5.6Z"/>
    </g>
    <g class="st23">
      <path class="st18" d="M587.4,185.6c6,0,12,.8,17.8,2.4l56.4,15.6c5.3,1.5,10.7,2.2,16.1,2.2v6.1c-6,0-12-.8-17.8-2.4l-56.4-15.6c-5.3-1.5-10.7-2.2-16.1-2.2v-6.1Z"/>
    </g>
    <g class="st23">
      <path class="st12" d="M222.3,135.1c22.7,0,41.9,16.8,44.9,39.3l15,113.7c2,15.3,15,26.7,30.4,26.7v6.2c-18.5,0-34.1-13.7-36.5-32l-15-113.7c-2.6-19.4-19.1-34-38.7-34v-6.2h-.1Z"/>
    </g>
    <g class="st23">
      <path class="st5" d="M587.4,47.8c15.6,0,29.9,8.8,37,22.7l29.1,57.5c4.6,9.1,14,14.9,24.2,14.9v6.3c-12.6,0-24.1-7.1-29.8-18.3l-29.1-57.5c-6-11.8-18.1-19.2-31.3-19.2v-6.3h-.1Z"/>
    </g>
    <g class="st23">
      <path class="st18" d="M587.4,173.4c5.4,0,10.9-.8,16.1-2.4l56.2-17.4c5.8-1.8,11.9-2.7,18-2.7v6.6c-5.4,0-10.9.8-16.1,2.4l-56.2,17.4c-5.8,1.8-11.9,2.7-18,2.7v-6.6Z"/>
    </g>
    <g class="st23">
      <path class="st11" d="M222.3,175.4c5.4,0,10.9-.3,16.3-.8l57-5.3c5.7-.5,11.3-.8,17-.8v8.1c-5.4,0-10.9.3-16.3.8l-57,5.3c-5.7.5-11.3.8-17,.8v-8.1h0Z"/>
    </g>
    <g class="st23">
      <path class="st11" d="M313.6,168.6c5.8,0,11.5-1.8,16.3-5.2l52.8-37.7c6.2-4.4,13.6-6.8,21.2-6.8v8.1c-5.9,0-11.7,1.8-16.5,5.3l-52.8,37.7c-6.1,4.4-13.5,6.7-21,6.7v-8.1h0Z"/>
    </g>
    <g class="st23">
      <path class="st18" d="M587.4,163.8c5.5,0,10.9-1.6,15.6-4.5l53.9-33.7c6.2-3.9,13.4-6,20.8-6v9.7c-5.5,0-10.9,1.6-15.6,4.5l-53.9,33.7c-6.2,3.9-13.4,6-20.8,6v-9.7Z"/>
    </g>
    <g class="st23">
      <path class="st5" d="M678.7,142.8c2.8,0,5.6-.3,8.3-.8l65.1-13.1c5.6-1.1,11.2-1.7,16.9-1.7v9.9c-5,0-10,.5-14.9,1.5l-65.1,13.1c-3.4.7-6.8,1-10.2,1v-9.9h0Z"/>
    </g>
    <g class="st23">
      <path class="st14" d="M222.3,141.3c19.6,0,36.2,14.5,38.7,34l15,113.7c2.4,18.3,18,32,36.5,32v10.7c-23.8,0-44-17.7-47.1-41.3l-15-113.7c-1.9-14.1-13.9-24.7-28.2-24.7v-10.7h.1Z"/>
    </g>
    <g class="st23">
      <path class="st24" d="M678.7,171.1c5.3,0,10.6-1.2,15.3-3.5l53.5-25.6c6.7-3.2,14-4.9,21.4-4.9v11.1c-5.8,0-11.4,1.3-16.6,3.8l-53.5,25.6c-6.3,3-13.2,4.6-20.1,4.6v-11.1h0Z"/>
    </g>
    <g class="st23">
      <path class="st7" d="M313.6,139.7c6.5,0,12.9,1.1,19.1,3.2l56.1,19.1c4.9,1.7,10,2.5,15.2,2.5v12.2c-6.5,0-12.9-1.1-19.1-3.2l-56.1-19.1c-4.9-1.7-10-2.5-15.2-2.5v-12.2Z"/>
    </g>
    <g class="st23">
      <path class="st11" d="M131,317.1h90.3v12.2h-90.3v-12.2Z"/>
    </g>
    <g class="st23">
      <path class="st14" d="M222.3,122.8c6.1,0,12.2.7,18.2,2.1l56.6,13c5.1,1.2,10.3,1.8,15.5,1.8v12.3c-6.1,0-12.2-.7-18.2-2.1l-56.6-13c-5.1-1.2-10.3-1.8-15.5-1.8v-12.3h0Z"/>
    </g>
    <g class="st23">
      <path class="st15" d="M678.7,197.5c5.4,0,10.6-1.7,14.9-4.7l53.2-37.5c6.5-4.6,14.2-7,22.2-7v12.6c-5.4,0-10.6,1.7-14.9,4.7l-53.2,37.5c-6.5,4.6-14.2,7-22.2,7v-12.6Z"/>
    </g>
    <g class="st23">
      <path class="st11" d="M222.3,183.5c5.9,0,11.8.4,17.7,1.2l56.9,7.6c5.2.7,10.4,1,15.7,1v15.5c-5.9,0-11.8-.4-17.7-1.2l-56.9-7.6c-5.2-.7-10.4-1-15.7-1v-15.5Z"/>
    </g>
    <g class="st23">
      <path class="st11" d="M313.6,193.3c5.1,0,10.2-.6,15.1-1.7l56.6-12.9c6.1-1.4,12.3-2.1,18.6-2.1v15.5c-5.1,0-10.2.6-15.1,1.7l-56.6,12.9c-6.1,1.4-12.3,2.1-18.6,2.1v-15.5Z"/>
    </g>
    <g class="st23">
      <path class="st11" d="M770,100c11.5,0,20.8,9.3,20.8,20.8h0c0,0-1,146.1-1,146.1,0,11.5-9.3,20.8-20.8,20.8h0v-15.8c2.8,0,5-2.2,5-5h0c0-.1,1-146.1,1-146.1,0-2.8-2.2-5-5-5h0v-15.8h0Z"/>
    </g>
    <g class="st23">
      <path class="st11" d="M677.7,275c5.6,0,11.1-.1,16.7-.3l58.4-2.3c5.8-.2,11.5-.3,17.3-.3v15.8c-5.6,0-11.1.1-16.7.3l-58.4,2.3c-5.8.2-11.5.3-17.3.3v-15.8Z"/>
    </g>
    <g class="st23">
      <path class="st13" d="M313.6,100h90.3v18.9h-90.3v-18.9h0Z"/>
    </g>
    <g class="st23">
      <path class="st16" d="M587.4,100h90.3v19.6h-90.3v-19.6Z"/>
    </g>
    <g class="st23">
      <path class="st11" d="M586.4,271.3c5.7,0,11.4,0,17.1-.3l57.5-1.8c5.9-.2,11.8-.3,17.7-.3v21.8c-5.7,0-11.4,0-17.1.3l-57.5,1.8c-5.9.2-11.8.3-17.7.3v-21.8Z"/>
    </g>
    <g class="st23">
      <path class="st14" d="M131,100c8.1,0,16.1,1.7,23.5,5.1l42.3,19.3c7.7,3.5,16,5.3,24.5,5.3v22.2c-11.6,0-23.1-2.5-33.7-7.3l-42.3-19.3c-4.5-2-9.4-3.1-14.3-3.1v-22.2h0Z"/>
    </g>
    <g class="st23">
      <path class="st14" d="M222.3,100h2.1l86.1.2h2.1v22.8h-2.1l-86.1-.2h-2.1v-22.8h0Z"/>
    </g>
    <g class="st23">
      <path class="st20" d="M404.9,100h1.8l86.8.2h1.7v25.3h-1.8l-86.8-.2h-1.7v-25.3h0Z"/>
    </g>
    <g class="st23">
      <path class="st11" d="M222.3,266.7c-2.8,0-5-2.2-5-5h0l-1-54.5c-.1-2.8,2-5.1,4.7-5.2h.3v-26.5c-17.4,0-31.5,14.1-31.5,31.5v.2l1,54.5c0,17.4,14.1,31.5,31.4,31.5h0v-26.5h.1Z"/>
    </g>
    <g class="st23">
      <path class="st11" d="M221.3,266.7h92.3v26.5h-92.3v-26.5Z"/>
    </g>
    <g class="st23">
      <path class="st11" d="M312.6,266.7h92.3v26.5h-92.3v-26.5h0Z"/>
    </g>
    <g class="st23">
      <path class="st11" d="M403.9,266.7h92.3v26.5h-92.3v-26.5h0Z"/>
    </g>
    <g class="st23">
      <path class="st11" d="M495.1,266.7h92.3v26.5h-92.3v-26.5h0Z"/>
    </g>
    <g class="st23">
      <path class="st22" d="M496.1,129.2c14.8,0,29.3,4.3,41.7,12.4l31.5,20.6c5.1,3.3,11,5.1,17,5.1v26.6c-11.2,0-22.2-3.3-31.6-9.4l-31.5-20.6c-8.1-5.3-17.5-8.1-27.2-8.1v-26.6h.1Z"/>
    </g>
    <g class="st23">
      <path class="st17" d="M678.7,100h90.3v27.2h-90.3v-27.2Z"/>
    </g>
    <g class="st23">
      <path class="st22" d="M496.1,100c5.7,0,11.5,0,17.2.4l57.1,2.4c5.3.2,10.7.3,16,.3v29.2c-5.7,0-11.5-.1-17.2-.4l-57.1-2.4c-5.3-.2-10.7-.3-16-.3v-29.2h0Z"/>
    </g>
    <g class="st23">
      <path class="st14" d="M131,39.8c13.5,0,26.5,5.6,35.7,15.5l33.2,35.4c5.5,5.9,13.3,9.3,21.4,9.3v29.7c-16.3,0-31.9-6.8-43.1-18.7l-33.2-35.4c-3.6-3.9-8.7-6.1-14-6.1v-29.7h0Z"/>
    </g>
    <g class="st23">
      <path class="st4" d="M404.9,160.4c3.8,0,7.6-.9,11-2.5l55-26.8c7.6-3.7,15.8-5.6,24.2-5.6v30.3c-3.8,0-7.6.9-11,2.5l-55,26.8c-7.6,3.7-15.8,5.6-24.2,5.6v-30.3Z"/>
    </g>
  </g>
  <g>
    <g>
      <line class="st3" x1="130" y1="39.8" x2="130" y2="69.5"/>
      <rect class="st0" x="130" y="39.8" width="1" height="29.7"/>
      <g class="st9">
        <text class="st8" transform="translate(86 58.9)"><tspan x="0" y="0">Imports</tspan></text>
      </g>
      <rect class="st1" x="125" y="34.8" width="10" height="34.7"/>
    </g>
    <g>
      <line class="st3" x1="130" y1="100" x2="130" y2="122.2"/>
      <rect class="st0" x="130" y="100" width="1" height="22.2"/>
      <g class="st9">
        <text class="st8" transform="translate(100 115.3)"><tspan x="0" y="0">Mine</tspan></text>
      </g>
      <rect class="st1" x="125" y="95" width="10" height="27.2"/>
    </g>
    <g>
      <line class="st2" x1="130" y1="225.4" x2="130" y2="225.4"/>
      <polygon class="st0" points="130 225.4 131 225.4 131 225.4 130 225.4"/>
      <rect class="st1" x="125" y="220.4" width="10" height="5"/>
    </g>
    <g>
      <line class="st2" x1="130" y1="225.4" x2="130" y2="225.4"/>
      <polygon class="st0" points="130 225.4 131 225.4 131 225.4 130 225.4"/>
      <rect class="st1" x="125" y="220.4" width="10" height="5"/>
    </g>
    <g>
      <line class="st3" x1="130" y1="317.1" x2="130" y2="329.3"/>
      <rect class="st0" x="130" y="317.1" width="1" height="12.2"/>
      <g class="st9">
        <text class="st8" transform="translate(102.7 327.4)"><tspan x="0" y="0">1 Mt</tspan></text>
      </g>
      <rect class="st1" x="125" y="312.1" width="10" height="17.2"/>
    </g>
    <g>
      <line class="st3" x1="221.3" y1="54.6" x2="221.3" y2="55.6"/>
      <rect class="st0" x="221.3" y="54.6" width="1" height="1"/>
      <g class="st9">
        <text class="st8" transform="translate(177.3 58.9)"><tspan x="0" y="0">Imports</tspan></text>
      </g>
      <rect class="st1" x="216.3" y="49.6" width="10" height="6"/>
    </g>
    <g>
      <line class="st3" x1="221.3" y1="95" x2="221.3" y2="151.9"/>
      <rect class="st0" x="221.3" y="100" width="1" height="51.9"/>
      <g class="st9">
        <text class="st8" transform="translate(217.3 94.2)"><tspan x="0" y="0">Iron ore</tspan></text>
      </g>
      <rect class="st1" x="216.3" y="95" width="10" height="56.9"/>
    </g>
    <g>
      <line class="st3" x1="221.3" y1="170.4" x2="221.3" y2="201.9"/>
      <rect class="st0" x="221.3" y="175.4" width="1" height="26.5"/>
      <g class="st9">
        <text class="st8" transform="translate(217.3 169.6)"><tspan x="0" y="0">Scrap steel</tspan></text>
      </g>
      <rect class="st1" x="216.3" y="170.4" width="10" height="31.5"/>
    </g>
    <g>
      <line class="st2" x1="221.3" y1="225.4" x2="221.3" y2="225.4"/>
      <polygon class="st0" points="221.3 225.4 222.3 225.4 222.3 225.4 221.3 225.4"/>
      <rect class="st1" x="216.3" y="220.4" width="10" height="5"/>
    </g>
    <g>
      <line class="st2" x1="221.3" y1="225.4" x2="221.3" y2="225.4"/>
      <polygon class="st0" points="221.3 225.4 222.3 225.4 222.3 225.4 221.3 225.4"/>
      <rect class="st1" x="216.3" y="220.4" width="10" height="5"/>
    </g>
    <g>
      <line class="st2" x1="221.3" y1="261.7" x2="221.3" y2="293.1"/>
      <rect class="st0" x="221.3" y="266.7" width="1" height="26.5"/>
      <rect class="st1" x="216.3" y="261.7" width="10" height="31.5"/>
    </g>
    <g>
      <line class="st3" x1="221.3" y1="317.1" x2="221.3" y2="329.3"/>
      <rect class="st0" x="221.3" y="317.1" width="1" height="12.2"/>
      <rect class="st1" x="216.3" y="312.1" width="10" height="17.2"/>
    </g>
    <g>
      <line class="st3" x1="312.6" y1="95" x2="312.6" y2="123"/>
      <rect class="st0" x="312.6" y="100" width="1" height="23"/>
      <g class="st9">
        <text class="st8" transform="translate(308.6 94.2)"><tspan x="0" y="0">Pig iron</tspan></text>
      </g>
      <rect class="st1" x="307.6" y="95" width="10" height="28"/>
    </g>
    <g>
      <line class="st3" x1="312.6" y1="139.7" x2="312.6" y2="151.9"/>
      <rect class="st0" x="312.6" y="139.7" width="1" height="12.3"/>
      <g class="st9">
        <text class="st8" transform="translate(317.6 150)"><tspan x="0" y="0">Direct reduced iron</tspan></text>
      </g>
      <rect class="st1" x="307.6" y="134.7" width="10" height="17.3"/>
    </g>
    <g>
      <line class="st2" x1="312.6" y1="168.6" x2="312.6" y2="168.6"/>
      <polygon class="st0" points="312.6 168.6 313.6 168.6 313.6 168.6 312.6 168.6"/>
      <rect class="st1" x="307.6" y="163.6" width="10" height="5"/>
    </g>
    <g>
      <line class="st2" x1="312.6" y1="168.6" x2="312.6" y2="176.7"/>
      <rect class="st0" x="312.6" y="168.6" width="1" height="8.1"/>
      <rect class="st1" x="307.6" y="163.6" width="10" height="13.1"/>
    </g>
    <g>
      <line class="st2" x1="312.6" y1="193.3" x2="312.6" y2="193.3"/>
      <polygon class="st0" points="312.6 193.3 313.6 193.3 313.6 193.3 312.6 193.3"/>
      <rect class="st1" x="307.6" y="188.3" width="10" height="5"/>
    </g>
    <g>
      <line class="st2" x1="312.6" y1="193.3" x2="312.6" y2="208.8"/>
      <rect class="st0" x="312.6" y="193.3" width="1" height="15.5"/>
      <rect class="st1" x="307.6" y="188.3" width="10" height="20.5"/>
    </g>
    <g>
      <line class="st2" x1="312.6" y1="225.4" x2="312.6" y2="225.4"/>
      <polygon class="st0" points="312.6 225.4 313.6 225.4 313.6 225.4 312.6 225.4"/>
      <rect class="st1" x="307.6" y="220.4" width="10" height="5"/>
    </g>
    <g>
      <line class="st2" x1="312.6" y1="225.4" x2="312.6" y2="225.4"/>
      <polygon class="st0" points="312.6 225.4 313.6 225.4 313.6 225.4 312.6 225.4"/>
      <rect class="st1" x="307.6" y="220.4" width="10" height="5"/>
    </g>
    <g>
      <line class="st2" x1="312.6" y1="240.8" x2="312.6" y2="248.7"/>
      <rect class="st0" x="312.6" y="245.8" width="1" height="2.9"/>
      <rect class="st1" x="307.6" y="240.8" width="10" height="7.9"/>
    </g>
    <g>
      <line class="st2" x1="312.6" y1="261.7" x2="312.6" y2="293.1"/>
      <rect class="st0" x="312.6" y="266.7" width="1" height="26.5"/>
      <rect class="st1" x="307.6" y="261.7" width="10" height="31.5"/>
    </g>
    <g>
      <line class="st3" x1="312.6" y1="314.8" x2="312.6" y2="331.6"/>
      <rect class="st0" x="312.6" y="314.8" width="1" height="16.8"/>
      <g class="st9">
        <text class="st8" transform="translate(317.6 327.4)"><tspan x="0" y="0">Exports</tspan></text>
      </g>
      <rect class="st1" x="307.6" y="309.8" width="10" height="21.8"/>
    </g>
    <g>
      <line class="st3" x1="403.9" y1="54.6" x2="403.9" y2="55.6"/>
      <rect class="st0" x="403.9" y="54.6" width="1" height="1"/>
      <g class="st9">
        <text class="st8" transform="translate(359.8 58.9)"><tspan x="0" y="0">Imports</tspan></text>
      </g>
      <rect class="st1" x="398.9" y="49.6" width="10" height="6"/>
    </g>
    <g>
      <line class="st2" x1="403.9" y1="100" x2="403.9" y2="100"/>
      <polygon class="st0" points="403.9 100 404.9 100 404.9 100 403.9 100"/>
      <rect class="st1" x="398.9" y="95" width="10" height="5"/>
    </g>
    <g>
      <line class="st3" x1="403.9" y1="100" x2="403.9" y2="127"/>
      <rect class="st0" x="403.9" y="100" width="1" height="27"/>
      <g class="st9">
        <text class="st8" transform="translate(408.9 117.7)"><tspan x="0" y="0">BOF steel</tspan></text>
      </g>
      <rect class="st1" x="398.9" y="95" width="10" height="32"/>
    </g>
    <g>
      <line class="st2" x1="403.9" y1="160.4" x2="403.9" y2="160.4"/>
      <polygon class="st0" points="403.9 160.4 404.9 160.4 404.9 160.4 403.9 160.4"/>
      <rect class="st1" x="398.9" y="155.4" width="10" height="5"/>
    </g>
    <g>
      <line class="st3" x1="403.9" y1="160.4" x2="403.9" y2="192"/>
      <rect class="st0" x="403.9" y="160.4" width="1" height="31.6"/>
      <g class="st9">
        <text class="st8" transform="translate(408.9 180.4)"><tspan x="0" y="0">EAF steel</tspan></text>
      </g>
      <rect class="st1" x="398.9" y="155.4" width="10" height="36.6"/>
    </g>
    <g>
      <line class="st2" x1="403.9" y1="225.4" x2="403.9" y2="225.4"/>
      <polygon class="st0" points="403.9 225.4 404.9 225.4 404.9 225.4 403.9 225.4"/>
      <rect class="st1" x="398.9" y="220.4" width="10" height="5"/>
    </g>
    <g>
      <line class="st2" x1="403.9" y1="237.3" x2="403.9" y2="245.5"/>
      <rect class="st0" x="403.9" y="242.3" width="1" height="3.1"/>
      <rect class="st1" x="398.9" y="237.3" width="10" height="8.1"/>
    </g>
    <g>
      <line class="st2" x1="403.9" y1="252.2" x2="403.9" y2="252.2"/>
      <polygon class="st0" points="403.9 252.2 404.9 252.2 404.9 252.2 403.9 252.2"/>
      <rect class="st1" x="398.9" y="247.2" width="10" height="5"/>
    </g>
    <g>
      <line class="st2" x1="403.9" y1="261.7" x2="403.9" y2="293.1"/>
      <rect class="st0" x="403.9" y="266.7" width="1" height="26.5"/>
      <rect class="st1" x="398.9" y="261.7" width="10" height="31.5"/>
    </g>
    <g>
      <line class="st2" x1="403.9" y1="323.2" x2="403.9" y2="323.2"/>
      <polygon class="st0" points="403.9 323.2 404.9 323.2 404.9 323.2 403.9 323.2"/>
      <rect class="st1" x="398.9" y="318.2" width="10" height="5"/>
    </g>
    <g>
      <line class="st3" x1="495.1" y1="51.4" x2="495.1" y2="58"/>
      <rect class="st0" x="495.1" y="51.4" width="1" height="6.6"/>
      <g class="st9">
        <text class="st8" transform="translate(451.1 58.9)"><tspan x="0" y="0">Imports</tspan></text>
      </g>
      <rect class="st1" x="490.1" y="46.4" width="10" height="11.6"/>
    </g>
    <g>
      <line class="st3" x1="495.1" y1="95" x2="495.1" y2="155.8"/>
      <rect class="st0" x="495.1" y="100" width="1" height="55.7"/>
      <g class="st9">
        <text class="st8" transform="translate(491.1 94.2)"><tspan x="0" y="0">Ingots and semis</tspan></text>
      </g>
      <rect class="st1" x="490.1" y="95" width="10" height="60.7"/>
    </g>
    <g>
      <line class="st2" x1="495.1" y1="225.4" x2="495.1" y2="225.4"/>
      <polygon class="st0" points="495.1 225.4 496.1 225.4 496.1 225.4 495.1 225.4"/>
      <rect class="st1" x="490.1" y="220.4" width="10" height="5"/>
    </g>
    <g>
      <line class="st2" x1="495.1" y1="225.4" x2="495.1" y2="225.4"/>
      <polygon class="st0" points="495.1 225.4 496.1 225.4 496.1 225.4 495.1 225.4"/>
      <rect class="st1" x="490.1" y="220.4" width="10" height="5"/>
    </g>
    <g>
      <line class="st2" x1="495.1" y1="225.4" x2="495.1" y2="225.4"/>
      <polygon class="st0" points="495.1 225.4 496.1 225.4 496.1 225.4 495.1 225.4"/>
      <rect class="st1" x="490.1" y="220.4" width="10" height="5"/>
    </g>
    <g>
      <line class="st2" x1="495.1" y1="225.4" x2="495.1" y2="225.4"/>
      <polygon class="st0" points="495.1 225.4 496.1 225.4 496.1 225.4 495.1 225.4"/>
      <rect class="st1" x="490.1" y="220.4" width="10" height="5"/>
    </g>
    <g>
      <line class="st3" x1="495.1" y1="244.2" x2="495.1" y2="250.3"/>
      <rect class="st0" x="495.1" y="244.2" width="1" height="6.2"/>
      <g class="st9">
        <text class="st8" transform="translate(500.1 251.5)"><tspan x="0" y="0">Loss</tspan></text>
      </g>
      <rect class="st1" x="490.1" y="239.2" width="10" height="11.2"/>
    </g>
    <g>
      <line class="st2" x1="495.1" y1="261.7" x2="495.1" y2="293.1"/>
      <rect class="st0" x="495.1" y="266.7" width="1" height="26.5"/>
      <rect class="st1" x="490.1" y="261.7" width="10" height="31.5"/>
    </g>
    <g>
      <line class="st3" x1="586.4" y1="47.8" x2="586.4" y2="61.5"/>
      <rect class="st0" x="586.4" y="47.8" width="1" height="13.7"/>
      <g class="st9">
        <text class="st8" transform="translate(542.4 58.9)"><tspan x="0" y="0">Imports</tspan></text>
      </g>
      <rect class="st1" x="581.4" y="42.8" width="10" height="18.7"/>
    </g>
    <g>
      <line class="st2" x1="586.4" y1="100" x2="586.4" y2="100"/>
      <polygon class="st0" points="586.4 100 587.4 100 587.4 100 586.4 100"/>
      <rect class="st1" x="581.4" y="95" width="10" height="5"/>
    </g>
    <g>
      <line class="st3" x1="586.4" y1="100" x2="586.4" y2="132.2"/>
      <rect class="st0" x="586.4" y="100" width="1" height="32.2"/>
      <g class="st9">
        <text class="st8" transform="translate(591.4 120.3)"><tspan x="0" y="0">Long products</tspan></text>
      </g>
      <rect class="st1" x="581.4" y="95" width="10" height="37.2"/>
    </g>
    <g>
      <line class="st2" x1="586.4" y1="163.8" x2="586.4" y2="163.8"/>
      <polygon class="st0" points="586.4 163.8 587.4 163.8 587.4 163.8 586.4 163.8"/>
      <rect class="st1" x="581.4" y="158.8" width="10" height="5"/>
    </g>
    <g>
      <line class="st2" x1="586.4" y1="163.8" x2="586.4" y2="163.8"/>
      <polygon class="st0" points="586.4 163.8 587.4 163.8 587.4 163.8 586.4 163.8"/>
      <rect class="st1" x="581.4" y="158.8" width="10" height="5"/>
    </g>
    <g>
      <line class="st3" x1="586.4" y1="163.8" x2="586.4" y2="193.9"/>
      <rect class="st0" x="586.4" y="163.8" width="1" height="30.1"/>
      <g class="st9">
        <text class="st8" transform="translate(591.4 183)"><tspan x="0" y="0">Flat products</tspan></text>
      </g>
      <rect class="st1" x="581.4" y="158.8" width="10" height="35.1"/>
    </g>
    <g>
      <line class="st2" x1="586.4" y1="225.4" x2="586.4" y2="225.4"/>
      <polygon class="st0" points="586.4 225.4 587.4 225.4 587.4 225.4 586.4 225.4"/>
      <rect class="st1" x="581.4" y="220.4" width="10" height="5"/>
    </g>
    <g>
      <line class="st2" x1="586.4" y1="225.4" x2="586.4" y2="225.4"/>
      <polygon class="st0" points="586.4 225.4 587.4 225.4 587.4 225.4 586.4 225.4"/>
      <rect class="st1" x="581.4" y="220.4" width="10" height="5"/>
    </g>
    <g>
      <line class="st2" x1="586.4" y1="261.7" x2="586.4" y2="293.1"/>
      <rect class="st0" x="586.4" y="266.7" width="1" height="26.5"/>
      <rect class="st1" x="581.4" y="261.7" width="10" height="31.5"/>
    </g>
    <g>
      <line class="st2" x1="586.4" y1="323.2" x2="586.4" y2="323.2"/>
      <polygon class="st0" points="586.4 323.2 587.4 323.2 587.4 323.2 586.4 323.2"/>
      <rect class="st1" x="581.4" y="318.2" width="10" height="5"/>
    </g>
    <g>
      <line class="st3" x1="677.7" y1="95" x2="677.7" y2="129.2"/>
      <rect class="st0" x="677.7" y="100" width="1" height="29.2"/>
      <g class="st9">
        <text class="st8" transform="translate(673.7 94.2)"><tspan x="0" y="0">Construction</tspan></text>
      </g>
      <rect class="st1" x="672.7" y="95" width="10" height="34.2"/>
    </g>
    <g>
      <line class="st3" x1="677.7" y1="142.8" x2="677.7" y2="157.5"/>
      <rect class="st0" x="677.7" y="142.8" width="1" height="14.7"/>
      <g class="st9">
        <text class="st8" transform="translate(682.7 154.4)"><tspan x="0" y="0">Transport</tspan></text>
      </g>
      <rect class="st1" x="672.7" y="137.8" width="10" height="19.7"/>
    </g>
    <g>
      <line class="st3" x1="677.7" y1="171.1" x2="677.7" y2="183.9"/>
      <rect class="st0" x="677.7" y="171.1" width="1" height="12.8"/>
      <g class="st9">
        <text class="st8" transform="translate(682.7 181.7)"><tspan x="0" y="0">Machinery</tspan></text>
      </g>
      <rect class="st1" x="672.7" y="166.1" width="10" height="17.8"/>
    </g>
    <g>
      <line class="st2" x1="677.7" y1="197.5" x2="677.7" y2="197.5"/>
      <polygon class="st0" points="677.7 197.5 678.7 197.5 678.7 197.5 677.7 197.5"/>
      <rect class="st1" x="672.7" y="192.5" width="10" height="5"/>
    </g>
    <g>
      <line class="st3" x1="677.7" y1="197.5" x2="677.7" y2="211.8"/>
      <rect class="st0" x="677.7" y="197.5" width="1" height="14.4"/>
      <g class="st9">
        <text class="st8" transform="translate(682.7 208.9)"><tspan x="0" y="0">Other goods</tspan></text>
      </g>
      <rect class="st1" x="672.7" y="192.5" width="10" height="19.4"/>
    </g>
    <g>
      <line class="st2" x1="677.7" y1="225.4" x2="677.7" y2="225.4"/>
      <polygon class="st0" points="677.7 225.4 678.7 225.4 678.7 225.4 677.7 225.4"/>
      <rect class="st1" x="672.7" y="220.4" width="10" height="5"/>
    </g>
    <g>
      <line class="st2" x1="677.7" y1="225.4" x2="677.7" y2="225.4"/>
      <polygon class="st0" points="677.7 225.4 678.7 225.4 678.7 225.4 677.7 225.4"/>
      <rect class="st1" x="672.7" y="220.4" width="10" height="5"/>
    </g>
    <g>
      <line class="st2" x1="677.7" y1="264" x2="677.7" y2="290.8"/>
      <rect class="st0" x="677.7" y="269" width="1" height="21.8"/>
      <rect class="st1" x="672.7" y="264" width="10" height="26.8"/>
    </g>
    <g>
      <line class="st3" x1="677.7" y1="323.1" x2="677.7" y2="324.1"/>
      <rect class="st0" x="677.7" y="323.1" width="1" height="1"/>
      <g class="st9">
        <text class="st8" transform="translate(682.7 327.4)"><tspan x="0" y="0">Exports</tspan></text>
      </g>
      <rect class="st1" x="672.7" y="318.1" width="10" height="6"/>
    </g>
    <g>
      <line class="st2" x1="769" y1="100" x2="769" y2="100"/>
      <polygon class="st0" points="769 100 770 100 770 100 769 100"/>
      <rect class="st1" x="764" y="95" width="10" height="5"/>
    </g>
    <g>
      <line class="st2" x1="769" y1="100" x2="769" y2="100"/>
      <polygon class="st0" points="769 100 770 100 770 100 769 100"/>
      <rect class="st1" x="764" y="95" width="10" height="5"/>
    </g>
    <g>
      <line class="st3" x1="769" y1="100" x2="769" y2="160.8"/>
      <rect class="st0" x="769" y="100" width="1" height="60.8"/>
      <rect class="st1" x="764" y="95" width="10" height="65.8"/>
    </g>
    <g>
      <line class="st2" x1="769" y1="225.4" x2="769" y2="225.4"/>
      <polygon class="st0" points="769 225.4 770 225.4 770 225.4 769 225.4"/>
      <rect class="st1" x="764" y="220.4" width="10" height="5"/>
    </g>
    <g>
      <line class="st2" x1="769" y1="225.4" x2="769" y2="225.4"/>
      <polygon class="st0" points="769 225.4 770 225.4 770 225.4 769 225.4"/>
      <rect class="st1" x="764" y="220.4" width="10" height="5"/>
    </g>
    <g>
      <line class="st2" x1="769" y1="267" x2="769" y2="287.8"/>
      <rect class="st0" x="769" y="272" width="1" height="15.8"/>
      <rect class="st1" x="764" y="267" width="10" height="20.8"/>
    </g>
    <g>
      <line class="st3" x1="769" y1="321" x2="769" y2="325.4"/>
      <rect class="st0" x="769" y="321" width="1" height="4.3"/>
      <g class="st9">
        <text class="st8" transform="translate(774 327.4)"><tspan x="0" y="0">Exports</tspan></text>
      </g>
      <rect class="st1" x="764" y="316" width="10" height="9.3"/>
    </g>
  </g>
</svg>